<?xml version='1.0' encoding='ASCII' standalone='yes'?>
<svg xmlns="http://www.w3.org/2000/svg" width="41mm" height="41mm" version="1.1" viewBox="0 0 41 41" back_color="white" style="background-color: white;">
  <path d="M4,4H5V5H4zM5,4H6V5H5zM6,4H7V5H6zM7,4H8V5H7zM8,4H9V5H8zM9,4H10V5H9zM10,4H11V5H10zM12,4H13V5H12zM13,4H14V5H13zM15,4H16V5H15zM17,4H18V5H17zM19,4H20V5H19zM20,4H21V5H20zM21,4H22V5H21zM22,4H23V5H22zM23,4H24V5H23zM24,4H25V5H24zM25,4H26V5H25zM27,4H28V5H27zM30,4H31V5H30zM31,4H32V5H31zM32,4H33V5H32zM33,4H34V5H33zM34,4H35V5H34zM35,4H36V5H35zM36,4H37V5H36zM4,5H5V6H4zM10,5H11V6H10zM17,5H18V6H17zM21,5H22V6H21zM25,5H26V6H25zM30,5H31V6H30zM36,5H37V6H36zM4,6H5V7H4zM6,6H7V7H6zM7,6H8V7H7zM8,6H9V7H8zM10,6H11V7H10zM13,6H14V7H13zM14,6H15V7H14zM15,6H16V7H15zM18,6H19V7H18zM19,6H20V7H19zM20,6H21V7H20zM21,6H22V7H21zM22,6H23V7H22zM23,6H24V7H23zM24,6H25V7H24zM25,6H26V7H25zM26,6H27V7H26zM27,6H28V7H27zM30,6H31V7H30zM32,6H33V7H32zM33,6H34V7H33zM34,6H35V7H34zM36,6H37V7H36zM4,7H5V8H4zM6,7H7V8H6zM7,7H8V8H7zM8,7H9V8H8zM10,7H11V8H10zM18,7H19V8H18zM23,7H24V8H23zM24,7H25V8H24zM28,7H29V8H28zM30,7H31V8H30zM32,7H33V8H32zM33,7H34V8H33zM34,7H35V8H34zM36,7H37V8H36zM4,8H5V9H4zM6,8H7V9H6zM7,8H8V9H7zM8,8H9V9H8zM10,8H11V9H10zM12,8H13V9H12zM13,8H14V9H13zM14,8H15V9H14zM19,8H20V9H19zM22,8H23V9H22zM27,8H28V9H27zM30,8H31V9H30zM32,8H33V9H32zM33,8H34V9H33zM34,8H35V9H34zM36,8H37V9H36zM4,9H5V10H4zM10,9H11V10H10zM12,9H13V10H12zM17,9H18V10H17zM18,9H19V10H18zM19,9H20V10H19zM24,9H25V10H24zM25,9H26V10H25zM28,9H29V10H28zM30,9H31V10H30zM36,9H37V10H36zM4,10H5V11H4zM5,10H6V11H5zM6,10H7V11H6zM7,10H8V11H7zM8,10H9V11H8zM9,10H10V11H9zM10,10H11V11H10zM12,10H13V11H12zM14,10H15V11H14zM16,10H17V11H16zM18,10H19V11H18zM20,10H21V11H20zM22,10H23V11H22zM24,10H25V11H24zM26,10H27V11H26zM28,10H29V11H28zM30,10H31V11H30zM31,10H32V11H31zM32,10H33V11H32zM33,10H34V11H33zM34,10H35V11H34zM35,10H36V11H35zM36,10H37V11H36zM15,11H16V12H15zM17,11H18V12H17zM18,11H19V12H18zM25,11H26V12H25zM26,11H27V12H26zM27,11H28V12H27zM28,11H29V12H28zM5,12H6V13H5zM6,12H7V13H6zM7,12H8V13H7zM8,12H9V13H8zM9,12H10V13H9zM10,12H11V13H10zM11,12H12V13H11zM13,12H14V13H13zM14,12H15V13H14zM16,12H17V13H16zM17,12H18V13H17zM18,12H19V13H18zM20,12H21V13H20zM21,12H22V13H21zM26,12H27V13H26zM31,12H32V13H31zM32,12H33V13H32zM36,12H37V13H36zM4,13H5V14H4zM5,13H6V14H5zM6,13H7V14H6zM7,13H8V14H7zM8,13H9V14H8zM11,13H12V14H11zM14,13H15V14H14zM15,13H16V14H15zM19,13H20V14H19zM20,13H21V14H20zM23,13H24V14H23zM24,13H25V14H24zM27,13H28V14H27zM30,13H31V14H30zM31,13H32V14H31zM33,13H34V14H33zM34,13H35V14H34zM35,13H36V14H35zM36,13H37V14H36zM4,14H5V15H4zM8,14H9V15H8zM9,14H10V15H9zM10,14H11V15H10zM12,14H13V15H12zM17,14H18V15H17zM18,14H19V15H18zM22,14H23V15H22zM24,14H25V15H24zM26,14H27V15H26zM29,14H30V15H29zM30,14H31V15H30zM32,14H33V15H32zM34,14H35V15H34zM5,15H6V16H5zM14,15H15V16H14zM16,15H17V16H16zM17,15H18V16H17zM18,15H19V16H18zM24,15H25V16H24zM25,15H26V16H25zM26,15H27V16H26zM29,15H30V16H29zM30,15H31V16H30zM32,15H33V16H32zM33,15H34V16H33zM34,15H35V16H34zM36,15H37V16H36zM5,16H6V17H5zM6,16H7V17H6zM8,16H9V17H8zM9,16H10V17H9zM10,16H11V17H10zM12,16H13V17H12zM13,16H14V17H13zM14,16H15V17H14zM16,16H17V17H16zM17,16H18V17H17zM18,16H19V17H18zM19,16H20V17H19zM20,16H21V17H20zM22,16H23V17H22zM25,16H26V17H25zM27,16H28V17H27zM29,16H30V17H29zM31,16H32V17H31zM32,16H33V17H32zM33,16H34V17H33zM6,17H7V18H6zM8,17H9V18H8zM9,17H10V18H9zM12,17H13V18H12zM13,17H14V18H13zM18,17H19V18H18zM21,17H22V18H21zM24,17H25V18H24zM27,17H28V18H27zM28,17H29V18H28zM30,17H31V18H30zM31,17H32V18H31zM35,17H36V18H35zM36,17H37V18H36zM7,18H8V19H7zM8,18H9V19H8zM10,18H11V19H10zM12,18H13V19H12zM14,18H15V19H14zM16,18H17V19H16zM20,18H21V19H20zM21,18H22V19H21zM22,18H23V19H22zM23,18H24V19H23zM25,18H26V19H25zM26,18H27V19H26zM29,18H30V19H29zM30,18H31V19H30zM34,18H35V19H34zM35,18H36V19H35zM6,19H7V20H6zM9,19H10V20H9zM13,19H14V20H13zM14,19H15V20H14zM15,19H16V20H15zM17,19H18V20H17zM18,19H19V20H18zM19,19H20V20H19zM20,19H21V20H20zM22,19H23V20H22zM23,19H24V20H23zM24,19H25V20H24zM25,19H26V20H25zM27,19H28V20H27zM29,19H30V20H29zM30,19H31V20H30zM33,19H34V20H33zM34,19H35V20H34zM4,20H5V21H4zM6,20H7V21H6zM9,20H10V21H9zM10,20H11V21H10zM12,20H13V21H12zM15,20H16V21H15zM19,20H20V21H19zM21,20H22V21H21zM23,20H24V21H23zM24,20H25V21H24zM26,20H27V21H26zM27,20H28V21H27zM28,20H29V21H28zM29,20H30V21H29zM31,20H32V21H31zM32,20H33V21H32zM36,20H37V21H36zM4,21H5V22H4zM5,21H6V22H5zM7,21H8V22H7zM8,21H9V22H8zM9,21H10V22H9zM11,21H12V22H11zM18,21H19V22H18zM20,21H21V22H20zM21,21H22V22H21zM22,21H23V22H22zM23,21H24V22H23zM24,21H25V22H24zM27,21H28V22H27zM28,21H29V22H28zM29,21H30V22H29zM30,21H31V22H30zM31,21H32V22H31zM33,21H34V22H33zM34,21H35V22H34zM35,21H36V22H35zM36,21H37V22H36zM5,22H6V23H5zM7,22H8V23H7zM8,22H9V23H8zM9,22H10V23H9zM10,22H11V23H10zM13,22H14V23H13zM14,22H15V23H14zM17,22H18V23H17zM19,22H20V23H19zM20,22H21V23H20zM26,22H27V23H26zM31,22H32V23H31zM32,22H33V23H32zM34,22H35V23H34zM35,22H36V23H35zM4,23H5V24H4zM5,23H6V24H5zM7,23H8V24H7zM9,23H10V24H9zM12,23H13V24H12zM15,23H16V24H15zM18,23H19V24H18zM19,23H20V24H19zM20,23H21V24H20zM21,23H22V24H21zM23,23H24V24H23zM29,23H30V24H29zM31,23H32V24H31zM32,23H33V24H32zM33,23H34V24H33zM34,23H35V24H34zM35,23H36V24H35zM4,24H5V25H4zM6,24H7V25H6zM8,24H9V25H8zM9,24H10V25H9zM10,24H11V25H10zM14,24H15V25H14zM15,24H16V25H15zM16,24H17V25H16zM18,24H19V25H18zM19,24H20V25H19zM20,24H21V25H20zM21,24H22V25H21zM24,24H25V25H24zM25,24H26V25H25zM26,24H27V25H26zM27,24H28V25H27zM28,24H29V25H28zM31,24H32V25H31zM32,24H33V25H32zM33,24H34V25H33zM35,24H36V25H35zM36,24H37V25H36zM4,25H5V26H4zM8,25H9V26H8zM9,25H10V26H9zM11,25H12V26H11zM12,25H13V26H12zM16,25H17V26H16zM17,25H18V26H17zM18,25H19V26H18zM20,25H21V26H20zM21,25H22V26H21zM27,25H28V26H27zM28,25H29V26H28zM30,25H31V26H30zM34,25H35V26H34zM36,25H37V26H36zM4,26H5V27H4zM7,26H8V27H7zM8,26H9V27H8zM9,26H10V27H9zM10,26H11V27H10zM11,26H12V27H11zM13,26H14V27H13zM16,26H17V27H16zM18,26H19V27H18zM19,26H20V27H19zM20,26H21V27H20zM21,26H22V27H21zM22,26H23V27H22zM24,26H25V27H24zM25,26H26V27H25zM26,26H27V27H26zM28,26H29V27H28zM30,26H31V27H30zM31,26H32V27H31zM33,26H34V27H33zM34,26H35V27H34zM35,26H36V27H35zM4,27H5V28H4zM6,27H7V28H6zM8,27H9V28H8zM11,27H12V28H11zM15,27H16V28H15zM16,27H17V28H16zM17,27H18V28H17zM21,27H22V28H21zM22,27H23V28H22zM25,27H26V28H25zM26,27H27V28H26zM27,27H28V28H27zM34,27H35V28H34zM36,27H37V28H36zM4,28H5V29H4zM8,28H9V29H8zM10,28H11V29H10zM12,28H13V29H12zM13,28H14V29H13zM14,28H15V29H14zM18,28H19V29H18zM20,28H21V29H20zM21,28H22V29H21zM22,28H23V29H22zM24,28H25V29H24zM26,28H27V29H26zM28,28H29V29H28zM29,28H30V29H29zM30,28H31V29H30zM31,28H32V29H31zM32,28H33V29H32zM35,28H36V29H35zM12,29H13V30H12zM13,29H14V30H13zM14,29H15V30H14zM15,29H16V30H15zM17,29H18V30H17zM21,29H22V30H21zM22,29H23V30H22zM23,29H24V30H23zM24,29H25V30H24zM25,29H26V30H25zM28,29H29V30H28zM32,29H33V30H32zM34,29H35V30H34zM36,29H37V30H36zM4,30H5V31H4zM5,30H6V31H5zM6,30H7V31H6zM7,30H8V31H7zM8,30H9V31H8zM9,30H10V31H9zM10,30H11V31H10zM12,30H13V31H12zM13,30H14V31H13zM14,30H15V31H14zM15,30H16V31H15zM17,30H18V31H17zM19,30H20V31H19zM20,30H21V31H20zM22,30H23V31H22zM25,30H26V31H25zM27,30H28V31H27zM28,30H29V31H28zM30,30H31V31H30zM32,30H33V31H32zM34,30H35V31H34zM4,31H5V32H4zM10,31H11V32H10zM12,31H13V32H12zM13,31H14V32H13zM14,31H15V32H14zM23,31H24V32H23zM25,31H26V32H25zM26,31H27V32H26zM28,31H29V32H28zM32,31H33V32H32zM33,31H34V32H33zM34,31H35V32H34zM36,31H37V32H36zM4,32H5V33H4zM6,32H7V33H6zM7,32H8V33H7zM8,32H9V33H8zM10,32H11V33H10zM12,32H13V33H12zM13,32H14V33H13zM14,32H15V33H14zM17,32H18V33H17zM18,32H19V33H18zM19,32H20V33H19zM20,32H21V33H20zM25,32H26V33H25zM28,32H29V33H28zM29,32H30V33H29zM30,32H31V33H30zM31,32H32V33H31zM32,32H33V33H32zM33,32H34V33H33zM4,33H5V34H4zM6,33H7V34H6zM7,33H8V34H7zM8,33H9V34H8zM10,33H11V34H10zM12,33H13V34H12zM13,33H14V34H13zM15,33H16V34H15zM17,33H18V34H17zM19,33H20V34H19zM20,33H21V34H20zM22,33H23V34H22zM24,33H25V34H24zM25,33H26V34H25zM26,33H27V34H26zM29,33H30V34H29zM32,33H33V34H32zM33,33H34V34H33zM36,33H37V34H36zM4,34H5V35H4zM6,34H7V35H6zM7,34H8V35H7zM8,34H9V35H8zM10,34H11V35H10zM12,34H13V35H12zM13,34H14V35H13zM20,34H21V35H20zM22,34H23V35H22zM23,34H24V35H23zM25,34H26V35H25zM27,34H28V35H27zM30,34H31V35H30zM31,34H32V35H31zM4,35H5V36H4zM10,35H11V36H10zM12,35H13V36H12zM13,35H14V36H13zM15,35H16V36H15zM21,35H22V36H21zM23,35H24V36H23zM24,35H25V36H24zM25,35H26V36H25zM26,35H27V36H26zM27,35H28V36H27zM29,35H30V36H29zM30,35H31V36H30zM32,35H33V36H32zM33,35H34V36H33zM34,35H35V36H34zM4,36H5V37H4zM5,36H6V37H5zM6,36H7V37H6zM7,36H8V37H7zM8,36H9V37H8zM9,36H10V37H9zM10,36H11V37H10zM17,36H18V37H17zM18,36H19V37H18zM20,36H21V37H20zM21,36H22V37H21zM22,36H23V37H22zM23,36H24V37H23zM26,36H27V37H26zM27,36H28V37H27zM28,36H29V37H28zM29,36H30V37H29zM30,36H31V37H30zM31,36H32V37H31zM35,36H36V37H35z" id="qr-path" fill="#000000" fill-opacity="1" fill-rule="nonzero" stroke="none"/>
  <g transform="translate(15.375, 15.375) scale(0.25 0.25) ">
    <svg viewBox="0 0 100 100">
  <circle cx="50" cy="50" r="50" fill="white"/>
</svg>
    <g transform="translate(5.125, 5.125) scale(0.75 0.75) ">
      <svg viewBox="0 0 512 512">
  
  <path d="M512 240c0 114.9-114.6 208-256 208-37.1 0-72.3-6.4-104.1-17.9-11.9 8.7-31.3 20.6-54.3 30.6C73.6 471.1 44.7 480 16 480c-6.5 0-12.3-3.9-14.8-9.9s-1.1-12.8 3.4-17.4l.3-.3c.3-.3.7-.7 1.3-1.4 1.1-1.2 2.8-3.1 4.9-5.7 4.1-5 9.6-12.4 15.2-21.6 10-16.6 19.5-38.4 21.4-62.9C17.7 326.8 0 285.1 0 240 0 125.1 114.6 32 256 32s256 93.1 256 208z" fill="#808080"/>
</svg>
    </g>
  </g>
</svg>
