<svg xmlns="http://www.w3.org/2000/svg" width="800" height="560" viewBox="0 0 211.667 148.167"><path d="M0 0h211.667v147.803H0z"/><path d="M0 50.27v10.584h211.667V50.271Z"/><path d="M38.664 13.23 23.771 35.387l-11.782 17.53H7.896v7.937H0v87.313h211.667V60.854h-8.134v-7.871h-3.41l-11.782-17.529-14.894-22.159-14.893 22.16-11.782 17.528h-4.093v7.871h-73.93v-7.937H65.34L53.558 35.388Z"/><path d="m114.91 50.767-1.18 2.15-3.91 7.11h15.635l-3.909-7.11-1.182-2.15zm-26.458-.497-1.181 2.15-3.908 7.111h15.633l-3.908-7.11-1.182-2.15z"/><g transform="translate(-452.48)"><circle cx="490.802" cy="35.719" r="3.969"/><path d="M477.573 71.438a7.937 2.646 0 0 0-7.938 2.645v18.521h15.875v-18.52a7.937 2.646 0 0 0-7.937-2.647zm26.458 0a7.937 2.646 0 0 0-7.937 2.645v18.521h15.875v-18.52a7.937 2.646 0 0 0-7.938-2.646zm27.12 0a5.953 2.646 0 0 0-5.953 2.645v18.521h11.906v-18.52a5.953 2.646 0 0 0-5.953-2.646zm-40.207-24.323a3.827 1.7 0 0 0-3.827 1.7v11.907h7.654V48.816a3.827 1.7 0 0 0-3.827-1.701zm13.229.265a3.827 1.7 0 0 0-3.827 1.7v11.906H508V49.08a3.827 1.7 0 0 0-3.827-1.7zm-26.742 0a3.827 1.7 0 0 0-3.827 1.7v11.906h7.654V49.08a3.827 1.7 0 0 0-3.827-1.7zm53.72 62.422a5.953 2.646 0 0 0-5.953 2.646v18.52h11.906v-18.52a5.953 2.646 0 0 0-5.953-2.646zm26.459-38.364a5.953 2.646 0 0 0-5.954 2.645v18.521h11.907v-18.52a5.953 2.646 0 0 0-5.954-2.646zm25.135 0a5.953 2.646 0 0 0-5.953 2.645v18.521h11.906v-18.52a5.953 2.646 0 0 0-5.953-2.646zm0 38.364a5.953 2.646 0 0 0-5.953 2.646v18.52h11.906v-18.52a5.953 2.646 0 0 0-5.953-2.646zm-105.172 0a7.937 2.646 0 0 0-7.938 2.646v18.52h15.875v-18.52a7.937 2.646 0 0 0-7.937-2.646zm26.458 0a7.937 2.646 0 0 0-7.937 2.646v18.52h15.875v-18.52a7.937 2.646 0 0 0-7.938-2.646zm107.157-38.364a7.937 2.646 0 0 0-7.938 2.645v18.521h15.875v-18.52a7.937 2.646 0 0 0-7.938-2.646zm0 37.042a7.937 2.646 0 0 0-7.938 2.645v18.52h15.875v-18.52a7.937 2.646 0 0 0-7.938-2.646zm27.781-37.043a7.937 2.646 0 0 0-7.938 2.646v18.521h15.875v-18.52a7.937 2.646 0 0 0-7.937-2.647zm0 38.365a7.937 2.646 0 0 0-7.938 2.646v18.52h15.875v-18.52a7.937 2.646 0 0 0-7.937-2.646zm-13.088-62.687a3.827 1.7 0 0 0-3.827 1.7v11.907h7.654V48.816a3.827 1.7 0 0 0-3.827-1.701zm13.229.265a3.827 1.7 0 0 0-3.827 1.7v11.906h7.655V49.08a3.827 1.7 0 0 0-3.828-1.7z"/><circle cx="625.74" cy="35.719" r="3.969"/><path d="M612.652 47.115a3.827 1.7 0 0 0-3.827 1.7v11.907h7.654V48.816a3.827 1.7 0 0 0-3.827-1.701z"/></g><path d="M105.858 109.802a5.953 2.646 0 0 0-5.953 2.646v6.614h11.906v-6.614a5.953 2.646 0 0 0-5.953-2.646zm-6.086 11.906h11.705v26.458H99.772z"/></svg>