<svg width="45mm" height="45mm" version="1.1" viewBox="0 0 45 45" back_color="white" xmlns="http://www.w3.org/2000/svg" style="background-color: white;"><path d="M4,4H5V5H4zM5,4H6V5H5zM6,4H7V5H6zM7,4H8V5H7zM8,4H9V5H8zM9,4H10V5H9zM10,4H11V5H10zM15,4H16V5H15zM16,4H17V5H16zM19,4H20V5H19zM21,4H22V5H21zM22,4H23V5H22zM23,4H24V5H23zM24,4H25V5H24zM25,4H26V5H25zM26,4H27V5H26zM27,4H28V5H27zM28,4H29V5H28zM29,4H30V5H29zM30,4H31V5H30zM32,4H33V5H32zM34,4H35V5H34zM35,4H36V5H35zM36,4H37V5H36zM37,4H38V5H37zM38,4H39V5H38zM39,4H40V5H39zM40,4H41V5H40zM4,5H5V6H4zM10,5H11V6H10zM14,5H15V6H14zM15,5H16V6H15zM17,5H18V6H17zM18,5H19V6H18zM19,5H20V6H19zM21,5H22V6H21zM22,5H23V6H22zM30,5H31V6H30zM31,5H32V6H31zM32,5H33V6H32zM34,5H35V6H34zM40,5H41V6H40zM4,6H5V7H4zM6,6H7V7H6zM7,6H8V7H7zM8,6H9V7H8zM10,6H11V7H10zM12,6H13V7H12zM17,6H18V7H17zM18,6H19V7H18zM23,6H24V7H23zM24,6H25V7H24zM25,6H26V7H25zM27,6H28V7H27zM28,6H29V7H28zM30,6H31V7H30zM31,6H32V7H31zM34,6H35V7H34zM36,6H37V7H36zM37,6H38V7H37zM38,6H39V7H38zM40,6H41V7H40zM4,7H5V8H4zM6,7H7V8H6zM7,7H8V8H7zM8,7H9V8H8zM10,7H11V8H10zM12,7H13V8H12zM13,7H14V8H13zM14,7H15V8H14zM16,7H17V8H16zM17,7H18V8H17zM18,7H19V8H18zM20,7H21V8H20zM21,7H22V8H21zM23,7H24V8H23zM29,7H30V8H29zM30,7H31V8H30zM31,7H32V8H31zM34,7H35V8H34zM36,7H37V8H36zM37,7H38V8H37zM38,7H39V8H38zM40,7H41V8H40zM4,8H5V9H4zM6,8H7V9H6zM7,8H8V9H7zM8,8H9V9H8zM10,8H11V9H10zM12,8H13V9H12zM14,8H15V9H14zM18,8H19V9H18zM19,8H20V9H19zM23,8H24V9H23zM24,8H25V9H24zM26,8H27V9H26zM27,8H28V9H27zM32,8H33V9H32zM34,8H35V9H34zM36,8H37V9H36zM37,8H38V9H37zM38,8H39V9H38zM40,8H41V9H40zM4,9H5V10H4zM10,9H11V10H10zM12,9H13V10H12zM13,9H14V10H13zM15,9H16V10H15zM19,9H20V10H19zM20,9H21V10H20zM21,9H22V10H21zM24,9H25V10H24zM25,9H26V10H25zM31,9H32V10H31zM34,9H35V10H34zM40,9H41V10H40zM4,10H5V11H4zM5,10H6V11H5zM6,10H7V11H6zM7,10H8V11H7zM8,10H9V11H8zM9,10H10V11H9zM10,10H11V11H10zM12,10H13V11H12zM14,10H15V11H14zM16,10H17V11H16zM18,10H19V11H18zM20,10H21V11H20zM22,10H23V11H22zM24,10H25V11H24zM26,10H27V11H26zM28,10H29V11H28zM30,10H31V11H30zM32,10H33V11H32zM34,10H35V11H34zM35,10H36V11H35zM36,10H37V11H36zM37,10H38V11H37zM38,10H39V11H38zM39,10H40V11H39zM40,10H41V11H40zM12,11H13V12H12zM13,11H14V12H13zM14,11H15V12H14zM15,11H16V12H15zM24,11H25V12H24zM25,11H26V12H25zM31,11H32V12H31zM32,11H33V12H32zM4,12H5V13H4zM6,12H7V13H6zM7,12H8V13H7zM8,12H9V13H8zM9,12H10V13H9zM10,12H11V13H10zM13,12H14V13H13zM16,12H17V13H16zM18,12H19V13H18zM19,12H20V13H19zM21,12H22V13H21zM22,12H23V13H22zM27,12H28V13H27zM29,12H30V13H29zM30,12H31V13H30zM34,12H35V13H34zM35,12H36V13H35zM36,12H37V13H36zM37,12H38V13H37zM38,12H39V13H38zM4,13H5V14H4zM6,13H7V14H6zM7,13H8V14H7zM11,13H12V14H11zM14,13H15V14H14zM15,13H16V14H15zM16,13H17V14H16zM19,13H20V14H19zM20,13H21V14H20zM23,13H24V14H23zM24,13H25V14H24zM27,13H28V14H27zM32,13H33V14H32zM35,13H36V14H35zM37,13H38V14H37zM39,13H40V14H39zM4,14H5V15H4zM5,14H6V15H5zM7,14H8V15H7zM8,14H9V15H8zM9,14H10V15H9zM10,14H11V15H10zM11,14H12V15H11zM13,14H14V15H13zM16,14H17V15H16zM17,14H18V15H17zM24,14H25V15H24zM25,14H26V15H25zM31,14H32V15H31zM32,14H33V15H32zM35,14H36V15H35zM36,14H37V15H36zM37,14H38V15H37zM38,14H39V15H38zM39,14H40V15H39zM40,14H41V15H40zM8,15H9V16H8zM11,15H12V16H11zM18,15H19V16H18zM20,15H21V16H20zM22,15H23V16H22zM25,15H26V16H25zM30,15H31V16H30zM34,15H35V16H34zM35,15H36V16H35zM36,15H37V16H36zM40,15H41V16H40zM4,16H5V17H4zM7,16H8V17H7zM10,16H11V17H10zM14,16H15V17H14zM17,16H18V17H17zM18,16H19V17H18zM20,16H21V17H20zM21,16H22V17H21zM23,16H24V17H23zM26,16H27V17H26zM28,16H29V17H28zM29,16H30V17H29zM30,16H31V17H30zM31,16H32V17H31zM33,16H34V17H33zM34,16H35V17H34zM35,16H36V17H35zM36,16H37V17H36zM37,16H38V17H37zM38,16H39V17H38zM39,16H40V17H39zM40,16H41V17H40zM4,17H5V18H4zM8,17H9V18H8zM12,17H13V18H12zM13,17H14V18H13zM14,17H15V18H14zM17,17H18V18H17zM18,17H19V18H18zM20,17H21V18H20zM22,17H23V18H22zM23,17H24V18H23zM24,17H25V18H24zM27,17H28V18H27zM28,17H29V18H28zM32,17H33V18H32zM35,17H36V18H35zM39,17H40V18H39zM6,18H7V19H6zM9,18H10V19H9zM10,18H11V19H10zM11,18H12V19H11zM16,18H17V19H16zM19,18H20V19H19zM20,18H21V19H20zM21,18H22V19H21zM22,18H23V19H22zM26,18H27V19H26zM28,18H29V19H28zM30,18H31V19H30zM31,18H32V19H31zM32,18H33V19H32zM33,18H34V19H33zM35,18H36V19H35zM36,18H37V19H36zM37,18H38V19H37zM39,18H40V19H39zM40,18H41V19H40zM4,19H5V20H4zM5,19H6V20H5zM6,19H7V20H6zM9,19H10V20H9zM11,19H12V20H11zM13,19H14V20H13zM16,19H17V20H16zM18,19H19V20H18zM19,19H20V20H19zM20,19H21V20H20zM23,19H24V20H23zM25,19H26V20H25zM26,19H27V20H26zM27,19H28V20H27zM28,19H29V20H28zM30,19H31V20H30zM31,19H32V20H31zM34,19H35V20H34zM35,19H36V20H35zM36,19H37V20H36zM39,19H40V20H39zM6,20H7V21H6zM7,20H8V21H7zM8,20H9V21H8zM9,20H10V21H9zM10,20H11V21H10zM12,20H13V21H12zM13,20H14V21H13zM14,20H15V21H14zM15,20H16V21H15zM18,20H19V21H18zM19,20H20V21H19zM20,20H21V21H20zM21,20H22V21H21zM22,20H23V21H22zM23,20H24V21H23zM26,20H27V21H26zM28,20H29V21H28zM29,20H30V21H29zM30,20H31V21H30zM33,20H34V21H33zM34,20H35V21H34zM36,20H37V21H36zM38,20H39V21H38zM39,20H40V21H39zM4,21H5V22H4zM7,21H8V22H7zM11,21H12V22H11zM12,21H13V22H12zM17,21H18V22H17zM18,21H19V22H18zM19,21H20V22H19zM22,21H23V22H22zM23,21H24V22H23zM24,21H25V22H24zM25,21H26V22H25zM26,21H27V22H26zM27,21H28V22H27zM30,21H31V22H30zM32,21H33V22H32zM39,21H40V22H39zM4,22H5V23H4zM5,22H6V23H5zM8,22H9V23H8zM9,22H10V23H9zM10,22H11V23H10zM16,22H17V23H16zM18,22H19V23H18zM19,22H20V23H19zM20,22H21V23H20zM25,22H26V23H25zM28,22H29V23H28zM29,22H30V23H29zM31,22H32V23H31zM32,22H33V23H32zM33,22H34V23H33zM38,22H39V23H38zM39,22H40V23H39zM40,22H41V23H40zM4,23H5V24H4zM7,23H8V24H7zM9,23H10V24H9zM13,23H14V24H13zM15,23H16V24H15zM17,23H18V24H17zM18,23H19V24H18zM19,23H20V24H19zM24,23H25V24H24zM25,23H26V24H25zM26,23H27V24H26zM27,23H28V24H27zM35,23H36V24H35zM37,23H38V24H37zM40,23H41V24H40zM4,24H5V25H4zM5,24H6V25H5zM7,24H8V25H7zM8,24H9V25H8zM9,24H10V25H9zM10,24H11V25H10zM12,24H13V25H12zM14,24H15V25H14zM16,24H17V25H16zM17,24H18V25H17zM18,24H19V25H18zM19,24H20V25H19zM21,24H22V25H21zM27,24H28V25H27zM29,24H30V25H29zM30,24H31V25H30zM31,24H32V25H31zM34,24H35V25H34zM36,24H37V25H36zM37,24H38V25H37zM38,24H39V25H38zM4,25H5V26H4zM11,25H12V26H11zM12,25H13V26H12zM14,25H15V26H14zM16,25H17V26H16zM17,25H18V26H17zM18,25H19V26H18zM20,25H21V26H20zM21,25H22V26H21zM22,25H23V26H22zM23,25H24V26H23zM24,25H25V26H24zM25,25H26V26H25zM27,25H28V26H27zM30,25H31V26H30zM32,25H33V26H32zM37,25H38V26H37zM4,26H5V27H4zM6,26H7V27H6zM7,26H8V27H7zM9,26H10V27H9zM10,26H11V27H10zM12,26H13V27H12zM15,26H16V27H15zM17,26H18V27H17zM18,26H19V27H18zM19,26H20V27H19zM21,26H22V27H21zM24,26H25V27H24zM25,26H26V27H25zM29,26H30V27H29zM31,26H32V27H31zM32,26H33V27H32zM34,26H35V27H34zM35,26H36V27H35zM36,26H37V27H36zM37,26H38V27H37zM39,26H40V27H39zM40,26H41V27H40zM4,27H5V28H4zM9,27H10V28H9zM11,27H12V28H11zM12,27H13V28H12zM13,27H14V28H13zM14,27H15V28H14zM15,27H16V28H15zM17,27H18V28H17zM19,27H20V28H19zM23,27H24V28H23zM24,27H25V28H24zM25,27H26V28H25zM30,27H31V28H30zM32,27H33V28H32zM33,27H34V28H33zM34,27H35V28H34zM35,27H36V28H35zM36,27H37V28H36zM5,28H6V29H5zM6,28H7V29H6zM10,28H11V29H10zM14,28H15V29H14zM18,28H19V29H18zM22,28H23V29H22zM23,28H24V29H23zM24,28H25V29H24zM26,28H27V29H26zM28,28H29V29H28zM29,28H30V29H29zM31,28H32V29H31zM32,28H33V29H32zM33,28H34V29H33zM34,28H35V29H34zM35,28H36V29H35zM36,28H37V29H36zM38,28H39V29H38zM39,28H40V29H39zM4,29H5V30H4zM5,29H6V30H5zM8,29H9V30H8zM9,29H10V30H9zM11,29H12V30H11zM12,29H13V30H12zM14,29H15V30H14zM15,29H16V30H15zM17,29H18V30H17zM19,29H20V30H19zM20,29H21V30H20zM21,29H22V30H21zM22,29H23V30H22zM23,29H24V30H23zM24,29H25V30H24zM27,29H28V30H27zM32,29H33V30H32zM35,29H36V30H35zM38,29H39V30H38zM4,30H5V31H4zM6,30H7V31H6zM7,30H8V31H7zM9,30H10V31H9zM10,30H11V31H10zM12,30H13V31H12zM13,30H14V31H13zM14,30H15V31H14zM15,30H16V31H15zM17,30H18V31H17zM18,30H19V31H18zM26,30H27V31H26zM29,30H30V31H29zM31,30H32V31H31zM33,30H34V31H33zM36,30H37V31H36zM38,30H39V31H38zM39,30H40V31H39zM40,30H41V31H40zM4,31H5V32H4zM8,31H9V32H8zM9,31H10V32H9zM12,31H13V32H12zM13,31H14V32H13zM15,31H16V32H15zM18,31H19V32H18zM20,31H21V32H20zM23,31H24V32H23zM24,31H25V32H24zM25,31H26V32H25zM31,31H32V32H31zM32,31H33V32H32zM33,31H34V32H33zM34,31H35V32H34zM39,31H40V32H39zM4,32H5V33H4zM8,32H9V33H8zM10,32H11V33H10zM11,32H12V33H11zM14,32H15V33H14zM16,32H17V33H16zM21,32H22V33H21zM23,32H24V33H23zM26,32H27V33H26zM28,32H29V33H28zM29,32H30V33H29zM30,32H31V33H30zM31,32H32V33H31zM32,32H33V33H32zM33,32H34V33H33zM34,32H35V33H34zM35,32H36V33H35zM36,32H37V33H36zM37,32H38V33H37zM38,32H39V33H38zM39,32H40V33H39zM12,33H13V34H12zM17,33H18V34H17zM20,33H21V34H20zM21,33H22V34H21zM22,33H23V34H22zM23,33H24V34H23zM24,33H25V34H24zM25,33H26V34H25zM26,33H27V34H26zM27,33H28V34H27zM29,33H30V34H29zM30,33H31V34H30zM32,33H33V34H32zM36,33H37V34H36zM37,33H38V34H37zM4,34H5V35H4zM5,34H6V35H5zM6,34H7V35H6zM7,34H8V35H7zM8,34H9V35H8zM9,34H10V35H9zM10,34H11V35H10zM14,34H15V35H14zM15,34H16V35H15zM16,34H17V35H16zM17,34H18V35H17zM19,34H20V35H19zM20,34H21V35H20zM21,34H22V35H21zM25,34H26V35H25zM28,34H29V35H28zM29,34H30V35H29zM30,34H31V35H30zM32,34H33V35H32zM34,34H35V35H34zM36,34H37V35H36zM38,34H39V35H38zM40,34H41V35H40zM4,35H5V36H4zM10,35H11V36H10zM12,35H13V36H12zM13,35H14V36H13zM16,35H17V36H16zM21,35H22V36H21zM22,35H23V36H22zM23,35H24V36H23zM25,35H26V36H25zM26,35H27V36H26zM27,35H28V36H27zM30,35H31V36H30zM32,35H33V36H32zM36,35H37V36H36zM37,35H38V36H37zM4,36H5V37H4zM6,36H7V37H6zM7,36H8V37H7zM8,36H9V37H8zM10,36H11V37H10zM12,36H13V37H12zM17,36H18V37H17zM19,36H20V37H19zM20,36H21V37H20zM26,36H27V37H26zM27,36H28V37H27zM29,36H30V37H29zM30,36H31V37H30zM31,36H32V37H31zM32,36H33V37H32zM33,36H34V37H33zM34,36H35V37H34zM35,36H36V37H35zM36,36H37V37H36zM38,36H39V37H38zM40,36H41V37H40zM4,37H5V38H4zM6,37H7V38H6zM7,37H8V38H7zM8,37H9V38H8zM10,37H11V38H10zM12,37H13V38H12zM13,37H14V38H13zM16,37H17V38H16zM17,37H18V38H17zM19,37H20V38H19zM22,37H23V38H22zM23,37H24V38H23zM24,37H25V38H24zM25,37H26V38H25zM27,37H28V38H27zM34,37H35V38H34zM36,37H37V38H36zM37,37H38V38H37zM40,37H41V38H40zM4,38H5V39H4zM6,38H7V39H6zM7,38H8V39H7zM8,38H9V39H8zM10,38H11V39H10zM12,38H13V39H12zM13,38H14V39H13zM16,38H17V39H16zM17,38H18V39H17zM19,38H20V39H19zM20,38H21V39H20zM22,38H23V39H22zM24,38H25V39H24zM25,38H26V39H25zM28,38H29V39H28zM30,38H31V39H30zM32,38H33V39H32zM39,38H40V39H39zM40,38H41V39H40zM4,39H5V40H4zM10,39H11V40H10zM18,39H19V40H18zM19,39H20V40H19zM25,39H26V40H25zM30,39H31V40H30zM31,39H32V40H31zM32,39H33V40H32zM33,39H34V40H33zM36,39H37V40H36zM40,39H41V40H40zM4,40H5V41H4zM5,40H6V41H5zM6,40H7V41H6zM7,40H8V41H7zM8,40H9V41H8zM9,40H10V41H9zM10,40H11V41H10zM12,40H13V41H12zM14,40H15V41H14zM15,40H16V41H15zM16,40H17V41H16zM19,40H20V41H19zM21,40H22V41H21zM23,40H24V41H23zM24,40H25V41H24zM26,40H27V41H26zM28,40H29V41H28zM29,40H30V41H29zM30,40H31V41H30zM36,40H37V41H36zM38,40H39V41H38zM39,40H40V41H39zM40,40H41V41H40z" id="qr-path" fill="#000000" fill-opacity="1" fill-rule="nonzero" stroke="none"/></svg>