<svg width="41mm" height="41mm" version="1.1" viewBox="0 0 41 41" back_color="white" xmlns="http://www.w3.org/2000/svg" style="background-color: white;"><path d="M4,4H5V5H4zM5,4H6V5H5zM6,4H7V5H6zM7,4H8V5H7zM8,4H9V5H8zM9,4H10V5H9zM10,4H11V5H10zM12,4H13V5H12zM13,4H14V5H13zM16,4H17V5H16zM17,4H18V5H17zM18,4H19V5H18zM20,4H21V5H20zM22,4H23V5H22zM23,4H24V5H23zM24,4H25V5H24zM25,4H26V5H25zM27,4H28V5H27zM30,4H31V5H30zM31,4H32V5H31zM32,4H33V5H32zM33,4H34V5H33zM34,4H35V5H34zM35,4H36V5H35zM36,4H37V5H36zM4,5H5V6H4zM10,5H11V6H10zM12,5H13V6H12zM13,5H14V6H13zM14,5H15V6H14zM15,5H16V6H15zM16,5H17V6H16zM17,5H18V6H17zM24,5H25V6H24zM25,5H26V6H25zM27,5H28V6H27zM28,5H29V6H28zM30,5H31V6H30zM36,5H37V6H36zM4,6H5V7H4zM6,6H7V7H6zM7,6H8V7H7zM8,6H9V7H8zM10,6H11V7H10zM14,6H15V7H14zM15,6H16V7H15zM20,6H21V7H20zM24,6H25V7H24zM26,6H27V7H26zM27,6H28V7H27zM28,6H29V7H28zM30,6H31V7H30zM32,6H33V7H32zM33,6H34V7H33zM34,6H35V7H34zM36,6H37V7H36zM4,7H5V8H4zM6,7H7V8H6zM7,7H8V8H7zM8,7H9V8H8zM10,7H11V8H10zM12,7H13V8H12zM15,7H16V8H15zM18,7H19V8H18zM19,7H20V8H19zM20,7H21V8H20zM21,7H22V8H21zM22,7H23V8H22zM23,7H24V8H23zM24,7H25V8H24zM26,7H27V8H26zM30,7H31V8H30zM32,7H33V8H32zM33,7H34V8H33zM34,7H35V8H34zM36,7H37V8H36zM4,8H5V9H4zM6,8H7V9H6zM7,8H8V9H7zM8,8H9V9H8zM10,8H11V9H10zM13,8H14V9H13zM16,8H17V9H16zM18,8H19V9H18zM21,8H22V9H21zM23,8H24V9H23zM24,8H25V9H24zM25,8H26V9H25zM28,8H29V9H28zM30,8H31V9H30zM32,8H33V9H32zM33,8H34V9H33zM34,8H35V9H34zM36,8H37V9H36zM4,9H5V10H4zM10,9H11V10H10zM13,9H14V10H13zM14,9H15V10H14zM22,9H23V10H22zM23,9H24V10H23zM24,9H25V10H24zM26,9H27V10H26zM28,9H29V10H28zM30,9H31V10H30zM36,9H37V10H36zM4,10H5V11H4zM5,10H6V11H5zM6,10H7V11H6zM7,10H8V11H7zM8,10H9V11H8zM9,10H10V11H9zM10,10H11V11H10zM12,10H13V11H12zM14,10H15V11H14zM16,10H17V11H16zM18,10H19V11H18zM20,10H21V11H20zM22,10H23V11H22zM24,10H25V11H24zM26,10H27V11H26zM28,10H29V11H28zM30,10H31V11H30zM31,10H32V11H31zM32,10H33V11H32zM33,10H34V11H33zM34,10H35V11H34zM35,10H36V11H35zM36,10H37V11H36zM12,11H13V12H12zM13,11H14V12H13zM14,11H15V12H14zM15,11H16V12H15zM18,11H19V12H18zM21,11H22V12H21zM22,11H23V12H22zM23,11H24V12H23zM26,11H27V12H26zM28,11H29V12H28zM4,12H5V13H4zM6,12H7V13H6zM7,12H8V13H7zM9,12H10V13H9zM10,12H11V13H10zM11,12H12V13H11zM13,12H14V13H13zM16,12H17V13H16zM18,12H19V13H18zM21,12H22V13H21zM22,12H23V13H22zM25,12H26V13H25zM27,12H28V13H27zM28,12H29V13H28zM30,12H31V13H30zM33,12H34V13H33zM35,12H36V13H35zM36,12H37V13H36zM4,13H5V14H4zM8,13H9V14H8zM12,13H13V14H12zM13,13H14V14H13zM15,13H16V14H15zM20,13H21V14H20zM21,13H22V14H21zM23,13H24V14H23zM24,13H25V14H24zM25,13H26V14H25zM27,13H28V14H27zM30,13H31V14H30zM31,13H32V14H31zM33,13H34V14H33zM34,13H35V14H34zM36,13H37V14H36zM4,14H5V15H4zM7,14H8V15H7zM8,14H9V15H8zM10,14H11V15H10zM13,14H14V15H13zM15,14H16V15H15zM16,14H17V15H16zM18,14H19V15H18zM22,14H23V15H22zM25,14H26V15H25zM26,14H27V15H26zM27,14H28V15H27zM28,14H29V15H28zM30,14H31V15H30zM31,14H32V15H31zM32,14H33V15H32zM33,14H34V15H33zM35,14H36V15H35zM36,14H37V15H36zM4,15H5V16H4zM6,15H7V16H6zM7,15H8V16H7zM9,15H10V16H9zM12,15H13V16H12zM15,15H16V16H15zM17,15H18V16H17zM18,15H19V16H18zM19,15H20V16H19zM22,15H23V16H22zM23,15H24V16H23zM24,15H25V16H24zM28,15H29V16H28zM30,15H31V16H30zM31,15H32V16H31zM33,15H34V16H33zM7,16H8V17H7zM10,16H11V17H10zM12,16H13V17H12zM14,16H15V17H14zM21,16H22V17H21zM22,16H23V17H22zM27,16H28V17H27zM28,16H29V17H28zM29,16H30V17H29zM31,16H32V17H31zM32,16H33V17H32zM33,16H34V17H33zM35,16H36V17H35zM4,17H5V18H4zM6,17H7V18H6zM8,17H9V18H8zM9,17H10V18H9zM11,17H12V18H11zM13,17H14V18H13zM15,17H16V18H15zM17,17H18V18H17zM20,17H21V18H20zM21,17H22V18H21zM22,17H23V18H22zM23,17H24V18H23zM24,17H25V18H24zM25,17H26V18H25zM28,17H29V18H28zM31,17H32V18H31zM33,17H34V18H33zM34,17H35V18H34zM35,17H36V18H35zM6,18H7V19H6zM7,18H8V19H7zM10,18H11V19H10zM11,18H12V19H11zM13,18H14V19H13zM15,18H16V19H15zM18,18H19V19H18zM19,18H20V19H19zM20,18H21V19H20zM21,18H22V19H21zM23,18H24V19H23zM30,18H31V19H30zM31,18H32V19H31zM32,18H33V19H32zM33,18H34V19H33zM34,18H35V19H34zM5,19H6V20H5zM9,19H10V20H9zM12,19H13V20H12zM14,19H15V20H14zM16,19H17V20H16zM17,19H18V20H17zM20,19H21V20H20zM22,19H23V20H22zM24,19H25V20H24zM25,19H26V20H25zM27,19H28V20H27zM29,19H30V20H29zM30,19H31V20H30zM31,19H32V20H31zM33,19H34V20H33zM34,19H35V20H34zM4,20H5V21H4zM5,20H6V21H5zM10,20H11V21H10zM14,20H15V21H14zM16,20H17V21H16zM17,20H18V21H17zM19,20H20V21H19zM25,20H26V21H25zM26,20H27V21H26zM29,20H30V21H29zM30,20H31V21H30zM32,20H33V21H32zM34,20H35V21H34zM9,21H10V22H9zM17,21H18V22H17zM18,21H19V22H18zM19,21H20V22H19zM20,21H21V22H20zM24,21H25V22H24zM25,21H26V22H25zM26,21H27V22H26zM27,21H28V22H27zM30,21H31V22H30zM32,21H33V22H32zM33,21H34V22H33zM35,21H36V22H35zM36,21H37V22H36zM4,22H5V23H4zM6,22H7V23H6zM7,22H8V23H7zM8,22H9V23H8zM9,22H10V23H9zM10,22H11V23H10zM12,22H13V23H12zM13,22H14V23H13zM15,22H16V23H15zM16,22H17V23H16zM19,22H20V23H19zM20,22H21V23H20zM21,22H22V23H21zM26,22H27V23H26zM30,22H31V23H30zM31,22H32V23H31zM32,22H33V23H32zM34,22H35V23H34zM35,22H36V23H35zM4,23H5V24H4zM5,23H6V24H5zM12,23H13V24H12zM13,23H14V24H13zM14,23H15V24H14zM16,23H17V24H16zM17,23H18V24H17zM21,23H22V24H21zM23,23H24V24H23zM24,23H25V24H24zM26,23H27V24H26zM27,23H28V24H27zM28,23H29V24H28zM30,23H31V24H30zM32,23H33V24H32zM4,24H5V25H4zM6,24H7V25H6zM7,24H8V25H7zM10,24H11V25H10zM16,24H17V25H16zM17,24H18V25H17zM18,24H19V25H18zM21,24H22V25H21zM22,24H23V25H22zM23,24H24V25H23zM24,24H25V25H24zM25,24H26V25H25zM27,24H28V25H27zM33,24H34V25H33zM34,24H35V25H34zM35,24H36V25H35zM36,24H37V25H36zM4,25H5V26H4zM5,25H6V26H5zM6,25H7V26H6zM7,25H8V26H7zM8,25H9V26H8zM11,25H12V26H11zM12,25H13V26H12zM13,25H14V26H13zM16,25H17V26H16zM18,25H19V26H18zM19,25H20V26H19zM21,25H22V26H21zM22,25H23V26H22zM23,25H24V26H23zM27,25H28V26H27zM28,25H29V26H28zM30,25H31V26H30zM33,25H34V26H33zM34,25H35V26H34zM36,25H37V26H36zM8,26H9V27H8zM9,26H10V27H9zM10,26H11V27H10zM11,26H12V27H11zM12,26H13V27H12zM13,26H14V27H13zM16,26H17V27H16zM20,26H21V27H20zM21,26H22V27H21zM22,26H23V27H22zM26,26H27V27H26zM27,26H28V27H27zM31,26H32V27H31zM33,26H34V27H33zM35,26H36V27H35zM36,26H37V27H36zM5,27H6V28H5zM9,27H10V28H9zM12,27H13V28H12zM14,27H15V28H14zM15,27H16V28H15zM16,27H17V28H16zM17,27H18V28H17zM20,27H21V28H20zM22,27H23V28H22zM23,27H24V28H23zM27,27H28V28H27zM29,27H30V28H29zM31,27H32V28H31zM33,27H34V28H33zM35,27H36V28H35zM4,28H5V29H4zM6,28H7V29H6zM7,28H8V29H7zM9,28H10V29H9zM10,28H11V29H10zM11,28H12V29H11zM12,28H13V29H12zM13,28H14V29H13zM18,28H19V29H18zM19,28H20V29H19zM21,28H22V29H21zM24,28H25V29H24zM26,28H27V29H26zM28,28H29V29H28zM29,28H30V29H29zM30,28H31V29H30zM31,28H32V29H31zM32,28H33V29H32zM36,28H37V29H36zM12,29H13V30H12zM15,29H16V30H15zM18,29H19V30H18zM19,29H20V30H19zM20,29H21V30H20zM21,29H22V30H21zM22,29H23V30H22zM23,29H24V30H23zM25,29H26V30H25zM27,29H28V30H27zM28,29H29V30H28zM32,29H33V30H32zM33,29H34V30H33zM4,30H5V31H4zM5,30H6V31H5zM6,30H7V31H6zM7,30H8V31H7zM8,30H9V31H8zM9,30H10V31H9zM10,30H11V31H10zM12,30H13V31H12zM14,30H15V31H14zM15,30H16V31H15zM17,30H18V31H17zM20,30H21V31H20zM21,30H22V31H21zM22,30H23V31H22zM23,30H24V31H23zM25,30H26V31H25zM26,30H27V31H26zM27,30H28V31H27zM28,30H29V31H28zM30,30H31V31H30zM32,30H33V31H32zM4,31H5V32H4zM10,31H11V32H10zM12,31H13V32H12zM13,31H14V32H13zM14,31H15V32H14zM16,31H17V32H16zM19,31H20V32H19zM22,31H23V32H22zM23,31H24V32H23zM25,31H26V32H25zM26,31H27V32H26zM28,31H29V32H28zM32,31H33V32H32zM33,31H34V32H33zM34,31H35V32H34zM35,31H36V32H35zM36,31H37V32H36zM4,32H5V33H4zM6,32H7V33H6zM7,32H8V33H7zM8,32H9V33H8zM10,32H11V33H10zM13,32H14V33H13zM15,32H16V33H15zM19,32H20V33H19zM21,32H22V33H21zM25,32H26V33H25zM27,32H28V33H27zM28,32H29V33H28zM29,32H30V33H29zM30,32H31V33H30zM31,32H32V33H31zM32,32H33V33H32zM34,32H35V33H34zM35,32H36V33H35zM4,33H5V34H4zM6,33H7V34H6zM7,33H8V34H7zM8,33H9V34H8zM10,33H11V34H10zM12,33H13V34H12zM13,33H14V34H13zM14,33H15V34H14zM15,33H16V34H15zM16,33H17V34H16zM17,33H18V34H17zM18,33H19V34H18zM26,33H27V34H26zM28,33H29V34H28zM31,33H32V34H31zM33,33H34V34H33zM36,33H37V34H36zM4,34H5V35H4zM6,34H7V35H6zM7,34H8V35H7zM8,34H9V35H8zM10,34H11V35H10zM12,34H13V35H12zM13,34H14V35H13zM15,34H16V35H15zM17,34H18V35H17zM18,34H19V35H18zM21,34H22V35H21zM22,34H23V35H22zM24,34H25V35H24zM25,34H26V35H25zM27,34H28V35H27zM30,34H31V35H30zM31,34H32V35H31zM33,34H34V35H33zM34,34H35V35H34zM4,35H5V36H4zM10,35H11V36H10zM14,35H15V36H14zM17,35H18V36H17zM18,35H19V36H18zM19,35H20V36H19zM20,35H21V36H20zM21,35H22V36H21zM23,35H24V36H23zM26,35H27V36H26zM28,35H29V36H28zM29,35H30V36H29zM30,35H31V36H30zM31,35H32V36H31zM32,35H33V36H32zM36,35H37V36H36zM4,36H5V37H4zM5,36H6V37H5zM6,36H7V37H6zM7,36H8V37H7zM8,36H9V37H8zM9,36H10V37H9zM10,36H11V37H10zM12,36H13V37H12zM15,36H16V37H15zM19,36H20V37H19zM21,36H22V37H21zM25,36H26V37H25zM27,36H28V37H27zM32,36H33V37H32zM34,36H35V37H34z" id="qr-path" fill="#000000" fill-opacity="1" fill-rule="nonzero" stroke="none"/></svg>