<?xml version="1.0" encoding="UTF-8" standalone="no"?><!--Created with Inkscape (http://www.inkscape.org/)--><svg width="211.66667mm" height="148.3277mm" viewBox="0 0 211.66667 148.3277" version="1.1" id="svg15316" xmlns="http://www.w3.org/2000/svg" xmlns:svg="http://www.w3.org/2000/svg"><defs id="defs15313"/><g id="layer1" transform="translate(2.00918,-74.336151)"><g id="g479"><rect style="fill:#f7dba7;fill-opacity:1;stroke-width:0.399557" id="rect9593" width="211.24139" height="148.3277" x="-1.583904" y="74.336151" ry="0"/><path id="path462-1" style="fill:#f3c878;fill-opacity:1;stroke:none;stroke-width:1.17032;stroke-opacity:1" d="M 74.054911 107.1233 C 58.623816 107.2311 50.907487 114.02365 50.907487 114.02365 C 50.907487 114.02365 33.434 129.40075 -1.5068851 114.23966 L -1.5068851 166.94032 L -1.583883 166.94032 L -1.583883 185.46115 L 209.65749 185.46115 L 209.65749 114.02365 C 198.08209 108.92788 188.40652 107.1768 180.62928 107.1233 C 164.70445 107.01377 156.74082 114.02365 156.74082 114.02365 C 156.74082 114.02365 139.10167 129.55365 103.82415 114.02365 C 92.248745 108.92788 82.573183 107.1768 74.795951 107.1233 C 74.547291 107.1213 74.299641 107.1213 74.054911 107.1233 z "/><path id="path462-1-5" style="display:inline;fill:#f7dba7;fill-opacity:1;stroke:none;stroke-width:1.20355;stroke-opacity:1" d="m 45.61582,124.60698 c -7.67757,2.8665 -19.02881,8.84132 -19.02881,8.84132 0,0 -9.35817,10.08948 -28.06702,6.53604 v 46.53514 h 105.2282 v -0.22169 h 105.9093 v -47.84411 c -4.39012,-1.15005 -9.14732,-2.83397 -14.2875,-5.22707 -11.57538,-5.38913 -21.25101,-7.24117 -29.0282,-7.29774 -15.92484,-0.11583 -23.88847,7.29774 -23.88847,7.29774 0,0 -17.63925,16.424 -52.91666,0 -11.57539,-5.38913 -16.94794,-6.06428 -24.07709,-8.61963 -7.12915,-2.55534 -12.16618,-2.86649 -19.84375,0 z"/></g></g></svg>