<?xml version='1.0' encoding='ASCII' standalone='yes'?>
<svg xmlns="http://www.w3.org/2000/svg" width="37mm" height="37mm" version="1.1" viewBox="0 0 37 37" back_color="white" style="background-color: white;">
  <path d="M4,4H5V5H4zM5,4H6V5H5zM6,4H7V5H6zM7,4H8V5H7zM8,4H9V5H8zM9,4H10V5H9zM10,4H11V5H10zM12,4H13V5H12zM13,4H14V5H13zM14,4H15V5H14zM15,4H16V5H15zM17,4H18V5H17zM18,4H19V5H18zM19,4H20V5H19zM21,4H22V5H21zM22,4H23V5H22zM23,4H24V5H23zM26,4H27V5H26zM27,4H28V5H27zM28,4H29V5H28zM29,4H30V5H29zM30,4H31V5H30zM31,4H32V5H31zM32,4H33V5H32zM4,5H5V6H4zM10,5H11V6H10zM14,5H15V6H14zM15,5H16V6H15zM16,5H17V6H16zM17,5H18V6H17zM20,5H21V6H20zM24,5H25V6H24zM26,5H27V6H26zM32,5H33V6H32zM4,6H5V7H4zM6,6H7V7H6zM7,6H8V7H7zM8,6H9V7H8zM10,6H11V7H10zM14,6H15V7H14zM15,6H16V7H15zM17,6H18V7H17zM26,6H27V7H26zM28,6H29V7H28zM29,6H30V7H29zM30,6H31V7H30zM32,6H33V7H32zM4,7H5V8H4zM6,7H7V8H6zM7,7H8V8H7zM8,7H9V8H8zM10,7H11V8H10zM13,7H14V8H13zM15,7H16V8H15zM16,7H17V8H16zM17,7H18V8H17zM18,7H19V8H18zM21,7H22V8H21zM22,7H23V8H22zM26,7H27V8H26zM28,7H29V8H28zM29,7H30V8H29zM30,7H31V8H30zM32,7H33V8H32zM4,8H5V9H4zM6,8H7V9H6zM7,8H8V9H7zM8,8H9V9H8zM10,8H11V9H10zM12,8H13V9H12zM15,8H16V9H15zM16,8H17V9H16zM17,8H18V9H17zM18,8H19V9H18zM19,8H20V9H19zM21,8H22V9H21zM22,8H23V9H22zM23,8H24V9H23zM26,8H27V9H26zM28,8H29V9H28zM29,8H30V9H29zM30,8H31V9H30zM32,8H33V9H32zM4,9H5V10H4zM10,9H11V10H10zM12,9H13V10H12zM13,9H14V10H13zM14,9H15V10H14zM17,9H18V10H17zM20,9H21V10H20zM21,9H22V10H21zM26,9H27V10H26zM32,9H33V10H32zM4,10H5V11H4zM5,10H6V11H5zM6,10H7V11H6zM7,10H8V11H7zM8,10H9V11H8zM9,10H10V11H9zM10,10H11V11H10zM12,10H13V11H12zM14,10H15V11H14zM16,10H17V11H16zM18,10H19V11H18zM20,10H21V11H20zM22,10H23V11H22zM24,10H25V11H24zM26,10H27V11H26zM27,10H28V11H27zM28,10H29V11H28zM29,10H30V11H29zM30,10H31V11H30zM31,10H32V11H31zM32,10H33V11H32zM13,11H14V12H13zM15,11H16V12H15zM16,11H17V12H16zM20,11H21V12H20zM22,11H23V12H22zM23,11H24V12H23zM24,11H25V12H24zM5,12H6V13H5zM6,12H7V13H6zM7,12H8V13H7zM8,12H9V13H8zM9,12H10V13H9zM10,12H11V13H10zM11,12H12V13H11zM14,12H15V13H14zM15,12H16V13H15zM16,12H17V13H16zM17,12H18V13H17zM18,12H19V13H18zM19,12H20V13H19zM20,12H21V13H20zM21,12H22V13H21zM23,12H24V13H23zM27,12H28V13H27zM28,12H29V13H28zM32,12H33V13H32zM4,13H5V14H4zM6,13H7V14H6zM7,13H8V14H7zM14,13H15V14H14zM16,13H17V14H16zM17,13H18V14H17zM18,13H19V14H18zM19,13H20V14H19zM21,13H22V14H21zM22,13H23V14H22zM23,13H24V14H23zM24,13H25V14H24zM26,13H27V14H26zM27,13H28V14H27zM28,13H29V14H28zM32,13H33V14H32zM4,14H5V15H4zM7,14H8V15H7zM8,14H9V15H8zM10,14H11V15H10zM11,14H12V15H11zM13,14H14V15H13zM14,14H15V15H14zM15,14H16V15H15zM17,14H18V15H17zM19,14H20V15H19zM20,14H21V15H20zM25,14H26V15H25zM26,14H27V15H26zM27,14H28V15H27zM28,14H29V15H28zM30,14H31V15H30zM5,15H6V16H5zM6,15H7V16H6zM7,15H8V16H7zM9,15H10V16H9zM11,15H12V16H11zM14,15H15V16H14zM16,15H17V16H16zM18,15H19V16H18zM20,15H21V16H20zM25,15H26V16H25zM26,15H27V16H26zM27,15H28V16H27zM28,15H29V16H28zM29,15H30V16H29zM31,15H32V16H31zM5,16H6V17H5zM6,16H7V17H6zM7,16H8V17H7zM9,16H10V17H9zM10,16H11V17H10zM11,16H12V17H11zM12,16H13V17H12zM14,16H15V17H14zM17,16H18V17H17zM18,16H19V17H18zM21,16H22V17H21zM23,16H24V17H23zM25,16H26V17H25zM27,16H28V17H27zM29,16H30V17H29zM30,16H31V17H30zM31,16H32V17H31zM32,16H33V17H32zM5,17H6V18H5zM7,17H8V18H7zM8,17H9V18H8zM9,17H10V18H9zM11,17H12V18H11zM13,17H14V18H13zM14,17H15V18H14zM15,17H16V18H15zM17,17H18V18H17zM18,17H19V18H18zM23,17H24V18H23zM24,17H25V18H24zM25,17H26V18H25zM26,17H27V18H26zM28,17H29V18H28zM29,17H30V18H29zM31,17H32V18H31zM32,17H33V18H32zM5,18H6V19H5zM6,18H7V19H6zM8,18H9V19H8zM10,18H11V19H10zM12,18H13V19H12zM13,18H14V19H13zM14,18H15V19H14zM16,18H17V19H16zM17,18H18V19H17zM19,18H20V19H19zM20,18H21V19H20zM25,18H26V19H25zM27,18H28V19H27zM4,19H5V20H4zM5,19H6V20H5zM6,19H7V20H6zM8,19H9V20H8zM12,19H13V20H12zM15,19H16V20H15zM20,19H21V20H20zM22,19H23V20H22zM25,19H26V20H25zM26,19H27V20H26zM28,19H29V20H28zM29,19H30V20H29zM6,20H7V21H6zM10,20H11V21H10zM11,20H12V21H11zM12,20H13V21H12zM13,20H14V21H13zM14,20H15V21H14zM15,20H16V21H15zM19,20H20V21H19zM21,20H22V21H21zM23,20H24V21H23zM24,20H25V21H24zM25,20H26V21H25zM29,20H30V21H29zM30,20H31V21H30zM31,20H32V21H31zM4,21H5V22H4zM5,21H6V22H5zM7,21H8V22H7zM8,21H9V22H8zM11,21H12V22H11zM13,21H14V22H13zM15,21H16V22H15zM16,21H17V22H16zM17,21H18V22H17zM18,21H19V22H18zM19,21H20V22H19zM20,21H21V22H20zM22,21H23V22H22zM23,21H24V22H23zM25,21H26V22H25zM26,21H27V22H26zM27,21H28V22H27zM28,21H29V22H28zM31,21H32V22H31zM32,21H33V22H32zM4,22H5V23H4zM8,22H9V23H8zM9,22H10V23H9zM10,22H11V23H10zM13,22H14V23H13zM16,22H17V23H16zM21,22H22V23H21zM26,22H27V23H26zM30,22H31V23H30zM4,23H5V24H4zM6,23H7V24H6zM7,23H8V24H7zM8,23H9V24H8zM9,23H10V24H9zM12,23H13V24H12zM13,23H14V24H13zM14,23H15V24H14zM17,23H18V24H17zM18,23H19V24H18zM20,23H21V24H20zM23,23H24V24H23zM26,23H27V24H26zM27,23H28V24H27zM29,23H30V24H29zM32,23H33V24H32zM4,24H5V25H4zM6,24H7V25H6zM7,24H8V25H7zM10,24H11V25H10zM11,24H12V25H11zM15,24H16V25H15zM16,24H17V25H16zM17,24H18V25H17zM21,24H22V25H21zM24,24H25V25H24zM25,24H26V25H25zM26,24H27V25H26zM27,24H28V25H27zM28,24H29V25H28zM29,24H30V25H29zM30,24H31V25H30zM32,24H33V25H32zM12,25H13V26H12zM14,25H15V26H14zM15,25H16V26H15zM16,25H17V26H16zM20,25H21V26H20zM22,25H23V26H22zM23,25H24V26H23zM24,25H25V26H24zM28,25H29V26H28zM29,25H30V26H29zM31,25H32V26H31zM32,25H33V26H32zM4,26H5V27H4zM5,26H6V27H5zM6,26H7V27H6zM7,26H8V27H7zM8,26H9V27H8zM9,26H10V27H9zM10,26H11V27H10zM12,26H13V27H12zM14,26H15V27H14zM17,26H18V27H17zM19,26H20V27H19zM23,26H24V27H23zM24,26H25V27H24zM26,26H27V27H26zM28,26H29V27H28zM4,27H5V28H4zM10,27H11V28H10zM12,27H13V28H12zM15,27H16V28H15zM17,27H18V28H17zM19,27H20V28H19zM20,27H21V28H20zM23,27H24V28H23zM24,27H25V28H24zM28,27H29V28H28zM29,27H30V28H29zM4,28H5V29H4zM6,28H7V29H6zM7,28H8V29H7zM8,28H9V29H8zM10,28H11V29H10zM12,28H13V29H12zM14,28H15V29H14zM16,28H17V29H16zM17,28H18V29H17zM21,28H22V29H21zM22,28H23V29H22zM24,28H25V29H24zM25,28H26V29H25zM26,28H27V29H26zM27,28H28V29H27zM28,28H29V29H28zM29,28H30V29H29zM30,28H31V29H30zM32,28H33V29H32zM4,29H5V30H4zM6,29H7V30H6zM7,29H8V30H7zM8,29H9V30H8zM10,29H11V30H10zM12,29H13V30H12zM14,29H15V30H14zM17,29H18V30H17zM19,29H20V30H19zM21,29H22V30H21zM22,29H23V30H22zM23,29H24V30H23zM24,29H25V30H24zM25,29H26V30H25zM27,29H28V30H27zM29,29H30V30H29zM4,30H5V31H4zM6,30H7V31H6zM7,30H8V31H7zM8,30H9V31H8zM10,30H11V31H10zM12,30H13V31H12zM13,30H14V31H13zM14,30H15V31H14zM15,30H16V31H15zM18,30H19V31H18zM19,30H20V31H19zM20,30H21V31H20zM22,30H23V31H22zM23,30H24V31H23zM24,30H25V31H24zM25,30H26V31H25zM26,30H27V31H26zM27,30H28V31H27zM28,30H29V31H28zM29,30H30V31H29zM31,30H32V31H31zM4,31H5V32H4zM10,31H11V32H10zM12,31H13V32H12zM13,31H14V32H13zM14,31H15V32H14zM16,31H17V32H16zM18,31H19V32H18zM20,31H21V32H20zM23,31H24V32H23zM24,31H25V32H24zM26,31H27V32H26zM28,31H29V32H28zM29,31H30V32H29zM31,31H32V32H31zM4,32H5V33H4zM5,32H6V33H5zM6,32H7V33H6zM7,32H8V33H7zM8,32H9V33H8zM9,32H10V33H9zM10,32H11V33H10zM13,32H14V33H13zM15,32H16V33H15zM16,32H17V33H16zM17,32H18V33H17zM18,32H19V33H18zM21,32H22V33H21zM23,32H24V33H23zM28,32H29V33H28zM30,32H31V33H30z" id="qr-path" fill="#000000" fill-opacity="1" fill-rule="nonzero" stroke="none"/>
  <g transform="translate(13.875, 13.875) scale(0.25 0.25) ">
    <svg viewBox="0 0 100 100">
  <circle cx="50" cy="50" r="50" fill="white"/>
</svg>
    <g transform="translate(4.625, 4.625) scale(0.75 0.75) ">
      <svg xmlns:ns1="http://www.inkscape.org/namespaces/inkscape" xmlns:ns2="http://sodipodi.sourceforge.net/DTD/sodipodi-0.dtd" viewBox="0 0 28.346243 22.964888" version="1.1" id="svg13880" ns1:version="1.2.2 (b0a84865, 2022-12-01)" ns2:docname="favicon.svg">
  <ns2:namedview id="namedview13882" pagecolor="#ffffff" bordercolor="#000000" borderopacity="0.25" ns1:showpageshadow="2" ns1:pageopacity="0.0" ns1:pagecheckerboard="0" ns1:deskcolor="#d1d1d1" ns1:document-units="mm" showgrid="false" ns1:zoom="0.2102413" ns1:cx="-147.44962" ns1:cy="-171.23182" ns1:window-width="1344" ns1:window-height="456" ns1:window-x="0" ns1:window-y="38" ns1:window-maximized="0" ns1:current-layer="layer1"/>
  <defs id="defs13877"/>
  <g ns1:label="Ebene 1" ns1:groupmode="layer" id="layer1">
    <path d="M 26.7998 -3e-05 C 25.5588 -0.00703 24.3064 0.64035 23.0228 0.69605 C 21.4224 0.76615 19.921 0.24282 18.3466 0.17102 C 17.5606 0.13502 16.1743 -0.07039 15.6026 0.60045 C 15.088 1.20659 15.1262 2.71028 15.7266 3.24266 C 16.8703 4.25704 18.6072 3.93712 19.5439 5.38672 C 21.1041 7.80397 20.2513 12.9639 18.838 15.2714 C 18.2368 16.2534 17.5492 17.3689 16.3684 17.6097 C 16.0171 14.8292 15.8244 11.9604 15.8284 9.15651 C 15.8301 8.05219 16.3197 6.81832 16.1446 5.74277 C 15.9709 4.6743 14.7154 4.4278 13.8528 4.87202 C 12.8735 5.3756 12.5125 6.60406 12.0813 7.53749 C 11.1209 9.61842 10.5296 12.3004 8.99418 14.0126 C 8.47841 11.3957 8.72011 8.40816 8.78851 5.73915 C 8.8123 4.8129 9.25544 3.3131 8.53994 2.5595 C 7.66101 1.63328 6.3288 3.00735 5.57681 3.48399 C 3.87469 4.5577 -0.479504 4.1724 0.043302 7.17421 C 0.540762 10.032 4.70735 6.31666 5.16237 9.15651 C 5.67014 12.3237 5.51546 15.8344 5.74063 19.0484 C 5.82407 20.2372 5.74115 22.1685 7.37619 22.2586 C 8.72564 22.3324 9.12808 21.185 9.52489 20.1274 C 10.1443 18.4764 10.9696 15.0413 12.5914 14.1924 C 12.9642 16.2014 12.6959 20.2859 14.4083 21.6689 C 15.7865 22.7804 17.4882 21.5989 18.5331 20.6349 C 21.1268 18.2392 22.5441 15.3737 23.4853 12.0339 C 23.962 10.3415 23.9754 8.54476 23.7039 6.81815 C 23.5944 6.12216 22.8131 5.24272 23.0357 4.54129 C 23.2652 3.81827 24.2505 3.98327 24.8211 3.90257 C 26.133 3.71555 28.312 3.05388 28.346 1.42262 C 28.3634 0.52511 27.6352 0.00397 26.7998 -3e-05 Z M 24.8289 17.4857 C 24.7662 17.4863 24.7029 17.4917 24.6392 17.5033 C 21.5612 18.0447 23.2911 23.462 25.7182 22.9278 C 28.0648 22.4085 26.8546 17.7809 25.0149 17.4992 C 24.9536 17.4902 24.8915 17.4852 24.8289 17.4858 Z" style="fill:#000000;stroke:none;stroke-width:0.179854" id="path13875" fill="#808080"/>
  </g>
</svg>
    </g>
  </g>
</svg>
