<svg width="49mm" height="49mm" version="1.1" viewBox="0 0 49 49" back_color="white" xmlns="http://www.w3.org/2000/svg" style="background-color: white;"><path d="M4,4H5V5H4zM5,4H6V5H5zM6,4H7V5H6zM7,4H8V5H7zM8,4H9V5H8zM9,4H10V5H9zM10,4H11V5H10zM12,4H13V5H12zM14,4H15V5H14zM16,4H17V5H16zM19,4H20V5H19zM21,4H22V5H21zM22,4H23V5H22zM27,4H28V5H27zM30,4H31V5H30zM31,4H32V5H31zM34,4H35V5H34zM38,4H39V5H38zM39,4H40V5H39zM40,4H41V5H40zM41,4H42V5H41zM42,4H43V5H42zM43,4H44V5H43zM44,4H45V5H44zM4,5H5V6H4zM10,5H11V6H10zM13,5H14V6H13zM14,5H15V6H14zM16,5H17V6H16zM17,5H18V6H17zM18,5H19V6H18zM21,5H22V6H21zM23,5H24V6H23zM24,5H25V6H24zM32,5H33V6H32zM35,5H36V6H35zM38,5H39V6H38zM44,5H45V6H44zM4,6H5V7H4zM6,6H7V7H6zM7,6H8V7H7zM8,6H9V7H8zM10,6H11V7H10zM13,6H14V7H13zM15,6H16V7H15zM17,6H18V7H17zM18,6H19V7H18zM19,6H20V7H19zM20,6H21V7H20zM24,6H25V7H24zM25,6H26V7H25zM27,6H28V7H27zM28,6H29V7H28zM29,6H30V7H29zM32,6H33V7H32zM33,6H34V7H33zM35,6H36V7H35zM36,6H37V7H36zM38,6H39V7H38zM40,6H41V7H40zM41,6H42V7H41zM42,6H43V7H42zM44,6H45V7H44zM4,7H5V8H4zM6,7H7V8H6zM7,7H8V8H7zM8,7H9V8H8zM10,7H11V8H10zM12,7H13V8H12zM13,7H14V8H13zM16,7H17V8H16zM17,7H18V8H17zM20,7H21V8H20zM21,7H22V8H21zM22,7H23V8H22zM25,7H26V8H25zM26,7H27V8H26zM30,7H31V8H30zM31,7H32V8H31zM32,7H33V8H32zM34,7H35V8H34zM35,7H36V8H35zM38,7H39V8H38zM40,7H41V8H40zM41,7H42V8H41zM42,7H43V8H42zM44,7H45V8H44zM4,8H5V9H4zM6,8H7V9H6zM7,8H8V9H7zM8,8H9V9H8zM10,8H11V9H10zM12,8H13V9H12zM14,8H15V9H14zM19,8H20V9H19zM20,8H21V9H20zM21,8H22V9H21zM22,8H23V9H22zM24,8H25V9H24zM26,8H27V9H26zM27,8H28V9H27zM30,8H31V9H30zM31,8H32V9H31zM32,8H33V9H32zM33,8H34V9H33zM34,8H35V9H34zM38,8H39V9H38zM40,8H41V9H40zM41,8H42V9H41zM42,8H43V9H42zM44,8H45V9H44zM4,9H5V10H4zM10,9H11V10H10zM12,9H13V10H12zM13,9H14V10H13zM14,9H15V10H14zM23,9H24V10H23zM24,9H25V10H24zM25,9H26V10H25zM28,9H29V10H28zM29,9H30V10H29zM30,9H31V10H30zM34,9H35V10H34zM35,9H36V10H35zM36,9H37V10H36zM38,9H39V10H38zM44,9H45V10H44zM4,10H5V11H4zM5,10H6V11H5zM6,10H7V11H6zM7,10H8V11H7zM8,10H9V11H8zM9,10H10V11H9zM10,10H11V11H10zM12,10H13V11H12zM14,10H15V11H14zM16,10H17V11H16zM18,10H19V11H18zM20,10H21V11H20zM22,10H23V11H22zM24,10H25V11H24zM26,10H27V11H26zM28,10H29V11H28zM30,10H31V11H30zM32,10H33V11H32zM34,10H35V11H34zM36,10H37V11H36zM38,10H39V11H38zM39,10H40V11H39zM40,10H41V11H40zM41,10H42V11H41zM42,10H43V11H42zM43,10H44V11H43zM44,10H45V11H44zM12,11H13V12H12zM13,11H14V12H13zM15,11H16V12H15zM20,11H21V12H20zM21,11H22V12H21zM22,11H23V12H22zM24,11H25V12H24zM25,11H26V12H25zM26,11H27V12H26zM30,11H31V12H30zM31,11H32V12H31zM32,11H33V12H32zM33,11H34V12H33zM36,11H37V12H36zM4,12H5V13H4zM8,12H9V13H8zM10,12H11V13H10zM11,12H12V13H11zM12,12H13V13H12zM15,12H16V13H15zM17,12H18V13H17zM21,12H22V13H21zM23,12H24V13H23zM24,12H25V13H24zM25,12H26V13H25zM26,12H27V13H26zM31,12H32V13H31zM33,12H34V13H33zM35,12H36V13H35zM37,12H38V13H37zM38,12H39V13H38zM39,12H40V13H39zM40,12H41V13H40zM41,12H42V13H41zM44,12H45V13H44zM6,13H7V14H6zM7,13H8V14H7zM8,13H9V14H8zM9,13H10V14H9zM13,13H14V14H13zM14,13H15V14H14zM15,13H16V14H15zM18,13H19V14H18zM19,13H20V14H19zM21,13H22V14H21zM24,13H25V14H24zM26,13H27V14H26zM27,13H28V14H27zM29,13H30V14H29zM30,13H31V14H30zM31,13H32V14H31zM32,13H33V14H32zM34,13H35V14H34zM37,13H38V14H37zM38,13H39V14H38zM39,13H40V14H39zM40,13H41V14H40zM41,13H42V14H41zM43,13H44V14H43zM44,13H45V14H44zM9,14H10V15H9zM10,14H11V15H10zM11,14H12V15H11zM14,14H15V15H14zM19,14H20V15H19zM22,14H23V15H22zM27,14H28V15H27zM30,14H31V15H30zM31,14H32V15H31zM33,14H34V15H33zM34,14H35V15H34zM36,14H37V15H36zM37,14H38V15H37zM38,14H39V15H38zM43,14H44V15H43zM44,14H45V15H44zM4,15H5V16H4zM7,15H8V16H7zM12,15H13V16H12zM14,15H15V16H14zM16,15H17V16H16zM17,15H18V16H17zM18,15H19V16H18zM19,15H20V16H19zM21,15H22V16H21zM22,15H23V16H22zM23,15H24V16H23zM25,15H26V16H25zM30,15H31V16H30zM33,15H34V16H33zM34,15H35V16H34zM35,15H36V16H35zM36,15H37V16H36zM37,15H38V16H37zM38,15H39V16H38zM39,15H40V16H39zM41,15H42V16H41zM4,16H5V17H4zM7,16H8V17H7zM9,16H10V17H9zM10,16H11V17H10zM13,16H14V17H13zM14,16H15V17H14zM15,16H16V17H15zM17,16H18V17H17zM19,16H20V17H19zM21,16H22V17H21zM23,16H24V17H23zM25,16H26V17H25zM28,16H29V17H28zM33,16H34V17H33zM37,16H38V17H37zM4,17H5V18H4zM5,17H6V18H5zM6,17H7V18H6zM7,17H8V18H7zM11,17H12V18H11zM20,17H21V18H20zM22,17H23V18H22zM23,17H24V18H23zM24,17H25V18H24zM25,17H26V18H25zM34,17H35V18H34zM38,17H39V18H38zM39,17H40V18H39zM40,17H41V18H40zM44,17H45V18H44zM5,18H6V19H5zM7,18H8V19H7zM8,18H9V19H8zM10,18H11V19H10zM11,18H12V19H11zM14,18H15V19H14zM16,18H17V19H16zM18,18H19V19H18zM20,18H21V19H20zM21,18H22V19H21zM24,18H25V19H24zM25,18H26V19H25zM30,18H31V19H30zM31,18H32V19H31zM33,18H34V19H33zM34,18H35V19H34zM37,18H38V19H37zM38,18H39V19H38zM40,18H41V19H40zM42,18H43V19H42zM44,18H45V19H44zM7,19H8V20H7zM8,19H9V20H8zM11,19H12V20H11zM12,19H13V20H12zM17,19H18V20H17zM20,19H21V20H20zM21,19H22V20H21zM22,19H23V20H22zM25,19H26V20H25zM28,19H29V20H28zM30,19H31V20H30zM33,19H34V20H33zM35,19H36V20H35zM36,19H37V20H36zM40,19H41V20H40zM41,19H42V20H41zM43,19H44V20H43zM4,20H5V21H4zM7,20H8V21H7zM9,20H10V21H9zM10,20H11V21H10zM11,20H12V21H11zM13,20H14V21H13zM14,20H15V21H14zM15,20H16V21H15zM16,20H17V21H16zM17,20H18V21H17zM20,20H21V21H20zM21,20H22V21H21zM23,20H24V21H23zM25,20H26V21H25zM26,20H27V21H26zM27,20H28V21H27zM28,20H29V21H28zM31,20H32V21H31zM32,20H33V21H32zM33,20H34V21H33zM36,20H37V21H36zM39,20H40V21H39zM43,20H44V21H43zM44,20H45V21H44zM4,21H5V22H4zM5,21H6V22H5zM6,21H7V22H6zM7,21H8V22H7zM11,21H12V22H11zM13,21H14V22H13zM17,21H18V22H17zM18,21H19V22H18zM20,21H21V22H20zM22,21H23V22H22zM25,21H26V22H25zM27,21H28V22H27zM28,21H29V22H28zM29,21H30V22H29zM30,21H31V22H30zM31,21H32V22H31zM32,21H33V22H32zM33,21H34V22H33zM36,21H37V22H36zM37,21H38V22H37zM38,21H39V22H38zM39,21H40V22H39zM40,21H41V22H40zM42,21H43V22H42zM44,21H45V22H44zM4,22H5V23H4zM6,22H7V23H6zM9,22H10V23H9zM10,22H11V23H10zM15,22H16V23H15zM16,22H17V23H16zM21,22H22V23H21zM27,22H28V23H27zM31,22H32V23H31zM33,22H34V23H33zM36,22H37V23H36zM37,22H38V23H37zM39,22H40V23H39zM43,22H44V23H43zM44,22H45V23H44zM4,23H5V24H4zM5,23H6V24H5zM8,23H9V24H8zM9,23H10V24H9zM12,23H13V24H12zM13,23H14V24H13zM14,23H15V24H14zM15,23H16V24H15zM16,23H17V24H16zM17,23H18V24H17zM18,23H19V24H18zM19,23H20V24H19zM21,23H22V24H21zM22,23H23V24H22zM23,23H24V24H23zM24,23H25V24H24zM26,23H27V24H26zM27,23H28V24H27zM28,23H29V24H28zM30,23H31V24H30zM31,23H32V24H31zM33,23H34V24H33zM34,23H35V24H34zM35,23H36V24H35zM37,23H38V24H37zM39,23H40V24H39zM41,23H42V24H41zM44,23H45V24H44zM4,24H5V25H4zM8,24H9V25H8zM10,24H11V25H10zM11,24H12V25H11zM12,24H13V25H12zM16,24H17V25H16zM20,24H21V25H20zM22,24H23V25H22zM26,24H27V25H26zM29,24H30V25H29zM30,24H31V25H30zM33,24H34V25H33zM35,24H36V25H35zM37,24H38V25H37zM39,24H40V25H39zM6,25H7V26H6zM8,25H9V26H8zM11,25H12V26H11zM12,25H13V26H12zM14,25H15V26H14zM16,25H17V26H16zM17,25H18V26H17zM20,25H21V26H20zM27,25H28V26H27zM31,25H32V26H31zM32,25H33V26H32zM33,25H34V26H33zM34,25H35V26H34zM38,25H39V26H38zM39,25H40V26H39zM40,25H41V26H40zM41,25H42V26H41zM42,25H43V26H42zM44,25H45V26H44zM4,26H5V27H4zM5,26H6V27H5zM6,26H7V27H6zM7,26H8V27H7zM8,26H9V27H8zM10,26H11V27H10zM11,26H12V27H11zM13,26H14V27H13zM14,26H15V27H14zM19,26H20V27H19zM25,26H26V27H25zM27,26H28V27H27zM28,26H29V27H28zM30,26H31V27H30zM31,26H32V27H31zM34,26H35V27H34zM36,26H37V27H36zM37,26H38V27H37zM38,26H39V27H38zM40,26H41V27H40zM41,26H42V27H41zM44,26H45V27H44zM6,27H7V28H6zM7,27H8V28H7zM8,27H9V28H8zM11,27H12V28H11zM12,27H13V28H12zM15,27H16V28H15zM16,27H17V28H16zM21,27H22V28H21zM23,27H24V28H23zM25,27H26V28H25zM28,27H29V28H28zM32,27H33V28H32zM33,27H34V28H33zM35,27H36V28H35zM37,27H38V28H37zM38,27H39V28H38zM40,27H41V28H40zM44,27H45V28H44zM4,28H5V29H4zM5,28H6V29H5zM10,28H11V29H10zM13,28H14V29H13zM14,28H15V29H14zM15,28H16V29H15zM17,28H18V29H17zM21,28H22V29H21zM22,28H23V29H22zM23,28H24V29H23zM25,28H26V29H25zM26,28H27V29H26zM27,28H28V29H27zM28,28H29V29H28zM32,28H33V29H32zM33,28H34V29H33zM34,28H35V29H34zM36,28H37V29H36zM37,28H38V29H37zM43,28H44V29H43zM44,28H45V29H44zM6,29H7V30H6zM13,29H14V30H13zM15,29H16V30H15zM16,29H17V30H16zM17,29H18V30H17zM18,29H19V30H18zM19,29H20V30H19zM21,29H22V30H21zM25,29H26V30H25zM27,29H28V30H27zM29,29H30V30H29zM30,29H31V30H30zM31,29H32V30H31zM32,29H33V30H32zM33,29H34V30H33zM34,29H35V30H34zM36,29H37V30H36zM38,29H39V30H38zM39,29H40V30H39zM40,29H41V30H40zM42,29H43V30H42zM43,29H44V30H43zM44,29H45V30H44zM4,30H5V31H4zM7,30H8V31H7zM10,30H11V31H10zM11,30H12V31H11zM14,30H15V31H14zM15,30H16V31H15zM16,30H17V31H16zM17,30H18V31H17zM18,30H19V31H18zM19,30H20V31H19zM20,30H21V31H20zM21,30H22V31H21zM22,30H23V31H22zM24,30H25V31H24zM27,30H28V31H27zM28,30H29V31H28zM29,30H30V31H29zM31,30H32V31H31zM33,30H34V31H33zM34,30H35V31H34zM36,30H37V31H36zM37,30H38V31H37zM38,30H39V31H38zM40,30H41V31H40zM44,30H45V31H44zM4,31H5V32H4zM6,31H7V32H6zM13,31H14V32H13zM14,31H15V32H14zM17,31H18V32H17zM18,31H19V32H18zM19,31H20V32H19zM21,31H22V32H21zM24,31H25V32H24zM25,31H26V32H25zM27,31H28V32H27zM31,31H32V32H31zM33,31H34V32H33zM34,31H35V32H34zM35,31H36V32H35zM36,31H37V32H36zM38,31H39V32H38zM39,31H40V32H39zM41,31H42V32H41zM43,31H44V32H43zM7,32H8V33H7zM9,32H10V33H9zM10,32H11V33H10zM12,32H13V33H12zM14,32H15V33H14zM17,32H18V33H17zM18,32H19V33H18zM19,32H20V33H19zM21,32H22V33H21zM23,32H24V33H23zM24,32H25V33H24zM25,32H26V33H25zM26,32H27V33H26zM30,32H31V33H30zM31,32H32V33H31zM33,32H34V33H33zM36,32H37V33H36zM37,32H38V33H37zM43,32H44V33H43zM44,32H45V33H44zM4,33H5V34H4zM7,33H8V34H7zM8,33H9V34H8zM11,33H12V34H11zM13,33H14V34H13zM17,33H18V34H17zM20,33H21V34H20zM21,33H22V34H21zM22,33H23V34H22zM23,33H24V34H23zM25,33H26V34H25zM28,33H29V34H28zM29,33H30V34H29zM30,33H31V34H30zM31,33H32V34H31zM34,33H35V34H34zM38,33H39V34H38zM39,33H40V34H39zM40,33H41V34H40zM41,33H42V34H41zM42,33H43V34H42zM44,33H45V34H44zM6,34H7V35H6zM8,34H9V35H8zM10,34H11V35H10zM11,34H12V35H11zM18,34H19V35H18zM19,34H20V35H19zM20,34H21V35H20zM21,34H22V35H21zM23,34H24V35H23zM27,34H28V35H27zM28,34H29V35H28zM31,34H32V35H31zM33,34H34V35H33zM34,34H35V35H34zM36,34H37V35H36zM37,34H38V35H37zM39,34H40V35H39zM40,34H41V35H40zM44,34H45V35H44zM6,35H7V36H6zM7,35H8V36H7zM8,35H9V36H8zM9,35H10V36H9zM12,35H13V36H12zM16,35H17V36H16zM19,35H20V36H19zM20,35H21V36H20zM21,35H22V36H21zM22,35H23V36H22zM23,35H24V36H23zM24,35H25V36H24zM25,35H26V36H25zM27,35H28V36H27zM30,35H31V36H30zM33,35H34V36H33zM34,35H35V36H34zM37,35H38V36H37zM39,35H40V36H39zM41,35H42V36H41zM44,35H45V36H44zM4,36H5V37H4zM5,36H6V37H5zM6,36H7V37H6zM7,36H8V37H7zM10,36H11V37H10zM13,36H14V37H13zM19,36H20V37H19zM21,36H22V37H21zM24,36H25V37H24zM25,36H26V37H25zM26,36H27V37H26zM28,36H29V37H28zM33,36H34V37H33zM36,36H37V37H36zM37,36H38V37H37zM38,36H39V37H38zM39,36H40V37H39zM40,36H41V37H40zM12,37H13V38H12zM13,37H14V38H13zM15,37H16V38H15zM17,37H18V38H17zM20,37H21V38H20zM21,37H22V38H21zM22,37H23V38H22zM26,37H27V38H26zM27,37H28V38H27zM30,37H31V38H30zM31,37H32V38H31zM32,37H33V38H32zM33,37H34V38H33zM34,37H35V38H34zM36,37H37V38H36zM40,37H41V38H40zM41,37H42V38H41zM42,37H43V38H42zM44,37H45V38H44zM4,38H5V39H4zM5,38H6V39H5zM6,38H7V39H6zM7,38H8V39H7zM8,38H9V39H8zM9,38H10V39H9zM10,38H11V39H10zM12,38H13V39H12zM17,38H18V39H17zM20,38H21V39H20zM22,38H23V39H22zM24,38H25V39H24zM25,38H26V39H25zM26,38H27V39H26zM27,38H28V39H27zM29,38H30V39H29zM30,38H31V39H30zM31,38H32V39H31zM32,38H33V39H32zM34,38H35V39H34zM35,38H36V39H35zM36,38H37V39H36zM38,38H39V39H38zM40,38H41V39H40zM41,38H42V39H41zM42,38H43V39H42zM44,38H45V39H44zM4,39H5V40H4zM10,39H11V40H10zM13,39H14V40H13zM14,39H15V40H14zM18,39H19V40H18zM20,39H21V40H20zM24,39H25V40H24zM25,39H26V40H25zM28,39H29V40H28zM29,39H30V40H29zM33,39H34V40H33zM35,39H36V40H35zM36,39H37V40H36zM40,39H41V40H40zM41,39H42V40H41zM43,39H44V40H43zM44,39H45V40H44zM4,40H5V41H4zM6,40H7V41H6zM7,40H8V41H7zM8,40H9V41H8zM10,40H11V41H10zM12,40H13V41H12zM14,40H15V41H14zM17,40H18V41H17zM23,40H24V41H23zM27,40H28V41H27zM28,40H29V41H28zM29,40H30V41H29zM31,40H32V41H31zM33,40H34V41H33zM35,40H36V41H35zM36,40H37V41H36zM37,40H38V41H37zM38,40H39V41H38zM39,40H40V41H39zM40,40H41V41H40zM41,40H42V41H41zM44,40H45V41H44zM4,41H5V42H4zM6,41H7V42H6zM7,41H8V42H7zM8,41H9V42H8zM10,41H11V42H10zM13,41H14V42H13zM16,41H17V42H16zM18,41H19V42H18zM19,41H20V42H19zM22,41H23V42H22zM25,41H26V42H25zM26,41H27V42H26zM27,41H28V42H27zM30,41H31V42H30zM31,41H32V42H31zM32,41H33V42H32zM33,41H34V42H33zM34,41H35V42H34zM36,41H37V42H36zM39,41H40V42H39zM41,41H42V42H41zM42,41H43V42H42zM43,41H44V42H43zM4,42H5V43H4zM6,42H7V43H6zM7,42H8V43H7zM8,42H9V43H8zM10,42H11V43H10zM13,42H14V43H13zM15,42H16V43H15zM17,42H18V43H17zM19,42H20V43H19zM20,42H21V43H20zM21,42H22V43H21zM22,42H23V43H22zM24,42H25V43H24zM27,42H28V43H27zM30,42H31V43H30zM31,42H32V43H31zM33,42H34V43H33zM34,42H35V43H34zM35,42H36V43H35zM37,42H38V43H37zM41,42H42V43H41zM44,42H45V43H44zM4,43H5V44H4zM10,43H11V44H10zM15,43H16V44H15zM17,43H18V44H17zM18,43H19V44H18zM22,43H23V44H22zM25,43H26V44H25zM26,43H27V44H26zM28,43H29V44H28zM30,43H31V44H30zM31,43H32V44H31zM32,43H33V44H32zM33,43H34V44H33zM34,43H35V44H34zM36,43H37V44H36zM38,43H39V44H38zM39,43H40V44H39zM43,43H44V44H43zM44,43H45V44H44zM4,44H5V45H4zM5,44H6V45H5zM6,44H7V45H6zM7,44H8V45H7zM8,44H9V45H8zM9,44H10V45H9zM10,44H11V45H10zM12,44H13V45H12zM13,44H14V45H13zM14,44H15V45H14zM17,44H18V45H17zM19,44H20V45H19zM20,44H21V45H20zM22,44H23V45H22zM23,44H24V45H23zM24,44H25V45H24zM25,44H26V45H25zM26,44H27V45H26zM27,44H28V45H27zM28,44H29V45H28zM33,44H34V45H33zM34,44H35V45H34zM36,44H37V45H36zM37,44H38V45H37zM39,44H40V45H39zM40,44H41V45H40zM41,44H42V45H41zM43,44H44V45H43z" id="qr-path" fill="#000000" fill-opacity="1" fill-rule="nonzero" stroke="none"/></svg>