<svg width="45mm" height="45mm" version="1.1" viewBox="0 0 45 45" back_color="white" xmlns="http://www.w3.org/2000/svg" style="background-color: white;"><path d="M4,4H5V5H4zM5,4H6V5H5zM6,4H7V5H6zM7,4H8V5H7zM8,4H9V5H8zM9,4H10V5H9zM10,4H11V5H10zM12,4H13V5H12zM16,4H17V5H16zM17,4H18V5H17zM18,4H19V5H18zM21,4H22V5H21zM24,4H25V5H24zM25,4H26V5H25zM26,4H27V5H26zM28,4H29V5H28zM34,4H35V5H34zM35,4H36V5H35zM36,4H37V5H36zM37,4H38V5H37zM38,4H39V5H38zM39,4H40V5H39zM40,4H41V5H40zM4,5H5V6H4zM10,5H11V6H10zM12,5H13V6H12zM18,5H19V6H18zM19,5H20V6H19zM23,5H24V6H23zM25,5H26V6H25zM28,5H29V6H28zM29,5H30V6H29zM32,5H33V6H32zM34,5H35V6H34zM40,5H41V6H40zM4,6H5V7H4zM6,6H7V7H6zM7,6H8V7H7zM8,6H9V7H8zM10,6H11V7H10zM12,6H13V7H12zM15,6H16V7H15zM16,6H17V7H16zM19,6H20V7H19zM22,6H23V7H22zM24,6H25V7H24zM25,6H26V7H25zM26,6H27V7H26zM28,6H29V7H28zM29,6H30V7H29zM30,6H31V7H30zM34,6H35V7H34zM36,6H37V7H36zM37,6H38V7H37zM38,6H39V7H38zM40,6H41V7H40zM4,7H5V8H4zM6,7H7V8H6zM7,7H8V8H7zM8,7H9V8H8zM10,7H11V8H10zM13,7H14V8H13zM16,7H17V8H16zM17,7H18V8H17zM19,7H20V8H19zM20,7H21V8H20zM21,7H22V8H21zM22,7H23V8H22zM25,7H26V8H25zM26,7H27V8H26zM29,7H30V8H29zM31,7H32V8H31zM32,7H33V8H32zM34,7H35V8H34zM36,7H37V8H36zM37,7H38V8H37zM38,7H39V8H38zM40,7H41V8H40zM4,8H5V9H4zM6,8H7V9H6zM7,8H8V9H7zM8,8H9V9H8zM10,8H11V9H10zM12,8H13V9H12zM14,8H15V9H14zM16,8H17V9H16zM21,8H22V9H21zM22,8H23V9H22zM23,8H24V9H23zM26,8H27V9H26zM30,8H31V9H30zM32,8H33V9H32zM34,8H35V9H34zM36,8H37V9H36zM37,8H38V9H37zM38,8H39V9H38zM40,8H41V9H40zM4,9H5V10H4zM10,9H11V10H10zM13,9H14V10H13zM14,9H15V10H14zM16,9H17V10H16zM18,9H19V10H18zM19,9H20V10H19zM20,9H21V10H20zM22,9H23V10H22zM25,9H26V10H25zM27,9H28V10H27zM30,9H31V10H30zM32,9H33V10H32zM34,9H35V10H34zM40,9H41V10H40zM4,10H5V11H4zM5,10H6V11H5zM6,10H7V11H6zM7,10H8V11H7zM8,10H9V11H8zM9,10H10V11H9zM10,10H11V11H10zM12,10H13V11H12zM14,10H15V11H14zM16,10H17V11H16zM18,10H19V11H18zM20,10H21V11H20zM22,10H23V11H22zM24,10H25V11H24zM26,10H27V11H26zM28,10H29V11H28zM30,10H31V11H30zM32,10H33V11H32zM34,10H35V11H34zM35,10H36V11H35zM36,10H37V11H36zM37,10H38V11H37zM38,10H39V11H38zM39,10H40V11H39zM40,10H41V11H40zM15,11H16V12H15zM16,11H17V12H16zM20,11H21V12H20zM22,11H23V12H22zM24,11H25V12H24zM26,11H27V12H26zM29,11H30V12H29zM32,11H33V12H32zM4,12H5V13H4zM7,12H8V13H7zM8,12H9V13H8zM9,12H10V13H9zM10,12H11V13H10zM11,12H12V13H11zM12,12H13V13H12zM14,12H15V13H14zM17,12H18V13H17zM18,12H19V13H18zM19,12H20V13H19zM21,12H22V13H21zM22,12H23V13H22zM23,12H24V13H23zM27,12H28V13H27zM30,12H31V13H30zM32,12H33V13H32zM33,12H34V13H33zM36,12H37V13H36zM38,12H39V13H38zM39,12H40V13H39zM40,12H41V13H40zM5,13H6V14H5zM8,13H9V14H8zM13,13H14V14H13zM14,13H15V14H14zM15,13H16V14H15zM18,13H19V14H18zM20,13H21V14H20zM21,13H22V14H21zM22,13H23V14H22zM23,13H24V14H23zM25,13H26V14H25zM27,13H28V14H27zM28,13H29V14H28zM30,13H31V14H30zM31,13H32V14H31zM36,13H37V14H36zM38,13H39V14H38zM39,13H40V14H39zM4,14H5V15H4zM7,14H8V15H7zM10,14H11V15H10zM13,14H14V15H13zM15,14H16V15H15zM16,14H17V15H16zM17,14H18V15H17zM19,14H20V15H19zM20,14H21V15H20zM24,14H25V15H24zM25,14H26V15H25zM27,14H28V15H27zM30,14H31V15H30zM31,14H32V15H31zM32,14H33V15H32zM33,14H34V15H33zM35,14H36V15H35zM38,14H39V15H38zM40,14H41V15H40zM5,15H6V16H5zM7,15H8V16H7zM9,15H10V16H9zM11,15H12V16H11zM13,15H14V16H13zM16,15H17V16H16zM20,15H21V16H20zM21,15H22V16H21zM23,15H24V16H23zM24,15H25V16H24zM26,15H27V16H26zM27,15H28V16H27zM28,15H29V16H28zM30,15H31V16H30zM33,15H34V16H33zM34,15H35V16H34zM38,15H39V16H38zM39,15H40V16H39zM40,15H41V16H40zM8,16H9V17H8zM9,16H10V17H9zM10,16H11V17H10zM11,16H12V17H11zM14,16H15V17H14zM15,16H16V17H15zM16,16H17V17H16zM17,16H18V17H17zM19,16H20V17H19zM20,16H21V17H20zM27,16H28V17H27zM28,16H29V17H28zM32,16H33V17H32zM34,16H35V17H34zM37,16H38V17H37zM40,16H41V17H40zM5,17H6V18H5zM6,17H7V18H6zM7,17H8V18H7zM8,17H9V18H8zM12,17H13V18H12zM16,17H17V18H16zM17,17H18V18H17zM18,17H19V18H18zM19,17H20V18H19zM20,17H21V18H20zM21,17H22V18H21zM22,17H23V18H22zM27,17H28V18H27zM28,17H29V18H28zM30,17H31V18H30zM31,17H32V18H31zM32,17H33V18H32zM36,17H37V18H36zM37,17H38V18H37zM39,17H40V18H39zM6,18H7V19H6zM9,18H10V19H9zM10,18H11V19H10zM12,18H13V19H12zM14,18H15V19H14zM15,18H16V19H15zM16,18H17V19H16zM19,18H20V19H19zM21,18H22V19H21zM23,18H24V19H23zM24,18H25V19H24zM25,18H26V19H25zM26,18H27V19H26zM28,18H29V19H28zM30,18H31V19H30zM31,18H32V19H31zM33,18H34V19H33zM36,18H37V19H36zM37,18H38V19H37zM38,18H39V19H38zM39,18H40V19H39zM40,18H41V19H40zM4,19H5V20H4zM5,19H6V20H5zM9,19H10V20H9zM14,19H15V20H14zM17,19H18V20H17zM19,19H20V20H19zM20,19H21V20H20zM24,19H25V20H24zM26,19H27V20H26zM27,19H28V20H27zM28,19H29V20H28zM30,19H31V20H30zM32,19H33V20H32zM33,19H34V20H33zM34,19H35V20H34zM35,19H36V20H35zM37,19H38V20H37zM38,19H39V20H38zM39,19H40V20H39zM40,19H41V20H40zM4,20H5V21H4zM5,20H6V21H5zM8,20H9V21H8zM10,20H11V21H10zM11,20H12V21H11zM12,20H13V21H12zM14,20H15V21H14zM16,20H17V21H16zM19,20H20V21H19zM21,20H22V21H21zM22,20H23V21H22zM24,20H25V21H24zM26,20H27V21H26zM27,20H28V21H27zM29,20H30V21H29zM34,20H35V21H34zM35,20H36V21H35zM38,20H39V21H38zM40,20H41V21H40zM4,21H5V22H4zM5,21H6V22H5zM11,21H12V22H11zM13,21H14V22H13zM15,21H16V22H15zM18,21H19V22H18zM22,21H23V22H22zM23,21H24V22H23zM24,21H25V22H24zM26,21H27V22H26zM28,21H29V22H28zM30,21H31V22H30zM31,21H32V22H31zM33,21H34V22H33zM35,21H36V22H35zM37,21H38V22H37zM4,22H5V23H4zM10,22H11V23H10zM13,22H14V23H13zM16,22H17V23H16zM18,22H19V23H18zM20,22H21V23H20zM21,22H22V23H21zM23,22H24V23H23zM25,22H26V23H25zM26,22H27V23H26zM27,22H28V23H27zM30,22H31V23H30zM31,22H32V23H31zM36,22H37V23H36zM40,22H41V23H40zM4,23H5V24H4zM5,23H6V24H5zM6,23H7V24H6zM9,23H10V24H9zM12,23H13V24H12zM16,23H17V24H16zM17,23H18V24H17zM19,23H20V24H19zM20,23H21V24H20zM22,23H23V24H22zM23,23H24V24H23zM24,23H25V24H24zM26,23H27V24H26zM27,23H28V24H27zM28,23H29V24H28zM29,23H30V24H29zM30,23H31V24H30zM32,23H33V24H32zM36,23H37V24H36zM37,23H38V24H37zM40,23H41V24H40zM4,24H5V25H4zM5,24H6V25H5zM6,24H7V25H6zM10,24H11V25H10zM12,24H13V25H12zM14,24H15V25H14zM20,24H21V25H20zM21,24H22V25H21zM26,24H27V25H26zM30,24H31V25H30zM32,24H33V25H32zM34,24H35V25H34zM35,24H36V25H35zM36,24H37V25H36zM37,24H38V25H37zM4,25H5V26H4zM6,25H7V26H6zM8,25H9V26H8zM11,25H12V26H11zM12,25H13V26H12zM13,25H14V26H13zM15,25H16V26H15zM16,25H17V26H16zM18,25H19V26H18zM19,25H20V26H19zM21,25H22V26H21zM22,25H23V26H22zM23,25H24V26H23zM26,25H27V26H26zM27,25H28V26H27zM31,25H32V26H31zM36,25H37V26H36zM38,25H39V26H38zM5,26H6V27H5zM10,26H11V27H10zM11,26H12V27H11zM15,26H16V27H15zM16,26H17V27H16zM18,26H19V27H18zM19,26H20V27H19zM20,26H21V27H20zM25,26H26V27H25zM27,26H28V27H27zM31,26H32V27H31zM32,26H33V27H32zM33,26H34V27H33zM34,26H35V27H34zM35,26H36V27H35zM37,26H38V27H37zM40,26H41V27H40zM6,27H7V28H6zM7,27H8V28H7zM8,27H9V28H8zM9,27H10V28H9zM16,27H17V28H16zM19,27H20V28H19zM20,27H21V28H20zM22,27H23V28H22zM23,27H24V28H23zM24,27H25V28H24zM27,27H28V28H27zM31,27H32V28H31zM34,27H35V28H34zM35,27H36V28H35zM36,27H37V28H36zM37,27H38V28H37zM38,27H39V28H38zM39,27H40V28H39zM40,27H41V28H40zM4,28H5V29H4zM7,28H8V29H7zM9,28H10V29H9zM10,28H11V29H10zM12,28H13V29H12zM14,28H15V29H14zM15,28H16V29H15zM16,28H17V29H16zM19,28H20V29H19zM21,28H22V29H21zM24,28H25V29H24zM27,28H28V29H27zM31,28H32V29H31zM32,28H33V29H32zM34,28H35V29H34zM35,28H36V29H35zM39,28H40V29H39zM40,28H41V29H40zM4,29H5V30H4zM6,29H7V30H6zM7,29H8V30H7zM15,29H16V30H15zM18,29H19V30H18zM22,29H23V30H22zM25,29H26V30H25zM27,29H28V30H27zM29,29H30V30H29zM30,29H31V30H30zM31,29H32V30H31zM36,29H37V30H36zM37,29H38V30H37zM4,30H5V31H4zM5,30H6V31H5zM8,30H9V31H8zM10,30H11V31H10zM11,30H12V31H11zM14,30H15V31H14zM15,30H16V31H15zM16,30H17V31H16zM17,30H18V31H17zM18,30H19V31H18zM19,30H20V31H19zM22,30H23V31H22zM23,30H24V31H23zM28,30H29V31H28zM31,30H32V31H31zM32,30H33V31H32zM33,30H34V31H33zM35,30H36V31H35zM36,30H37V31H36zM37,30H38V31H37zM38,30H39V31H38zM39,30H40V31H39zM40,30H41V31H40zM4,31H5V32H4zM7,31H8V32H7zM8,31H9V32H8zM11,31H12V32H11zM12,31H13V32H12zM14,31H15V32H14zM18,31H19V32H18zM20,31H21V32H20zM26,31H27V32H26zM27,31H28V32H27zM30,31H31V32H30zM33,31H34V32H33zM34,31H35V32H34zM35,31H36V32H35zM37,31H38V32H37zM38,31H39V32H38zM4,32H5V33H4zM6,32H7V33H6zM8,32H9V33H8zM9,32H10V33H9zM10,32H11V33H10zM11,32H12V33H11zM12,32H13V33H12zM14,32H15V33H14zM16,32H17V33H16zM18,32H19V33H18zM19,32H20V33H19zM20,32H21V33H20zM24,32H25V33H24zM26,32H27V33H26zM28,32H29V33H28zM29,32H30V33H29zM31,32H32V33H31zM32,32H33V33H32zM33,32H34V33H33zM34,32H35V33H34zM35,32H36V33H35zM36,32H37V33H36zM38,32H39V33H38zM12,33H13V34H12zM13,33H14V34H13zM17,33H18V34H17zM18,33H19V34H18zM19,33H20V34H19zM21,33H22V34H21zM22,33H23V34H22zM23,33H24V34H23zM25,33H26V34H25zM26,33H27V34H26zM30,33H31V34H30zM31,33H32V34H31zM32,33H33V34H32zM36,33H37V34H36zM38,33H39V34H38zM4,34H5V35H4zM5,34H6V35H5zM6,34H7V35H6zM7,34H8V35H7zM8,34H9V35H8zM9,34H10V35H9zM10,34H11V35H10zM12,34H13V35H12zM13,34H14V35H13zM14,34H15V35H14zM17,34H18V35H17zM19,34H20V35H19zM20,34H21V35H20zM21,34H22V35H21zM22,34H23V35H22zM23,34H24V35H23zM25,34H26V35H25zM26,34H27V35H26zM27,34H28V35H27zM28,34H29V35H28zM29,34H30V35H29zM30,34H31V35H30zM32,34H33V35H32zM34,34H35V35H34zM36,34H37V35H36zM40,34H41V35H40zM4,35H5V36H4zM10,35H11V36H10zM12,35H13V36H12zM15,35H16V36H15zM16,35H17V36H16zM20,35H21V36H20zM23,35H24V36H23zM26,35H27V36H26zM27,35H28V36H27zM29,35H30V36H29zM31,35H32V36H31zM32,35H33V36H32zM36,35H37V36H36zM39,35H40V36H39zM40,35H41V36H40zM4,36H5V37H4zM6,36H7V37H6zM7,36H8V37H7zM8,36H9V37H8zM10,36H11V37H10zM12,36H13V37H12zM14,36H15V37H14zM16,36H17V37H16zM17,36H18V37H17zM19,36H20V37H19zM20,36H21V37H20zM22,36H23V37H22zM23,36H24V37H23zM24,36H25V37H24zM27,36H28V37H27zM28,36H29V37H28zM30,36H31V37H30zM31,36H32V37H31zM32,36H33V37H32zM33,36H34V37H33zM34,36H35V37H34zM35,36H36V37H35zM36,36H37V37H36zM40,36H41V37H40zM4,37H5V38H4zM6,37H7V38H6zM7,37H8V38H7zM8,37H9V38H8zM10,37H11V38H10zM12,37H13V38H12zM14,37H15V38H14zM17,37H18V38H17zM18,37H19V38H18zM21,37H22V38H21zM23,37H24V38H23zM26,37H27V38H26zM27,37H28V38H27zM30,37H31V38H30zM31,37H32V38H31zM32,37H33V38H32zM34,37H35V38H34zM37,37H38V38H37zM38,37H39V38H38zM40,37H41V38H40zM4,38H5V39H4zM6,38H7V39H6zM7,38H8V39H7zM8,38H9V39H8zM10,38H11V39H10zM13,38H14V39H13zM15,38H16V39H15zM17,38H18V39H17zM24,38H25V39H24zM25,38H26V39H25zM26,38H27V39H26zM27,38H28V39H27zM32,38H33V39H32zM33,38H34V39H33zM36,38H37V39H36zM40,38H41V39H40zM4,39H5V40H4zM10,39H11V40H10zM14,39H15V40H14zM17,39H18V40H17zM19,39H20V40H19zM21,39H22V40H21zM22,39H23V40H22zM23,39H24V40H23zM24,39H25V40H24zM26,39H27V40H26zM27,39H28V40H27zM28,39H29V40H28zM30,39H31V40H30zM36,39H37V40H36zM37,39H38V40H37zM38,39H39V40H38zM39,39H40V40H39zM40,39H41V40H40zM4,40H5V41H4zM5,40H6V41H5zM6,40H7V41H6zM7,40H8V41H7zM8,40H9V41H8zM9,40H10V41H9zM10,40H11V41H10zM12,40H13V41H12zM14,40H15V41H14zM16,40H17V41H16zM17,40H18V41H17zM18,40H19V41H18zM20,40H21V41H20zM24,40H25V41H24zM28,40H29V41H28zM32,40H33V41H32zM33,40H34V41H33zM35,40H36V41H35zM37,40H38V41H37zM40,40H41V41H40z" id="qr-path" fill="#000000" fill-opacity="1" fill-rule="nonzero" stroke="none"/></svg>