<svg width="41mm" height="41mm" version="1.1" viewBox="0 0 41 41" back_color="white" xmlns="http://www.w3.org/2000/svg" style="background-color: white;"><path d="M4,4H5V5H4zM5,4H6V5H5zM6,4H7V5H6zM7,4H8V5H7zM8,4H9V5H8zM9,4H10V5H9zM10,4H11V5H10zM12,4H13V5H12zM13,4H14V5H13zM17,4H18V5H17zM22,4H23V5H22zM25,4H26V5H25zM26,4H27V5H26zM30,4H31V5H30zM31,4H32V5H31zM32,4H33V5H32zM33,4H34V5H33zM34,4H35V5H34zM35,4H36V5H35zM36,4H37V5H36zM4,5H5V6H4zM10,5H11V6H10zM12,5H13V6H12zM13,5H14V6H13zM16,5H17V6H16zM17,5H18V6H17zM18,5H19V6H18zM21,5H22V6H21zM23,5H24V6H23zM24,5H25V6H24zM25,5H26V6H25zM30,5H31V6H30zM36,5H37V6H36zM4,6H5V7H4zM6,6H7V7H6zM7,6H8V7H7zM8,6H9V7H8zM10,6H11V7H10zM12,6H13V7H12zM14,6H15V7H14zM15,6H16V7H15zM16,6H17V7H16zM17,6H18V7H17zM18,6H19V7H18zM19,6H20V7H19zM20,6H21V7H20zM24,6H25V7H24zM25,6H26V7H25zM26,6H27V7H26zM27,6H28V7H27zM30,6H31V7H30zM32,6H33V7H32zM33,6H34V7H33zM34,6H35V7H34zM36,6H37V7H36zM4,7H5V8H4zM6,7H7V8H6zM7,7H8V8H7zM8,7H9V8H8zM10,7H11V8H10zM13,7H14V8H13zM14,7H15V8H14zM15,7H16V8H15zM18,7H19V8H18zM20,7H21V8H20zM22,7H23V8H22zM23,7H24V8H23zM24,7H25V8H24zM25,7H26V8H25zM30,7H31V8H30zM32,7H33V8H32zM33,7H34V8H33zM34,7H35V8H34zM36,7H37V8H36zM4,8H5V9H4zM6,8H7V9H6zM7,8H8V9H7zM8,8H9V9H8zM10,8H11V9H10zM12,8H13V9H12zM14,8H15V9H14zM16,8H17V9H16zM19,8H20V9H19zM20,8H21V9H20zM21,8H22V9H21zM22,8H23V9H22zM23,8H24V9H23zM24,8H25V9H24zM30,8H31V9H30zM32,8H33V9H32zM33,8H34V9H33zM34,8H35V9H34zM36,8H37V9H36zM4,9H5V10H4zM10,9H11V10H10zM14,9H15V10H14zM16,9H17V10H16zM17,9H18V10H17zM19,9H20V10H19zM20,9H21V10H20zM21,9H22V10H21zM26,9H27V10H26zM27,9H28V10H27zM30,9H31V10H30zM36,9H37V10H36zM4,10H5V11H4zM5,10H6V11H5zM6,10H7V11H6zM7,10H8V11H7zM8,10H9V11H8zM9,10H10V11H9zM10,10H11V11H10zM12,10H13V11H12zM14,10H15V11H14zM16,10H17V11H16zM18,10H19V11H18zM20,10H21V11H20zM22,10H23V11H22zM24,10H25V11H24zM26,10H27V11H26zM28,10H29V11H28zM30,10H31V11H30zM31,10H32V11H31zM32,10H33V11H32zM33,10H34V11H33zM34,10H35V11H34zM35,10H36V11H35zM36,10H37V11H36zM17,11H18V12H17zM18,11H19V12H18zM19,11H20V12H19zM20,11H21V12H20zM24,11H25V12H24zM26,11H27V12H26zM27,11H28V12H27zM4,12H5V13H4zM7,12H8V13H7zM8,12H9V13H8zM9,12H10V13H9zM10,12H11V13H10zM11,12H12V13H11zM12,12H13V13H12zM13,12H14V13H13zM16,12H17V13H16zM18,12H19V13H18zM21,12H22V13H21zM23,12H24V13H23zM27,12H28V13H27zM29,12H30V13H29zM32,12H33V13H32zM34,12H35V13H34zM35,12H36V13H35zM36,12H37V13H36zM5,13H6V14H5zM6,13H7V14H6zM8,13H9V14H8zM14,13H15V14H14zM15,13H16V14H15zM16,13H17V14H16zM17,13H18V14H17zM18,13H19V14H18zM19,13H20V14H19zM21,13H22V14H21zM23,13H24V14H23zM26,13H27V14H26zM27,13H28V14H27zM32,13H33V14H32zM33,13H34V14H33zM34,13H35V14H34zM5,14H6V15H5zM7,14H8V15H7zM8,14H9V15H8zM10,14H11V15H10zM11,14H12V15H11zM14,14H15V15H14zM15,14H16V15H15zM16,14H17V15H16zM17,14H18V15H17zM19,14H20V15H19zM26,14H27V15H26zM27,14H28V15H27zM30,14H31V15H30zM32,14H33V15H32zM33,14H34V15H33zM34,14H35V15H34zM35,14H36V15H35zM36,14H37V15H36zM4,15H5V16H4zM6,15H7V16H6zM7,15H8V16H7zM8,15H9V16H8zM12,15H13V16H12zM16,15H17V16H16zM17,15H18V16H17zM19,15H20V16H19zM22,15H23V16H22zM24,15H25V16H24zM27,15H28V16H27zM29,15H30V16H29zM30,15H31V16H30zM31,15H32V16H31zM34,15H35V16H34zM35,15H36V16H35zM4,16H5V17H4zM6,16H7V17H6zM7,16H8V17H7zM8,16H9V17H8zM10,16H11V17H10zM11,16H12V17H11zM12,16H13V17H12zM15,16H16V17H15zM17,16H18V17H17zM21,16H22V17H21zM23,16H24V17H23zM26,16H27V17H26zM28,16H29V17H28zM30,16H31V17H30zM31,16H32V17H31zM36,16H37V17H36zM5,17H6V18H5zM9,17H10V18H9zM12,17H13V18H12zM14,17H15V18H14zM18,17H19V18H18zM22,17H23V18H22zM24,17H25V18H24zM25,17H26V18H25zM27,17H28V18H27zM29,17H30V18H29zM31,17H32V18H31zM6,18H7V19H6zM7,18H8V19H7zM8,18H9V19H8zM9,18H10V19H9zM10,18H11V19H10zM11,18H12V19H11zM13,18H14V19H13zM16,18H17V19H16zM17,18H18V19H17zM18,18H19V19H18zM19,18H20V19H19zM21,18H22V19H21zM22,18H23V19H22zM23,18H24V19H23zM24,18H25V19H24zM25,18H26V19H25zM28,18H29V19H28zM30,18H31V19H30zM32,18H33V19H32zM33,18H34V19H33zM4,19H5V20H4zM5,19H6V20H5zM9,19H10V20H9zM13,19H14V20H13zM14,19H15V20H14zM16,19H17V20H16zM18,19H19V20H18zM20,19H21V20H20zM22,19H23V20H22zM23,19H24V20H23zM26,19H27V20H26zM27,19H28V20H27zM29,19H30V20H29zM32,19H33V20H32zM33,19H34V20H33zM34,19H35V20H34zM36,19H37V20H36zM4,20H5V21H4zM5,20H6V21H5zM10,20H11V21H10zM14,20H15V21H14zM15,20H16V21H15zM16,20H17V21H16zM17,20H18V21H17zM18,20H19V21H18zM19,20H20V21H19zM22,20H23V21H22zM23,20H24V21H23zM26,20H27V21H26zM28,20H29V21H28zM29,20H30V21H29zM30,20H31V21H30zM31,20H32V21H31zM32,20H33V21H32zM4,21H5V22H4zM7,21H8V22H7zM8,21H9V22H8zM11,21H12V22H11zM13,21H14V22H13zM14,21H15V22H14zM19,21H20V22H19zM20,21H21V22H20zM21,21H22V22H21zM22,21H23V22H22zM23,21H24V22H23zM24,21H25V22H24zM25,21H26V22H25zM26,21H27V22H26zM28,21H29V22H28zM29,21H30V22H29zM30,21H31V22H30zM32,21H33V22H32zM34,21H35V22H34zM36,21H37V22H36zM8,22H9V23H8zM10,22H11V23H10zM12,22H13V23H12zM14,22H15V23H14zM15,22H16V23H15zM17,22H18V23H17zM19,22H20V23H19zM21,22H22V23H21zM22,22H23V23H22zM23,22H24V23H23zM24,22H25V23H24zM27,22H28V23H27zM29,22H30V23H29zM31,22H32V23H31zM33,22H34V23H33zM34,22H35V23H34zM36,22H37V23H36zM5,23H6V24H5zM15,23H16V24H15zM17,23H18V24H17zM24,23H25V24H24zM26,23H27V24H26zM29,23H30V24H29zM30,23H31V24H30zM32,23H33V24H32zM33,23H34V24H33zM34,23H35V24H34zM35,23H36V24H35zM4,24H5V25H4zM7,24H8V25H7zM10,24H11V25H10zM13,24H14V25H13zM14,24H15V25H14zM16,24H17V25H16zM17,24H18V25H17zM18,24H19V25H18zM19,24H20V25H19zM20,24H21V25H20zM22,24H23V25H22zM23,24H24V25H23zM27,24H28V25H27zM28,24H29V25H28zM31,24H32V25H31zM33,24H34V25H33zM35,24H36V25H35zM36,24H37V25H36zM4,25H5V26H4zM6,25H7V26H6zM8,25H9V26H8zM9,25H10V26H9zM11,25H12V26H11zM15,25H16V26H15zM16,25H17V26H16zM18,25H19V26H18zM21,25H22V26H21zM23,25H24V26H23zM24,25H25V26H24zM25,25H26V26H25zM26,25H27V26H26zM27,25H28V26H27zM28,25H29V26H28zM31,25H32V26H31zM32,25H33V26H32zM33,25H34V26H33zM34,25H35V26H34zM4,26H5V27H4zM6,26H7V27H6zM7,26H8V27H7zM8,26H9V27H8zM10,26H11V27H10zM11,26H12V27H11zM13,26H14V27H13zM14,26H15V27H14zM15,26H16V27H15zM17,26H18V27H17zM18,26H19V27H18zM21,26H22V27H21zM24,26H25V27H24zM25,26H26V27H25zM26,26H27V27H26zM27,26H28V27H27zM28,26H29V27H28zM33,26H34V27H33zM34,26H35V27H34zM35,26H36V27H35zM36,26H37V27H36zM4,27H5V28H4zM9,27H10V28H9zM11,27H12V28H11zM12,27H13V28H12zM15,27H16V28H15zM16,27H17V28H16zM19,27H20V28H19zM21,27H22V28H21zM23,27H24V28H23zM24,27H25V28H24zM28,27H29V28H28zM31,27H32V28H31zM34,27H35V28H34zM35,27H36V28H35zM4,28H5V29H4zM5,28H6V29H5zM7,28H8V29H7zM9,28H10V29H9zM10,28H11V29H10zM12,28H13V29H12zM13,28H14V29H13zM14,28H15V29H14zM16,28H17V29H16zM17,28H18V29H17zM18,28H19V29H18zM20,28H21V29H20zM23,28H24V29H23zM27,28H28V29H27zM28,28H29V29H28zM29,28H30V29H29zM30,28H31V29H30zM31,28H32V29H31zM32,28H33V29H32zM33,28H34V29H33zM36,28H37V29H36zM12,29H13V30H12zM13,29H14V30H13zM15,29H16V30H15zM17,29H18V30H17zM19,29H20V30H19zM20,29H21V30H20zM21,29H22V30H21zM28,29H29V30H28zM32,29H33V30H32zM34,29H35V30H34zM35,29H36V30H35zM4,30H5V31H4zM5,30H6V31H5zM6,30H7V31H6zM7,30H8V31H7zM8,30H9V31H8zM9,30H10V31H9zM10,30H11V31H10zM12,30H13V31H12zM13,30H14V31H13zM16,30H17V31H16zM17,30H18V31H17zM18,30H19V31H18zM19,30H20V31H19zM20,30H21V31H20zM21,30H22V31H21zM23,30H24V31H23zM25,30H26V31H25zM26,30H27V31H26zM27,30H28V31H27zM28,30H29V31H28zM30,30H31V31H30zM32,30H33V31H32zM34,30H35V31H34zM4,31H5V32H4zM10,31H11V32H10zM12,31H13V32H12zM14,31H15V32H14zM18,31H19V32H18zM20,31H21V32H20zM21,31H22V32H21zM22,31H23V32H22zM23,31H24V32H23zM24,31H25V32H24zM28,31H29V32H28zM32,31H33V32H32zM33,31H34V32H33zM34,31H35V32H34zM35,31H36V32H35zM4,32H5V33H4zM6,32H7V33H6zM7,32H8V33H7zM8,32H9V33H8zM10,32H11V33H10zM12,32H13V33H12zM13,32H14V33H13zM14,32H15V33H14zM15,32H16V33H15zM16,32H17V33H16zM18,32H19V33H18zM20,32H21V33H20zM21,32H22V33H21zM27,32H28V33H27zM28,32H29V33H28zM29,32H30V33H29zM30,32H31V33H30zM31,32H32V33H31zM32,32H33V33H32zM35,32H36V33H35zM4,33H5V34H4zM6,33H7V34H6zM7,33H8V34H7zM8,33H9V34H8zM10,33H11V34H10zM12,33H13V34H12zM14,33H15V34H14zM15,33H16V34H15zM20,33H21V34H20zM21,33H22V34H21zM22,33H23V34H22zM23,33H24V34H23zM24,33H25V34H24zM26,33H27V34H26zM27,33H28V34H27zM29,33H30V34H29zM31,33H32V34H31zM34,33H35V34H34zM35,33H36V34H35zM36,33H37V34H36zM4,34H5V35H4zM6,34H7V35H6zM7,34H8V35H7zM8,34H9V35H8zM10,34H11V35H10zM14,34H15V35H14zM15,34H16V35H15zM16,34H17V35H16zM18,34H19V35H18zM19,34H20V35H19zM22,34H23V35H22zM23,34H24V35H23zM25,34H26V35H25zM26,34H27V35H26zM29,34H30V35H29zM31,34H32V35H31zM32,34H33V35H32zM34,34H35V35H34zM35,34H36V35H35zM36,34H37V35H36zM4,35H5V36H4zM10,35H11V36H10zM14,35H15V36H14zM16,35H17V36H16zM22,35H23V36H22zM26,35H27V36H26zM27,35H28V36H27zM30,35H31V36H30zM31,35H32V36H31zM32,35H33V36H32zM33,35H34V36H33zM34,35H35V36H34zM35,35H36V36H35zM36,35H37V36H36zM4,36H5V37H4zM5,36H6V37H5zM6,36H7V37H6zM7,36H8V37H7zM8,36H9V37H8zM9,36H10V37H9zM10,36H11V37H10zM12,36H13V37H12zM13,36H14V37H13zM15,36H16V37H15zM17,36H18V37H17zM18,36H19V37H18zM19,36H20V37H19zM21,36H22V37H21zM22,36H23V37H22zM27,36H28V37H27zM28,36H29V37H28zM31,36H32V37H31zM32,36H33V37H32z" id="qr-path" fill="#000000" fill-opacity="1" fill-rule="nonzero" stroke="none"/></svg>