<?xml version="1.0" encoding="UTF-8" standalone="no"?><!--Created with Inkscape (http://www.inkscape.org/)--><svg width="210mm" height="148mm" viewBox="0 0 210 148" version="1.1" id="svg15949" xmlns="http://www.w3.org/2000/svg" xmlns:svg="http://www.w3.org/2000/svg"><defs id="defs15946"/><g id="layer1"><g id="g17568"><path id="rect10373" style="fill:#bde3f2;fill-opacity:1;stroke-width:0.26562" d="M 0,0.36297666 V 148.20459 H 210.35227 V 0.36297666 Z"/><path id="path462" style="fill:#7999ab;fill-opacity:1;stroke:none;stroke-width:0.328559;stroke-opacity:1" d="M 4.7283935,79.375405 C 2.5033845,79.395005 0.94177753,80.112331 -3.6666666e-8,80.718851 V 108.47917 H 210.60832 V 86.446925 81.550794 c 0,0 -4.40977,4.896011 -13.22916,0 -2.89387,-1.606502 -5.3126,-2.158523 -7.25692,-2.175389 -3.98118,-0.03453 -5.97225,2.175389 -5.97225,2.175389 0,0 -4.40978,4.896011 -13.22917,0 -2.89386,-1.606502 -5.3126,-2.158523 -7.25692,-2.175389 -3.98121,-0.03453 -5.97224,2.175389 -5.97224,2.175389 0,0 -4.40977,4.896011 -13.22917,0 -2.89386,-1.606502 -5.3126,-2.158523 -7.25692,-2.175389 -3.98122,-0.03453 -5.97225,2.175389 -5.97225,2.175389 0,0 -4.40976,4.896011 -13.22916,0 -2.89387,-1.606502 -5.31262,-2.158523 -7.25692,-2.175389 -0.0622,-5.4e-4 -0.12428,-5.4e-4 -0.18552,0 -3.85779,0.03398 -5.78673,2.175389 -5.78673,2.175389 0,0 -4.40977,4.896011 -13.229158,0 -2.893857,-1.606502 -5.312609,-2.158523 -7.256921,-2.175389 -3.981222,-0.03453 -5.972245,2.175389 -5.972245,2.175389 0,0 -4.409759,4.896011 -13.229167,0 -2.893857,-1.606502 -5.31261,-2.158523 -7.256921,-2.175389 -3.981223,-0.03453 -5.972246,2.175389 -5.972246,2.175389 0,0 -4.409763,4.896011 -13.229166,0 -2.893864,-1.606502 -5.312606,-2.158523 -7.256922,-2.175389 -3.98122,-0.03453 -5.972245,2.175389 -5.972245,2.175389 0,0 -4.409764,4.896011 -13.229167,0 -2.8938634,-1.606502 -5.3126044,-2.158523 -7.2569202,-2.175389 -0.0622,-5.4e-4 -0.1242788,-5.4e-4 -0.1855183,0 z"/><path id="path462-0" style="fill:#5d8094;fill-opacity:1;stroke:none;stroke-width:0.373305;stroke-opacity:1" d="M 4.7283935,86.783249 C 2.5033844,86.808559 0.94177753,87.734567 -3.6666666e-8,88.517541 V 124.10123 H -1.0583333 v 0.25294 H 210.60832 V 95.912073 89.59152 c 0,0 -4.40977,6.320399 -13.22916,0 -2.89387,-2.073879 -5.3126,-2.786499 -7.25692,-2.808271 -3.98118,-0.04457 -5.97225,2.808271 -5.97225,2.808271 0,0 -4.40978,6.320399 -13.22917,0 -2.89386,-2.073879 -5.3126,-2.786499 -7.25692,-2.808271 -3.98121,-0.04457 -5.97224,2.808271 -5.97224,2.808271 0,0 -4.40977,6.320399 -13.22917,0 -2.89386,-2.073879 -5.3126,-2.786499 -7.25692,-2.808271 -3.98122,-0.04457 -5.97225,2.808271 -5.97225,2.808271 0,0 -4.40976,6.320399 -13.22916,0 -2.89387,-2.073879 -5.31262,-2.786499 -7.25692,-2.808271 -0.0622,-6.98e-4 -0.12428,-6.96e-4 -0.18552,0 -3.85779,0.04387 -5.78673,2.808271 -5.78673,2.808271 0,0 -4.40977,6.320399 -13.229158,0 -2.893857,-2.073879 -5.312609,-2.786499 -7.256921,-2.808271 -3.981222,-0.04457 -5.972245,2.808271 -5.972245,2.808271 0,0 -4.409759,6.320399 -13.229167,0 -2.893857,-2.073879 -5.31261,-2.786499 -7.256921,-2.808271 -3.981223,-0.04457 -5.972246,2.808271 -5.972246,2.808271 0,0 -4.409763,6.320399 -13.229166,0 -2.893864,-2.073879 -5.312606,-2.786499 -7.256922,-2.808271 -3.98122,-0.04457 -5.972245,2.808271 -5.972245,2.808271 0,0 -4.409764,6.320399 -13.229167,0 -2.8938634,-2.073879 -5.3126051,-2.786499 -7.2569202,-2.808271 -0.0622,-6.98e-4 -0.1242794,-6.96e-4 -0.1855183,0 z"/><path id="path462-2" style="fill:#7999ab;fill-opacity:1;stroke:none;stroke-width:0.348845;stroke-opacity:1" d="M 4.7283935,97.366511 C 2.5033845,97.388611 0.94177763,98.197252 -3.6666666e-8,98.880979 V 130.17499 H 210.60832 v -24.83671 -5.519447 c 0,0 -4.40977,5.519317 -13.22916,0 -2.89387,-1.811021 -5.3126,-2.43331 -7.25692,-2.452322 -3.98118,-0.03893 -5.97225,2.452322 -5.97225,2.452322 0,0 -4.40978,5.519317 -13.22917,0 -2.89386,-1.811021 -5.3126,-2.43331 -7.25692,-2.452322 -3.98121,-0.03893 -5.97224,2.452322 -5.97224,2.452322 0,0 -4.40977,5.519317 -13.22917,0 -2.89386,-1.811021 -5.3126,-2.43331 -7.25692,-2.452322 -3.98122,-0.03893 -5.97225,2.452322 -5.97225,2.452322 0,0 -4.40976,5.519317 -13.22916,0 -2.89387,-1.811021 -5.31262,-2.43331 -7.25692,-2.452322 -0.0622,-6.1e-4 -0.12428,-6.08e-4 -0.18552,0 -3.85779,0.03831 -5.78673,2.452322 -5.78673,2.452322 0,0 -4.40978,5.519317 -13.229158,0 -2.893861,-1.811021 -5.312609,-2.43331 -7.256921,-2.452322 -3.981222,-0.03893 -5.972245,2.452322 -5.972245,2.452322 0,0 -4.409759,5.519317 -13.229167,0 -2.893857,-1.811021 -5.31261,-2.43331 -7.256921,-2.452322 -3.981223,-0.03893 -5.972246,2.452322 -5.972246,2.452322 0,0 -4.409763,5.519317 -13.229166,0 -2.893864,-1.811021 -5.312606,-2.43331 -7.256922,-2.452322 -3.98122,-0.03893 -5.972245,2.452322 -5.972245,2.452322 0,0 -4.409764,5.519317 -13.229167,0 -2.8938624,-1.811021 -5.3126051,-2.43331 -7.2569202,-2.452322 -0.0622,-6.1e-4 -0.1242794,-6.08e-4 -0.1855183,0 z"/><path id="path462-0-8" style="fill:#5d8094;fill-opacity:1;stroke:none;stroke-width:0.381113;stroke-opacity:1" d="M 4.7283935,106.89112 C 2.5033844,106.91752 0.94177753,107.88304 -3.6666666e-8,108.6991 V 146.05 H 210.60832 v -29.64415 -6.58736 c 0,0 -4.40977,6.58754 -13.22916,0 -2.89387,-2.16155 -5.3126,-2.90468 -7.25692,-2.92737 -3.98118,-0.0464 -5.97225,2.92737 -5.97225,2.92737 0,0 -4.40978,6.58754 -13.22917,0 -2.89386,-2.16155 -5.3126,-2.90468 -7.25692,-2.92737 -3.98121,-0.0464 -5.97224,2.92737 -5.97224,2.92737 0,0 -4.40977,6.58754 -13.22917,0 -2.89386,-2.16155 -5.3126,-2.90468 -7.25692,-2.92737 -3.98122,-0.0464 -5.97225,2.92737 -5.97225,2.92737 0,0 -4.40976,6.58754 -13.22916,0 -2.89387,-2.16155 -5.31262,-2.90468 -7.25692,-2.92737 -0.0622,-7.3e-4 -0.12428,-7.3e-4 -0.18552,0 -3.85779,0.0457 -5.78673,2.92737 -5.78673,2.92737 0,0 -4.40977,6.58754 -13.229158,0 -2.893857,-2.16155 -5.312609,-2.90468 -7.256921,-2.92737 -3.981222,-0.0464 -5.972245,2.92737 -5.972245,2.92737 0,0 -4.409759,6.58754 -13.229167,0 -2.893857,-2.16155 -5.31261,-2.90468 -7.256921,-2.92737 -3.981223,-0.0464 -5.972246,2.92737 -5.972246,2.92737 0,0 -4.409763,6.58754 -13.229166,0 -2.893864,-2.16155 -5.312606,-2.90468 -7.256922,-2.92737 -3.98122,-0.0464 -5.972245,2.92737 -5.972245,2.92737 0,0 -4.409763,6.58754 -13.229167,0 -2.8938644,-2.16155 -5.3126052,-2.90468 -7.2569202,-2.92737 -0.0622,-7.3e-4 -0.1242794,-7.3e-4 -0.1855183,0 z"/><path id="path462-2-6" style="fill:#7999ab;fill-opacity:1;stroke:none;stroke-width:0.440972;stroke-opacity:1" d="M 4.7283936 120.12083 C 2.503389 120.15613 0.94177592 121.44829 0 122.54084 L 0 148.16667 L 210.60833 148.16667 L 210.60833 132.85907 L 210.60833 124.03946 C 210.60833 124.03946 206.19854 132.85884 197.37917 124.03946 C 194.4853 121.1456 192.06655 120.15121 190.12225 120.12083 C 186.14107 120.05863 184.15 124.03946 184.15 124.03946 C 184.15 124.03946 179.7402 132.85884 170.92083 124.03946 C 168.02699 121.1456 165.60823 120.15121 163.66391 120.12083 C 159.68272 120.05863 157.69167 124.03946 157.69167 124.03946 C 157.69167 124.03946 153.28188 132.85884 144.4625 124.03946 C 141.56864 121.1456 139.1499 120.15121 137.20558 120.12083 C 133.22436 120.05863 131.23333 124.03946 131.23333 124.03946 C 131.23333 124.03946 126.82355 132.85884 118.00417 124.03946 C 115.1103 121.1456 112.69153 120.15121 110.74725 120.12083 C 110.68505 120.11985 110.62297 120.11986 110.56173 120.12083 C 106.70394 120.18203 104.775 124.03946 104.775 124.03946 C 104.775 124.03946 100.36518 132.85884 91.545833 124.03946 C 88.651972 121.1456 86.233216 120.15121 84.288912 120.12083 C 80.307694 120.05863 78.316667 124.03946 78.316667 124.03946 C 78.316667 124.03946 73.90689 132.85884 65.0875 124.03946 C 62.193649 121.1456 59.774886 120.15121 57.830579 120.12083 C 53.849364 120.05863 51.858333 124.03946 51.858333 124.03946 C 51.858333 124.03946 47.448552 132.85884 38.629167 124.03946 C 35.735309 121.1456 33.316557 120.15121 31.372245 120.12083 C 27.391033 120.05863 25.4 124.03946 25.4 124.03946 C 25.4 124.03946 20.99022 132.85884 12.170833 124.03946 C 9.2769778 121.1456 6.8582232 120.15121 4.9139119 120.12083 C 4.851712 120.11985 4.7896323 120.11986 4.7283936 120.12083 z "/><path id="path462-0-8-5" style="fill:#5d8094;fill-opacity:1;stroke:none;stroke-width:0.440972;stroke-opacity:1" d="M 4.7283936 133.35 C 2.5033884 133.3853 0.94177552 134.67746 0 135.77001 L 0 148.16667 L 210.60833 148.16667 L 210.60833 146.08824 L 210.60833 137.26862 C 210.60833 137.26862 206.19854 146.08797 197.37917 137.26862 C 194.4853 134.3748 192.06655 133.38038 190.12225 133.35 C 186.14107 133.2878 184.15 137.26862 184.15 137.26862 C 184.15 137.26862 179.7402 146.08797 170.92083 137.26862 C 168.02699 134.3748 165.60823 133.38038 163.66391 133.35 C 159.68272 133.2878 157.69167 137.26862 157.69167 137.26862 C 157.69167 137.26862 153.28188 146.08797 144.4625 137.26862 C 141.56864 134.3748 139.1499 133.38038 137.20558 133.35 C 133.22436 133.2878 131.23333 137.26862 131.23333 137.26862 C 131.23333 137.26862 126.82355 146.08797 118.00417 137.26862 C 115.1103 134.3748 112.69153 133.38038 110.74725 133.35 C 110.68505 133.34903 110.62297 133.34903 110.56173 133.35 C 106.70394 133.4112 104.775 137.26862 104.775 137.26862 C 104.775 137.26862 100.36519 146.08797 91.545833 137.26862 C 88.651982 134.3748 86.23322 133.38038 84.288912 133.35 C 80.307698 133.2878 78.316667 137.26862 78.316667 137.26862 C 78.316667 137.26862 73.90689 146.08797 65.0875 137.26862 C 62.193649 134.3748 59.774886 133.38038 57.830579 133.35 C 53.849364 133.2878 51.858333 137.26862 51.858333 137.26862 C 51.858333 137.26862 47.448552 146.08797 38.629167 137.26862 C 35.735309 134.3748 33.316557 133.38038 31.372245 133.35 C 27.391033 133.2878 25.4 137.26862 25.4 137.26862 C 25.4 137.26862 20.990221 146.08797 12.170833 137.26862 C 9.2769748 134.3748 6.8582232 133.38038 4.9139119 133.35 C 4.851712 133.34903 4.7896313 133.34903 4.7283936 133.35 z "/><path id="path15777" style="fill:#e8f5fa;fill-opacity:1;stroke-width:0.155914" d="m 117.48563,13.650212 a 13.928803,14.012411 0 0 0 -13.74396,11.76855 9.3337335,8.1500747 0 0 0 -2.62599,-0.33001 9.3337335,8.1500747 0 0 0 -9.333619,8.15008 9.3337335,8.1500747 0 0 0 1.40012,4.28304 21.539386,5.7193512 0 0 0 -16.90857,5.58299 21.539386,5.7193512 0 0 0 0.0605,0.28594 H 200.29913 a 14.933973,7.5781401 0 0 0 0.32867,-1.57282 14.933973,7.5781401 0 0 0 -14.93411,-7.5782 14.933973,7.5781401 0 0 0 -5.57211,0.55183 18.523872,10.294832 0 0 0 -17.2595,-6.55719 18.523872,10.294832 0 0 0 -1.64976,0.0463 14.646782,12.868541 0 0 0 0.0703,-1.18996 14.646782,12.868541 0 0 0 -14.64664,-12.86856 14.646782,12.868541 0 0 0 -14.61125,12.03018 28.144796,14.44136 0 0 0 -0.67992,0.0119 13.928803,14.012411 0 0 0 -13.85901,-12.61391 z"/></g></g></svg>