<svg xmlns="http://www.w3.org/2000/svg" width="800" height="560" viewBox="0 0 211.667 148.167"><path d="M-2.009 74.417h211.667V222.22H-2.009z" style="fill:#f9edde;fill-opacity:1;stroke:none;stroke-width:.267799;stroke-opacity:1" transform="translate(2.01 -74.417)"/><path d="M-2.01 124.688v10.583h211.668v-10.583Z" style="display:inline;fill:#edcb9d;fill-opacity:1;stroke:none;stroke-width:.276754;stroke-opacity:1" transform="translate(2.01 -74.417)"/><path d="m36.655 87.646-14.894 22.159L9.98 127.333H5.886v7.938h-7.895v87.312h211.666v-87.312h-8.133v-7.872h-3.41l-11.782-17.528-14.894-22.159-14.894 22.159-11.781 17.528h-4.094v7.872H66.741v-7.938h-3.41l-11.782-17.528Z" style="display:inline;fill:#f5e2c8;fill-opacity:1;stroke:none;stroke-width:.245218;stroke-opacity:1" transform="translate(2.01 -74.417)"/><path d="m101.197 125.349-1.181 2.15-3.909 7.11h15.634l-3.908-7.11-1.182-2.15z" style="display:inline;fill:#f5e2c8;fill-opacity:1;stroke:#f1d7b2;stroke-width:.205571;stroke-opacity:1" transform="translate(2.01 -74.417)"/><g style="display:inline;fill:#edcb9d;fill-opacity:1" transform="translate(-452.48)"><circle cx="490.802" cy="35.719" r="3.969" style="fill:#edcb9d;fill-opacity:1;stroke:none;stroke-width:.264583;stroke-opacity:1"/><path d="M477.573 71.438a7.937 2.646 0 0 0-7.938 2.645v18.521h15.875v-18.52a7.937 2.646 0 0 0-7.937-2.647zm26.458 0a7.937 2.646 0 0 0-7.937 2.645v18.521h15.875v-18.52a7.937 2.646 0 0 0-7.938-2.646z" style="fill:#edcb9d;fill-opacity:1;stroke:none;stroke-width:.264583;stroke-opacity:1"/><path d="M531.151 71.438a5.953 2.646 0 0 0-5.953 2.645v18.521h11.906v-18.52a5.953 2.646 0 0 0-5.953-2.646z" style="fill:#edcb9d;fill-opacity:1;stroke:none;stroke-width:.229136;stroke-opacity:1"/><path d="M490.944 47.115a3.827 1.7 0 0 0-3.827 1.7v11.907h7.654V48.816a3.827 1.7 0 0 0-3.827-1.701zm13.229.265a3.827 1.7 0 0 0-3.827 1.7v11.906H508V49.08a3.827 1.7 0 0 0-3.827-1.7zm-26.742 0a3.827 1.7 0 0 0-3.827 1.7v11.906h7.654V49.08a3.827 1.7 0 0 0-3.827-1.7z" style="fill:#edcb9d;fill-opacity:1;stroke:none;stroke-width:.147302;stroke-opacity:1"/><path d="M531.151 109.802a5.953 2.646 0 0 0-5.953 2.646v18.52h11.906v-18.52a5.953 2.646 0 0 0-5.953-2.646zm26.459-38.364a5.953 2.646 0 0 0-5.954 2.645v18.521h11.907v-18.52a5.953 2.646 0 0 0-5.954-2.646zm25.135 0a5.953 2.646 0 0 0-5.953 2.645v18.521h11.906v-18.52a5.953 2.646 0 0 0-5.953-2.646zm0 38.364a5.953 2.646 0 0 0-5.953 2.646v18.52h11.906v-18.52a5.953 2.646 0 0 0-5.953-2.646z" style="fill:#edcb9d;fill-opacity:1;stroke:none;stroke-width:.229136;stroke-opacity:1"/><path d="M477.573 109.802a7.937 2.646 0 0 0-7.938 2.646v18.52h15.875v-18.52a7.937 2.646 0 0 0-7.937-2.646zm26.458 0a7.937 2.646 0 0 0-7.937 2.646v18.52h15.875v-18.52a7.937 2.646 0 0 0-7.938-2.646zm107.157-38.364a7.937 2.646 0 0 0-7.938 2.645v18.521h15.875v-18.52a7.937 2.646 0 0 0-7.938-2.646zm0 37.042a7.937 2.646 0 0 0-7.938 2.645v18.52h15.875v-18.52a7.937 2.646 0 0 0-7.938-2.646zm27.781-37.043a7.937 2.646 0 0 0-7.938 2.646v18.521h15.875v-18.52a7.937 2.646 0 0 0-7.937-2.647zm0 38.365a7.937 2.646 0 0 0-7.938 2.646v18.52h15.875v-18.52a7.937 2.646 0 0 0-7.937-2.646z" style="fill:#edcb9d;fill-opacity:1;stroke:none;stroke-width:.264583;stroke-opacity:1"/><path d="M625.881 47.115a3.827 1.7 0 0 0-3.827 1.7v11.907h7.654V48.816a3.827 1.7 0 0 0-3.827-1.701zm13.229.265a3.827 1.7 0 0 0-3.827 1.7v11.906h7.655V49.08a3.827 1.7 0 0 0-3.828-1.7z" style="fill:#edcb9d;fill-opacity:1;stroke:none;stroke-width:.147302;stroke-opacity:1"/><circle cx="625.74" cy="35.719" r="3.969" style="fill:#edcb9d;fill-opacity:1;stroke:none;stroke-width:.264583;stroke-opacity:1"/><path d="M612.652 47.115a3.827 1.7 0 0 0-3.827 1.7v11.907h7.654V48.816a3.827 1.7 0 0 0-3.827-1.701z" style="display:inline;fill:#edcb9d;fill-opacity:1;stroke:none;stroke-width:.147302;stroke-opacity:1"/></g><path d="M103.849 184.219a5.953 2.646 0 0 0-5.953 2.646v6.614h11.906v-6.614a5.953 2.646 0 0 0-5.953-2.646z" style="display:inline;fill:#edcb9d;fill-opacity:1;stroke:none;stroke-width:.229136;stroke-opacity:1" transform="translate(2.01 -74.417)"/><path d="M97.763 196.125h11.705v26.458H97.763z" style="display:inline;fill:#edcb9d;fill-opacity:1;stroke:none;stroke-width:.345125;stroke-opacity:1" transform="translate(2.01 -74.417)"/></svg>