<svg xmlns="http://www.w3.org/2000/svg" width="800" height="560.609" viewBox="0 0 211.667 148.328"><g transform="translate(-439.208)"><rect width="211.241" height="148.328" x="439.634" ry="0" style="fill:#f7dba7;fill-opacity:1;stroke-width:.399557"/><path d="M515.272 32.787c-15.43.108-23.147 6.9-23.147 6.9s-17.473 15.378-52.414.217v52.7h-.503v18.521h211.667V39.688c-11.575-5.096-21.251-6.847-29.028-6.9-15.925-.11-23.889 6.9-23.889 6.9s-17.639 15.53-52.916 0c-11.576-5.096-21.251-6.847-29.029-6.9a53.837 53.837 0 0 0-.74 0z" style="fill:#f3c878;fill-opacity:1;stroke:none;stroke-width:1.17032;stroke-opacity:1"/><path d="M486.833 50.27c-7.677 2.867-19.028 8.842-19.028 8.842s-9.359 10.09-28.068 6.536v46.535h105.229v-.221h105.909V64.118c-4.39-1.15-9.147-2.834-14.287-5.228-11.576-5.389-21.252-7.24-29.029-7.297-15.925-.116-23.888 7.297-23.888 7.297s-17.64 16.424-52.917 0c-11.575-5.389-16.948-6.064-24.077-8.62-7.13-2.555-12.166-2.866-19.844 0z" style="fill:#f7dba7;fill-opacity:1;stroke:none;stroke-width:1.20355;stroke-opacity:1"/></g></svg>