<svg xmlns="http://www.w3.org/2000/svg" width="795.933" height="560" viewBox="0 0 210.591 148.167"><path d="M879.74 0v148.167h210.59V0Z" style="fill:#7c8c3f;fill-opacity:1;stroke-width:.265329" transform="translate(-879.74)"/><path d="M883.994 12.7a11.26 8.302 0 0 1 .002 0zm0 0a11.26 8.302 0 0 0-2.096 1.108 11.26 8.302 0 0 0-2.158 2.014v8.251a11.26 8.302 0 0 0 .316.436h-.316v22.934h210.343v-33.28a11.26 8.302 0 0 0-2.294 9.128 11.26 8.302 0 0 1-.385-.292 11.26 8.302 0 0 1-.923-10.299 11.26 8.302 0 0 0-2.098 1.108 11.26 8.302 0 0 0-2.735 9.483 11.26 8.302 0 0 1-.386-.292 11.26 8.302 0 0 1-.924-10.299 11.26 8.302 0 0 0-2.097 1.108 11.26 8.302 0 0 0-2.736 9.483 11.26 8.302 0 0 1-.385-.292 11.26 8.302 0 0 1-.924-10.299 11.26 8.302 0 0 0-2.097 1.108 11.26 8.302 0 0 0-2.736 9.483 11.26 8.302 0 0 1-.385-.292 11.26 8.302 0 0 1-.924-10.299 11.26 8.302 0 0 0-2.097 1.108 11.26 8.302 0 0 0-2.736 9.483 11.26 8.302 0 0 1-.385-.292 11.26 8.302 0 0 1-.924-10.299 11.26 8.302 0 0 0-2.097 1.108 11.26 8.302 0 0 0-2.722 9.486 11.26 8.302 0 0 1-.4-.295 11.26 8.302 0 0 1-.923-10.299 11.26 8.302 0 0 0-2.097 1.108 11.26 8.302 0 0 0-2.736 9.483 11.26 8.302 0 0 1-.386-.292 11.26 8.302 0 0 1-.923-10.299 11.26 8.302 0 0 0-2.097 1.108 11.26 8.302 0 0 0-2.736 9.483 11.26 8.302 0 0 1-.386-.292 11.26 8.302 0 0 1-.923-10.299 11.26 8.302 0 0 0-2.097 1.108 11.26 8.302 0 0 0-2.736 9.483 11.26 8.302 0 0 1-.386-.292 11.26 8.302 0 0 1-.924-10.299 11.26 8.302 0 0 0-2.097 1.108 11.26 8.302 0 0 0-2.735 9.483 11.26 8.302 0 0 1-.386-.292 11.26 8.302 0 0 1-.924-10.299 11.26 8.302 0 0 0-2.096 1.108 11.26 8.302 0 0 0-2.737 9.483 11.26 8.302 0 0 1-.385-.292 11.26 8.302 0 0 1-.924-10.299 11.26 8.302 0 0 0-2.097 1.108 11.26 8.302 0 0 0-2.721 9.486 11.26 8.302 0 0 1-.4-.295 11.26 8.302 0 0 1-.924-10.299 11.26 8.302 0 0 0-2.097 1.108 11.26 8.302 0 0 0-2.736 9.483 11.26 8.302 0 0 1-.385-.292 11.26 8.302 0 0 1-.924-10.299 11.26 8.302 0 0 0-2.097 1.108 11.26 8.302 0 0 0-2.736 9.483 11.26 8.302 0 0 1-.385-.292 11.26 8.302 0 0 1-.924-10.299 11.26 8.302 0 0 0-2.097 1.108 11.26 8.302 0 0 0-2.736 9.483 11.26 8.302 0 0 1-.386-.292 11.26 8.302 0 0 1-.923-10.299 11.26 8.302 0 0 0-2.097 1.108 11.26 8.302 0 0 0-2.736 9.483 11.26 8.302 0 0 1-.385-.292 11.26 8.302 0 0 1-.924-10.299 11.26 8.302 0 0 0-2.097 1.108 11.26 8.302 0 0 0-2.736 9.483 11.26 8.302 0 0 1-.386-.292 11.26 8.302 0 0 1-.819-.763v-.205a11.26 8.302 0 0 1 0-9.205v-.08a11.26 8.302 0 0 0-.23.11 11.26 8.302 0 0 1 .125-.156 11.26 8.302 0 0 0-2.097 1.108 11.26 8.302 0 0 0-2.843 9.246 11.26 8.302 0 0 1-.074-.055 11.26 8.302 0 0 1-.924-10.299 11.26 8.302 0 0 0-2.097 1.108 11.26 8.302 0 0 0-2.736 9.483 11.26 8.302 0 0 1-.386-.292 11.26 8.302 0 0 1-.923-10.299 11.26 8.302 0 0 0-2.097 1.108 11.26 8.302 0 0 0-2.736 9.483 11.26 8.302 0 0 1-.386-.292 11.26 8.302 0 0 1-.923-10.299 11.26 8.302 0 0 0-2.097 1.108 11.26 8.302 0 0 0-2.736 9.483 11.26 8.302 0 0 1-.386-.292 11.26 8.302 0 0 1-.924-10.299 11.26 8.302 0 0 0-2.097 1.108 11.26 8.302 0 0 0-2.735 9.483 11.26 8.302 0 0 1-.386-.292A11.26 8.302 0 0 1 957.7 12.7a11.26 8.302 0 0 0-2.097 1.108 11.26 8.302 0 0 0-2.722 9.486 11.26 8.302 0 0 1-.4-.295 11.26 8.302 0 0 1-.924-10.299 11.26 8.302 0 0 0-2.097 1.108 11.26 8.302 0 0 0-2.736 9.483 11.26 8.302 0 0 1-.385-.292 11.26 8.302 0 0 1-.924-10.299 11.26 8.302 0 0 0-2.097 1.108 11.26 8.302 0 0 0-2.736 9.483 11.26 8.302 0 0 1-.385-.292 11.26 8.302 0 0 1-.924-10.299 11.26 8.302 0 0 0-2.097 1.108 11.26 8.302 0 0 0-2.736 9.483 11.26 8.302 0 0 1-.385-.292 11.26 8.302 0 0 1-.924-10.299 11.26 8.302 0 0 0-2.097 1.108 11.26 8.302 0 0 0-2.736 9.483 11.26 8.302 0 0 1-.386-.292 11.26 8.302 0 0 1-.923-10.299 11.26 8.302 0 0 0-2.097 1.108 11.26 8.302 0 0 0-2.736 9.483 11.26 8.302 0 0 1-.385-.292 11.26 8.302 0 0 1-.924-10.299 11.26 8.302 0 0 0-2.097 1.108 11.26 8.302 0 0 0-2.722 9.486 11.26 8.302 0 0 1-.4-.295 11.26 8.302 0 0 1-.923-10.299 11.26 8.302 0 0 0-2.097 1.108 11.26 8.302 0 0 0-2.736 9.483 11.26 8.302 0 0 1-.386-.292 11.26 8.302 0 0 1-.923-10.299 11.26 8.302 0 0 0-2.097 1.108 11.26 8.302 0 0 0-2.736 9.483 11.26 8.302 0 0 1-.386-.292 11.26 8.302 0 0 1-.924-10.299 11.26 8.302 0 0 0-2.097 1.108 11.26 8.302 0 0 0-2.735 9.483 11.26 8.302 0 0 1-.386-.292 11.26 8.302 0 0 1-.924-10.299 11.26 8.302 0 0 0-2.096 1.108 11.26 8.302 0 0 0-2.737 9.483 11.26 8.302 0 0 1-.385-.292 11.26 8.302 0 0 1-.924-10.299 11.26 8.302 0 0 0-2.097 1.108 11.26 8.302 0 0 0-2.736 9.483 11.26 8.302 0 0 1-.385-.292 11.26 8.302 0 0 1-.924-10.298z" style="fill:#9baf4f;fill-opacity:1;stroke:none;stroke-width:.35159;stroke-opacity:1" transform="translate(-879.74)"/><path d="M885.49 29.633a11.26 10.509 0 0 1-.923 13.037 11.26 10.509 0 0 1-.386.37 11.26 10.509 0 0 0-2.736-12.004 11.26 10.509 0 0 0-1.705-1.17v.358a11.26 10.509 0 0 1 0 10.789v32.6h210.343V31.046a11.26 10.509 0 0 0-.01-.01 11.26 10.509 0 0 0-2.096-1.402 11.26 10.509 0 0 1-.924 13.036 11.26 10.509 0 0 1-.386.37 11.26 10.509 0 0 0-2.736-12.004 11.26 10.509 0 0 0-2.097-1.403 11.26 10.509 0 0 1-.923 13.037 11.26 10.509 0 0 1-.386.37 11.26 10.509 0 0 0-2.736-12.004 11.26 10.509 0 0 0-2.097-1.403 11.26 10.509 0 0 1-.924 13.037 11.26 10.509 0 0 1-.385.37 11.26 10.509 0 0 0-2.736-12.004 11.26 10.509 0 0 0-2.097-1.403 11.26 10.509 0 0 1-.924 13.037 11.26 10.509 0 0 1-.386.37 11.26 10.509 0 0 0-2.735-12.004 11.26 10.509 0 0 0-2.097-1.403 11.26 10.509 0 0 1-.924 13.037 11.26 10.509 0 0 1-.385.37 11.26 10.509 0 0 0-2.737-12.004 11.26 10.509 0 0 0-2.097-1.403 11.26 10.509 0 0 1-.923 13.037 11.26 10.509 0 0 1-.4.374 11.26 10.509 0 0 0-2.721-12.008 11.26 10.509 0 0 0-2.097-1.403 11.26 10.509 0 0 1-.924 13.037 11.26 10.509 0 0 1-.386.37 11.26 10.509 0 0 0-2.736-12.004 11.26 10.509 0 0 0-2.097-1.403 11.26 10.509 0 0 1-.923 13.037 11.26 10.509 0 0 1-.386.37 11.26 10.509 0 0 0-2.736-12.004 11.26 10.509 0 0 0-2.097-1.403 11.26 10.509 0 0 1-.923 13.037 11.26 10.509 0 0 1-.386.37 11.26 10.509 0 0 0-2.736-12.004 11.26 10.509 0 0 0-2.097-1.403 11.26 10.509 0 0 1-.924 13.037 11.26 10.509 0 0 1-.385.37 11.26 10.509 0 0 0-2.736-12.004 11.26 10.509 0 0 0-2.097-1.403 11.26 10.509 0 0 1-.923 13.037 11.26 10.509 0 0 1-.386.37 11.26 10.509 0 0 0-2.736-12.004 11.26 10.509 0 0 0-2.097-1.403 11.26 10.509 0 0 1-.924 13.037 11.26 10.509 0 0 1-.4.374 11.26 10.509 0 0 0-2.721-12.008 11.26 10.509 0 0 0-2.097-1.403 11.26 10.509 0 0 1-.924 13.037 11.26 10.509 0 0 1-.385.37 11.26 10.509 0 0 0-2.736-12.004 11.26 10.509 0 0 0-2.097-1.403 11.26 10.509 0 0 1-.924 13.037 11.26 10.509 0 0 1-.386.37 11.26 10.509 0 0 0-2.735-12.004 11.26 10.509 0 0 0-2.097-1.403 11.26 10.509 0 0 1-.924 13.037 11.26 10.509 0 0 1-.385.37 11.26 10.509 0 0 0-2.737-12.004 11.26 10.509 0 0 0-2.097-1.403 11.26 10.509 0 0 1-.923 13.037 11.26 10.509 0 0 1-.386.37 11.26 10.509 0 0 0-2.736-12.004 11.26 10.509 0 0 0-2.096-1.403 11.26 10.509 0 0 1-.924 13.037 11.26 10.509 0 0 1-.074.07 11.26 10.509 0 0 0-2.844-11.704 11.26 10.509 0 0 0-2.096-1.403 11.26 10.509 0 0 1 .125.197 11.26 10.509 0 0 0-.23-.138v.1a11.26 10.509 0 0 1 0 11.653v.26a11.26 10.509 0 0 1-.82.965 11.26 10.509 0 0 1-.385.37 11.26 10.509 0 0 0-2.736-12.004 11.26 10.509 0 0 0-2.097-1.403 11.26 10.509 0 0 1-.924 13.037 11.26 10.509 0 0 1-.386.37 11.26 10.509 0 0 0-2.735-12.004 11.26 10.509 0 0 0-2.097-1.403 11.26 10.509 0 0 1-.924 13.037 11.26 10.509 0 0 1-.385.37 11.26 10.509 0 0 0-2.737-12.004 11.26 10.509 0 0 0-2.097-1.403 11.26 10.509 0 0 1-.923 13.037 11.26 10.509 0 0 1-.386.37 11.26 10.509 0 0 0-2.735-12.004 11.26 10.509 0 0 0-2.097-1.403 11.26 10.509 0 0 1-.924 13.037 11.26 10.509 0 0 1-.386.37 11.26 10.509 0 0 0-2.736-12.004 11.26 10.509 0 0 0-2.097-1.403 11.26 10.509 0 0 1-.924 13.037 11.26 10.509 0 0 1-.4.374 11.26 10.509 0 0 0-2.721-12.008 11.26 10.509 0 0 0-2.097-1.403 11.26 10.509 0 0 1-.923 13.037 11.26 10.509 0 0 1-.386.37 11.26 10.509 0 0 0-2.736-12.004 11.26 10.509 0 0 0-2.097-1.403 11.26 10.509 0 0 1-.924 13.037 11.26 10.509 0 0 1-.385.37 11.26 10.509 0 0 0-2.736-12.004 11.26 10.509 0 0 0-2.097-1.403 11.26 10.509 0 0 1-.923 13.037 11.26 10.509 0 0 1-.387.37 11.26 10.509 0 0 0-2.735-12.004 11.26 10.509 0 0 0-2.097-1.403 11.26 10.509 0 0 1-.924 13.037 11.26 10.509 0 0 1-.385.37 11.26 10.509 0 0 0-2.737-12.004 11.26 10.509 0 0 0-2.097-1.403 11.26 10.509 0 0 1-.923 13.037 11.26 10.509 0 0 1-.386.37 11.26 10.509 0 0 0-2.735-12.004 11.26 10.509 0 0 0-2.097-1.403 11.26 10.509 0 0 1-.924 13.037 11.26 10.509 0 0 1-.4.374 11.26 10.509 0 0 0-2.722-12.008 11.26 10.509 0 0 0-2.097-1.403 11.26 10.509 0 0 1-.924 13.037 11.26 10.509 0 0 1-.385.37 11.26 10.509 0 0 0-2.736-12.004 11.26 10.509 0 0 0-2.097-1.403 11.26 10.509 0 0 1-.923 13.037 11.26 10.509 0 0 1-.386.37 11.26 10.509 0 0 0-2.736-12.004 11.26 10.509 0 0 0-2.097-1.403 11.26 10.509 0 0 1-.924 13.037 11.26 10.509 0 0 1-.385.37 11.26 10.509 0 0 0-2.736-12.004 11.26 10.509 0 0 0-2.097-1.403 11.26 10.509 0 0 1-.924 13.037 11.26 10.509 0 0 1-.385.37 11.26 10.509 0 0 0-2.736-12.004 11.26 10.509 0 0 0-2.097-1.403z" style="fill:#7c8c3f;fill-opacity:1;stroke:none;stroke-width:.395574;stroke-opacity:1" transform="translate(-879.74)"/><path d="M883.835 51.78a11.26 11.26 0 0 0 0 .002 11.26 11.26 0 0 1 .002-.001zm0 .002a11.26 11.26 0 0 0-2.096 1.502 11.26 11.26 0 0 0-2 2.51v11.7a11.26 11.26 0 0 0 .159.303h-.158v31.109h210.343V53.592a11.26 11.26 0 0 0-2.452 12.554 11.26 11.26 0 0 1-.386-.396 11.26 11.26 0 0 1-.923-13.97 11.26 11.26 0 0 0-2.097 1.504 11.26 11.26 0 0 0-2.736 12.862 11.26 11.26 0 0 1-.386-.396 11.26 11.26 0 0 1-.924-13.97 11.26 11.26 0 0 0-2.097 1.504 11.26 11.26 0 0 0-2.735 12.862 11.26 11.26 0 0 1-.386-.396 11.26 11.26 0 0 1-.924-13.97 11.26 11.26 0 0 0-2.096 1.504 11.26 11.26 0 0 0-2.737 12.862 11.26 11.26 0 0 1-.385-.396 11.26 11.26 0 0 1-.924-13.97 11.26 11.26 0 0 0-2.097 1.504 11.26 11.26 0 0 0-2.736 12.862 11.26 11.26 0 0 1-.385-.396 11.26 11.26 0 0 1-.924-13.97 11.26 11.26 0 0 0-2.097 1.504 11.26 11.26 0 0 0-2.722 12.866 11.26 11.26 0 0 1-.399-.4 11.26 11.26 0 0 1-.924-13.97 11.26 11.26 0 0 0-2.097 1.504 11.26 11.26 0 0 0-2.736 12.862 11.26 11.26 0 0 1-.385-.396 11.26 11.26 0 0 1-.924-13.97 11.26 11.26 0 0 0-2.097 1.504 11.26 11.26 0 0 0-2.736 12.862 11.26 11.26 0 0 1-.386-.396 11.26 11.26 0 0 1-.923-13.97 11.26 11.26 0 0 0-2.097 1.504 11.26 11.26 0 0 0-2.736 12.862 11.26 11.26 0 0 1-.386-.396 11.26 11.26 0 0 1-.923-13.97 11.26 11.26 0 0 0-2.097 1.504 11.26 11.26 0 0 0-2.736 12.862 11.26 11.26 0 0 1-.386-.396 11.26 11.26 0 0 1-.924-13.97 11.26 11.26 0 0 0-2.096 1.504 11.26 11.26 0 0 0-2.736 12.862 11.26 11.26 0 0 1-.386-.396 11.26 11.26 0 0 1-.924-13.97 11.26 11.26 0 0 0-2.096 1.504 11.26 11.26 0 0 0-2.722 12.866 11.26 11.26 0 0 1-.4-.4 11.26 11.26 0 0 1-.924-13.97 11.26 11.26 0 0 0-2.097 1.504 11.26 11.26 0 0 0-2.735 12.862 11.26 11.26 0 0 1-.386-.396 11.26 11.26 0 0 1-.924-13.97 11.26 11.26 0 0 0-2.097 1.504 11.26 11.26 0 0 0-2.736 12.862 11.26 11.26 0 0 1-.385-.396 11.26 11.26 0 0 1-.924-13.97 11.26 11.26 0 0 0-2.097 1.504 11.26 11.26 0 0 0-2.736 12.862 11.26 11.26 0 0 1-.385-.396 11.26 11.26 0 0 1-.924-13.97 11.26 11.26 0 0 0-2.097 1.504 11.26 11.26 0 0 0-2.736 12.862 11.26 11.26 0 0 1-.385-.396 11.26 11.26 0 0 1-.924-13.97 11.26 11.26 0 0 0-2.097 1.504 11.26 11.26 0 0 0-2.736 12.862 11.26 11.26 0 0 1-.385-.396 11.26 11.26 0 0 1-.82-1.034v-.279a11.26 11.26 0 0 1 0-12.486v-.107a11.26 11.26 0 0 0-.23.148 11.26 11.26 0 0 1 .125-.211 11.26 11.26 0 0 0-2.096 1.503 11.26 11.26 0 0 0-2.844 12.54 11.26 11.26 0 0 1-.074-.074 11.26 11.26 0 0 1-.924-13.97 11.26 11.26 0 0 0-2.096 1.504 11.26 11.26 0 0 0-2.737 12.862 11.26 11.26 0 0 1-.385-.396 11.26 11.26 0 0 1-.924-13.97 11.26 11.26 0 0 0-2.097 1.504 11.26 11.26 0 0 0-2.736 12.862 11.26 11.26 0 0 1-.386-.396 11.26 11.26 0 0 1-.923-13.97 11.26 11.26 0 0 0-2.097 1.504 11.26 11.26 0 0 0-2.736 12.862 11.26 11.26 0 0 1-.385-.396 11.26 11.26 0 0 1-.924-13.97 11.26 11.26 0 0 0-2.097 1.504 11.26 11.26 0 0 0-2.736 12.862 11.26 11.26 0 0 1-.386-.396 11.26 11.26 0 0 1-.923-13.97 11.26 11.26 0 0 0-2.097 1.504 11.26 11.26 0 0 0-2.722 12.866 11.26 11.26 0 0 1-.4-.4 11.26 11.26 0 0 1-.923-13.97 11.26 11.26 0 0 0-2.097 1.504 11.26 11.26 0 0 0-2.737 12.862 11.26 11.26 0 0 1-.385-.396 11.26 11.26 0 0 1-.923-13.97 11.26 11.26 0 0 0-2.098 1.504 11.26 11.26 0 0 0-2.735 12.862 11.26 11.26 0 0 1-.386-.396 11.26 11.26 0 0 1-.924-13.97 11.26 11.26 0 0 0-2.096 1.504 11.26 11.26 0 0 0-2.737 12.862 11.26 11.26 0 0 1-.385-.396 11.26 11.26 0 0 1-.923-13.97 11.26 11.26 0 0 0-2.098 1.504 11.26 11.26 0 0 0-2.736 12.862 11.26 11.26 0 0 1-.385-.396 11.26 11.26 0 0 1-.924-13.97 11.26 11.26 0 0 0-2.097 1.504 11.26 11.26 0 0 0-2.736 12.862 11.26 11.26 0 0 1-.385-.396 11.26 11.26 0 0 1-.924-13.97 11.26 11.26 0 0 0-2.097 1.504 11.26 11.26 0 0 0-2.721 12.866 11.26 11.26 0 0 1-.4-.4 11.26 11.26 0 0 1-.924-13.97 11.26 11.26 0 0 0-2.097 1.504 11.26 11.26 0 0 0-2.736 12.862 11.26 11.26 0 0 1-.386-.396 11.26 11.26 0 0 1-.923-13.97 11.26 11.26 0 0 0-2.097 1.504 11.26 11.26 0 0 0-2.736 12.862 11.26 11.26 0 0 1-.385-.396 11.26 11.26 0 0 1-.924-13.97 11.26 11.26 0 0 0-2.097 1.504 11.26 11.26 0 0 0-2.736 12.862 11.26 11.26 0 0 1-.386-.396 11.26 11.26 0 0 1-.924-13.97 11.26 11.26 0 0 0-2.096 1.504 11.26 11.26 0 0 0-2.736 12.862 11.26 11.26 0 0 1-.386-.396 11.26 11.26 0 0 1-.923-13.97 11.26 11.26 0 0 0-2.097 1.504 11.26 11.26 0 0 0-2.737 12.862 11.26 11.26 0 0 1-.385-.396 11.26 11.26 0 0 1-.924-13.968z" style="fill:#9baf4f;fill-opacity:1;stroke:none;stroke-width:.409474;stroke-opacity:1" transform="translate(-879.74)"/><path d="M884.301 71.864a11.26 13.68 0 0 1-.923 16.971 11.26 13.68 0 0 1-.386.482 11.26 13.68 0 0 0-2.736-15.626 11.26 13.68 0 0 0-.516-.508v2.832a11.26 13.68 0 0 1 0 7.282v45.82h210.343V75.238a11.26 13.68 0 0 0-1.2-1.547 11.26 13.68 0 0 0-2.094-1.825 11.26 13.68 0 0 1-.924 16.97 11.26 13.68 0 0 1-.386.48 11.26 13.68 0 0 0-2.736-15.625 11.26 13.68 0 0 0-2.097-1.827 11.26 13.68 0 0 1-.924 16.971 11.26 13.68 0 0 1-.385.482 11.26 13.68 0 0 0-2.737-15.626 11.26 13.68 0 0 0-2.096-1.827 11.26 13.68 0 0 1-.924 16.971 11.26 13.68 0 0 1-.386.482 11.26 13.68 0 0 0-2.735-15.626 11.26 13.68 0 0 0-2.097-1.827 11.26 13.68 0 0 1-.924 16.971 11.26 13.68 0 0 1-.386.482 11.26 13.68 0 0 0-2.736-15.626 11.26 13.68 0 0 0-2.097-1.827 11.26 13.68 0 0 1-.923 16.971 11.26 13.68 0 0 1-.386.482 11.26 13.68 0 0 0-2.736-15.626 11.26 13.68 0 0 0-2.097-1.827 11.26 13.68 0 0 1-.923 16.971 11.26 13.68 0 0 1-.4.487 11.26 13.68 0 0 0-2.722-15.631 11.26 13.68 0 0 0-2.097-1.827 11.26 13.68 0 0 1-.924 16.971 11.26 13.68 0 0 1-.385.482 11.26 13.68 0 0 0-2.736-15.626 11.26 13.68 0 0 0-2.097-1.827 11.26 13.68 0 0 1-.923 16.971 11.26 13.68 0 0 1-.386.482 11.26 13.68 0 0 0-2.736-15.626 11.26 13.68 0 0 0-2.097-1.827 11.26 13.68 0 0 1-.924 16.971 11.26 13.68 0 0 1-.385.482 11.26 13.68 0 0 0-2.736-15.626 11.26 13.68 0 0 0-2.097-1.827 11.26 13.68 0 0 1-.924 16.971 11.26 13.68 0 0 1-.385.482 11.26 13.68 0 0 0-2.736-15.626 11.26 13.68 0 0 0-2.097-1.827 11.26 13.68 0 0 1-.924 16.971 11.26 13.68 0 0 1-.385.482 11.26 13.68 0 0 0-2.736-15.626 11.26 13.68 0 0 0-2.097-1.827 11.26 13.68 0 0 1-.924 16.971 11.26 13.68 0 0 1-.4.487 11.26 13.68 0 0 0-2.722-15.631 11.26 13.68 0 0 0-2.097-1.827 11.26 13.68 0 0 1-.923 16.971 11.26 13.68 0 0 1-.386.482 11.26 13.68 0 0 0-2.735-15.626 11.26 13.68 0 0 0-2.097-1.827 11.26 13.68 0 0 1-.924 16.971 11.26 13.68 0 0 1-.386.482 11.26 13.68 0 0 0-2.736-15.626 11.26 13.68 0 0 0-2.097-1.827 11.26 13.68 0 0 1-.924 16.971 11.26 13.68 0 0 1-.385.482 11.26 13.68 0 0 0-2.736-15.626 11.26 13.68 0 0 0-2.097-1.827 11.26 13.68 0 0 1-.924 16.971 11.26 13.68 0 0 1-.385.482 11.26 13.68 0 0 0-2.737-15.626 11.26 13.68 0 0 0-2.096-1.827 11.26 13.68 0 0 1-.924 16.971 11.26 13.68 0 0 1-.074.09 11.26 13.68 0 0 0-2.844-15.234 11.26 13.68 0 0 0-2.096-1.827 11.26 13.68 0 0 1 .125.257 11.26 13.68 0 0 0-.23-.18v.13a11.26 13.68 0 0 1 0 15.17v.338a11.26 13.68 0 0 1-.82 1.256 11.26 13.68 0 0 1-.385.482 11.26 13.68 0 0 0-2.736-15.626 11.26 13.68 0 0 0-2.097-1.827 11.26 13.68 0 0 1-.924 16.971 11.26 13.68 0 0 1-.386.482 11.26 13.68 0 0 0-2.735-15.626 11.26 13.68 0 0 0-2.097-1.827 11.26 13.68 0 0 1-.924 16.971 11.26 13.68 0 0 1-.385.482 11.26 13.68 0 0 0-2.737-15.626 11.26 13.68 0 0 0-2.097-1.827 11.26 13.68 0 0 1-.923 16.971 11.26 13.68 0 0 1-.386.482 11.26 13.68 0 0 0-2.735-15.626 11.26 13.68 0 0 0-2.097-1.827 11.26 13.68 0 0 1-.924 16.971 11.26 13.68 0 0 1-.386.482 11.26 13.68 0 0 0-2.736-15.626 11.26 13.68 0 0 0-2.097-1.827 11.26 13.68 0 0 1-.924 16.971 11.26 13.68 0 0 1-.4.487 11.26 13.68 0 0 0-2.72-15.631 11.26 13.68 0 0 0-2.097-1.827 11.26 13.68 0 0 1-.924 16.971 11.26 13.68 0 0 1-.386.482 11.26 13.68 0 0 0-2.736-15.626 11.26 13.68 0 0 0-2.097-1.827 11.26 13.68 0 0 1-.924 16.971 11.26 13.68 0 0 1-.385.482 11.26 13.68 0 0 0-2.736-15.626 11.26 13.68 0 0 0-2.097-1.827 11.26 13.68 0 0 1-.923 16.971 11.26 13.68 0 0 1-.386.482 11.26 13.68 0 0 0-2.736-15.626 11.26 13.68 0 0 0-2.097-1.827 11.26 13.68 0 0 1-.924 16.971 11.26 13.68 0 0 1-.385.482 11.26 13.68 0 0 0-2.736-15.626 11.26 13.68 0 0 0-2.097-1.827 11.26 13.68 0 0 1-.924 16.971 11.26 13.68 0 0 1-.385.482 11.26 13.68 0 0 0-2.736-15.626 11.26 13.68 0 0 0-2.097-1.827 11.26 13.68 0 0 1-.924 16.971 11.26 13.68 0 0 1-.4.487 11.26 13.68 0 0 0-2.721-15.631 11.26 13.68 0 0 0-2.097-1.827 11.26 13.68 0 0 1-.924 16.971 11.26 13.68 0 0 1-.385.482 11.26 13.68 0 0 0-2.737-15.626 11.26 13.68 0 0 0-2.097-1.827 11.26 13.68 0 0 1-.923 16.971 11.26 13.68 0 0 1-.386.482 11.26 13.68 0 0 0-2.736-15.626 11.26 13.68 0 0 0-2.096-1.827 11.26 13.68 0 0 1-.924 16.971 11.26 13.68 0 0 1-.386.482 11.26 13.68 0 0 0-2.736-15.626 11.26 13.68 0 0 0-2.097-1.827 11.26 13.68 0 0 1-.924 16.971 11.26 13.68 0 0 1-.385.482 11.26 13.68 0 0 0-2.736-15.626 11.26 13.68 0 0 0-2.097-1.827z" style="fill:#7c8c3f;fill-opacity:1;stroke:none;stroke-width:.451336;stroke-opacity:1" transform="translate(-879.74)"/><path d="M890.62 97.367a11.26 16.438 0 0 0-2.096 2.194 11.26 16.438 0 0 0-2.737 18.775 11.26 16.438 0 0 1-.385-.578 11.26 16.438 0 0 1-.924-20.39 11.26 16.438 0 0 0-2.096 2.193 11.26 16.438 0 0 0-2.642 5.366v13.692a11.26 16.438 0 0 0 .8 2.128h-.8v27.29h210.343v-47.04a11.26 16.438 0 0 0-1.81 17.339 11.26 16.438 0 0 1-.385-.578 11.26 16.438 0 0 1-.923-20.391 11.26 16.438 0 0 0-2.097 2.194 11.26 16.438 0 0 0-2.736 18.775 11.26 16.438 0 0 1-.386-.578 11.26 16.438 0 0 1-.924-20.391 11.26 16.438 0 0 0-2.097 2.194 11.26 16.438 0 0 0-2.735 18.775 11.26 16.438 0 0 1-.386-.578 11.26 16.438 0 0 1-.924-20.391 11.26 16.438 0 0 0-2.096 2.194 11.26 16.438 0 0 0-2.737 18.775 11.26 16.438 0 0 1-.385-.578 11.26 16.438 0 0 1-.924-20.391 11.26 16.438 0 0 0-2.097 2.194 11.26 16.438 0 0 0-2.736 18.775 11.26 16.438 0 0 1-.385-.578 11.26 16.438 0 0 1-.924-20.391 11.26 16.438 0 0 0-2.097 2.194 11.26 16.438 0 0 0-2.722 18.782 11.26 16.438 0 0 1-.4-.585 11.26 16.438 0 0 1-.923-20.391 11.26 16.438 0 0 0-2.097 2.194 11.26 16.438 0 0 0-2.736 18.775 11.26 16.438 0 0 1-.385-.578 11.26 16.438 0 0 1-.924-20.391 11.26 16.438 0 0 0-2.097 2.194 11.26 16.438 0 0 0-2.736 18.775 11.26 16.438 0 0 1-.386-.578 11.26 16.438 0 0 1-.923-20.391 11.26 16.438 0 0 0-2.097 2.194 11.26 16.438 0 0 0-2.736 18.775 11.26 16.438 0 0 1-.386-.578 11.26 16.438 0 0 1-.923-20.391 11.26 16.438 0 0 0-2.097 2.194 11.26 16.438 0 0 0-2.736 18.775 11.26 16.438 0 0 1-.386-.578 11.26 16.438 0 0 1-.924-20.391 11.26 16.438 0 0 0-2.096 2.194 11.26 16.438 0 0 0-2.736 18.775 11.26 16.438 0 0 1-.386-.578 11.26 16.438 0 0 1-.924-20.391 11.26 16.438 0 0 0-2.096 2.194 11.26 16.438 0 0 0-2.722 18.782 11.26 16.438 0 0 1-.4-.585 11.26 16.438 0 0 1-.924-20.391 11.26 16.438 0 0 0-2.097 2.194 11.26 16.438 0 0 0-2.735 18.775 11.26 16.438 0 0 1-.386-.578 11.26 16.438 0 0 1-.924-20.391 11.26 16.438 0 0 0-2.097 2.194 11.26 16.438 0 0 0-2.736 18.775 11.26 16.438 0 0 1-.385-.578 11.26 16.438 0 0 1-.924-20.391 11.26 16.438 0 0 0-2.097 2.194 11.26 16.438 0 0 0-2.736 18.775 11.26 16.438 0 0 1-.386-.578 11.26 16.438 0 0 1-.923-20.391 11.26 16.438 0 0 0-2.097 2.194 11.26 16.438 0 0 0-2.736 18.775 11.26 16.438 0 0 1-.385-.578 11.26 16.438 0 0 1-.924-20.391 11.26 16.438 0 0 0-2.097 2.194A11.26 16.438 0 0 0 990 118.336a11.26 16.438 0 0 1-.385-.578 11.26 16.438 0 0 1-.82-1.51v-.406a11.26 16.438 0 0 1 0-18.227v-.156a11.26 16.438 0 0 0-.23.215 11.26 16.438 0 0 1 .125-.307 11.26 16.438 0 0 0-2.096 2.194 11.26 16.438 0 0 0-2.844 18.306 11.26 16.438 0 0 1-.074-.109 11.26 16.438 0 0 1-.924-20.391 11.26 16.438 0 0 0-2.097 2.194 11.26 16.438 0 0 0-2.736 18.775 11.26 16.438 0 0 1-.385-.578 11.26 16.438 0 0 1-.924-20.391 11.26 16.438 0 0 0-2.097 2.194 11.26 16.438 0 0 0-2.736 18.775 11.26 16.438 0 0 1-.386-.578 11.26 16.438 0 0 1-.923-20.391 11.26 16.438 0 0 0-2.097 2.194 11.26 16.438 0 0 0-2.736 18.775 11.26 16.438 0 0 1-.385-.578 11.26 16.438 0 0 1-.924-20.391 11.26 16.438 0 0 0-2.097 2.194 11.26 16.438 0 0 0-2.736 18.775 11.26 16.438 0 0 1-.386-.578 11.26 16.438 0 0 1-.923-20.391 11.26 16.438 0 0 0-2.097 2.194 11.26 16.438 0 0 0-2.722 18.782 11.26 16.438 0 0 1-.4-.585 11.26 16.438 0 0 1-.923-20.391 11.26 16.438 0 0 0-2.097 2.194 11.26 16.438 0 0 0-2.737 18.775 11.26 16.438 0 0 1-.385-.578 11.26 16.438 0 0 1-.924-20.391 11.26 16.438 0 0 0-2.097 2.194 11.26 16.438 0 0 0-2.735 18.775 11.26 16.438 0 0 1-.386-.578 11.26 16.438 0 0 1-.924-20.391 11.26 16.438 0 0 0-2.096 2.194 11.26 16.438 0 0 0-2.737 18.775 11.26 16.438 0 0 1-.385-.578 11.26 16.438 0 0 1-.924-20.391 11.26 16.438 0 0 0-2.097 2.194 11.26 16.438 0 0 0-2.736 18.775 11.26 16.438 0 0 1-.385-.578 11.26 16.438 0 0 1-.924-20.391 11.26 16.438 0 0 0-2.097 2.194 11.26 16.438 0 0 0-2.736 18.775 11.26 16.438 0 0 1-.385-.578 11.26 16.438 0 0 1-.924-20.391 11.26 16.438 0 0 0-2.097 2.194 11.26 16.438 0 0 0-2.721 18.782 11.26 16.438 0 0 1-.4-.585 11.26 16.438 0 0 1-.924-20.391 11.26 16.438 0 0 0-2.097 2.194 11.26 16.438 0 0 0-2.736 18.775 11.26 16.438 0 0 1-.386-.578 11.26 16.438 0 0 1-.923-20.391 11.26 16.438 0 0 0-2.097 2.194 11.26 16.438 0 0 0-2.736 18.775 11.26 16.438 0 0 1-.385-.578 11.26 16.438 0 0 1-.924-20.391 11.26 16.438 0 0 0-2.097 2.194 11.26 16.438 0 0 0-2.736 18.775 11.26 16.438 0 0 1-.386-.578 11.26 16.438 0 0 1-.924-20.391 11.26 16.438 0 0 0-2.096 2.194 11.26 16.438 0 0 0-2.736 18.775 11.26 16.438 0 0 1-.386-.578 11.26 16.438 0 0 1-.923-20.391zm-6.142 0a11.26 16.438 0 0 1 .002 0h-.002z" style="fill:#9baf4f;fill-opacity:1;stroke:none;stroke-width:.49473;stroke-opacity:1" transform="translate(-879.74)"/><path d="M886.26 124.113a11.26 18.392 0 0 1-.923 22.817 11.26 18.392 0 0 1-.386.646 11.26 18.392 0 0 0-2.736-21.007 11.26 18.392 0 0 0-1.997-2.353v.175a11.26 18.392 0 0 1 0 20.394v3.382h209.865v-7.39a11.26 18.392 0 0 1-2.26 6.153 11.26 18.392 0 0 1-.385.646 11.26 18.392 0 0 0-2.736-21.007 11.26 18.392 0 0 0-2.097-2.456 11.26 18.392 0 0 1-.924 22.817 11.26 18.392 0 0 1-.385.646 11.26 18.392 0 0 0-2.737-21.007 11.26 18.392 0 0 0-2.096-2.456 11.26 18.392 0 0 1-.924 22.817 11.26 18.392 0 0 1-.386.646 11.26 18.392 0 0 0-2.735-21.007 11.26 18.392 0 0 0-2.097-2.456 11.26 18.392 0 0 1-.924 22.817 11.26 18.392 0 0 1-.386.646 11.26 18.392 0 0 0-2.736-21.007 11.26 18.392 0 0 0-2.097-2.456 11.26 18.392 0 0 1-.923 22.817 11.26 18.392 0 0 1-.386.646 11.26 18.392 0 0 0-2.736-21.007 11.26 18.392 0 0 0-2.097-2.456 11.26 18.392 0 0 1-.923 22.817 11.26 18.392 0 0 1-.4.654 11.26 18.392 0 0 0-2.722-21.015 11.26 18.392 0 0 0-2.097-2.456 11.26 18.392 0 0 1-.924 22.817 11.26 18.392 0 0 1-.385.646 11.26 18.392 0 0 0-2.736-21.007 11.26 18.392 0 0 0-2.097-2.456 11.26 18.392 0 0 1-.923 22.817 11.26 18.392 0 0 1-.386.646 11.26 18.392 0 0 0-2.736-21.007 11.26 18.392 0 0 0-2.097-2.456 11.26 18.392 0 0 1-.924 22.817 11.26 18.392 0 0 1-.385.646 11.26 18.392 0 0 0-2.736-21.007 11.26 18.392 0 0 0-2.097-2.456 11.26 18.392 0 0 1-.924 22.817 11.26 18.392 0 0 1-.385.646 11.26 18.392 0 0 0-2.736-21.007 11.26 18.392 0 0 0-2.097-2.456 11.26 18.392 0 0 1-.924 22.817 11.26 18.392 0 0 1-.385.646 11.26 18.392 0 0 0-2.736-21.007 11.26 18.392 0 0 0-2.097-2.456 11.26 18.392 0 0 1-.924 22.817 11.26 18.392 0 0 1-.4.654 11.26 18.392 0 0 0-2.722-21.015 11.26 18.392 0 0 0-2.097-2.456 11.26 18.392 0 0 1-.923 22.817 11.26 18.392 0 0 1-.386.646 11.26 18.392 0 0 0-2.735-21.007 11.26 18.392 0 0 0-2.097-2.456 11.26 18.392 0 0 1-.924 22.817 11.26 18.392 0 0 1-.386.646 11.26 18.392 0 0 0-2.736-21.007 11.26 18.392 0 0 0-2.097-2.456 11.26 18.392 0 0 1-.923 22.817 11.26 18.392 0 0 1-.386.646 11.26 18.392 0 0 0-2.736-21.007 11.26 18.392 0 0 0-2.097-2.456 11.26 18.392 0 0 1-.924 22.817 11.26 18.392 0 0 1-.385.646 11.26 18.392 0 0 0-2.737-21.007 11.26 18.392 0 0 0-2.096-2.456 11.26 18.392 0 0 1-.924 22.817 11.26 18.392 0 0 1-.074.121 11.26 18.392 0 0 0-2.844-20.482 11.26 18.392 0 0 0-2.096-2.456 11.26 18.392 0 0 1 .125.345 11.26 18.392 0 0 0-.23-.242v.175a11.26 18.392 0 0 1 0 20.394v.456a11.26 18.392 0 0 1-.82 1.689 11.26 18.392 0 0 1-.385.646 11.26 18.392 0 0 0-2.736-21.007 11.26 18.392 0 0 0-2.097-2.456 11.26 18.392 0 0 1-.924 22.817 11.26 18.392 0 0 1-.386.646 11.26 18.392 0 0 0-2.735-21.007 11.26 18.392 0 0 0-2.097-2.456 11.26 18.392 0 0 1-.924 22.817 11.26 18.392 0 0 1-.385.646 11.26 18.392 0 0 0-2.737-21.007 11.26 18.392 0 0 0-2.097-2.456 11.26 18.392 0 0 1-.923 22.817 11.26 18.392 0 0 1-.386.646 11.26 18.392 0 0 0-2.735-21.007 11.26 18.392 0 0 0-2.097-2.456 11.26 18.392 0 0 1-.924 22.817 11.26 18.392 0 0 1-.386.646 11.26 18.392 0 0 0-2.736-21.007 11.26 18.392 0 0 0-2.097-2.456 11.26 18.392 0 0 1-.924 22.817 11.26 18.392 0 0 1-.399.654 11.26 18.392 0 0 0-2.722-21.015 11.26 18.392 0 0 0-2.096-2.456 11.26 18.392 0 0 1-.924 22.817 11.26 18.392 0 0 1-.386.646 11.26 18.392 0 0 0-2.736-21.007 11.26 18.392 0 0 0-2.097-2.456 11.26 18.392 0 0 1-.924 22.817 11.26 18.392 0 0 1-.385.646 11.26 18.392 0 0 0-2.736-21.007 11.26 18.392 0 0 0-2.097-2.456 11.26 18.392 0 0 1-.923 22.817 11.26 18.392 0 0 1-.386.646 11.26 18.392 0 0 0-2.736-21.007 11.26 18.392 0 0 0-2.097-2.456 11.26 18.392 0 0 1-.924 22.817 11.26 18.392 0 0 1-.385.646 11.26 18.392 0 0 0-2.736-21.007 11.26 18.392 0 0 0-2.097-2.456 11.26 18.392 0 0 1-.924 22.817 11.26 18.392 0 0 1-.385.646 11.26 18.392 0 0 0-2.736-21.007 11.26 18.392 0 0 0-2.097-2.456 11.26 18.392 0 0 1-.924 22.817 11.26 18.392 0 0 1-.4.654 11.26 18.392 0 0 0-2.721-21.015 11.26 18.392 0 0 0-2.097-2.456 11.26 18.392 0 0 1-.924 22.817 11.26 18.392 0 0 1-.385.646 11.26 18.392 0 0 0-2.737-21.007 11.26 18.392 0 0 0-2.097-2.456 11.26 18.392 0 0 1-.923 22.817 11.26 18.392 0 0 1-.386.646 11.26 18.392 0 0 0-2.736-21.007 11.26 18.392 0 0 0-2.096-2.456 11.26 18.392 0 0 1-.924 22.817 11.26 18.392 0 0 1-.386.646 11.26 18.392 0 0 0-2.736-21.007 11.26 18.392 0 0 0-2.097-2.456 11.26 18.392 0 0 1-.924 22.817 11.26 18.392 0 0 1-.385.646 11.26 18.392 0 0 0-2.736-21.007 11.26 18.392 0 0 0-2.097-2.456zm202.488.002a11.26 18.392 0 0 1 1.335 4.248v-2.796a11.26 18.392 0 0 0-1.336-1.452z" style="fill:#7c8c3f;fill-opacity:1;stroke:none;stroke-width:.523316;stroke-opacity:1" transform="translate(-879.74)"/></svg>