<svg xmlns="http://www.w3.org/2000/svg" width="210mm" height="148mm" viewBox="0 0 210 148"><path d="M0 .363v147.842h210.352V.363Z" style="fill:#bde3f2;fill-opacity:1;stroke-width:.26562"/><path d="M4.728 79.375c-2.225.02-3.786.737-4.728 1.344v27.76h210.608V81.551s-4.41 4.896-13.229 0c-2.894-1.607-5.312-2.159-7.257-2.176-3.98-.034-5.972 2.176-5.972 2.176s-4.41 4.896-13.23 0c-2.893-1.607-5.312-2.159-7.256-2.176-3.981-.034-5.972 2.176-5.972 2.176s-4.41 4.896-13.23 0c-2.893-1.607-5.312-2.159-7.256-2.176-3.982-.034-5.973 2.176-5.973 2.176s-4.41 4.896-13.229 0c-2.894-1.607-5.312-2.159-7.257-2.176h-.185c-3.858.034-5.787 2.176-5.787 2.176s-4.41 4.896-13.23 0c-2.893-1.607-5.312-2.159-7.256-2.176-3.981-.034-5.972 2.176-5.972 2.176s-4.41 4.896-13.23 0c-2.893-1.607-5.312-2.159-7.256-2.176-3.982-.034-5.973 2.176-5.973 2.176s-4.41 4.896-13.229 0c-2.894-1.607-5.312-2.159-7.257-2.176-3.981-.034-5.972 2.176-5.972 2.176s-4.41 4.896-13.23 0c-2.893-1.607-5.312-2.159-7.256-2.176h-.186z" style="fill:#7999ab;fill-opacity:1;stroke:none;stroke-width:.328559;stroke-opacity:1"/><path d="M4.728 86.783A7.412 7.412 0 0 0 0 88.518V124.1h-1.058v.253h211.666V89.592s-4.41 6.32-13.229 0c-2.894-2.074-5.312-2.787-7.257-2.809-3.98-.044-5.972 2.809-5.972 2.809s-4.41 6.32-13.23 0c-2.893-2.074-5.312-2.787-7.256-2.809-3.981-.044-5.972 2.809-5.972 2.809s-4.41 6.32-13.23 0c-2.893-2.074-5.312-2.787-7.256-2.809-3.982-.044-5.973 2.809-5.973 2.809s-4.41 6.32-13.229 0c-2.894-2.074-5.312-2.787-7.257-2.809h-.185c-3.858.044-5.787 2.809-5.787 2.809s-4.41 6.32-13.23 0c-2.893-2.074-5.312-2.787-7.256-2.809-3.981-.044-5.972 2.809-5.972 2.809s-4.41 6.32-13.23 0c-2.893-2.074-5.312-2.787-7.256-2.809-3.982-.044-5.973 2.809-5.973 2.809s-4.41 6.32-13.229 0c-2.894-2.074-5.312-2.787-7.257-2.809-3.981-.044-5.972 2.809-5.972 2.809s-4.41 6.32-13.23 0c-2.893-2.074-5.312-2.787-7.256-2.809h-.186z" style="fill:#5d8094;fill-opacity:1;stroke:none;stroke-width:.373305;stroke-opacity:1"/><path d="M4.728 97.367c-2.225.022-3.786.83-4.728 1.514v31.294h210.608V99.818s-4.41 5.52-13.229 0c-2.894-1.81-5.312-2.432-7.257-2.451-3.98-.04-5.972 2.452-5.972 2.452s-4.41 5.52-13.23 0c-2.893-1.811-5.312-2.433-7.256-2.452-3.981-.04-5.972 2.452-5.972 2.452s-4.41 5.52-13.23 0c-2.893-1.811-5.312-2.433-7.256-2.452-3.982-.04-5.973 2.452-5.973 2.452s-4.41 5.52-13.229 0c-2.894-1.811-5.312-2.433-7.257-2.452h-.185c-3.858.038-5.787 2.452-5.787 2.452s-4.41 5.52-13.23 0c-2.893-1.811-5.312-2.433-7.256-2.452-3.981-.04-5.972 2.452-5.972 2.452s-4.41 5.52-13.23 0c-2.893-1.811-5.312-2.433-7.256-2.452-3.982-.04-5.973 2.452-5.973 2.452s-4.41 5.52-13.229 0c-2.894-1.811-5.312-2.433-7.257-2.452-3.981-.04-5.972 2.452-5.972 2.452s-4.41 5.52-13.23 0c-2.893-1.811-5.312-2.433-7.256-2.452h-.186z" style="fill:#7999ab;fill-opacity:1;stroke:none;stroke-width:.348845;stroke-opacity:1"/><path d="M4.728 106.891c-2.225.027-3.786.992-4.728 1.808v37.351h210.608v-36.232s-4.41 6.588-13.229 0c-2.894-2.161-5.312-2.904-7.257-2.927-3.98-.046-5.972 2.927-5.972 2.927s-4.41 6.588-13.23 0c-2.893-2.161-5.312-2.904-7.256-2.927-3.981-.046-5.972 2.927-5.972 2.927s-4.41 6.588-13.23 0c-2.893-2.161-5.312-2.904-7.256-2.927-3.982-.046-5.973 2.927-5.973 2.927s-4.41 6.588-13.229 0c-2.894-2.161-5.312-2.904-7.257-2.927h-.185c-3.858.046-5.787 2.927-5.787 2.927s-4.41 6.588-13.23 0c-2.893-2.161-5.312-2.904-7.256-2.927-3.981-.046-5.972 2.927-5.972 2.927s-4.41 6.588-13.23 0c-2.893-2.161-5.312-2.904-7.256-2.927-3.982-.046-5.973 2.927-5.973 2.927s-4.41 6.588-13.229 0c-2.894-2.161-5.312-2.904-7.257-2.927-3.981-.046-5.972 2.927-5.972 2.927s-4.41 6.588-13.23 0c-2.893-2.161-5.312-2.904-7.256-2.927h-.186z" style="fill:#5d8094;fill-opacity:1;stroke:none;stroke-width:.381113;stroke-opacity:1"/><path d="M4.728 120.12c-2.225.036-3.786 1.328-4.728 2.42v25.627h210.608v-24.128s-4.41 8.82-13.229 0c-2.894-2.893-5.312-3.888-7.257-3.918-3.98-.062-5.972 3.918-5.972 3.918s-4.41 8.82-13.23 0c-2.893-2.893-5.312-3.888-7.256-3.918-3.981-.062-5.972 3.918-5.972 3.918s-4.41 8.82-13.23 0c-2.893-2.893-5.312-3.888-7.256-3.918-3.982-.062-5.973 3.918-5.973 3.918s-4.41 8.82-13.229 0c-2.894-2.893-5.312-3.888-7.257-3.918a5.884 5.884 0 0 0-.185 0c-3.858.061-5.787 3.918-5.787 3.918s-4.41 8.82-13.23 0c-2.893-2.893-5.312-3.888-7.256-3.918-3.981-.062-5.972 3.918-5.972 3.918s-4.41 8.82-13.23 0c-2.893-2.893-5.312-3.888-7.256-3.918-3.982-.062-5.973 3.918-5.973 3.918s-4.41 8.82-13.229 0c-2.894-2.893-5.312-3.888-7.257-3.918-3.981-.062-5.972 3.918-5.972 3.918s-4.41 8.82-13.23 0c-2.893-2.893-5.312-3.888-7.256-3.918a5.884 5.884 0 0 0-.186 0z" style="fill:#7999ab;fill-opacity:1;stroke:none;stroke-width:.440972;stroke-opacity:1"/><path d="M4.728 133.35c-2.225.035-3.786 1.327-4.728 2.42v12.397h210.608v-10.899s-4.41 8.82-13.229 0c-2.894-2.893-5.312-3.888-7.257-3.918-3.98-.062-5.972 3.919-5.972 3.919s-4.41 8.819-13.23 0c-2.893-2.894-5.312-3.889-7.256-3.919-3.981-.062-5.972 3.919-5.972 3.919s-4.41 8.819-13.23 0c-2.893-2.894-5.312-3.889-7.256-3.919-3.982-.062-5.973 3.919-5.973 3.919s-4.41 8.819-13.229 0c-2.894-2.894-5.312-3.889-7.257-3.919a5.914 5.914 0 0 0-.185 0c-3.858.061-5.787 3.919-5.787 3.919s-4.41 8.819-13.23 0c-2.893-2.894-5.312-3.889-7.256-3.919-3.981-.062-5.972 3.919-5.972 3.919s-4.41 8.819-13.23 0c-2.893-2.894-5.312-3.889-7.256-3.919-3.982-.062-5.973 3.919-5.973 3.919s-4.41 8.819-13.229 0c-2.894-2.894-5.312-3.889-7.257-3.919-3.981-.062-5.972 3.919-5.972 3.919s-4.41 8.819-13.23 0c-2.893-2.894-5.312-3.889-7.256-3.919a5.914 5.914 0 0 0-.186 0z" style="fill:#5d8094;fill-opacity:1;stroke:none;stroke-width:.440972;stroke-opacity:1"/><path d="M117.486 13.65a13.929 14.012 0 0 0-13.744 11.769 9.334 8.15 0 0 0-2.626-.33 9.334 8.15 0 0 0-9.334 8.15 9.334 8.15 0 0 0 1.4 4.283 21.54 5.72 0 0 0-16.908 5.583 21.54 5.72 0 0 0 .06.286H200.3a14.934 7.578 0 0 0 .329-1.573 14.934 7.578 0 0 0-14.934-7.578 14.934 7.578 0 0 0-5.572.552 18.524 10.295 0 0 0-17.26-6.558 18.524 10.295 0 0 0-1.65.047 14.647 12.869 0 0 0 .07-1.19 14.647 12.869 0 0 0-14.646-12.869 14.647 12.869 0 0 0-14.611 12.03 28.145 14.441 0 0 0-.68.012 13.929 14.012 0 0 0-13.86-12.614z" style="fill:#e8f5fa;fill-opacity:1;stroke-width:.155914"/></svg>