<svg xmlns="http://www.w3.org/2000/svg" width="794.064" height="558.771" viewBox="0 0 210.096 147.842"><path d="M659.936 0v147.842h210.097V0Z" style="fill:#bde3f2;fill-opacity:1;stroke-width:.265458" transform="translate(-659.936)"/><path d="M703.729 32.28a13.929 14.012 0 0 0-13.744 11.768 9.334 8.15 0 0 0-2.626-.33 9.334 8.15 0 0 0-9.334 8.15 9.334 8.15 0 0 0 1.4 4.283 21.54 5.72 0 0 0-16.908 5.583 21.54 5.72 0 0 0 .06.286h123.965a14.934 7.578 0 0 0 .329-1.573 14.934 7.578 0 0 0-14.934-7.578 14.934 7.578 0 0 0-5.572.552 18.524 10.295 0 0 0-17.26-6.558 18.524 10.295 0 0 0-1.65.047 14.647 12.869 0 0 0 .07-1.19 14.647 12.869 0 0 0-14.645-12.87 14.647 12.869 0 0 0-14.611 12.03 28.145 14.441 0 0 0-.68.012 13.929 14.012 0 0 0-13.86-12.614zm117.649 52.26a13.929 14.012 0 0 1 13.744 11.768 9.334 8.15 0 0 1 2.626-.33 9.334 8.15 0 0 1 9.334 8.15 9.334 8.15 0 0 1-1.4 4.283 21.54 5.72 0 0 1 16.908 5.583 21.54 5.72 0 0 1-.06.286H738.565a14.934 7.578 0 0 1-.329-1.573 14.934 7.578 0 0 1 14.934-7.578 14.934 7.578 0 0 1 5.572.552 18.524 10.295 0 0 1 17.26-6.557 18.524 10.295 0 0 1 1.65.046 14.647 12.869 0 0 1-.07-1.19 14.647 12.869 0 0 1 14.646-12.868 14.647 12.869 0 0 1 14.611 12.03 28.145 14.441 0 0 1 .68.012 13.929 14.012 0 0 1 13.86-12.614z" style="fill:#e8f5fa;fill-opacity:1;stroke-width:.155914" transform="translate(-659.936)"/></svg>