<svg xmlns="http://www.w3.org/2000/svg" width="800" height="558.882" viewBox="0 0 211.667 147.871"><path d="M-.315.315h210.48v147.871H-.315z" style="fill:#5d8094;fill-opacity:1;stroke-width:.260775" transform="translate(1.058 -.315)"/><path d="M4.728 16.17C2.503 16.205.942 17.498 0 18.59v50.006h210.608V20.088s-4.41 8.82-13.229 0c-2.894-2.893-5.312-3.888-7.257-3.918-3.98-.062-5.972 3.919-5.972 3.919s-4.41 8.82-13.23 0c-2.893-2.894-5.312-3.889-7.256-3.919-3.981-.062-5.972 3.919-5.972 3.919s-4.41 8.82-13.23 0c-2.893-2.894-5.312-3.889-7.256-3.919-3.982-.062-5.973 3.919-5.973 3.919s-4.41 8.82-13.229 0c-2.894-2.894-5.312-3.889-7.257-3.919a5.896 5.896 0 0 0-.185 0c-3.858.061-5.787 3.919-5.787 3.919s-4.41 8.82-13.23 0c-2.893-2.894-5.312-3.889-7.256-3.919-3.981-.062-5.972 3.919-5.972 3.919s-4.41 8.82-13.23 0c-2.893-2.894-5.312-3.889-7.256-3.919-3.982-.062-5.973 3.919-5.973 3.919s-4.41 8.82-13.229 0c-2.894-2.894-5.312-3.889-7.257-3.919-3.981-.062-5.972 3.919-5.972 3.919s-4.41 8.82-13.23 0C9.278 17.195 6.859 16.2 4.915 16.17a5.896 5.896 0 0 0-.186 0z" style="fill:#7999ab;fill-opacity:1;stroke:none;stroke-width:.440972;stroke-opacity:1" transform="translate(1.058 -.315)"/><path d="M4.728 35.24C2.503 35.275.942 36.567 0 37.66v49.653h-1.058v.352h211.666V39.158s-4.41 8.82-13.229 0c-2.894-2.894-5.312-3.888-7.257-3.918-3.98-.062-5.972 3.918-5.972 3.918s-4.41 8.82-13.23 0c-2.893-2.894-5.312-3.888-7.256-3.918-3.981-.062-5.972 3.918-5.972 3.918s-4.41 8.82-13.23 0c-2.893-2.894-5.312-3.888-7.256-3.918-3.982-.062-5.973 3.918-5.973 3.918s-4.41 8.82-13.229 0c-2.894-2.894-5.312-3.888-7.257-3.918a5.896 5.896 0 0 0-.185 0c-3.858.06-5.787 3.918-5.787 3.918s-4.41 8.82-13.23 0c-2.893-2.894-5.312-3.888-7.256-3.918-3.981-.062-5.972 3.918-5.972 3.918s-4.41 8.82-13.23 0c-2.893-2.894-5.312-3.888-7.256-3.918-3.982-.062-5.973 3.918-5.973 3.918s-4.41 8.82-13.229 0c-2.894-2.894-5.312-3.888-7.257-3.918-3.981-.062-5.972 3.918-5.972 3.918s-4.41 8.82-13.23 0c-2.893-2.894-5.312-3.888-7.256-3.918a5.896 5.896 0 0 0-.186 0z" style="fill:#5d8094;fill-opacity:1;stroke:none;stroke-width:.440972;stroke-opacity:1" transform="translate(1.058 -.315)"/><path d="M4.728 55.348C2.503 55.383.942 56.675 0 57.768v50.005h210.608V59.266s-4.41 8.82-13.229 0c-2.894-2.893-5.312-3.888-7.257-3.918-3.98-.062-5.972 3.919-5.972 3.919s-4.41 8.82-13.23 0c-2.893-2.894-5.312-3.889-7.256-3.919-3.981-.062-5.972 3.919-5.972 3.919s-4.41 8.82-13.23 0c-2.893-2.894-5.312-3.889-7.256-3.919-3.982-.062-5.973 3.919-5.973 3.919s-4.41 8.82-13.229 0c-2.894-2.894-5.312-3.889-7.257-3.919a5.896 5.896 0 0 0-.185 0c-3.858.061-5.787 3.919-5.787 3.919s-4.41 8.82-13.23 0c-2.893-2.894-5.312-3.889-7.256-3.919-3.981-.062-5.972 3.919-5.972 3.919s-4.41 8.82-13.23 0c-2.893-2.894-5.312-3.889-7.256-3.919-3.982-.062-5.973 3.919-5.973 3.919s-4.41 8.82-13.229 0c-2.894-2.894-5.312-3.889-7.257-3.919-3.981-.062-5.972 3.919-5.972 3.919s-4.41 8.82-13.23 0c-2.893-2.894-5.312-3.889-7.256-3.919a5.896 5.896 0 0 0-.186 0z" style="fill:#7999ab;fill-opacity:1;stroke:none;stroke-width:.440972;stroke-opacity:1" transform="translate(1.058 -.315)"/><path d="M4.728 78.102C2.503 78.137.942 79.43 0 80.522v50.005h210.608V82.02s-4.41 8.82-13.229 0c-2.894-2.893-5.312-3.888-7.257-3.918-3.98-.063-5.972 3.919-5.972 3.919s-4.41 8.82-13.23 0c-2.893-2.894-5.312-3.889-7.256-3.92-3.981-.062-5.972 3.92-5.972 3.92s-4.41 8.82-13.23 0c-2.893-2.894-5.312-3.889-7.256-3.92-3.982-.062-5.973 3.92-5.973 3.92s-4.41 8.82-13.229 0c-2.894-2.894-5.312-3.889-7.257-3.92a5.914 5.914 0 0 0-.185 0c-3.858.062-5.787 3.92-5.787 3.92s-4.41 8.82-13.23 0c-2.893-2.894-5.312-3.889-7.256-3.92-3.981-.062-5.972 3.92-5.972 3.92s-4.41 8.82-13.23 0c-2.893-2.894-5.312-3.889-7.256-3.92-3.982-.062-5.973 3.92-5.973 3.92s-4.41 8.82-13.229 0c-2.894-2.894-5.312-3.889-7.257-3.92-3.981-.062-5.972 3.92-5.972 3.92s-4.41 8.82-13.23 0c-2.893-2.894-5.312-3.889-7.256-3.92a5.914 5.914 0 0 0-.186 0z" style="fill:#5d8094;fill-opacity:1;stroke:none;stroke-width:.440972;stroke-opacity:1" transform="translate(1.058 -.315)"/><path d="M4.728 99.798c-2.225.035-3.786 1.328-4.728 2.42v45.949h210.608v-44.45s-4.41 8.82-13.229 0c-2.894-2.894-5.312-3.889-7.257-3.919-3.98-.062-5.972 3.919-5.972 3.919s-4.41 8.82-13.23 0c-2.893-2.894-5.312-3.889-7.256-3.919-3.981-.062-5.972 3.919-5.972 3.919s-4.41 8.82-13.23 0c-2.893-2.894-5.312-3.889-7.256-3.919-3.982-.062-5.973 3.919-5.973 3.919s-4.41 8.82-13.229 0c-2.894-2.894-5.312-3.889-7.257-3.919a5.884 5.884 0 0 0-.185 0c-3.858.061-5.787 3.919-5.787 3.919s-4.41 8.82-13.23 0c-2.893-2.894-5.312-3.889-7.256-3.919-3.981-.062-5.972 3.919-5.972 3.919s-4.41 8.82-13.23 0c-2.893-2.894-5.312-3.889-7.256-3.919-3.982-.062-5.973 3.919-5.973 3.919s-4.41 8.82-13.229 0c-2.894-2.894-5.312-3.889-7.257-3.919-3.981-.062-5.972 3.919-5.972 3.919s-4.41 8.82-13.23 0c-2.893-2.894-5.312-3.889-7.256-3.919a5.884 5.884 0 0 0-.186 0z" style="fill:#7999ab;fill-opacity:1;stroke:none;stroke-width:.440972;stroke-opacity:1" transform="translate(1.058 -.315)"/><path d="M4.728 122.552c-2.225.036-3.786 1.328-4.728 2.42v23.195h210.608V126.47s-4.41 8.82-13.229 0c-2.894-2.893-5.312-3.887-7.257-3.918-3.98-.062-5.972 3.919-5.972 3.919s-4.41 8.82-13.23 0c-2.893-2.894-5.312-3.888-7.256-3.919-3.981-.062-5.972 3.919-5.972 3.919s-4.41 8.82-13.23 0c-2.893-2.894-5.312-3.888-7.256-3.919-3.982-.062-5.973 3.919-5.973 3.919s-4.41 8.82-13.229 0c-2.894-2.894-5.312-3.888-7.257-3.919a5.914 5.914 0 0 0-.185 0c-3.858.061-5.787 3.919-5.787 3.919s-4.41 8.82-13.23 0c-2.893-2.894-5.312-3.888-7.256-3.919-3.981-.062-5.972 3.919-5.972 3.919s-4.41 8.82-13.23 0c-2.893-2.894-5.312-3.888-7.256-3.919-3.982-.062-5.973 3.919-5.973 3.919s-4.41 8.82-13.229 0c-2.894-2.894-5.312-3.888-7.257-3.919-3.981-.062-5.972 3.919-5.972 3.919s-4.41 8.82-13.23 0c-2.893-2.894-5.312-3.888-7.256-3.919a5.914 5.914 0 0 0-.186 0z" style="fill:#5d8094;fill-opacity:1;stroke:none;stroke-width:.440972;stroke-opacity:1" transform="translate(1.058 -.315)"/></svg>