<svg width="37mm" height="37mm" version="1.1" viewBox="0 0 37 37" back_color="white" xmlns="http://www.w3.org/2000/svg" style="background-color: white;"><path d="M4,4H5V5H4zM5,4H6V5H5zM6,4H7V5H6zM7,4H8V5H7zM8,4H9V5H8zM9,4H10V5H9zM10,4H11V5H10zM12,4H13V5H12zM13,4H14V5H13zM14,4H15V5H14zM15,4H16V5H15zM18,4H19V5H18zM23,4H24V5H23zM24,4H25V5H24zM26,4H27V5H26zM27,4H28V5H27zM28,4H29V5H28zM29,4H30V5H29zM30,4H31V5H30zM31,4H32V5H31zM32,4H33V5H32zM4,5H5V6H4zM10,5H11V6H10zM12,5H13V6H12zM13,5H14V6H13zM14,5H15V6H14zM15,5H16V6H15zM17,5H18V6H17zM18,5H19V6H18zM20,5H21V6H20zM26,5H27V6H26zM32,5H33V6H32zM4,6H5V7H4zM6,6H7V7H6zM7,6H8V7H7zM8,6H9V7H8zM10,6H11V7H10zM14,6H15V7H14zM17,6H18V7H17zM18,6H19V7H18zM19,6H20V7H19zM23,6H24V7H23zM24,6H25V7H24zM26,6H27V7H26zM28,6H29V7H28zM29,6H30V7H29zM30,6H31V7H30zM32,6H33V7H32zM4,7H5V8H4zM6,7H7V8H6zM7,7H8V8H7zM8,7H9V8H8zM10,7H11V8H10zM12,7H13V8H12zM13,7H14V8H13zM15,7H16V8H15zM17,7H18V8H17zM21,7H22V8H21zM22,7H23V8H22zM26,7H27V8H26zM28,7H29V8H28zM29,7H30V8H29zM30,7H31V8H30zM32,7H33V8H32zM4,8H5V9H4zM6,8H7V9H6zM7,8H8V9H7zM8,8H9V9H8zM10,8H11V9H10zM16,8H17V9H16zM17,8H18V9H17zM18,8H19V9H18zM19,8H20V9H19zM23,8H24V9H23zM26,8H27V9H26zM28,8H29V9H28zM29,8H30V9H29zM30,8H31V9H30zM32,8H33V9H32zM4,9H5V10H4zM10,9H11V10H10zM13,9H14V10H13zM18,9H19V10H18zM20,9H21V10H20zM22,9H23V10H22zM23,9H24V10H23zM26,9H27V10H26zM32,9H33V10H32zM4,10H5V11H4zM5,10H6V11H5zM6,10H7V11H6zM7,10H8V11H7zM8,10H9V11H8zM9,10H10V11H9zM10,10H11V11H10zM12,10H13V11H12zM14,10H15V11H14zM16,10H17V11H16zM18,10H19V11H18zM20,10H21V11H20zM22,10H23V11H22zM24,10H25V11H24zM26,10H27V11H26zM27,10H28V11H27zM28,10H29V11H28zM29,10H30V11H29zM30,10H31V11H30zM31,10H32V11H31zM32,10H33V11H32zM12,11H13V12H12zM14,11H15V12H14zM15,11H16V12H15zM21,11H22V12H21zM22,11H23V12H22zM23,11H24V12H23zM4,12H5V13H4zM6,12H7V13H6zM7,12H8V13H7zM9,12H10V13H9zM10,12H11V13H10zM11,12H12V13H11zM13,12H14V13H13zM14,12H15V13H14zM15,12H16V13H15zM16,12H17V13H16zM21,12H22V13H21zM22,12H23V13H22zM26,12H27V13H26zM29,12H30V13H29zM31,12H32V13H31zM32,12H33V13H32zM6,13H7V14H6zM7,13H8V14H7zM8,13H9V14H8zM12,13H13V14H12zM18,13H19V14H18zM23,13H24V14H23zM24,13H25V14H24zM26,13H27V14H26zM27,13H28V14H27zM28,13H29V14H28zM32,13H33V14H32zM5,14H6V15H5zM9,14H10V15H9zM10,14H11V15H10zM12,14H13V15H12zM13,14H14V15H13zM14,14H15V15H14zM17,14H18V15H17zM20,14H21V15H20zM25,14H26V15H25zM30,14H31V15H30zM31,14H32V15H31zM6,15H7V16H6zM9,15H10V16H9zM11,15H12V16H11zM12,15H13V16H12zM15,15H16V16H15zM16,15H17V16H16zM17,15H18V16H17zM20,15H21V16H20zM23,15H24V16H23zM24,15H25V16H24zM25,15H26V16H25zM27,15H28V16H27zM28,15H29V16H28zM32,15H33V16H32zM4,16H5V17H4zM6,16H7V17H6zM7,16H8V17H7zM8,16H9V17H8zM10,16H11V17H10zM11,16H12V17H11zM13,16H14V17H13zM14,16H15V17H14zM16,16H17V17H16zM17,16H18V17H17zM18,16H19V17H18zM19,16H20V17H19zM20,16H21V17H20zM21,16H22V17H21zM22,16H23V17H22zM24,16H25V17H24zM29,16H30V17H29zM30,16H31V17H30zM8,17H9V18H8zM11,17H12V18H11zM14,17H15V18H14zM15,17H16V18H15zM16,17H17V18H16zM18,17H19V18H18zM19,17H20V18H19zM22,17H23V18H22zM23,17H24V18H23zM26,17H27V18H26zM27,17H28V18H27zM30,17H31V18H30zM31,17H32V18H31zM32,17H33V18H32zM4,18H5V19H4zM5,18H6V19H5zM8,18H9V19H8zM9,18H10V19H9zM10,18H11V19H10zM11,18H12V19H11zM13,18H14V19H13zM14,18H15V19H14zM15,18H16V19H15zM16,18H17V19H16zM18,18H19V19H18zM23,18H24V19H23zM27,18H28V19H27zM30,18H31V19H30zM31,18H32V19H31zM32,18H33V19H32zM4,19H5V20H4zM5,19H6V20H5zM8,19H9V20H8zM9,19H10V20H9zM12,19H13V20H12zM15,19H16V20H15zM16,19H17V20H16zM20,19H21V20H20zM22,19H23V20H22zM23,19H24V20H23zM27,19H28V20H27zM31,19H32V20H31zM5,20H6V21H5zM6,20H7V21H6zM7,20H8V21H7zM8,20H9V21H8zM9,20H10V21H9zM10,20H11V21H10zM12,20H13V21H12zM14,20H15V21H14zM15,20H16V21H15zM16,20H17V21H16zM17,20H18V21H17zM18,20H19V21H18zM19,20H20V21H19zM22,20H23V21H22zM25,20H26V21H25zM27,20H28V21H27zM28,20H29V21H28zM29,20H30V21H29zM31,20H32V21H31zM5,21H6V22H5zM7,21H8V22H7zM11,21H12V22H11zM13,21H14V22H13zM14,21H15V22H14zM15,21H16V22H15zM16,21H17V22H16zM19,21H20V22H19zM20,21H21V22H20zM24,21H25V22H24zM29,21H30V22H29zM30,21H31V22H30zM31,21H32V22H31zM4,22H5V23H4zM9,22H10V23H9zM10,22H11V23H10zM11,22H12V23H11zM12,22H13V23H12zM13,22H14V23H13zM15,22H16V23H15zM17,22H18V23H17zM18,22H19V23H18zM19,22H20V23H19zM20,22H21V23H20zM22,22H23V23H22zM26,22H27V23H26zM30,22H31V23H30zM6,23H7V24H6zM7,23H8V24H7zM8,23H9V24H8zM13,23H14V24H13zM15,23H16V24H15zM19,23H20V24H19zM21,23H22V24H21zM22,23H23V24H22zM23,23H24V24H23zM24,23H25V24H24zM28,23H29V24H28zM30,23H31V24H30zM5,24H6V25H5zM6,24H7V25H6zM8,24H9V25H8zM10,24H11V25H10zM12,24H13V25H12zM15,24H16V25H15zM16,24H17V25H16zM17,24H18V25H17zM19,24H20V25H19zM20,24H21V25H20zM21,24H22V25H21zM23,24H24V25H23zM24,24H25V25H24zM25,24H26V25H25zM26,24H27V25H26zM27,24H28V25H27zM28,24H29V25H28zM29,24H30V25H29zM30,24H31V25H30zM12,25H13V26H12zM13,25H14V26H13zM16,25H17V26H16zM17,25H18V26H17zM20,25H21V26H20zM21,25H22V26H21zM22,25H23V26H22zM24,25H25V26H24zM28,25H29V26H28zM29,25H30V26H29zM30,25H31V26H30zM31,25H32V26H31zM32,25H33V26H32zM4,26H5V27H4zM5,26H6V27H5zM6,26H7V27H6zM7,26H8V27H7zM8,26H9V27H8zM9,26H10V27H9zM10,26H11V27H10zM12,26H13V27H12zM13,26H14V27H13zM14,26H15V27H14zM15,26H16V27H15zM17,26H18V27H17zM20,26H21V27H20zM22,26H23V27H22zM23,26H24V27H23zM24,26H25V27H24zM26,26H27V27H26zM28,26H29V27H28zM29,26H30V27H29zM31,26H32V27H31zM4,27H5V28H4zM10,27H11V28H10zM12,27H13V28H12zM19,27H20V28H19zM24,27H25V28H24zM28,27H29V28H28zM29,27H30V28H29zM31,27H32V28H31zM32,27H33V28H32zM4,28H5V29H4zM6,28H7V29H6zM7,28H8V29H7zM8,28H9V29H8zM10,28H11V29H10zM13,28H14V29H13zM15,28H16V29H15zM18,28H19V29H18zM21,28H22V29H21zM24,28H25V29H24zM25,28H26V29H25zM26,28H27V29H26zM27,28H28V29H27zM28,28H29V29H28zM30,28H31V29H30zM31,28H32V29H31zM32,28H33V29H32zM4,29H5V30H4zM6,29H7V30H6zM7,29H8V30H7zM8,29H9V30H8zM10,29H11V30H10zM12,29H13V30H12zM14,29H15V30H14zM15,29H16V30H15zM18,29H19V30H18zM19,29H20V30H19zM21,29H22V30H21zM23,29H24V30H23zM24,29H25V30H24zM25,29H26V30H25zM27,29H28V30H27zM28,29H29V30H28zM29,29H30V30H29zM32,29H33V30H32zM4,30H5V31H4zM6,30H7V31H6zM7,30H8V31H7zM8,30H9V31H8zM10,30H11V31H10zM12,30H13V31H12zM13,30H14V31H13zM16,30H17V31H16zM18,30H19V31H18zM22,30H23V31H22zM23,30H24V31H23zM27,30H28V31H27zM30,30H31V31H30zM32,30H33V31H32zM4,31H5V32H4zM10,31H11V32H10zM13,31H14V32H13zM15,31H16V32H15zM17,31H18V32H17zM19,31H20V32H19zM20,31H21V32H20zM22,31H23V32H22zM24,31H25V32H24zM26,31H27V32H26zM28,31H29V32H28zM29,31H30V32H29zM31,31H32V32H31zM4,32H5V33H4zM5,32H6V33H5zM6,32H7V33H6zM7,32H8V33H7zM8,32H9V33H8zM9,32H10V33H9zM10,32H11V33H10zM12,32H13V33H12zM14,32H15V33H14zM16,32H17V33H16zM17,32H18V33H17zM18,32H19V33H18zM22,32H23V33H22zM23,32H24V33H23zM24,32H25V33H24zM25,32H26V33H25zM27,32H28V33H27zM28,32H29V33H28zM29,32H30V33H29zM31,32H32V33H31z" id="qr-path" fill="#000000" fill-opacity="1" fill-rule="nonzero" stroke="none"/></svg>