<svg width="45mm" height="45mm" version="1.1" viewBox="0 0 45 45" back_color="white" xmlns="http://www.w3.org/2000/svg" style="background-color: white;"><path d="M4,4H5V5H4zM5,4H6V5H5zM6,4H7V5H6zM7,4H8V5H7zM8,4H9V5H8zM9,4H10V5H9zM10,4H11V5H10zM13,4H14V5H13zM15,4H16V5H15zM16,4H17V5H16zM17,4H18V5H17zM18,4H19V5H18zM20,4H21V5H20zM23,4H24V5H23zM24,4H25V5H24zM25,4H26V5H25zM26,4H27V5H26zM34,4H35V5H34zM35,4H36V5H35zM36,4H37V5H36zM37,4H38V5H37zM38,4H39V5H38zM39,4H40V5H39zM40,4H41V5H40zM4,5H5V6H4zM10,5H11V6H10zM12,5H13V6H12zM14,5H15V6H14zM15,5H16V6H15zM17,5H18V6H17zM18,5H19V6H18zM21,5H22V6H21zM22,5H23V6H22zM24,5H25V6H24zM25,5H26V6H25zM30,5H31V6H30zM32,5H33V6H32zM34,5H35V6H34zM40,5H41V6H40zM4,6H5V7H4zM6,6H7V7H6zM7,6H8V7H7zM8,6H9V7H8zM10,6H11V7H10zM12,6H13V7H12zM13,6H14V7H13zM14,6H15V7H14zM17,6H18V7H17zM19,6H20V7H19zM20,6H21V7H20zM25,6H26V7H25zM28,6H29V7H28zM30,6H31V7H30zM32,6H33V7H32zM34,6H35V7H34zM36,6H37V7H36zM37,6H38V7H37zM38,6H39V7H38zM40,6H41V7H40zM4,7H5V8H4zM6,7H7V8H6zM7,7H8V8H7zM8,7H9V8H8zM10,7H11V8H10zM12,7H13V8H12zM14,7H15V8H14zM15,7H16V8H15zM16,7H17V8H16zM17,7H18V8H17zM18,7H19V8H18zM19,7H20V8H19zM21,7H22V8H21zM24,7H25V8H24zM25,7H26V8H25zM26,7H27V8H26zM27,7H28V8H27zM29,7H30V8H29zM31,7H32V8H31zM32,7H33V8H32zM34,7H35V8H34zM36,7H37V8H36zM37,7H38V8H37zM38,7H39V8H38zM40,7H41V8H40zM4,8H5V9H4zM6,8H7V9H6zM7,8H8V9H7zM8,8H9V9H8zM10,8H11V9H10zM20,8H21V9H20zM21,8H22V9H21zM23,8H24V9H23zM24,8H25V9H24zM26,8H27V9H26zM27,8H28V9H27zM32,8H33V9H32zM34,8H35V9H34zM36,8H37V9H36zM37,8H38V9H37zM38,8H39V9H38zM40,8H41V9H40zM4,9H5V10H4zM10,9H11V10H10zM13,9H14V10H13zM14,9H15V10H14zM15,9H16V10H15zM16,9H17V10H16zM17,9H18V10H17zM18,9H19V10H18zM19,9H20V10H19zM21,9H22V10H21zM24,9H25V10H24zM25,9H26V10H25zM26,9H27V10H26zM30,9H31V10H30zM34,9H35V10H34zM40,9H41V10H40zM4,10H5V11H4zM5,10H6V11H5zM6,10H7V11H6zM7,10H8V11H7zM8,10H9V11H8zM9,10H10V11H9zM10,10H11V11H10zM12,10H13V11H12zM14,10H15V11H14zM16,10H17V11H16zM18,10H19V11H18zM20,10H21V11H20zM22,10H23V11H22zM24,10H25V11H24zM26,10H27V11H26zM28,10H29V11H28zM30,10H31V11H30zM32,10H33V11H32zM34,10H35V11H34zM35,10H36V11H35zM36,10H37V11H36zM37,10H38V11H37zM38,10H39V11H38zM39,10H40V11H39zM40,10H41V11H40zM12,11H13V12H12zM13,11H14V12H13zM14,11H15V12H14zM15,11H16V12H15zM16,11H17V12H16zM18,11H19V12H18zM19,11H20V12H19zM20,11H21V12H20zM21,11H22V12H21zM22,11H23V12H22zM24,11H25V12H24zM32,11H33V12H32zM4,12H5V13H4zM10,12H11V13H10zM12,12H13V13H12zM13,12H14V13H13zM14,12H15V13H14zM16,12H17V13H16zM17,12H18V13H17zM18,12H19V13H18zM19,12H20V13H19zM20,12H21V13H20zM26,12H27V13H26zM27,12H28V13H27zM28,12H29V13H28zM29,12H30V13H29zM30,12H31V13H30zM33,12H34V13H33zM34,12H35V13H34zM37,12H38V13H37zM38,12H39V13H38zM39,12H40V13H39zM4,13H5V14H4zM5,13H6V14H5zM6,13H7V14H6zM7,13H8V14H7zM8,13H9V14H8zM9,13H10V14H9zM13,13H14V14H13zM16,13H17V14H16zM17,13H18V14H17zM20,13H21V14H20zM22,13H23V14H22zM25,13H26V14H25zM27,13H28V14H27zM31,13H32V14H31zM32,13H33V14H32zM35,13H36V14H35zM36,13H37V14H36zM38,13H39V14H38zM39,13H40V14H39zM4,14H5V15H4zM7,14H8V15H7zM9,14H10V15H9zM10,14H11V15H10zM11,14H12V15H11zM12,14H13V15H12zM13,14H14V15H13zM15,14H16V15H15zM16,14H17V15H16zM18,14H19V15H18zM19,14H20V15H19zM20,14H21V15H20zM23,14H24V15H23zM25,14H26V15H25zM31,14H32V15H31zM32,14H33V15H32zM35,14H36V15H35zM36,14H37V15H36zM37,14H38V15H37zM38,14H39V15H38zM39,14H40V15H39zM40,14H41V15H40zM5,15H6V16H5zM8,15H9V16H8zM9,15H10V16H9zM12,15H13V16H12zM17,15H18V16H17zM22,15H23V16H22zM23,15H24V16H23zM24,15H25V16H24zM28,15H29V16H28zM30,15H31V16H30zM32,15H33V16H32zM34,15H35V16H34zM35,15H36V16H35zM36,15H37V16H36zM37,15H38V16H37zM40,15H41V16H40zM6,16H7V17H6zM10,16H11V17H10zM16,16H17V17H16zM17,16H18V17H17zM19,16H20V17H19zM24,16H25V17H24zM27,16H28V17H27zM28,16H29V17H28zM31,16H32V17H31zM32,16H33V17H32zM34,16H35V17H34zM37,16H38V17H37zM40,16H41V17H40zM5,17H6V18H5zM7,17H8V18H7zM8,17H9V18H8zM11,17H12V18H11zM12,17H13V18H12zM13,17H14V18H13zM15,17H16V18H15zM16,17H17V18H16zM17,17H18V18H17zM19,17H20V18H19zM20,17H21V18H20zM22,17H23V18H22zM23,17H24V18H23zM24,17H25V18H24zM27,17H28V18H27zM28,17H29V18H28zM31,17H32V18H31zM32,17H33V18H32zM35,17H36V18H35zM37,17H38V18H37zM39,17H40V18H39zM5,18H6V19H5zM6,18H7V19H6zM9,18H10V19H9zM10,18H11V19H10zM11,18H12V19H11zM13,18H14V19H13zM15,18H16V19H15zM19,18H20V19H19zM20,18H21V19H20zM22,18H23V19H22zM25,18H26V19H25zM26,18H27V19H26zM28,18H29V19H28zM29,18H30V19H29zM31,18H32V19H31zM32,18H33V19H32zM33,18H34V19H33zM35,18H36V19H35zM36,18H37V19H36zM37,18H38V19H37zM39,18H40V19H39zM40,18H41V19H40zM5,19H6V20H5zM7,19H8V20H7zM8,19H9V20H8zM9,19H10V20H9zM16,19H17V20H16zM18,19H19V20H18zM23,19H24V20H23zM24,19H25V20H24zM26,19H27V20H26zM27,19H28V20H27zM28,19H29V20H28zM30,19H31V20H30zM32,19H33V20H32zM35,19H36V20H35zM37,19H38V20H37zM38,19H39V20H38zM39,19H40V20H39zM8,20H9V21H8zM9,20H10V21H9zM10,20H11V21H10zM13,20H14V21H13zM14,20H15V21H14zM15,20H16V21H15zM17,20H18V21H17zM18,20H19V21H18zM19,20H20V21H19zM22,20H23V21H22zM23,20H24V21H23zM26,20H27V21H26zM28,20H29V21H28zM29,20H30V21H29zM30,20H31V21H30zM33,20H34V21H33zM34,20H35V21H34zM36,20H37V21H36zM38,20H39V21H38zM39,20H40V21H39zM7,21H8V22H7zM8,21H9V22H8zM9,21H10V22H9zM11,21H12V22H11zM15,21H16V22H15zM17,21H18V22H17zM20,21H21V22H20zM27,21H28V22H27zM31,21H32V22H31zM32,21H33V22H32zM37,21H38V22H37zM39,21H40V22H39zM4,22H5V23H4zM5,22H6V23H5zM6,22H7V23H6zM7,22H8V23H7zM8,22H9V23H8zM9,22H10V23H9zM10,22H11V23H10zM12,22H13V23H12zM13,22H14V23H13zM17,22H18V23H17zM18,22H19V23H18zM20,22H21V23H20zM21,22H22V23H21zM23,22H24V23H23zM25,22H26V23H25zM26,22H27V23H26zM27,22H28V23H27zM28,22H29V23H28zM30,22H31V23H30zM31,22H32V23H31zM32,22H33V23H32zM35,22H36V23H35zM36,22H37V23H36zM40,22H41V23H40zM5,23H6V24H5zM7,23H8V24H7zM8,23H9V24H8zM11,23H12V24H11zM14,23H15V24H14zM17,23H18V24H17zM19,23H20V24H19zM20,23H21V24H20zM23,23H24V24H23zM24,23H25V24H24zM26,23H27V24H26zM28,23H29V24H28zM31,23H32V24H31zM35,23H36V24H35zM40,23H41V24H40zM4,24H5V25H4zM6,24H7V25H6zM8,24H9V25H8zM10,24H11V25H10zM11,24H12V25H11zM12,24H13V25H12zM14,24H15V25H14zM16,24H17V25H16zM17,24H18V25H17zM18,24H19V25H18zM21,24H22V25H21zM23,24H24V25H23zM29,24H30V25H29zM30,24H31V25H30zM31,24H32V25H31zM34,24H35V25H34zM36,24H37V25H36zM37,24H38V25H37zM38,24H39V25H38zM4,25H5V26H4zM5,25H6V26H5zM7,25H8V26H7zM8,25H9V26H8zM11,25H12V26H11zM13,25H14V26H13zM14,25H15V26H14zM17,25H18V26H17zM18,25H19V26H18zM19,25H20V26H19zM21,25H22V26H21zM22,25H23V26H22zM23,25H24V26H23zM25,25H26V26H25zM26,25H27V26H26zM27,25H28V26H27zM31,25H32V26H31zM36,25H37V26H36zM38,25H39V26H38zM4,26H5V27H4zM5,26H6V27H5zM6,26H7V27H6zM7,26H8V27H7zM8,26H9V27H8zM9,26H10V27H9zM10,26H11V27H10zM11,26H12V27H11zM17,26H18V27H17zM19,26H20V27H19zM21,26H22V27H21zM24,26H25V27H24zM25,26H26V27H25zM30,26H31V27H30zM31,26H32V27H31zM32,26H33V27H32zM34,26H35V27H34zM35,26H36V27H35zM36,26H37V27H36zM37,26H38V27H37zM39,26H40V27H39zM40,26H41V27H40zM4,27H5V28H4zM8,27H9V28H8zM13,27H14V28H13zM14,27H15V28H14zM17,27H18V28H17zM21,27H22V28H21zM22,27H23V28H22zM23,27H24V28H23zM24,27H25V28H24zM26,27H27V28H26zM30,27H31V28H30zM31,27H32V28H31zM32,27H33V28H32zM33,27H34V28H33zM34,27H35V28H34zM35,27H36V28H35zM36,27H37V28H36zM37,27H38V28H37zM7,28H8V29H7zM8,28H9V29H8zM9,28H10V29H9zM10,28H11V29H10zM12,28H13V29H12zM14,28H15V29H14zM21,28H22V29H21zM24,28H25V29H24zM27,28H28V29H27zM31,28H32V29H31zM34,28H35V29H34zM4,29H5V30H4zM6,29H7V30H6zM8,29H9V30H8zM9,29H10V30H9zM11,29H12V30H11zM13,29H14V30H13zM14,29H15V30H14zM16,29H17V30H16zM17,29H18V30H17zM21,29H22V30H21zM22,29H23V30H22zM23,29H24V30H23zM25,29H26V30H25zM27,29H28V30H27zM31,29H32V30H31zM32,29H33V30H32zM33,29H34V30H33zM35,29H36V30H35zM37,29H38V30H37zM38,29H39V30H38zM4,30H5V31H4zM7,30H8V31H7zM10,30H11V31H10zM12,30H13V31H12zM13,30H14V31H13zM14,30H15V31H14zM17,30H18V31H17zM19,30H20V31H19zM20,30H21V31H20zM24,30H25V31H24zM26,30H27V31H26zM29,30H30V31H29zM31,30H32V31H31zM32,30H33V31H32zM33,30H34V31H33zM36,30H37V31H36zM38,30H39V31H38zM39,30H40V31H39zM40,30H41V31H40zM4,31H5V32H4zM6,31H7V32H6zM7,31H8V32H7zM8,31H9V32H8zM9,31H10V32H9zM12,31H13V32H12zM13,31H14V32H13zM14,31H15V32H14zM20,31H21V32H20zM24,31H25V32H24zM26,31H27V32H26zM27,31H28V32H27zM30,31H31V32H30zM33,31H34V32H33zM34,31H35V32H34zM36,31H37V32H36zM37,31H38V32H37zM38,31H39V32H38zM4,32H5V33H4zM7,32H8V33H7zM10,32H11V33H10zM12,32H13V33H12zM14,32H15V33H14zM16,32H17V33H16zM17,32H18V33H17zM18,32H19V33H18zM19,32H20V33H19zM21,32H22V33H21zM26,32H27V33H26zM27,32H28V33H27zM28,32H29V33H28zM29,32H30V33H29zM30,32H31V33H30zM31,32H32V33H31zM32,32H33V33H32zM33,32H34V33H33zM34,32H35V33H34zM35,32H36V33H35zM36,32H37V33H36zM37,32H38V33H37zM38,32H39V33H38zM12,33H13V34H12zM13,33H14V34H13zM14,33H15V34H14zM17,33H18V34H17zM19,33H20V34H19zM20,33H21V34H20zM22,33H23V34H22zM23,33H24V34H23zM24,33H25V34H24zM25,33H26V34H25zM26,33H27V34H26zM27,33H28V34H27zM30,33H31V34H30zM31,33H32V34H31zM32,33H33V34H32zM36,33H37V34H36zM4,34H5V35H4zM5,34H6V35H5zM6,34H7V35H6zM7,34H8V35H7zM8,34H9V35H8zM9,34H10V35H9zM10,34H11V35H10zM15,34H16V35H15zM18,34H19V35H18zM19,34H20V35H19zM21,34H22V35H21zM22,34H23V35H22zM23,34H24V35H23zM24,34H25V35H24zM27,34H28V35H27zM28,34H29V35H28zM29,34H30V35H29zM32,34H33V35H32zM34,34H35V35H34zM36,34H37V35H36zM39,34H40V35H39zM40,34H41V35H40zM4,35H5V36H4zM10,35H11V36H10zM14,35H15V36H14zM15,35H16V36H15zM16,35H17V36H16zM17,35H18V36H17zM19,35H20V36H19zM23,35H24V36H23zM27,35H28V36H27zM30,35H31V36H30zM31,35H32V36H31zM32,35H33V36H32zM36,35H37V36H36zM4,36H5V37H4zM6,36H7V37H6zM7,36H8V37H7zM8,36H9V37H8zM10,36H11V37H10zM14,36H15V37H14zM19,36H20V37H19zM22,36H23V37H22zM24,36H25V37H24zM26,36H27V37H26zM27,36H28V37H27zM28,36H29V37H28zM29,36H30V37H29zM30,36H31V37H30zM31,36H32V37H31zM32,36H33V37H32zM33,36H34V37H33zM34,36H35V37H34zM35,36H36V37H35zM36,36H37V37H36zM38,36H39V37H38zM40,36H41V37H40zM4,37H5V38H4zM6,37H7V38H6zM7,37H8V38H7zM8,37H9V38H8zM10,37H11V38H10zM14,37H15V38H14zM15,37H16V38H15zM16,37H17V38H16zM17,37H18V38H17zM23,37H24V38H23zM24,37H25V38H24zM26,37H27V38H26zM27,37H28V38H27zM28,37H29V38H28zM31,37H32V38H31zM32,37H33V38H32zM34,37H35V38H34zM38,37H39V38H38zM40,37H41V38H40zM4,38H5V39H4zM6,38H7V39H6zM7,38H8V39H7zM8,38H9V39H8zM10,38H11V39H10zM13,38H14V39H13zM14,38H15V39H14zM16,38H17V39H16zM18,38H19V39H18zM22,38H23V39H22zM24,38H25V39H24zM25,38H26V39H25zM30,38H31V39H30zM32,38H33V39H32zM39,38H40V39H39zM40,38H41V39H40zM4,39H5V40H4zM10,39H11V40H10zM13,39H14V40H13zM16,39H17V40H16zM19,39H20V40H19zM20,39H21V40H20zM23,39H24V40H23zM24,39H25V40H24zM27,39H28V40H27zM28,39H29V40H28zM30,39H31V40H30zM31,39H32V40H31zM32,39H33V40H32zM33,39H34V40H33zM34,39H35V40H34zM36,39H37V40H36zM37,39H38V40H37zM40,39H41V40H40zM4,40H5V41H4zM5,40H6V41H5zM6,40H7V41H6zM7,40H8V41H7zM8,40H9V41H8zM9,40H10V41H9zM10,40H11V41H10zM12,40H13V41H12zM14,40H15V41H14zM15,40H16V41H15zM20,40H21V41H20zM23,40H24V41H23zM27,40H28V41H27zM28,40H29V41H28zM32,40H33V41H32zM33,40H34V41H33zM34,40H35V41H34zM35,40H36V41H35zM40,40H41V41H40z" id="qr-path" fill="#000000" fill-opacity="1" fill-rule="nonzero" stroke="none"/></svg>