<svg width="41mm" height="41mm" version="1.1" viewBox="0 0 41 41" back_color="white" xmlns="http://www.w3.org/2000/svg" style="background-color: white;"><path d="M4,4H5V5H4zM5,4H6V5H5zM6,4H7V5H6zM7,4H8V5H7zM8,4H9V5H8zM9,4H10V5H9zM10,4H11V5H10zM12,4H13V5H12zM13,4H14V5H13zM14,4H15V5H14zM15,4H16V5H15zM16,4H17V5H16zM22,4H23V5H22zM25,4H26V5H25zM26,4H27V5H26zM30,4H31V5H30zM31,4H32V5H31zM32,4H33V5H32zM33,4H34V5H33zM34,4H35V5H34zM35,4H36V5H35zM36,4H37V5H36zM4,5H5V6H4zM10,5H11V6H10zM13,5H14V6H13zM15,5H16V6H15zM17,5H18V6H17zM18,5H19V6H18zM21,5H22V6H21zM22,5H23V6H22zM25,5H26V6H25zM28,5H29V6H28zM30,5H31V6H30zM36,5H37V6H36zM4,6H5V7H4zM6,6H7V7H6zM7,6H8V7H7zM8,6H9V7H8zM10,6H11V7H10zM12,6H13V7H12zM13,6H14V7H13zM16,6H17V7H16zM18,6H19V7H18zM19,6H20V7H19zM20,6H21V7H20zM22,6H23V7H22zM25,6H26V7H25zM26,6H27V7H26zM30,6H31V7H30zM32,6H33V7H32zM33,6H34V7H33zM34,6H35V7H34zM36,6H37V7H36zM4,7H5V8H4zM6,7H7V8H6zM7,7H8V8H7zM8,7H9V8H8zM10,7H11V8H10zM13,7H14V8H13zM14,7H15V8H14zM15,7H16V8H15zM16,7H17V8H16zM18,7H19V8H18zM20,7H21V8H20zM22,7H23V8H22zM23,7H24V8H23zM24,7H25V8H24zM25,7H26V8H25zM26,7H27V8H26zM28,7H29V8H28zM30,7H31V8H30zM32,7H33V8H32zM33,7H34V8H33zM34,7H35V8H34zM36,7H37V8H36zM4,8H5V9H4zM6,8H7V9H6zM7,8H8V9H7zM8,8H9V9H8zM10,8H11V9H10zM14,8H15V9H14zM15,8H16V9H15zM16,8H17V9H16zM17,8H18V9H17zM18,8H19V9H18zM19,8H20V9H19zM20,8H21V9H20zM21,8H22V9H21zM22,8H23V9H22zM23,8H24V9H23zM24,8H25V9H24zM26,8H27V9H26zM30,8H31V9H30zM32,8H33V9H32zM33,8H34V9H33zM34,8H35V9H34zM36,8H37V9H36zM4,9H5V10H4zM10,9H11V10H10zM12,9H13V10H12zM14,9H15V10H14zM16,9H17V10H16zM17,9H18V10H17zM20,9H21V10H20zM22,9H23V10H22zM24,9H25V10H24zM28,9H29V10H28zM30,9H31V10H30zM36,9H37V10H36zM4,10H5V11H4zM5,10H6V11H5zM6,10H7V11H6zM7,10H8V11H7zM8,10H9V11H8zM9,10H10V11H9zM10,10H11V11H10zM12,10H13V11H12zM14,10H15V11H14zM16,10H17V11H16zM18,10H19V11H18zM20,10H21V11H20zM22,10H23V11H22zM24,10H25V11H24zM26,10H27V11H26zM28,10H29V11H28zM30,10H31V11H30zM31,10H32V11H31zM32,10H33V11H32zM33,10H34V11H33zM34,10H35V11H34zM35,10H36V11H35zM36,10H37V11H36zM13,11H14V12H13zM14,11H15V12H14zM15,11H16V12H15zM16,11H17V12H16zM22,11H23V12H22zM26,11H27V12H26zM27,11H28V12H27zM28,11H29V12H28zM4,12H5V13H4zM6,12H7V13H6zM10,12H11V13H10zM11,12H12V13H11zM13,12H14V13H13zM15,12H16V13H15zM19,12H20V13H19zM23,12H24V13H23zM24,12H25V13H24zM31,12H32V13H31zM34,12H35V13H34zM36,12H37V13H36zM6,13H7V14H6zM7,13H8V14H7zM8,13H9V14H8zM11,13H12V14H11zM13,13H14V14H13zM14,13H15V14H14zM16,13H17V14H16zM19,13H20V14H19zM20,13H21V14H20zM22,13H23V14H22zM23,13H24V14H23zM24,13H25V14H24zM27,13H28V14H27zM28,13H29V14H28zM30,13H31V14H30zM33,13H34V14H33zM36,13H37V14H36zM4,14H5V15H4zM5,14H6V15H5zM6,14H7V15H6zM8,14H9V15H8zM9,14H10V15H9zM10,14H11V15H10zM11,14H12V15H11zM17,14H18V15H17zM18,14H19V15H18zM19,14H20V15H19zM20,14H21V15H20zM21,14H22V15H21zM22,14H23V15H22zM23,14H24V15H23zM27,14H28V15H27zM29,14H30V15H29zM30,14H31V15H30zM33,14H34V15H33zM34,14H35V15H34zM36,14H37V15H36zM4,15H5V16H4zM5,15H6V16H5zM12,15H13V16H12zM14,15H15V16H14zM16,15H17V16H16zM18,15H19V16H18zM19,15H20V16H19zM20,15H21V16H20zM22,15H23V16H22zM24,15H25V16H24zM26,15H27V16H26zM28,15H29V16H28zM29,15H30V16H29zM30,15H31V16H30zM31,15H32V16H31zM32,15H33V16H32zM33,15H34V16H33zM35,15H36V16H35zM6,16H7V17H6zM8,16H9V17H8zM10,16H11V17H10zM12,16H13V17H12zM13,16H14V17H13zM15,16H16V17H15zM17,16H18V17H17zM18,16H19V17H18zM20,16H21V17H20zM21,16H22V17H21zM22,16H23V17H22zM23,16H24V17H23zM24,16H25V17H24zM26,16H27V17H26zM28,16H29V17H28zM30,16H31V17H30zM31,16H32V17H31zM36,16H37V17H36zM5,17H6V18H5zM6,17H7V18H6zM9,17H10V18H9zM11,17H12V18H11zM12,17H13V18H12zM13,17H14V18H13zM16,17H17V18H16zM17,17H18V18H17zM18,17H19V18H18zM20,17H21V18H20zM22,17H23V18H22zM24,17H25V18H24zM25,17H26V18H25zM27,17H28V18H27zM28,17H29V18H28zM30,17H31V18H30zM31,17H32V18H31zM34,17H35V18H34zM35,17H36V18H35zM36,17H37V18H36zM5,18H6V19H5zM7,18H8V19H7zM9,18H10V19H9zM10,18H11V19H10zM14,18H15V19H14zM15,18H16V19H15zM16,18H17V19H16zM17,18H18V19H17zM18,18H19V19H18zM20,18H21V19H20zM22,18H23V19H22zM24,18H25V19H24zM25,18H26V19H25zM27,18H28V19H27zM28,18H29V19H28zM32,18H33V19H32zM36,18H37V19H36zM5,19H6V20H5zM11,19H12V20H11zM15,19H16V20H15zM18,19H19V20H18zM19,19H20V20H19zM20,19H21V20H20zM23,19H24V20H23zM24,19H25V20H24zM27,19H28V20H27zM28,19H29V20H28zM29,19H30V20H29zM30,19H31V20H30zM33,19H34V20H33zM5,20H6V21H5zM8,20H9V21H8zM10,20H11V21H10zM12,20H13V21H12zM14,20H15V21H14zM16,20H17V21H16zM17,20H18V21H17zM20,20H21V21H20zM22,20H23V21H22zM28,20H29V21H28zM30,20H31V21H30zM31,20H32V21H31zM35,20H36V21H35zM6,21H7V22H6zM12,21H13V22H12zM14,21H15V22H14zM16,21H17V22H16zM19,21H20V22H19zM21,21H22V22H21zM23,21H24V22H23zM24,21H25V22H24zM25,21H26V22H25zM27,21H28V22H27zM29,21H30V22H29zM30,21H31V22H30zM33,21H34V22H33zM36,21H37V22H36zM6,22H7V23H6zM10,22H11V23H10zM11,22H12V23H11zM12,22H13V23H12zM13,22H14V23H13zM15,22H16V23H15zM16,22H17V23H16zM17,22H18V23H17zM19,22H20V23H19zM23,22H24V23H23zM24,22H25V23H24zM27,22H28V23H27zM29,22H30V23H29zM31,22H32V23H31zM33,22H34V23H33zM34,22H35V23H34zM36,22H37V23H36zM4,23H5V24H4zM8,23H9V24H8zM9,23H10V24H9zM11,23H12V24H11zM12,23H13V24H12zM13,23H14V24H13zM14,23H15V24H14zM15,23H16V24H15zM18,23H19V24H18zM21,23H22V24H21zM23,23H24V24H23zM26,23H27V24H26zM28,23H29V24H28zM32,23H33V24H32zM33,23H34V24H33zM36,23H37V24H36zM6,24H7V25H6zM7,24H8V25H7zM8,24H9V25H8zM10,24H11V25H10zM11,24H12V25H11zM13,24H14V25H13zM14,24H15V25H14zM16,24H17V25H16zM19,24H20V25H19zM21,24H22V25H21zM23,24H24V25H23zM28,24H29V25H28zM30,24H31V25H30zM31,24H32V25H31zM35,24H36V25H35zM7,25H8V26H7zM8,25H9V26H8zM15,25H16V26H15zM16,25H17V26H16zM21,25H22V26H21zM25,25H26V26H25zM27,25H28V26H27zM30,25H31V26H30zM31,25H32V26H31zM33,25H34V26H33zM36,25H37V26H36zM4,26H5V27H4zM5,26H6V27H5zM6,26H7V27H6zM9,26H10V27H9zM10,26H11V27H10zM11,26H12V27H11zM13,26H14V27H13zM14,26H15V27H14zM15,26H16V27H15zM16,26H17V27H16zM17,26H18V27H17zM18,26H19V27H18zM19,26H20V27H19zM21,26H22V27H21zM23,26H24V27H23zM25,26H26V27H25zM27,26H28V27H27zM28,26H29V27H28zM29,26H30V27H29zM32,26H33V27H32zM33,26H34V27H33zM34,26H35V27H34zM36,26H37V27H36zM7,27H8V28H7zM8,27H9V28H8zM11,27H12V28H11zM12,27H13V28H12zM17,27H18V28H17zM22,27H23V28H22zM26,27H27V28H26zM27,27H28V28H27zM31,27H32V28H31zM32,27H33V28H32zM33,27H34V28H33zM4,28H5V29H4zM5,28H6V29H5zM6,28H7V29H6zM7,28H8V29H7zM9,28H10V29H9zM10,28H11V29H10zM11,28H12V29H11zM12,28H13V29H12zM14,28H15V29H14zM15,28H16V29H15zM17,28H18V29H17zM19,28H20V29H19zM20,28H21V29H20zM23,28H24V29H23zM27,28H28V29H27zM28,28H29V29H28zM29,28H30V29H29zM30,28H31V29H30zM31,28H32V29H31zM32,28H33V29H32zM33,28H34V29H33zM35,28H36V29H35zM36,28H37V29H36zM12,29H13V30H12zM13,29H14V30H13zM16,29H17V30H16zM17,29H18V30H17zM19,29H20V30H19zM20,29H21V30H20zM22,29H23V30H22zM23,29H24V30H23zM24,29H25V30H24zM28,29H29V30H28zM32,29H33V30H32zM36,29H37V30H36zM4,30H5V31H4zM5,30H6V31H5zM6,30H7V31H6zM7,30H8V31H7zM8,30H9V31H8zM9,30H10V31H9zM10,30H11V31H10zM12,30H13V31H12zM15,30H16V31H15zM18,30H19V31H18zM19,30H20V31H19zM20,30H21V31H20zM21,30H22V31H21zM22,30H23V31H22zM23,30H24V31H23zM24,30H25V31H24zM25,30H26V31H25zM26,30H27V31H26zM28,30H29V31H28zM30,30H31V31H30zM32,30H33V31H32zM33,30H34V31H33zM34,30H35V31H34zM36,30H37V31H36zM4,31H5V32H4zM10,31H11V32H10zM13,31H14V32H13zM17,31H18V32H17zM18,31H19V32H18zM22,31H23V32H22zM23,31H24V32H23zM26,31H27V32H26zM28,31H29V32H28zM32,31H33V32H32zM33,31H34V32H33zM35,31H36V32H35zM36,31H37V32H36zM4,32H5V33H4zM6,32H7V33H6zM7,32H8V33H7zM8,32H9V33H8zM10,32H11V33H10zM14,32H15V33H14zM16,32H17V33H16zM17,32H18V33H17zM20,32H21V33H20zM21,32H22V33H21zM22,32H23V33H22zM23,32H24V33H23zM24,32H25V33H24zM25,32H26V33H25zM26,32H27V33H26zM27,32H28V33H27zM28,32H29V33H28zM29,32H30V33H29zM30,32H31V33H30zM31,32H32V33H31zM32,32H33V33H32zM4,33H5V34H4zM6,33H7V34H6zM7,33H8V34H7zM8,33H9V34H8zM10,33H11V34H10zM14,33H15V34H14zM15,33H16V34H15zM17,33H18V34H17zM18,33H19V34H18zM20,33H21V34H20zM22,33H23V34H22zM24,33H25V34H24zM28,33H29V34H28zM29,33H30V34H29zM31,33H32V34H31zM32,33H33V34H32zM33,33H34V34H33zM35,33H36V34H35zM36,33H37V34H36zM4,34H5V35H4zM6,34H7V35H6zM7,34H8V35H7zM8,34H9V35H8zM10,34H11V35H10zM12,34H13V35H12zM13,34H14V35H13zM14,34H15V35H14zM16,34H17V35H16zM17,34H18V35H17zM18,34H19V35H18zM20,34H21V35H20zM22,34H23V35H22zM24,34H25V35H24zM25,34H26V35H25zM26,34H27V35H26zM29,34H30V35H29zM31,34H32V35H31zM32,34H33V35H32zM34,34H35V35H34zM35,34H36V35H35zM36,34H37V35H36zM4,35H5V36H4zM10,35H11V36H10zM13,35H14V36H13zM15,35H16V36H15zM18,35H19V36H18zM19,35H20V36H19zM20,35H21V36H20zM23,35H24V36H23zM24,35H25V36H24zM26,35H27V36H26zM27,35H28V36H27zM28,35H29V36H28zM29,35H30V36H29zM31,35H32V36H31zM32,35H33V36H32zM33,35H34V36H33zM4,36H5V37H4zM5,36H6V37H5zM6,36H7V37H6zM7,36H8V37H7zM8,36H9V37H8zM9,36H10V37H9zM10,36H11V37H10zM12,36H13V37H12zM15,36H16V37H15zM16,36H17V37H16zM17,36H18V37H17zM22,36H23V37H22zM24,36H25V37H24zM28,36H29V37H28zM30,36H31V37H30zM31,36H32V37H31zM32,36H33V37H32zM33,36H34V37H33zM36,36H37V37H36z" id="qr-path" fill="#000000" fill-opacity="1" fill-rule="nonzero" stroke="none"/></svg>