<?xml version='1.0' encoding='ASCII' standalone='yes'?>
<svg xmlns="http://www.w3.org/2000/svg" width="45mm" height="45mm" version="1.1" viewBox="0 0 45 45" back_color="white" style="background-color: white;">
  <path d="M4,4H5V5H4zM5,4H6V5H5zM6,4H7V5H6zM7,4H8V5H7zM8,4H9V5H8zM9,4H10V5H9zM10,4H11V5H10zM13,4H14V5H13zM14,4H15V5H14zM17,4H18V5H17zM18,4H19V5H18zM19,4H20V5H19zM21,4H22V5H21zM25,4H26V5H25zM31,4H32V5H31zM32,4H33V5H32zM34,4H35V5H34zM35,4H36V5H35zM36,4H37V5H36zM37,4H38V5H37zM38,4H39V5H38zM39,4H40V5H39zM40,4H41V5H40zM4,5H5V6H4zM10,5H11V6H10zM15,5H16V6H15zM17,5H18V6H17zM20,5H21V6H20zM24,5H25V6H24zM26,5H27V6H26zM27,5H28V6H27zM28,5H29V6H28zM29,5H30V6H29zM32,5H33V6H32zM34,5H35V6H34zM40,5H41V6H40zM4,6H5V7H4zM6,6H7V7H6zM7,6H8V7H7zM8,6H9V7H8zM10,6H11V7H10zM12,6H13V7H12zM13,6H14V7H13zM17,6H18V7H17zM20,6H21V7H20zM23,6H24V7H23zM24,6H25V7H24zM25,6H26V7H25zM28,6H29V7H28zM30,6H31V7H30zM31,6H32V7H31zM34,6H35V7H34zM36,6H37V7H36zM37,6H38V7H37zM38,6H39V7H38zM40,6H41V7H40zM4,7H5V8H4zM6,7H7V8H6zM7,7H8V8H7zM8,7H9V8H8zM10,7H11V8H10zM14,7H15V8H14zM15,7H16V8H15zM16,7H17V8H16zM17,7H18V8H17zM18,7H19V8H18zM21,7H22V8H21zM22,7H23V8H22zM23,7H24V8H23zM28,7H29V8H28zM29,7H30V8H29zM30,7H31V8H30zM31,7H32V8H31zM32,7H33V8H32zM34,7H35V8H34zM36,7H37V8H36zM37,7H38V8H37zM38,7H39V8H38zM40,7H41V8H40zM4,8H5V9H4zM6,8H7V9H6zM7,8H8V9H7zM8,8H9V9H8zM10,8H11V9H10zM12,8H13V9H12zM14,8H15V9H14zM16,8H17V9H16zM17,8H18V9H17zM18,8H19V9H18zM19,8H20V9H19zM21,8H22V9H21zM22,8H23V9H22zM24,8H25V9H24zM26,8H27V9H26zM27,8H28V9H27zM29,8H30V9H29zM30,8H31V9H30zM31,8H32V9H31zM34,8H35V9H34zM36,8H37V9H36zM37,8H38V9H37zM38,8H39V9H38zM40,8H41V9H40zM4,9H5V10H4zM10,9H11V10H10zM12,9H13V10H12zM13,9H14V10H13zM16,9H17V10H16zM17,9H18V10H17zM18,9H19V10H18zM19,9H20V10H19zM21,9H22V10H21zM22,9H23V10H22zM24,9H25V10H24zM29,9H30V10H29zM30,9H31V10H30zM32,9H33V10H32zM34,9H35V10H34zM40,9H41V10H40zM4,10H5V11H4zM5,10H6V11H5zM6,10H7V11H6zM7,10H8V11H7zM8,10H9V11H8zM9,10H10V11H9zM10,10H11V11H10zM12,10H13V11H12zM14,10H15V11H14zM16,10H17V11H16zM18,10H19V11H18zM20,10H21V11H20zM22,10H23V11H22zM24,10H25V11H24zM26,10H27V11H26zM28,10H29V11H28zM30,10H31V11H30zM32,10H33V11H32zM34,10H35V11H34zM35,10H36V11H35zM36,10H37V11H36zM37,10H38V11H37zM38,10H39V11H38zM39,10H40V11H39zM40,10H41V11H40zM13,11H14V12H13zM15,11H16V12H15zM16,11H17V12H16zM17,11H18V12H17zM20,11H21V12H20zM23,11H24V12H23zM24,11H25V12H24zM25,11H26V12H25zM27,11H28V12H27zM28,11H29V12H28zM30,11H31V12H30zM5,12H6V13H5zM8,12H9V13H8zM10,12H11V13H10zM12,12H13V13H12zM14,12H15V13H14zM15,12H16V13H15zM18,12H19V13H18zM19,12H20V13H19zM23,12H24V13H23zM25,12H26V13H25zM28,12H29V13H28zM31,12H32V13H31zM32,12H33V13H32zM33,12H34V13H33zM35,12H36V13H35zM36,12H37V13H36zM38,12H39V13H38zM4,13H5V14H4zM5,13H6V14H5zM9,13H10V14H9zM16,13H17V14H16zM17,13H18V14H17zM20,13H21V14H20zM21,13H22V14H21zM24,13H25V14H24zM27,13H28V14H27zM30,13H31V14H30zM31,13H32V14H31zM33,13H34V14H33zM35,13H36V14H35zM36,13H37V14H36zM37,13H38V14H37zM5,14H6V15H5zM6,14H7V15H6zM7,14H8V15H7zM10,14H11V15H10zM13,14H14V15H13zM16,14H17V15H16zM17,14H18V15H17zM18,14H19V15H18zM19,14H20V15H19zM21,14H22V15H21zM26,14H27V15H26zM27,14H28V15H27zM29,14H30V15H29zM30,14H31V15H30zM31,14H32V15H31zM33,14H34V15H33zM35,14H36V15H35zM36,14H37V15H36zM6,15H7V16H6zM7,15H8V16H7zM11,15H12V16H11zM13,15H14V16H13zM18,15H19V16H18zM19,15H20V16H19zM23,15H24V16H23zM25,15H26V16H25zM26,15H27V16H26zM27,15H28V16H27zM30,15H31V16H30zM33,15H34V16H33zM35,15H36V16H35zM36,15H37V16H36zM37,15H38V16H37zM38,15H39V16H38zM39,15H40V16H39zM40,15H41V16H40zM5,16H6V17H5zM6,16H7V17H6zM9,16H10V17H9zM10,16H11V17H10zM13,16H14V17H13zM17,16H18V17H17zM23,16H24V17H23zM25,16H26V17H25zM27,16H28V17H27zM28,16H29V17H28zM31,16H32V17H31zM33,16H34V17H33zM34,16H35V17H34zM35,16H36V17H35zM38,16H39V17H38zM40,16H41V17H40zM5,17H6V18H5zM9,17H10V18H9zM11,17H12V18H11zM12,17H13V18H12zM13,17H14V18H13zM14,17H15V18H14zM15,17H16V18H15zM16,17H17V18H16zM20,17H21V18H20zM22,17H23V18H22zM23,17H24V18H23zM24,17H25V18H24zM27,17H28V18H27zM28,17H29V18H28zM29,17H30V18H29zM31,17H32V18H31zM32,17H33V18H32zM33,17H34V18H33zM36,17H37V18H36zM38,17H39V18H38zM4,18H5V19H4zM5,18H6V19H5zM7,18H8V19H7zM8,18H9V19H8zM10,18H11V19H10zM11,18H12V19H11zM13,18H14V19H13zM14,18H15V19H14zM16,18H17V19H16zM17,18H18V19H17zM18,18H19V19H18zM21,18H22V19H21zM23,18H24V19H23zM25,18H26V19H25zM26,18H27V19H26zM27,18H28V19H27zM28,18H29V19H28zM29,18H30V19H29zM31,18H32V19H31zM33,18H34V19H33zM35,18H36V19H35zM37,18H38V19H37zM38,18H39V19H38zM5,19H6V20H5zM6,19H7V20H6zM7,19H8V20H7zM9,19H10V20H9zM14,19H15V20H14zM15,19H16V20H15zM22,19H23V20H22zM23,19H24V20H23zM24,19H25V20H24zM25,19H26V20H25zM27,19H28V20H27zM28,19H29V20H28zM31,19H32V20H31zM33,19H34V20H33zM34,19H35V20H34zM35,19H36V20H35zM38,19H39V20H38zM39,19H40V20H39zM4,20H5V21H4zM8,20H9V21H8zM9,20H10V21H9zM10,20H11V21H10zM13,20H14V21H13zM17,20H18V21H17zM18,20H19V21H18zM20,20H21V21H20zM21,20H22V21H21zM23,20H24V21H23zM24,20H25V21H24zM27,20H28V21H27zM30,20H31V21H30zM33,20H34V21H33zM34,20H35V21H34zM37,20H38V21H37zM38,20H39V21H38zM39,20H40V21H39zM4,21H5V22H4zM5,21H6V22H5zM6,21H7V22H6zM8,21H9V22H8zM9,21H10V22H9zM11,21H12V22H11zM12,21H13V22H12zM14,21H15V22H14zM16,21H17V22H16zM21,21H22V22H21zM26,21H27V22H26zM28,21H29V22H28zM29,21H30V22H29zM30,21H31V22H30zM31,21H32V22H31zM32,21H33V22H32zM33,21H34V22H33zM36,21H37V22H36zM37,21H38V22H37zM38,21H39V22H38zM6,22H7V23H6zM7,22H8V23H7zM9,22H10V23H9zM10,22H11V23H10zM14,22H15V23H14zM15,22H16V23H15zM16,22H17V23H16zM23,22H24V23H23zM24,22H25V23H24zM27,22H28V23H27zM28,22H29V23H28zM31,22H32V23H31zM32,22H33V23H32zM33,22H34V23H33zM34,22H35V23H34zM36,22H37V23H36zM38,22H39V23H38zM5,23H6V24H5zM6,23H7V24H6zM7,23H8V24H7zM8,23H9V24H8zM9,23H10V24H9zM11,23H12V24H11zM12,23H13V24H12zM15,23H16V24H15zM17,23H18V24H17zM18,23H19V24H18zM19,23H20V24H19zM20,23H21V24H20zM22,23H23V24H22zM23,23H24V24H23zM25,23H26V24H25zM27,23H28V24H27zM30,23H31V24H30zM34,23H35V24H34zM38,23H39V24H38zM39,23H40V24H39zM40,23H41V24H40zM6,24H7V25H6zM8,24H9V25H8zM10,24H11V25H10zM11,24H12V25H11zM13,24H14V25H13zM15,24H16V25H15zM16,24H17V25H16zM18,24H19V25H18zM19,24H20V25H19zM23,24H24V25H23zM24,24H25V25H24zM25,24H26V25H25zM26,24H27V25H26zM28,24H29V25H28zM31,24H32V25H31zM33,24H34V25H33zM34,24H35V25H34zM38,24H39V25H38zM39,24H40V25H39zM40,24H41V25H40zM6,25H7V26H6zM9,25H10V26H9zM15,25H16V26H15zM16,25H17V26H16zM17,25H18V26H17zM20,25H21V26H20zM22,25H23V26H22zM23,25H24V26H23zM24,25H25V26H24zM25,25H26V26H25zM27,25H28V26H27zM29,25H30V26H29zM30,25H31V26H30zM31,25H32V26H31zM33,25H34V26H33zM36,25H37V26H36zM37,25H38V26H37zM38,25H39V26H38zM6,26H7V27H6zM9,26H10V27H9zM10,26H11V27H10zM12,26H13V27H12zM13,26H14V27H13zM16,26H17V27H16zM17,26H18V27H17zM19,26H20V27H19zM20,26H21V27H20zM21,26H22V27H21zM23,26H24V27H23zM24,26H25V27H24zM27,26H28V27H27zM31,26H32V27H31zM32,26H33V27H32zM33,26H34V27H33zM4,27H5V28H4zM7,27H8V28H7zM9,27H10V28H9zM11,27H12V28H11zM12,27H13V28H12zM13,27H14V28H13zM14,27H15V28H14zM16,27H17V28H16zM17,27H18V28H17zM18,27H19V28H18zM23,27H24V28H23zM24,27H25V28H24zM25,27H26V28H25zM26,27H27V28H26zM27,27H28V28H27zM30,27H31V28H30zM32,27H33V28H32zM33,27H34V28H33zM34,27H35V28H34zM35,27H36V28H35zM38,27H39V28H38zM39,27H40V28H39zM40,27H41V28H40zM5,28H6V29H5zM8,28H9V29H8zM9,28H10V29H9zM10,28H11V29H10zM11,28H12V29H11zM16,28H17V29H16zM17,28H18V29H17zM19,28H20V29H19zM21,28H22V29H21zM23,28H24V29H23zM25,28H26V29H25zM26,28H27V29H26zM27,28H28V29H27zM29,28H30V29H29zM30,28H31V29H30zM31,28H32V29H31zM34,28H35V29H34zM35,28H36V29H35zM38,28H39V29H38zM40,28H41V29H40zM4,29H5V30H4zM6,29H7V30H6zM9,29H10V30H9zM13,29H14V30H13zM14,29H15V30H14zM15,29H16V30H15zM17,29H18V30H17zM18,29H19V30H18zM19,29H20V30H19zM22,29H23V30H22zM24,29H25V30H24zM25,29H26V30H25zM26,29H27V30H26zM27,29H28V30H27zM28,29H29V30H28zM30,29H31V30H30zM31,29H32V30H31zM33,29H34V30H33zM35,29H36V30H35zM36,29H37V30H36zM37,29H38V30H37zM38,29H39V30H38zM39,29H40V30H39zM10,30H11V31H10zM11,30H12V31H11zM13,30H14V31H13zM14,30H15V31H14zM15,30H16V31H15zM16,30H17V31H16zM18,30H19V31H18zM19,30H20V31H19zM20,30H21V31H20zM24,30H25V31H24zM27,30H28V31H27zM31,30H32V31H31zM32,30H33V31H32zM33,30H34V31H33zM36,30H37V31H36zM6,31H7V32H6zM7,31H8V32H7zM8,31H9V32H8zM11,31H12V32H11zM13,31H14V32H13zM14,31H15V32H14zM17,31H18V32H17zM18,31H19V32H18zM20,31H21V32H20zM22,31H23V32H22zM23,31H24V32H23zM24,31H25V32H24zM25,31H26V32H25zM26,31H27V32H26zM31,31H32V32H31zM34,31H35V32H34zM35,31H36V32H35zM36,31H37V32H36zM38,31H39V32H38zM39,31H40V32H39zM4,32H5V33H4zM5,32H6V33H5zM6,32H7V33H6zM10,32H11V33H10zM12,32H13V33H12zM14,32H15V33H14zM16,32H17V33H16zM17,32H18V33H17zM21,32H22V33H21zM22,32H23V33H22zM24,32H25V33H24zM25,32H26V33H25zM26,32H27V33H26zM28,32H29V33H28zM32,32H33V33H32zM33,32H34V33H33zM34,32H35V33H34zM35,32H36V33H35zM36,32H37V33H36zM38,32H39V33H38zM40,32H41V33H40zM12,33H13V34H12zM13,33H14V34H13zM16,33H17V34H16zM19,33H20V34H19zM20,33H21V34H20zM23,33H24V34H23zM25,33H26V34H25zM27,33H28V34H27zM28,33H29V34H28zM30,33H31V34H30zM32,33H33V34H32zM36,33H37V34H36zM37,33H38V34H37zM4,34H5V35H4zM5,34H6V35H5zM6,34H7V35H6zM7,34H8V35H7zM8,34H9V35H8zM9,34H10V35H9zM10,34H11V35H10zM15,34H16V35H15zM18,34H19V35H18zM19,34H20V35H19zM20,34H21V35H20zM21,34H22V35H21zM22,34H23V35H22zM27,34H28V35H27zM30,34H31V35H30zM32,34H33V35H32zM34,34H35V35H34zM36,34H37V35H36zM37,34H38V35H37zM38,34H39V35H38zM4,35H5V36H4zM10,35H11V36H10zM13,35H14V36H13zM14,35H15V36H14zM16,35H17V36H16zM21,35H22V36H21zM26,35H27V36H26zM28,35H29V36H28zM30,35H31V36H30zM32,35H33V36H32zM36,35H37V36H36zM38,35H39V36H38zM4,36H5V37H4zM6,36H7V37H6zM7,36H8V37H7zM8,36H9V37H8zM10,36H11V37H10zM12,36H13V37H12zM13,36H14V37H13zM14,36H15V37H14zM15,36H16V37H15zM20,36H21V37H20zM22,36H23V37H22zM26,36H27V37H26zM27,36H28V37H27zM28,36H29V37H28zM32,36H33V37H32zM33,36H34V37H33zM34,36H35V37H34zM35,36H36V37H35zM36,36H37V37H36zM37,36H38V37H37zM38,36H39V37H38zM4,37H5V38H4zM6,37H7V38H6zM7,37H8V38H7zM8,37H9V38H8zM10,37H11V38H10zM13,37H14V38H13zM14,37H15V38H14zM15,37H16V38H15zM16,37H17V38H16zM17,37H18V38H17zM20,37H21V38H20zM21,37H22V38H21zM23,37H24V38H23zM24,37H25V38H24zM25,37H26V38H25zM29,37H30V38H29zM34,37H35V38H34zM35,37H36V38H35zM39,37H40V38H39zM4,38H5V39H4zM6,38H7V39H6zM7,38H8V39H7zM8,38H9V39H8zM10,38H11V39H10zM14,38H15V39H14zM18,38H19V39H18zM20,38H21V39H20zM21,38H22V39H21zM22,38H23V39H22zM24,38H25V39H24zM29,38H30V39H29zM32,38H33V39H32zM34,38H35V39H34zM35,38H36V39H35zM38,38H39V39H38zM39,38H40V39H39zM4,39H5V40H4zM10,39H11V40H10zM12,39H13V40H12zM14,39H15V40H14zM16,39H17V40H16zM17,39H18V40H17zM18,39H19V40H18zM20,39H21V40H20zM21,39H22V40H21zM22,39H23V40H22zM25,39H26V40H25zM28,39H29V40H28zM30,39H31V40H30zM31,39H32V40H31zM36,39H37V40H36zM38,39H39V40H38zM39,39H40V40H39zM4,40H5V41H4zM5,40H6V41H5zM6,40H7V41H6zM7,40H8V41H7zM8,40H9V41H8zM9,40H10V41H9zM10,40H11V41H10zM17,40H18V41H17zM21,40H22V41H21zM23,40H24V41H23zM25,40H26V41H25zM26,40H27V41H26zM27,40H28V41H27zM28,40H29V41H28zM31,40H32V41H31zM33,40H34V41H33zM34,40H35V41H34zM35,40H36V41H35zM38,40H39V41H38zM39,40H40V41H39zM40,40H41V41H40z" id="qr-path" fill="#000000" fill-opacity="1" fill-rule="nonzero" stroke="none"/>
  <g transform="translate(16.875, 16.875) scale(0.25 0.25) ">
    <svg viewBox="0 0 100 100">
  <circle cx="50" cy="50" r="50" fill="white"/>
</svg>
    <g transform="translate(5.625, 5.625) scale(0.75 0.75) ">
      <svg viewBox="0 0 512 512">
  
  <path d="M512 240c0 114.9-114.6 208-256 208-37.1 0-72.3-6.4-104.1-17.9-11.9 8.7-31.3 20.6-54.3 30.6C73.6 471.1 44.7 480 16 480c-6.5 0-12.3-3.9-14.8-9.9s-1.1-12.8 3.4-17.4l.3-.3c.3-.3.7-.7 1.3-1.4 1.1-1.2 2.8-3.1 4.9-5.7 4.1-5 9.6-12.4 15.2-21.6 10-16.6 19.5-38.4 21.4-62.9C17.7 326.8 0 285.1 0 240 0 125.1 114.6 32 256 32s256 93.1 256 208z" fill="#808080"/>
</svg>
    </g>
  </g>
</svg>
