<?xml version="1.0" encoding="UTF-8" standalone="no"?>
<!-- Created with Inkscape (http://www.inkscape.org/) -->

<svg
   width="211.66669mm"
   height="148.16667mm"
   viewBox="0 0 211.66669 148.16667"
   version="1.1"
   id="svg27307"
   inkscape:version="1.2.1 (9c6d41e, 2022-07-14)"
   sodipodi:docname="Archiv.svg"
   xmlns:inkscape="http://www.inkscape.org/namespaces/inkscape"
   xmlns:sodipodi="http://sodipodi.sourceforge.net/DTD/sodipodi-0.dtd"
   xmlns="http://www.w3.org/2000/svg"
   xmlns:svg="http://www.w3.org/2000/svg">
  <sodipodi:namedview
     id="namedview27309"
     pagecolor="#ffffff"
     bordercolor="#000000"
     borderopacity="0.25"
     inkscape:showpageshadow="2"
     inkscape:pageopacity="0.0"
     inkscape:pagecheckerboard="0"
     inkscape:deskcolor="#d1d1d1"
     inkscape:document-units="mm"
     showgrid="false"
     inkscape:zoom="1.1687195"
     inkscape:cx="240.43408"
     inkscape:cy="308.02942"
     inkscape:window-width="1452"
     inkscape:window-height="790"
     inkscape:window-x="0"
     inkscape:window-y="38"
     inkscape:window-maximized="0"
     inkscape:current-layer="layer1"
     showguides="true">
    <sodipodi:guide
       position="105.49652,45.160421"
       orientation="1,0"
       id="guide14367"
       inkscape:locked="false" />
  </sodipodi:namedview>
  <defs
     id="defs27304" />
  <g
     inkscape:label="Ebene 1"
     inkscape:groupmode="layer"
     id="layer1"
     transform="translate(2.00919,-74.416664)">
    <rect
       style="fill:#f9edde;fill-opacity:1;stroke:none;stroke-width:0.267799;stroke-opacity:1"
       id="rect27031"
       width="211.66667"
       height="147.8026"
       x="-2.009187"
       y="74.416664" />
    <path
       id="rect24763"
       style="display:inline;fill:#edcb9d;fill-opacity:1;stroke:none;stroke-width:0.276754;stroke-opacity:1"
       d="m -2.00917,124.6875 v 10.58333 H 209.6575 V 124.6875 Z" />
    <path
       id="path24683"
       style="display:inline;fill:#f5e2c8;fill-opacity:1;stroke:none;stroke-width:0.245218;stroke-opacity:1"
       inkscape:transform-center-x="5.8333333e-06"
       inkscape:transform-center-y="-7.3862852"
       d="M 36.65512,87.64583 21.76145,109.80468 9.97974,127.33333 H 5.88645 v 7.9375 h -7.89564 v 87.3125 h 211.66667 v -87.3125 h -8.13387 v -7.87135 H 198.114 L 186.33229,109.87083 171.4381,87.711976 156.54444,109.87083 144.76273,127.39948 h -4.09329 v 7.87135 H 66.74062 v -7.9375 H 63.33101 L 51.5493,109.80468 Z" />
    <path
       id="path24605-4"
       style="display:inline;fill:#f5e2c8;fill-opacity:1;stroke:#f1d7b2;stroke-width:0.205571;stroke-opacity:1"
       inkscape:transform-center-x="1.4101883e-06"
       inkscape:transform-center-y="-2.3702265"
       d="m 101.19701,125.34895 -1.18132,2.14974 -3.90829,7.11068 h 7.81658 7.81709 l -3.90829,-7.11068 -1.18184,-2.14974 z" />
    <g
       id="g27054"
       style="display:inline;fill:#edcb9d;fill-opacity:1"
       transform="translate(-454.48834,74.416663)">
      <circle
         style="fill:#edcb9d;fill-opacity:1;stroke:none;stroke-width:0.264583;stroke-opacity:1"
         id="path24611"
         cx="490.80206"
         cy="35.71875"
         r="3.96875" />
      <path
         id="rect24309"
         style="fill:#edcb9d;fill-opacity:1;stroke:none;stroke-width:0.264583;stroke-opacity:1"
         d="m 477.57292,71.4375 a 7.9374948,2.6458385 0 0 0 -7.9375,2.645833 v 18.520834 h 15.875 V 74.083333 a 7.9374948,2.6458385 0 0 0 -7.9375,-2.645833 z" />
      <path
         id="rect24309-0"
         style="fill:#edcb9d;fill-opacity:1;stroke:none;stroke-width:0.264583;stroke-opacity:1"
         d="m 504.03125,71.4375 a 7.9374948,2.6458385 0 0 0 -7.9375,2.64583 v 18.52084 h 15.875 V 74.08333 a 7.9374948,2.6458385 0 0 0 -7.9375,-2.64583 z" />
      <path
         id="rect24309-0-0"
         style="fill:#edcb9d;fill-opacity:1;stroke:none;stroke-width:0.229136;stroke-opacity:1"
         d="m 531.15102,71.4375 a 5.9531194,2.6458385 0 0 0 -5.95312,2.64583 v 18.52084 h 11.90625 V 74.08333 a 5.9531194,2.6458385 0 0 0 -5.95313,-2.64583 z" />
      <path
         id="rect24309-0-0-6"
         style="fill:#edcb9d;fill-opacity:1;stroke:none;stroke-width:0.147302;stroke-opacity:1"
         d="m 490.94382,47.114733 a 3.827005,1.700896 0 0 0 -3.82701,1.700891 v 11.906253 h 7.65402 V 48.815624 a 3.827005,1.700896 0 0 0 -3.82701,-1.700891 z" />
      <path
         id="rect24309-0-0-6-5"
         style="fill:#edcb9d;fill-opacity:1;stroke:none;stroke-width:0.147302;stroke-opacity:1"
         d="m 504.17299,47.379315 a 3.827005,1.700896 0 0 0 -3.82701,1.700891 V 60.986459 H 508 V 49.080206 a 3.827005,1.700896 0 0 0 -3.82701,-1.700891 z" />
      <path
         id="rect24309-0-0-6-9"
         style="fill:#edcb9d;fill-opacity:1;stroke:none;stroke-width:0.147302;stroke-opacity:1"
         d="m 477.43118,47.379315 a 3.827005,1.700896 0 0 0 -3.82701,1.700891 v 11.906253 h 7.65402 V 49.080206 a 3.827005,1.700896 0 0 0 -3.82701,-1.700891 z" />
      <path
         id="rect24309-0-0-7"
         style="fill:#edcb9d;fill-opacity:1;stroke:none;stroke-width:0.229136;stroke-opacity:1"
         d="m 531.15104,109.80209 a 5.9531194,2.6458385 0 0 0 -5.95312,2.64583 v 18.52084 h 11.90625 v -18.52084 a 5.9531194,2.6458385 0 0 0 -5.95313,-2.64583 z" />
      <path
         id="rect24309-0-0-0"
         style="fill:#edcb9d;fill-opacity:1;stroke:none;stroke-width:0.229136;stroke-opacity:1"
         d="m 557.60937,71.4375 a 5.9531194,2.6458385 0 0 0 -5.95312,2.64583 V 92.60417 H 563.5625 V 74.08333 a 5.9531194,2.6458385 0 0 0 -5.95313,-2.64583 z" />
      <path
         id="rect24309-0-0-4"
         style="fill:#edcb9d;fill-opacity:1;stroke:none;stroke-width:0.229136;stroke-opacity:1"
         d="m 582.74479,71.4375 a 5.9531194,2.6458385 0 0 0 -5.95312,2.64583 v 18.52084 h 11.90625 V 74.08333 a 5.9531194,2.6458385 0 0 0 -5.95313,-2.64583 z" />
      <path
         id="rect24309-0-0-5"
         style="fill:#edcb9d;fill-opacity:1;stroke:none;stroke-width:0.229136;stroke-opacity:1"
         d="m 582.74478,109.80209 a 5.9531194,2.6458385 0 0 0 -5.95312,2.64583 v 18.52084 h 11.90625 v -18.52084 a 5.9531194,2.6458385 0 0 0 -5.95313,-2.64583 z" />
      <path
         id="rect24309-3"
         style="fill:#edcb9d;fill-opacity:1;stroke:none;stroke-width:0.264583;stroke-opacity:1"
         d="m 477.57292,109.80208 a 7.9374948,2.6458385 0 0 0 -7.9375,2.64584 v 18.52083 h 15.875 v -18.52083 a 7.9374948,2.6458385 0 0 0 -7.9375,-2.64584 z" />
      <path
         id="rect24309-9"
         style="fill:#edcb9d;fill-opacity:1;stroke:none;stroke-width:0.264583;stroke-opacity:1"
         d="m 504.03125,109.80208 a 7.9374948,2.6458385 0 0 0 -7.9375,2.64584 v 18.52083 h 15.875 v -18.52083 a 7.9374948,2.6458385 0 0 0 -7.9375,-2.64584 z" />
      <path
         id="rect24309-0-1"
         style="fill:#edcb9d;fill-opacity:1;stroke:none;stroke-width:0.264583;stroke-opacity:1"
         d="m 611.1875,71.4375 a 7.9374948,2.6458385 0 0 0 -7.9375,2.64583 v 18.52084 h 15.875 V 74.08333 a 7.9374948,2.6458385 0 0 0 -7.9375,-2.64583 z"
         inkscape:label="rect24309-0-1" />
      <path
         id="rect24309-0-4"
         style="fill:#edcb9d;fill-opacity:1;stroke:none;stroke-width:0.264583;stroke-opacity:1"
         d="M 611.1875,108.47917 A 7.9374948,2.6458385 0 0 0 603.25,111.125 v 18.52084 h 15.875 V 111.125 a 7.9374948,2.6458385 0 0 0 -7.9375,-2.64583 z" />
      <path
         id="rect24309-0-2"
         style="fill:#edcb9d;fill-opacity:1;stroke:none;stroke-width:0.264583;stroke-opacity:1"
         d="m 638.96875,71.437498 a 7.9374948,2.6458385 0 0 0 -7.9375,2.64583 v 18.520844 h 15.875 V 74.083328 a 7.9374948,2.6458385 0 0 0 -7.9375,-2.64583 z" />
      <path
         id="rect24309-0-40"
         style="fill:#edcb9d;fill-opacity:1;stroke:none;stroke-width:0.264583;stroke-opacity:1"
         d="m 638.96875,109.80208 a 7.9374948,2.6458385 0 0 0 -7.9375,2.64583 v 18.52084 h 15.875 v -18.52084 a 7.9374948,2.6458385 0 0 0 -7.9375,-2.64583 z" />
      <path
         id="rect24309-0-0-6-3"
         style="fill:#edcb9d;fill-opacity:1;stroke:none;stroke-width:0.147302;stroke-opacity:1"
         d="m 625.88132,47.114733 a 3.827005,1.700896 0 0 0 -3.82701,1.700891 v 11.906253 h 7.65402 V 48.815624 a 3.827005,1.700896 0 0 0 -3.82701,-1.700891 z" />
      <path
         id="rect24309-0-0-6-5-4"
         style="fill:#edcb9d;fill-opacity:1;stroke:none;stroke-width:0.147302;stroke-opacity:1"
         d="m 639.11049,47.379315 a 3.827005,1.700896 0 0 0 -3.82701,1.700891 v 11.906253 h 7.65402 V 49.080206 a 3.827005,1.700896 0 0 0 -3.82701,-1.700891 z" />
      <circle
         style="fill:#edcb9d;fill-opacity:1;stroke:none;stroke-width:0.264583;stroke-opacity:1"
         id="path24611-4"
         cx="625.73956"
         cy="35.71875"
         r="3.96875" />
      <path
         id="rect24309-0-0-6-9-4"
         style="display:inline;fill:#edcb9d;fill-opacity:1;stroke:none;stroke-width:0.147302;stroke-opacity:1"
         d="m 612.65216,47.114733 a 3.827005,1.700896 0 0 0 -3.82701,1.700891 v 11.906253 h 7.65402 V 48.815624 a 3.827005,1.700896 0 0 0 -3.82701,-1.700891 z"
         inkscape:label="rect24309-0-0-6-9-4" />
    </g>
    <path
       id="rect24309-0-0-0-5"
       style="display:inline;fill:#edcb9d;fill-opacity:1;stroke:none;stroke-width:0.229136;stroke-opacity:1"
       d="m 103.84865,184.21874 a 5.9531194,2.6458385 0 0 0 -5.95313,2.64584 v 6.61458 h 11.90625 v -6.61458 a 5.9531194,2.6458385 0 0 0 -5.95312,-2.64584 z" />
    <rect
       style="display:inline;fill:#edcb9d;fill-opacity:1;stroke:none;stroke-width:0.345125;stroke-opacity:1"
       id="rect24789"
       width="11.704865"
       height="26.45833"
       x="97.763229"
       y="196.125" />
  </g>
</svg>
