<?xml version="1.0" encoding="UTF-8" standalone="no"?>
<!-- Created with Inkscape (http://www.inkscape.org/) -->

<svg
   width="210.59071mm"
   height="148.16667mm"
   viewBox="0 0 210.59071 148.16667"
   version="1.1"
   id="svg15686"
   inkscape:version="1.2.1 (9c6d41e, 2022-07-14)"
   sodipodi:docname="Gras.svg"
   xmlns:inkscape="http://www.inkscape.org/namespaces/inkscape"
   xmlns:sodipodi="http://sodipodi.sourceforge.net/DTD/sodipodi-0.dtd"
   xmlns="http://www.w3.org/2000/svg"
   xmlns:svg="http://www.w3.org/2000/svg">
  <sodipodi:namedview
     id="namedview15688"
     pagecolor="#ffffff"
     bordercolor="#000000"
     borderopacity="0.25"
     inkscape:showpageshadow="2"
     inkscape:pageopacity="0.0"
     inkscape:pagecheckerboard="0"
     inkscape:deskcolor="#d1d1d1"
     inkscape:document-units="mm"
     showgrid="false"
     inkscape:zoom="0.2102413"
     inkscape:cx="-283.00814"
     inkscape:cy="661.14507"
     inkscape:window-width="1344"
     inkscape:window-height="430"
     inkscape:window-x="0"
     inkscape:window-y="38"
     inkscape:window-maximized="0"
     inkscape:current-layer="layer1" />
  <defs
     id="defs15683" />
  <g
     inkscape:label="Ebene 1"
     inkscape:groupmode="layer"
     id="layer1"
     transform="translate(23.49451,26.261301)">
    <g
       id="g15665"
       transform="translate(-903.23409,-26.261301)">
      <path
         id="rect11153"
         style="fill:#7c8c3f;fill-opacity:1;stroke-width:0.265329"
         d="M 879.73958,0 V 148.16667 H 1090.3303 V 0 Z" />
      <path
         id="path10217"
         style="fill:#9baf4f;fill-opacity:1;stroke:none;stroke-width:0.35159;stroke-opacity:1"
         d="m 883.9941,12.7 a 11.260544,8.3019161 0 0 0 -5.1e-4,5.17e-4 11.260544,8.3019161 0 0 1 0.002,-5.17e-4 z m -5.1e-4,5.17e-4 a 11.260544,8.3019161 0 0 0 -2.09548,1.107942 11.260544,8.3019161 0 0 0 -2.15853,2.013831 v 8.251176 a 11.260544,8.3019161 0 0 0 0.31678,0.435116 h -0.31678 V 47.443099 H 1090.0833 V 14.162443 a 11.260544,8.3019161 0 0 0 -2.2939,9.128125 11.260544,8.3019161 0 0 1 -0.3855,-0.291455 11.260544,8.3019161 0 0 1 -0.9234,-10.299113 11.260544,8.3019161 0 0 0 -2.0971,1.108459 11.260544,8.3019161 0 0 0 -2.7357,9.482109 11.260544,8.3019161 0 0 1 -0.3855,-0.291455 11.260544,8.3019161 0 0 1 -0.924,-10.299113 11.260544,8.3019161 0 0 0 -2.097,1.108459 11.260544,8.3019161 0 0 0 -2.7358,9.482109 11.260544,8.3019161 0 0 1 -0.3855,-0.291455 11.260544,8.3019161 0 0 1 -0.924,-10.299113 11.260544,8.3019161 0 0 0 -2.0965,1.108459 11.260544,8.3019161 0 0 0 -2.7362,9.482109 11.260544,8.3019161 0 0 1 -0.3856,-0.291455 11.260544,8.3019161 0 0 1 -0.9234,-10.299113 11.260544,8.3019161 0 0 0 -2.097,1.108459 11.260544,8.3019161 0 0 0 -2.7363,9.482109 11.260544,8.3019161 0 0 1 -0.385,-0.291455 11.260544,8.3019161 0 0 1 -0.924,-10.299113 11.260544,8.3019161 0 0 0 -2.097,1.108459 11.260544,8.3019161 0 0 0 -2.7218,9.485726 11.260544,8.3019161 0 0 1 -0.3995,-0.295072 11.260544,8.3019161 0 0 1 -0.9239,-10.299113 11.260544,8.3019161 0 0 0 -2.0971,1.108459 11.260544,8.3019161 0 0 0 -2.7357,9.482109 11.260544,8.3019161 0 0 1 -0.3855,-0.291455 11.260544,8.3019161 0 0 1 -0.9235,-10.299113 11.260544,8.3019161 0 0 0 -2.097,1.108459 11.260544,8.3019161 0 0 0 -2.7363,9.482109 11.260544,8.3019161 0 0 1 -0.3855,-0.291455 11.260544,8.3019161 0 0 1 -0.9234,-10.299113 11.260544,8.3019161 0 0 0 -2.0971,1.108459 11.260544,8.3019161 0 0 0 -2.7357,9.482109 11.260544,8.3019161 0 0 1 -0.386,-0.291455 11.260544,8.3019161 0 0 1 -0.9235,-10.299113 11.260544,8.3019161 0 0 0 -2.097,1.108459 11.260544,8.3019161 0 0 0 -2.7358,9.482109 11.260544,8.3019161 0 0 1 -0.3855,-0.291455 11.260544,8.3019161 0 0 1 -0.924,-10.299113 11.260544,8.3019161 0 0 0 -2.0965,1.108459 11.260544,8.3019161 0 0 0 -2.7362,9.482109 11.260544,8.3019161 0 0 1 -0.3855,-0.291455 11.260544,8.3019161 0 0 1 -0.924,-10.299113 11.260544,8.3019161 0 0 0 -2.0965,1.108459 11.260544,8.3019161 0 0 0 -2.7218,9.485726 11.260544,8.3019161 0 0 1 -0.3995,-0.295072 11.260544,8.3019161 0 0 1 -0.924,-10.299113 11.260544,8.3019161 0 0 0 -2.097,1.108459 11.260544,8.3019161 0 0 0 -2.7357,9.482109 11.260544,8.3019161 0 0 1 -0.3856,-0.291455 11.260544,8.3019161 0 0 1 -0.9239,-10.299113 11.260544,8.3019161 0 0 0 -2.0971,1.108459 11.260544,8.3019161 0 0 0 -2.7357,9.482109 11.260544,8.3019161 0 0 1 -0.3855,-0.291455 11.260544,8.3019161 0 0 1 -0.9235,-10.299113 11.260544,8.3019161 0 0 0 -2.097,1.108459 11.260544,8.3019161 0 0 0 -2.7363,9.482109 11.260544,8.3019161 0 0 1 -0.3855,-0.291455 11.260544,8.3019161 0 0 1 -0.9234,-10.299113 11.260544,8.3019161 0 0 0 -2.09706,1.108459 11.260544,8.3019161 0 0 0 -2.73575,9.482109 11.260544,8.3019161 0 0 1 -0.38551,-0.291455 A 11.260544,8.3019161 0 0 1 994.34861,12.7 a 11.260544,8.3019161 0 0 0 -2.09703,1.108459 11.260544,8.3019161 0 0 0 -2.73575,9.482109 11.260544,8.3019161 0 0 1 -0.38551,-0.291455 11.260544,8.3019161 0 0 1 -0.81907,-0.762744 v -0.205156 a 11.260544,8.3019161 0 0 1 0,-9.205639 v -0.07906 a 11.260544,8.3019161 0 0 0 -0.23048,0.109037 11.260544,8.3019161 0 0 1 0.12506,-0.155546 11.260544,8.3019161 0 0 0 -2.09651,1.108459 11.260544,8.3019161 0 0 0 -2.84376,9.245431 11.260544,8.3019161 0 0 1 -0.0739,-0.05478 A 11.260544,8.3019161 0 0 1 982.26769,12.7 a 11.260544,8.3019161 0 0 0 -2.09651,1.108459 11.260544,8.3019161 0 0 0 -2.73627,9.482109 11.260544,8.3019161 0 0 1 -0.3855,-0.291455 A 11.260544,8.3019161 0 0 1 976.12595,12.7 a 11.260544,8.3019161 0 0 0 -2.09703,1.108459 11.260544,8.3019161 0 0 0 -2.73627,9.482109 11.260544,8.3019161 0 0 1 -0.3855,-0.291455 A 11.260544,8.3019161 0 0 1 969.98369,12.7 11.260544,8.3019161 0 0 0 967.88666,13.808459 11.260544,8.3019161 0 0 0 965.15091,23.290568 11.260544,8.3019161 0 0 1 964.7654,22.999113 11.260544,8.3019161 0 0 1 963.84143,12.7 11.260544,8.3019161 0 0 0 961.7444,13.808459 11.260544,8.3019161 0 0 0 959.00865,23.290568 11.260544,8.3019161 0 0 1 958.62314,22.999113 11.260544,8.3019161 0 0 1 957.69968,12.7 a 11.260544,8.3019161 0 0 0 -2.09703,1.108459 11.260544,8.3019161 0 0 0 -2.72179,9.485726 11.260544,8.3019161 0 0 1 -0.39998,-0.295072 A 11.260544,8.3019161 0 0 1 951.55742,12.7 a 11.260544,8.3019161 0 0 0 -2.09703,1.108459 11.260544,8.3019161 0 0 0 -2.73626,9.482109 11.260544,8.3019161 0 0 1 -0.38551,-0.291455 A 11.260544,8.3019161 0 0 1 945.41516,12.7 a 11.260544,8.3019161 0 0 0 -2.09703,1.108459 11.260544,8.3019161 0 0 0 -2.73575,9.482109 11.260544,8.3019161 0 0 1 -0.38551,-0.291455 A 11.260544,8.3019161 0 0 1 939.2729,12.7 a 11.260544,8.3019161 0 0 0 -2.09651,1.108459 11.260544,8.3019161 0 0 0 -2.73627,9.482109 11.260544,8.3019161 0 0 1 -0.38551,-0.291455 A 11.260544,8.3019161 0 0 1 933.13116,12.7 a 11.260544,8.3019161 0 0 0 -2.09703,1.108459 11.260544,8.3019161 0 0 0 -2.73627,9.482109 11.260544,8.3019161 0 0 1 -0.38551,-0.291455 A 11.260544,8.3019161 0 0 1 926.9889,12.7 a 11.260544,8.3019161 0 0 0 -2.09703,1.108459 11.260544,8.3019161 0 0 0 -2.73575,9.482109 11.260544,8.3019161 0 0 1 -0.38551,-0.291455 A 11.260544,8.3019161 0 0 1 920.84663,12.7 a 11.260544,8.3019161 0 0 0 -2.09702,1.108459 11.260544,8.3019161 0 0 0 -2.72129,9.485726 11.260544,8.3019161 0 0 1 -0.39997,-0.295072 A 11.260544,8.3019161 0 0 1 914.70489,12.7 a 11.260544,8.3019161 0 0 0 -2.09703,1.108459 11.260544,8.3019161 0 0 0 -2.73627,9.482109 11.260544,8.3019161 0 0 1 -0.3855,-0.291455 A 11.260544,8.3019161 0 0 1 908.56263,12.7 11.260544,8.3019161 0 0 0 906.4656,13.808459 11.260544,8.3019161 0 0 0 903.72985,23.290568 11.260544,8.3019161 0 0 1 903.34434,22.999113 11.260544,8.3019161 0 0 1 902.42037,12.7 a 11.260544,8.3019161 0 0 0 -2.09703,1.108459 11.260544,8.3019161 0 0 0 -2.73575,9.482109 11.260544,8.3019161 0 0 1 -0.38551,-0.291455 A 11.260544,8.3019161 0 0 1 896.27811,12.7 11.260544,8.3019161 0 0 0 894.1816,13.808459 11.260544,8.3019161 0 0 0 891.44533,23.290568 11.260544,8.3019161 0 0 1 891.05982,22.999113 11.260544,8.3019161 0 0 1 890.13636,12.7 a 11.260544,8.3019161 0 0 0 -2.09702,1.108459 11.260544,8.3019161 0 0 0 -2.73627,9.482109 11.260544,8.3019161 0 0 1 -0.38551,-0.291455 11.260544,8.3019161 0 0 1 -0.92397,-10.298596 z" />
      <path
         id="path10217-6"
         style="fill:#7c8c3f;fill-opacity:1;stroke:none;stroke-width:0.395574;stroke-opacity:1"
         d="m 885.49014,29.633333 a 11.260544,10.508997 0 0 1 -0.92346,13.036931 11.260544,10.508997 0 0 1 -0.38551,0.369486 11.260544,10.508997 0 0 0 -2.73575,-12.003402 11.260544,10.508997 0 0 0 -1.70584,-1.169954 v 0.357601 a 11.260544,10.508997 0 0 1 0,10.789005 v 27.778667 1.322916 3.497978 H 1090.0833 V 31.046167 a 11.260544,10.508997 0 0 0 -0.011,-0.0098 11.260544,10.508997 0 0 0 -2.0955,-1.401981 11.260544,10.508997 0 0 1 -0.924,13.035897 11.260544,10.508997 0 0 1 -0.3855,0.369486 11.260544,10.508997 0 0 0 -2.7362,-12.003402 11.260544,10.508997 0 0 0 -2.0971,-1.403015 11.260544,10.508997 0 0 1 -0.9234,13.036931 11.260544,10.508997 0 0 1 -0.3855,0.369486 11.260544,10.508997 0 0 0 -2.7363,-12.003402 11.260544,10.508997 0 0 0 -2.0965,-1.403015 11.260544,10.508997 0 0 1 -0.924,13.036931 11.260544,10.508997 0 0 1 -0.3855,0.369486 11.260544,10.508997 0 0 0 -2.7358,-12.003402 11.260544,10.508997 0 0 0 -2.097,-1.403015 11.260544,10.508997 0 0 1 -0.924,13.036931 11.260544,10.508997 0 0 1 -0.3855,0.369486 11.260544,10.508997 0 0 0 -2.7357,-12.003402 11.260544,10.508997 0 0 0 -2.097,-1.403015 11.260544,10.508997 0 0 1 -0.9235,13.036931 11.260544,10.508997 0 0 1 -0.3855,0.369486 11.260544,10.508997 0 0 0 -2.7363,-12.003402 11.260544,10.508997 0 0 0 -2.097,-1.403015 11.260544,10.508997 0 0 1 -0.9235,13.036931 11.260544,10.508997 0 0 1 -0.3999,0.37362 11.260544,10.508997 0 0 0 -2.7213,-12.007536 11.260544,10.508997 0 0 0 -2.097,-1.403015 11.260544,10.508997 0 0 1 -0.924,13.036931 11.260544,10.508997 0 0 1 -0.3855,0.369486 11.260544,10.508997 0 0 0 -2.7358,-12.003402 11.260544,10.508997 0 0 0 -2.097,-1.403015 11.260544,10.508997 0 0 1 -0.9235,13.036931 11.260544,10.508997 0 0 1 -0.3855,0.369486 11.260544,10.508997 0 0 0 -2.7362,-12.003402 11.260544,10.508997 0 0 0 -2.0971,-1.403015 11.260544,10.508997 0 0 1 -0.9234,13.036931 11.260544,10.508997 0 0 1 -0.3855,0.369486 11.260544,10.508997 0 0 0 -2.7363,-12.003402 11.260544,10.508997 0 0 0 -2.0965,-1.403015 11.260544,10.508997 0 0 1 -0.924,13.036931 11.260544,10.508997 0 0 1 -0.3855,0.369486 11.260544,10.508997 0 0 0 -2.7357,-12.003402 11.260544,10.508997 0 0 0 -2.0971,-1.403015 11.260544,10.508997 0 0 1 -0.9234,13.036931 11.260544,10.508997 0 0 1 -0.3855,0.369486 11.260544,10.508997 0 0 0 -2.7363,-12.003402 11.260544,10.508997 0 0 0 -2.097,-1.403015 11.260544,10.508997 0 0 1 -0.9235,13.036931 11.260544,10.508997 0 0 1 -0.4,0.37362 11.260544,10.508997 0 0 0 -2.7218,-12.007536 11.260544,10.508997 0 0 0 -2.097,-1.403015 11.260544,10.508997 0 0 1 -0.9235,13.036931 11.260544,10.508997 0 0 1 -0.3855,0.369486 11.260544,10.508997 0 0 0 -2.7357,-12.003402 11.260544,10.508997 0 0 0 -2.097,-1.403015 11.260544,10.508997 0 0 1 -0.924,13.036931 11.260544,10.508997 0 0 1 -0.3855,0.369486 11.260544,10.508997 0 0 0 -2.7358,-12.003402 11.260544,10.508997 0 0 0 -2.097,-1.403015 11.260544,10.508997 0 0 1 -0.9235,13.036931 11.260544,10.508997 0 0 1 -0.3855,0.369486 11.260544,10.508997 0 0 0 -2.73623,-12.003402 11.260544,10.508997 0 0 0 -2.09703,-1.403015 11.260544,10.508997 0 0 1 -0.92346,13.036931 11.260544,10.508997 0 0 1 -0.3855,0.369486 11.260544,10.508997 0 0 0 -2.73627,-12.003402 11.260544,10.508997 0 0 0 -2.09651,-1.403015 11.260544,10.508997 0 0 1 -0.92398,13.036931 11.260544,10.508997 0 0 1 -0.0739,0.06925 11.260544,10.508997 0 0 0 -2.84376,-11.703162 11.260544,10.508997 0 0 0 -2.09651,-1.403015 11.260544,10.508997 0 0 1 0.12506,0.196888 11.260544,10.508997 0 0 0 -0.23048,-0.137977 v 0.09974 a 11.260544,10.508997 0 0 1 0,11.653035 v 0.259933 a 11.260544,10.508997 0 0 1 -0.81907,0.965316 11.260544,10.508997 0 0 1 -0.38551,0.369486 11.260544,10.508997 0 0 0 -2.73575,-12.003402 11.260544,10.508997 0 0 0 -2.09703,-1.403015 11.260544,10.508997 0 0 1 -0.92397,13.036931 11.260544,10.508997 0 0 1 -0.38551,0.369486 11.260544,10.508997 0 0 0 -2.73575,-12.003402 11.260544,10.508997 0 0 0 -2.09703,-1.403015 11.260544,10.508997 0 0 1 -0.92346,13.036931 11.260544,10.508997 0 0 1 -0.3855,0.369486 11.260544,10.508997 0 0 0 -2.73627,-12.003402 11.260544,10.508997 0 0 0 -2.09703,-1.403015 11.260544,10.508997 0 0 1 -0.92346,13.036931 11.260544,10.508997 0 0 1 -0.3855,0.369486 11.260544,10.508997 0 0 0 -2.73576,-12.003402 11.260544,10.508997 0 0 0 -2.09702,-1.403015 11.260544,10.508997 0 0 1 -0.92398,13.036931 11.260544,10.508997 0 0 1 -0.38551,0.369486 11.260544,10.508997 0 0 0 -2.73575,-12.003402 11.260544,10.508997 0 0 0 -2.09703,-1.403015 11.260544,10.508997 0 0 1 -0.92397,13.036931 11.260544,10.508997 0 0 1 -0.39946,0.37362 11.260544,10.508997 0 0 0 -2.7218,-12.007536 11.260544,10.508997 0 0 0 -2.09651,-1.403015 11.260544,10.508997 0 0 1 -0.92397,13.036931 11.260544,10.508997 0 0 1 -0.38551,0.369486 11.260544,10.508997 0 0 0 -2.73627,-12.003402 11.260544,10.508997 0 0 0 -2.09651,-1.403015 11.260544,10.508997 0 0 1 -0.92397,13.036931 11.260544,10.508997 0 0 1 -0.38551,0.369486 11.260544,10.508997 0 0 0 -2.73575,-12.003402 11.260544,10.508997 0 0 0 -2.09703,-1.403015 11.260544,10.508997 0 0 1 -0.92346,13.036931 11.260544,10.508997 0 0 1 -0.38602,0.369486 11.260544,10.508997 0 0 0 -2.73575,-12.003402 11.260544,10.508997 0 0 0 -2.09703,-1.403015 11.260544,10.508997 0 0 1 -0.92346,13.036931 11.260544,10.508997 0 0 1 -0.38551,0.369486 11.260544,10.508997 0 0 0 -2.73626,-12.003402 11.260544,10.508997 0 0 0 -2.09703,-1.403015 11.260544,10.508997 0 0 1 -0.92346,13.036931 11.260544,10.508997 0 0 1 -0.38551,0.369486 11.260544,10.508997 0 0 0 -2.73575,-12.003402 11.260544,10.508997 0 0 0 -2.09703,-1.403015 11.260544,10.508997 0 0 1 -0.92397,13.036931 11.260544,10.508997 0 0 1 -0.39946,0.37362 11.260544,10.508997 0 0 0 -2.7218,-12.007536 11.260544,10.508997 0 0 0 -2.09703,-1.403015 11.260544,10.508997 0 0 1 -0.92397,13.036931 11.260544,10.508997 0 0 1 -0.38499,0.369486 11.260544,10.508997 0 0 0 -2.73627,-12.003402 11.260544,10.508997 0 0 0 -2.09703,-1.403015 11.260544,10.508997 0 0 1 -0.92346,13.036931 11.260544,10.508997 0 0 1 -0.3855,0.369486 11.260544,10.508997 0 0 0 -2.73627,-12.003402 11.260544,10.508997 0 0 0 -2.09651,-1.403015 11.260544,10.508997 0 0 1 -0.92398,13.036931 11.260544,10.508997 0 0 1 -0.3855,0.369486 11.260544,10.508997 0 0 0 -2.73575,-12.003402 11.260544,10.508997 0 0 0 -2.09703,-1.403015 11.260544,10.508997 0 0 1 -0.92398,13.036931 11.260544,10.508997 0 0 1 -0.3855,0.369486 11.260544,10.508997 0 0 0 -2.73575,-12.003402 11.260544,10.508997 0 0 0 -2.09703,-1.403015 z" />
      <path
         id="path10217-0"
         style="fill:#9baf4f;fill-opacity:1;stroke:none;stroke-width:0.409474;stroke-opacity:1"
         d="m 883.83546,51.780819 a 11.260544,11.260544 0 0 0 -5.2e-4,10e-4 11.260544,11.260544 0 0 1 0.002,-10e-4 z m -5.2e-4,10e-4 a 11.260544,11.260544 0 0 0 -2.09548,1.502234 11.260544,11.260544 0 0 0 -1.99988,2.509924 v 11.699545 a 11.260544,11.260544 0 0 0 0.15813,0.303857 h -0.15813 v 31.108179 h 210.34372 v -45.31403 a 11.260544,11.260544 0 0 0 -2.4525,12.554272 11.260544,11.260544 0 0 1 -0.3855,-0.395841 11.260544,11.260544 0 0 1 -0.9235,-13.969173 11.260544,11.260544 0 0 0 -2.097,1.503267 11.260544,11.260544 0 0 0 -2.7358,12.861747 11.260544,11.260544 0 0 1 -0.3855,-0.395841 11.260544,11.260544 0 0 1 -0.924,-13.969173 11.260544,11.260544 0 0 0 -2.097,1.503267 11.260544,11.260544 0 0 0 -2.7357,12.861747 11.260544,11.260544 0 0 1 -0.3855,-0.395841 11.260544,11.260544 0 0 1 -0.924,-13.969173 11.260544,11.260544 0 0 0 -2.0965,1.503267 11.260544,11.260544 0 0 0 -2.7363,12.861747 11.260544,11.260544 0 0 1 -0.3855,-0.395841 11.260544,11.260544 0 0 1 -0.9235,-13.969173 11.260544,11.260544 0 0 0 -2.097,1.503267 11.260544,11.260544 0 0 0 -2.7363,12.861747 11.260544,11.260544 0 0 1 -0.3849,-0.395841 11.260544,11.260544 0 0 1 -0.924,-13.969173 11.260544,11.260544 0 0 0 -2.0971,1.503267 11.260544,11.260544 0 0 0 -2.7217,12.866398 11.260544,11.260544 0 0 1 -0.3995,-0.400492 11.260544,11.260544 0 0 1 -0.924,-13.969173 11.260544,11.260544 0 0 0 -2.097,1.503267 11.260544,11.260544 0 0 0 -2.7358,12.861747 11.260544,11.260544 0 0 1 -0.3855,-0.395841 11.260544,11.260544 0 0 1 -0.9234,-13.969173 11.260544,11.260544 0 0 0 -2.0971,1.503267 11.260544,11.260544 0 0 0 -2.7362,12.861747 11.260544,11.260544 0 0 1 -0.3855,-0.395841 11.260544,11.260544 0 0 1 -0.9235,-13.969173 11.260544,11.260544 0 0 0 -2.097,1.503267 11.260544,11.260544 0 0 0 -2.7358,12.861747 11.260544,11.260544 0 0 1 -0.386,-0.395841 11.260544,11.260544 0 0 1 -0.9234,-13.969173 11.260544,11.260544 0 0 0 -2.0971,1.503267 11.260544,11.260544 0 0 0 -2.7357,12.861747 11.260544,11.260544 0 0 1 -0.3855,-0.395841 11.260544,11.260544 0 0 1 -0.924,-13.969173 11.260544,11.260544 0 0 0 -2.0965,1.503267 11.260544,11.260544 0 0 0 -2.7363,12.861747 11.260544,11.260544 0 0 1 -0.3855,-0.395841 11.260544,11.260544 0 0 1 -0.924,-13.969173 11.260544,11.260544 0 0 0 -2.0965,1.503267 11.260544,11.260544 0 0 0 -2.7218,12.866398 11.260544,11.260544 0 0 1 -0.3994,-0.400492 11.260544,11.260544 0 0 1 -0.924,-13.969173 11.260544,11.260544 0 0 0 -2.097,1.503267 11.260544,11.260544 0 0 0 -2.7358,12.861747 11.260544,11.260544 0 0 1 -0.3855,-0.395841 11.260544,11.260544 0 0 1 -0.924,-13.969173 11.260544,11.260544 0 0 0 -2.097,1.503267 11.260544,11.260544 0 0 0 -2.7358,12.861747 11.260544,11.260544 0 0 1 -0.3855,-0.395841 11.260544,11.260544 0 0 1 -0.9234,-13.969173 11.260544,11.260544 0 0 0 -2.097,1.503267 11.260544,11.260544 0 0 0 -2.7363,12.861747 11.260544,11.260544 0 0 1 -0.3855,-0.395841 11.260544,11.260544 0 0 1 -0.9235,-13.969173 11.260544,11.260544 0 0 0 -2.09701,1.503267 11.260544,11.260544 0 0 0 -2.73575,12.861747 11.260544,11.260544 0 0 1 -0.3855,-0.395841 11.260544,11.260544 0 0 1 -0.92398,-13.969173 11.260544,11.260544 0 0 0 -2.09703,1.503267 11.260544,11.260544 0 0 0 -2.73575,12.861747 11.260544,11.260544 0 0 1 -0.3855,-0.395841 11.260544,11.260544 0 0 1 -0.81908,-1.034046 V 64.43741 a 11.260544,11.260544 0 0 1 0,-12.486576 v -0.10697 a 11.260544,11.260544 0 0 0 -0.23047,0.147795 11.260544,11.260544 0 0 1 0.12505,-0.21084 11.260544,11.260544 0 0 0 -2.09651,1.503267 11.260544,11.260544 0 0 0 -2.84375,12.54032 11.260544,11.260544 0 0 1 -0.0739,-0.07441 11.260544,11.260544 0 0 1 -0.92397,-13.969173 11.260544,11.260544 0 0 0 -2.09652,1.503267 11.260544,11.260544 0 0 0 -2.73626,12.861747 11.260544,11.260544 0 0 1 -0.38551,-0.395841 11.260544,11.260544 0 0 1 -0.92346,-13.969173 11.260544,11.260544 0 0 0 -2.09703,1.503267 11.260544,11.260544 0 0 0 -2.73627,12.861747 11.260544,11.260544 0 0 1 -0.3855,-0.395841 11.260544,11.260544 0 0 1 -0.92346,-13.969173 11.260544,11.260544 0 0 0 -2.09703,1.503267 11.260544,11.260544 0 0 0 -2.73575,12.861747 11.260544,11.260544 0 0 1 -0.38551,-0.395841 11.260544,11.260544 0 0 1 -0.92397,-13.969173 11.260544,11.260544 0 0 0 -2.09703,1.503267 11.260544,11.260544 0 0 0 -2.73575,12.861747 11.260544,11.260544 0 0 1 -0.38551,-0.395841 11.260544,11.260544 0 0 1 -0.92345,-13.969173 11.260544,11.260544 0 0 0 -2.09703,1.503267 11.260544,11.260544 0 0 0 -2.7218,12.866398 11.260544,11.260544 0 0 1 -0.39998,-0.400492 11.260544,11.260544 0 0 1 -0.92345,-13.969173 11.260544,11.260544 0 0 0 -2.09703,1.503267 11.260544,11.260544 0 0 0 -2.73627,12.861747 11.260544,11.260544 0 0 1 -0.38551,-0.395841 11.260544,11.260544 0 0 1 -0.92346,-13.969173 11.260544,11.260544 0 0 0 -2.09703,1.503267 11.260544,11.260544 0 0 0 -2.73575,12.861747 11.260544,11.260544 0 0 1 -0.3855,-0.395841 11.260544,11.260544 0 0 1 -0.92398,-13.969173 11.260544,11.260544 0 0 0 -2.09651,1.503267 11.260544,11.260544 0 0 0 -2.73627,12.861747 11.260544,11.260544 0 0 1 -0.3855,-0.395841 11.260544,11.260544 0 0 1 -0.92346,-13.969173 11.260544,11.260544 0 0 0 -2.09703,1.503267 11.260544,11.260544 0 0 0 -2.73627,12.861747 11.260544,11.260544 0 0 1 -0.3855,-0.395841 11.260544,11.260544 0 0 1 -0.92346,-13.969173 11.260544,11.260544 0 0 0 -2.09703,1.503267 11.260544,11.260544 0 0 0 -2.73575,12.861747 11.260544,11.260544 0 0 1 -0.38551,-0.395841 11.260544,11.260544 0 0 1 -0.92397,-13.969173 11.260544,11.260544 0 0 0 -2.09703,1.503267 11.260544,11.260544 0 0 0 -2.72128,12.866398 11.260544,11.260544 0 0 1 -0.39998,-0.400492 11.260544,11.260544 0 0 1 -0.92346,-13.969173 11.260544,11.260544 0 0 0 -2.09703,1.503267 11.260544,11.260544 0 0 0 -2.73626,12.861747 11.260544,11.260544 0 0 1 -0.38551,-0.395841 11.260544,11.260544 0 0 1 -0.92346,-13.969173 11.260544,11.260544 0 0 0 -2.09703,1.503267 11.260544,11.260544 0 0 0 -2.73575,12.861747 11.260544,11.260544 0 0 1 -0.3855,-0.395841 11.260544,11.260544 0 0 1 -0.92398,-13.969173 11.260544,11.260544 0 0 0 -2.09703,1.503267 11.260544,11.260544 0 0 0 -2.73575,12.861747 11.260544,11.260544 0 0 1 -0.3855,-0.395841 11.260544,11.260544 0 0 1 -0.92398,-13.969173 11.260544,11.260544 0 0 0 -2.09651,1.503267 11.260544,11.260544 0 0 0 -2.73627,12.861747 11.260544,11.260544 0 0 1 -0.3855,-0.395841 11.260544,11.260544 0 0 1 -0.92346,-13.969173 11.260544,11.260544 0 0 0 -2.09703,1.503267 11.260544,11.260544 0 0 0 -2.73627,12.861747 11.260544,11.260544 0 0 1 -0.3855,-0.395841 11.260544,11.260544 0 0 1 -0.92398,-13.96814 z" />
      <path
         id="path10217-6-2"
         style="fill:#7c8c3f;fill-opacity:1;stroke:none;stroke-width:0.451336;stroke-opacity:1"
         d="m 884.30106,71.864347 a 11.260544,13.680609 0 0 1 -0.92346,16.971057 11.260544,13.680609 0 0 1 -0.3855,0.481108 11.260544,13.680609 0 0 0 -2.73575,-15.62592 11.260544,13.680609 0 0 0 -0.51677,-0.507462 v 2.831868 a 11.260544,13.680609 0 0 1 0,7.282243 v 27.827759 2.64583 15.34584 H 1090.0833 V 75.238302 a 11.260544,13.680609 0 0 0 -1.1994,-1.54771 11.260544,13.680609 0 0 0 -2.0949,-1.824178 11.260544,13.680609 0 0 1 -0.9245,16.96899 11.260544,13.680609 0 0 1 -0.3855,0.481108 11.260544,13.680609 0 0 0 -2.7363,-15.62592 11.260544,13.680609 0 0 0 -2.097,-1.826245 11.260544,13.680609 0 0 1 -0.9235,16.971057 11.260544,13.680609 0 0 1 -0.3855,0.481108 11.260544,13.680609 0 0 0 -2.7363,-15.62592 11.260544,13.680609 0 0 0 -2.0965,-1.826245 11.260544,13.680609 0 0 1 -0.924,16.971057 11.260544,13.680609 0 0 1 -0.3855,0.481108 11.260544,13.680609 0 0 0 -2.7357,-15.62592 11.260544,13.680609 0 0 0 -2.097,-1.826245 11.260544,13.680609 0 0 1 -0.924,16.971057 11.260544,13.680609 0 0 1 -0.3855,0.481108 11.260544,13.680609 0 0 0 -2.7358,-15.62592 11.260544,13.680609 0 0 0 -2.097,-1.826245 11.260544,13.680609 0 0 1 -0.9235,16.971057 11.260544,13.680609 0 0 1 -0.3855,0.481108 11.260544,13.680609 0 0 0 -2.7362,-15.62592 11.260544,13.680609 0 0 0 -2.0971,-1.826245 11.260544,13.680609 0 0 1 -0.9234,16.971057 11.260544,13.680609 0 0 1 -0.4,0.486792 11.260544,13.680609 0 0 0 -2.7213,-15.631604 11.260544,13.680609 0 0 0 -2.097,-1.826245 11.260544,13.680609 0 0 1 -0.924,16.971057 11.260544,13.680609 0 0 1 -0.3855,0.481108 11.260544,13.680609 0 0 0 -2.7357,-15.62592 11.260544,13.680609 0 0 0 -2.0971,-1.826245 11.260544,13.680609 0 0 1 -0.9234,16.971057 11.260544,13.680609 0 0 1 -0.3855,0.481108 11.260544,13.680609 0 0 0 -2.7363,-15.62592 11.260544,13.680609 0 0 0 -2.097,-1.826245 11.260544,13.680609 0 0 1 -0.9235,16.971057 11.260544,13.680609 0 0 1 -0.3855,0.481108 11.260544,13.680609 0 0 0 -2.7363,-15.62592 11.260544,13.680609 0 0 0 -2.0965,-1.826245 11.260544,13.680609 0 0 1 -0.9239,16.971057 11.260544,13.680609 0 0 1 -0.3855,0.481108 11.260544,13.680609 0 0 0 -2.7358,-15.62592 11.260544,13.680609 0 0 0 -2.097,-1.826245 11.260544,13.680609 0 0 1 -0.9235,16.971057 11.260544,13.680609 0 0 1 -0.3855,0.481108 11.260544,13.680609 0 0 0 -2.7363,-15.62592 11.260544,13.680609 0 0 0 -2.097,-1.826245 11.260544,13.680609 0 0 1 -0.9234,16.971057 11.260544,13.680609 0 0 1 -0.4,0.486792 11.260544,13.680609 0 0 0 -2.7218,-15.631604 11.260544,13.680609 0 0 0 -2.0971,-1.826245 11.260544,13.680609 0 0 1 -0.9234,16.971057 11.260544,13.680609 0 0 1 -0.3855,0.481108 11.260544,13.680609 0 0 0 -2.7358,-15.62592 11.260544,13.680609 0 0 0 -2.097,-1.826245 11.260544,13.680609 0 0 1 -0.924,16.971057 11.260544,13.680609 0 0 1 -0.3855,0.481108 11.260544,13.680609 0 0 0 -2.7362,-15.62592 11.260544,13.680609 0 0 0 -2.0971,-1.826245 11.260544,13.680609 0 0 1 -0.92343,16.971057 11.260544,13.680609 0 0 1 -0.38551,0.481108 11.260544,13.680609 0 0 0 -2.73626,-15.62592 11.260544,13.680609 0 0 0 -2.09703,-1.826245 11.260544,13.680609 0 0 1 -0.92346,16.971057 11.260544,13.680609 0 0 1 -0.38551,0.481108 11.260544,13.680609 0 0 0 -2.73626,-15.62592 11.260544,13.680609 0 0 0 -2.09652,-1.826245 11.260544,13.680609 0 0 1 -0.92397,16.971057 11.260544,13.680609 0 0 1 -0.0739,0.09043 11.260544,13.680609 0 0 0 -2.84375,-15.235246 11.260544,13.680609 0 0 0 -2.09652,-1.826245 11.260544,13.680609 0 0 1 0.12506,0.256315 11.260544,13.680609 0 0 0 -0.23048,-0.179834 v 0.130225 a 11.260544,13.680609 0 0 1 0,15.170134 v 0.337963 a 11.260544,13.680609 0 0 1 -0.81907,1.256254 11.260544,13.680609 0 0 1 -0.3855,0.481108 11.260544,13.680609 0 0 0 -2.73575,-15.62592 11.260544,13.680609 0 0 0 -2.09703,-1.826245 11.260544,13.680609 0 0 1 -0.92398,16.971057 11.260544,13.680609 0 0 1 -0.3855,0.481108 11.260544,13.680609 0 0 0 -2.73576,-15.62592 11.260544,13.680609 0 0 0 -2.09702,-1.826245 11.260544,13.680609 0 0 1 -0.92346,16.971057 11.260544,13.680609 0 0 1 -0.38551,0.481108 11.260544,13.680609 0 0 0 -2.73627,-15.62592 11.260544,13.680609 0 0 0 -2.09703,-1.826245 11.260544,13.680609 0 0 1 -0.92345,16.971057 11.260544,13.680609 0 0 1 -0.38551,0.481108 11.260544,13.680609 0 0 0 -2.73575,-15.62592 11.260544,13.680609 0 0 0 -2.09703,-1.826245 11.260544,13.680609 0 0 1 -0.92397,16.971057 11.260544,13.680609 0 0 1 -0.38551,0.481108 11.260544,13.680609 0 0 0 -2.73575,-15.62592 11.260544,13.680609 0 0 0 -2.09703,-1.826245 11.260544,13.680609 0 0 1 -0.92397,16.971057 11.260544,13.680609 0 0 1 -0.39946,0.486792 11.260544,13.680609 0 0 0 -2.7218,-15.631604 11.260544,13.680609 0 0 0 -2.09651,-1.826245 11.260544,13.680609 0 0 1 -0.92398,16.971057 11.260544,13.680609 0 0 1 -0.3855,0.481108 11.260544,13.680609 0 0 0 -2.73627,-15.62592 11.260544,13.680609 0 0 0 -2.09651,-1.826245 11.260544,13.680609 0 0 1 -0.92398,16.971057 11.260544,13.680609 0 0 1 -0.38551,0.481108 11.260544,13.680609 0 0 0 -2.73575,-15.62592 11.260544,13.680609 0 0 0 -2.09703,-1.826245 11.260544,13.680609 0 0 1 -0.92345,16.971057 11.260544,13.680609 0 0 1 -0.38603,0.481108 11.260544,13.680609 0 0 0 -2.73575,-15.62592 11.260544,13.680609 0 0 0 -2.09703,-1.826245 11.260544,13.680609 0 0 1 -0.92345,16.971057 11.260544,13.680609 0 0 1 -0.38551,0.481108 11.260544,13.680609 0 0 0 -2.73627,-15.62592 11.260544,13.680609 0 0 0 -2.09703,-1.826245 11.260544,13.680609 0 0 1 -0.92345,16.971057 11.260544,13.680609 0 0 1 -0.38551,0.481108 11.260544,13.680609 0 0 0 -2.73575,-15.62592 11.260544,13.680609 0 0 0 -2.09703,-1.826245 11.260544,13.680609 0 0 1 -0.92398,16.971057 11.260544,13.680609 0 0 1 -0.39945,0.486792 11.260544,13.680609 0 0 0 -2.7218,-15.631604 11.260544,13.680609 0 0 0 -2.09703,-1.826245 11.260544,13.680609 0 0 1 -0.92398,16.971057 11.260544,13.680609 0 0 1 -0.38499,0.481108 11.260544,13.680609 0 0 0 -2.73626,-15.62592 11.260544,13.680609 0 0 0 -2.09703,-1.826245 11.260544,13.680609 0 0 1 -0.92346,16.971057 11.260544,13.680609 0 0 1 -0.38551,0.481108 11.260544,13.680609 0 0 0 -2.73626,-15.62592 11.260544,13.680609 0 0 0 -2.09652,-1.826245 11.260544,13.680609 0 0 1 -0.92397,16.971057 11.260544,13.680609 0 0 1 -0.38551,0.481108 11.260544,13.680609 0 0 0 -2.73575,-15.62592 11.260544,13.680609 0 0 0 -2.09703,-1.826245 11.260544,13.680609 0 0 1 -0.92397,16.971057 11.260544,13.680609 0 0 1 -0.38551,0.481108 11.260544,13.680609 0 0 0 -2.73575,-15.62592 11.260544,13.680609 0 0 0 -2.09703,-1.826245 z" />
      <path
         id="path10217-0-1"
         style="fill:#9baf4f;fill-opacity:1;stroke:none;stroke-width:0.49473;stroke-opacity:1"
         inkscape:label="path10217-0-1"
         d="m 890.62057,97.366667 a 11.260544,16.437801 0 0 0 -2.09703,2.194181 11.260544,16.437801 0 0 0 -2.73626,18.775082 11.260544,16.437801 0 0 1 -0.38551,-0.57774 11.260544,16.437801 0 0 1 -0.92397,-20.389973 V 97.3677 a 11.260544,16.437801 0 0 0 -2.09548,2.193148 11.260544,16.437801 0 0 0 -2.64274,5.366602 v 13.69167 a 11.260544,16.437801 0 0 0 0.80099,2.12803 h -0.80099 v 27.28929 h 210.34372 v -47.03899 a 11.260544,16.437801 0 0 0 -1.8097,17.33848 11.260544,16.437801 0 0 1 -0.3855,-0.57774 11.260544,16.437801 0 0 1 -0.9234,-20.391523 11.260544,16.437801 0 0 0 -2.0971,2.194181 11.260544,16.437801 0 0 0 -2.7357,18.775082 11.260544,16.437801 0 0 1 -0.3855,-0.57774 11.260544,16.437801 0 0 1 -0.924,-20.391523 11.260544,16.437801 0 0 0 -2.097,2.194181 11.260544,16.437801 0 0 0 -2.7358,18.775082 11.260544,16.437801 0 0 1 -0.3855,-0.57774 11.260544,16.437801 0 0 1 -0.924,-20.391523 11.260544,16.437801 0 0 0 -2.0965,2.194181 11.260544,16.437801 0 0 0 -2.7362,18.775082 11.260544,16.437801 0 0 1 -0.3855,-0.57774 11.260544,16.437801 0 0 1 -0.9235,-20.391523 11.260544,16.437801 0 0 0 -2.097,2.194181 11.260544,16.437801 0 0 0 -2.7363,18.775082 11.260544,16.437801 0 0 1 -0.385,-0.57774 11.260544,16.437801 0 0 1 -0.924,-20.391523 11.260544,16.437801 0 0 0 -2.097,2.194181 11.260544,16.437801 0 0 0 -2.7218,18.781802 11.260544,16.437801 0 0 1 -0.3995,-0.58446 11.260544,16.437801 0 0 1 -0.9239,-20.391523 11.260544,16.437801 0 0 0 -2.0971,2.194181 11.260544,16.437801 0 0 0 -2.7357,18.775082 11.260544,16.437801 0 0 1 -0.3855,-0.57774 11.260544,16.437801 0 0 1 -0.9235,-20.391523 11.260544,16.437801 0 0 0 -2.097,2.194181 11.260544,16.437801 0 0 0 -2.7363,18.775082 11.260544,16.437801 0 0 1 -0.3855,-0.57774 11.260544,16.437801 0 0 1 -0.9234,-20.391523 11.260544,16.437801 0 0 0 -2.0971,2.194181 11.260544,16.437801 0 0 0 -2.7357,18.775082 11.260544,16.437801 0 0 1 -0.386,-0.57774 11.260544,16.437801 0 0 1 -0.9235,-20.391523 11.260544,16.437801 0 0 0 -2.097,2.194181 11.260544,16.437801 0 0 0 -2.7358,18.775082 11.260544,16.437801 0 0 1 -0.3855,-0.57774 11.260544,16.437801 0 0 1 -0.924,-20.391523 11.260544,16.437801 0 0 0 -2.0965,2.194181 11.260544,16.437801 0 0 0 -2.7362,18.775082 11.260544,16.437801 0 0 1 -0.3855,-0.57774 11.260544,16.437801 0 0 1 -0.924,-20.391523 11.260544,16.437801 0 0 0 -2.0965,2.194181 11.260544,16.437801 0 0 0 -2.7218,18.781802 11.260544,16.437801 0 0 1 -0.3995,-0.58446 11.260544,16.437801 0 0 1 -0.924,-20.391523 11.260544,16.437801 0 0 0 -2.097,2.194181 11.260544,16.437801 0 0 0 -2.7357,18.775082 11.260544,16.437801 0 0 1 -0.3855,-0.57774 11.260544,16.437801 0 0 1 -0.924,-20.391523 11.260544,16.437801 0 0 0 -2.097,2.194181 11.260544,16.437801 0 0 0 -2.7358,18.775082 11.260544,16.437801 0 0 1 -0.3855,-0.57774 11.260544,16.437801 0 0 1 -0.9235,-20.391523 11.260544,16.437801 0 0 0 -2.097,2.194181 11.260544,16.437801 0 0 0 -2.7363,18.775082 11.260544,16.437801 0 0 1 -0.3855,-0.57774 11.260544,16.437801 0 0 1 -0.9234,-20.391523 11.260544,16.437801 0 0 0 -2.09705,2.194181 11.260544,16.437801 0 0 0 -2.73575,18.775082 11.260544,16.437801 0 0 1 -0.38551,-0.57774 11.260544,16.437801 0 0 1 -0.92397,-20.391523 11.260544,16.437801 0 0 0 -2.09703,2.194181 11.260544,16.437801 0 0 0 -2.73575,18.775082 11.260544,16.437801 0 0 1 -0.38551,-0.57774 11.260544,16.437801 0 0 1 -0.81907,-1.50947 v -0.4067 a 11.260544,16.437801 0 0 1 0,-18.227306 v -0.156063 a 11.260544,16.437801 0 0 0 -0.23048,0.21549 11.260544,16.437801 0 0 1 0.12506,-0.307474 11.260544,16.437801 0 0 0 -2.09651,2.194181 11.260544,16.437801 0 0 0 -2.84376,18.305862 11.260544,16.437801 0 0 1 -0.0739,-0.10852 11.260544,16.437801 0 0 1 -0.92397,-20.391523 11.260544,16.437801 0 0 0 -2.09651,2.194181 11.260544,16.437801 0 0 0 -2.73627,18.775082 11.260544,16.437801 0 0 1 -0.38551,-0.57774 11.260544,16.437801 0 0 1 -0.92345,-20.391523 11.260544,16.437801 0 0 0 -2.09703,2.194181 11.260544,16.437801 0 0 0 -2.73627,18.775082 11.260544,16.437801 0 0 1 -0.38551,-0.57774 11.260544,16.437801 0 0 1 -0.92345,-20.391523 11.260544,16.437801 0 0 0 -2.09703,2.194181 11.260544,16.437801 0 0 0 -2.73575,18.775082 11.260544,16.437801 0 0 1 -0.38551,-0.57774 11.260544,16.437801 0 0 1 -0.92398,-20.391523 11.260544,16.437801 0 0 0 -2.09702,2.194181 11.260544,16.437801 0 0 0 -2.73576,18.775082 11.260544,16.437801 0 0 1 -0.3855,-0.57774 11.260544,16.437801 0 0 1 -0.92346,-20.391523 11.260544,16.437801 0 0 0 -2.09703,2.194181 11.260544,16.437801 0 0 0 -2.7218,18.781802 11.260544,16.437801 0 0 1 -0.39997,-0.58446 11.260544,16.437801 0 0 1 -0.92346,-20.391523 11.260544,16.437801 0 0 0 -2.09703,2.194181 11.260544,16.437801 0 0 0 -2.73627,18.775082 11.260544,16.437801 0 0 1 -0.3855,-0.57774 11.260544,16.437801 0 0 1 -0.92346,-20.391523 11.260544,16.437801 0 0 0 -2.09703,2.194181 11.260544,16.437801 0 0 0 -2.73575,18.775082 11.260544,16.437801 0 0 1 -0.38551,-0.57774 11.260544,16.437801 0 0 1 -0.92397,-20.391523 11.260544,16.437801 0 0 0 -2.09651,2.194181 11.260544,16.437801 0 0 0 -2.73627,18.775082 11.260544,16.437801 0 0 1 -0.38551,-0.57774 11.260544,16.437801 0 0 1 -0.92346,-20.391523 11.260544,16.437801 0 0 0 -2.09703,2.194181 11.260544,16.437801 0 0 0 -2.73626,18.775082 11.260544,16.437801 0 0 1 -0.38551,-0.57774 11.260544,16.437801 0 0 1 -0.92346,-20.391523 11.260544,16.437801 0 0 0 -2.09703,2.194181 11.260544,16.437801 0 0 0 -2.73575,18.775082 11.260544,16.437801 0 0 1 -0.3855,-0.57774 11.260544,16.437801 0 0 1 -0.92398,-20.391523 11.260544,16.437801 0 0 0 -2.09703,2.194181 11.260544,16.437801 0 0 0 -2.72128,18.781802 11.260544,16.437801 0 0 1 -0.39997,-0.58446 11.260544,16.437801 0 0 1 -0.92346,-20.391523 11.260544,16.437801 0 0 0 -2.09703,2.194181 11.260544,16.437801 0 0 0 -2.73627,18.775082 11.260544,16.437801 0 0 1 -0.3855,-0.57774 11.260544,16.437801 0 0 1 -0.92346,-20.391523 11.260544,16.437801 0 0 0 -2.09703,2.194181 11.260544,16.437801 0 0 0 -2.73575,18.775082 11.260544,16.437801 0 0 1 -0.38551,-0.57774 11.260544,16.437801 0 0 1 -0.92397,-20.391523 11.260544,16.437801 0 0 0 -2.09703,2.194181 11.260544,16.437801 0 0 0 -2.73575,18.775082 11.260544,16.437801 0 0 1 -0.38551,-0.57774 11.260544,16.437801 0 0 1 -0.92397,-20.391523 11.260544,16.437801 0 0 0 -2.09652,2.194181 11.260544,16.437801 0 0 0 -2.73626,18.775082 11.260544,16.437801 0 0 1 -0.38551,-0.57774 11.260544,16.437801 0 0 1 -0.92346,-20.391523 z m -6.14277,10e-4 a 11.260544,16.437801 0 0 1 0.002,-5.17e-4 h -0.002 a 11.260544,16.437801 0 0 0 -5.1e-4,5.17e-4 z" />
      <path
         id="path10217-6-2-7"
         style="fill:#7c8c3f;fill-opacity:1;stroke:none;stroke-width:0.523316;stroke-opacity:1"
         d="m 886.26012,124.11335 a 11.260544,18.392233 0 0 1 -0.92346,22.81618 11.260544,18.392233 0 0 1 -0.38551,0.64648 11.260544,18.392233 0 0 0 -2.73575,-21.00751 11.260544,18.392233 0 0 0 -1.99729,-2.35231 v 0.17467 a 11.260544,18.392233 0 0 1 0,20.39462 v 3.38119 h 209.86519 v -7.38973 a 11.260544,18.392233 0 0 1 -2.2598,6.15259 11.260544,18.392233 0 0 1 -0.3855,0.64648 11.260544,18.392233 0 0 0 -2.7363,-21.00751 11.260544,18.392233 0 0 0 -2.097,-2.45515 11.260544,18.392233 0 0 1 -0.9234,22.81618 11.260544,18.392233 0 0 1 -0.3855,0.64648 11.260544,18.392233 0 0 0 -2.7363,-21.00751 11.260544,18.392233 0 0 0 -2.0965,-2.45515 11.260544,18.392233 0 0 1 -0.924,22.81618 11.260544,18.392233 0 0 1 -0.3855,0.64648 11.260544,18.392233 0 0 0 -2.7358,-21.00751 11.260544,18.392233 0 0 0 -2.097,-2.45515 11.260544,18.392233 0 0 1 -0.924,22.81618 11.260544,18.392233 0 0 1 -0.3855,0.64648 11.260544,18.392233 0 0 0 -2.7357,-21.00751 11.260544,18.392233 0 0 0 -2.097,-2.45515 11.260544,18.392233 0 0 1 -0.9235,22.81618 11.260544,18.392233 0 0 1 -0.3855,0.64648 11.260544,18.392233 0 0 0 -2.7363,-21.00751 11.260544,18.392233 0 0 0 -2.097,-2.45515 11.260544,18.392233 0 0 1 -0.9235,22.81618 11.260544,18.392233 0 0 1 -0.3999,0.65423 11.260544,18.392233 0 0 0 -2.7213,-21.01526 11.260544,18.392233 0 0 0 -2.0971,-2.45515 11.260544,18.392233 0 0 1 -0.9239,22.81618 11.260544,18.392233 0 0 1 -0.3855,0.64648 11.260544,18.392233 0 0 0 -2.7358,-21.00751 11.260544,18.392233 0 0 0 -2.097,-2.45515 11.260544,18.392233 0 0 1 -0.9235,22.81618 11.260544,18.392233 0 0 1 -0.3855,0.64648 11.260544,18.392233 0 0 0 -2.7362,-21.00751 11.260544,18.392233 0 0 0 -2.0971,-2.45515 11.260544,18.392233 0 0 1 -0.9234,22.81618 11.260544,18.392233 0 0 1 -0.3855,0.64648 11.260544,18.392233 0 0 0 -2.7363,-21.00751 11.260544,18.392233 0 0 0 -2.0965,-2.45515 11.260544,18.392233 0 0 1 -0.924,22.81618 11.260544,18.392233 0 0 1 -0.3855,0.64648 11.260544,18.392233 0 0 0 -2.7357,-21.00751 11.260544,18.392233 0 0 0 -2.0971,-2.45515 11.260544,18.392233 0 0 1 -0.9234,22.81618 11.260544,18.392233 0 0 1 -0.3855,0.64648 11.260544,18.392233 0 0 0 -2.7363,-21.00751 11.260544,18.392233 0 0 0 -2.097,-2.45515 11.260544,18.392233 0 0 1 -0.9235,22.81618 11.260544,18.392233 0 0 1 -0.4,0.65423 11.260544,18.392233 0 0 0 -2.7218,-21.01526 11.260544,18.392233 0 0 0 -2.097,-2.45515 11.260544,18.392233 0 0 1 -0.9235,22.81618 11.260544,18.392233 0 0 1 -0.3855,0.64648 11.260544,18.392233 0 0 0 -2.7357,-21.00751 11.260544,18.392233 0 0 0 -2.097,-2.45515 11.260544,18.392233 0 0 1 -0.924,22.81618 11.260544,18.392233 0 0 1 -0.3855,0.64648 11.260544,18.392233 0 0 0 -2.7358,-21.00751 11.260544,18.392233 0 0 0 -2.0975,-2.45515 11.260544,18.392233 0 0 1 -0.923,22.81618 11.260544,18.392233 0 0 1 -0.3855,0.64648 11.260544,18.392233 0 0 0 -2.73623,-21.00751 11.260544,18.392233 0 0 0 -2.09703,-2.45515 11.260544,18.392233 0 0 1 -0.92398,22.81618 11.260544,18.392233 0 0 1 -0.38499,0.64648 11.260544,18.392233 0 0 0 -2.73678,-21.00751 11.260544,18.392233 0 0 0 -2.09651,-2.45515 11.260544,18.392233 0 0 1 -0.92398,22.81618 11.260544,18.392233 0 0 1 -0.0739,0.12144 11.260544,18.392233 0 0 0 -2.84375,-20.48247 11.260544,18.392233 0 0 0 -2.09651,-2.45515 11.260544,18.392233 0 0 1 0.12505,0.34417 11.260544,18.392233 0 0 0 -0.23047,-0.24133 v 0.17467 a 11.260544,18.392233 0 0 1 0,20.39462 v 0.45527 a 11.260544,18.392233 0 0 1 -0.81907,1.68878 11.260544,18.392233 0 0 1 -0.38551,0.64648 11.260544,18.392233 0 0 0 -2.73575,-21.00751 11.260544,18.392233 0 0 0 -2.09703,-2.45515 11.260544,18.392233 0 0 1 -0.92397,22.81618 11.260544,18.392233 0 0 1 -0.38551,0.64648 11.260544,18.392233 0 0 0 -2.73575,-21.00751 11.260544,18.392233 0 0 0 -2.09703,-2.45515 11.260544,18.392233 0 0 1 -0.92346,22.81618 11.260544,18.392233 0 0 1 -0.38551,0.64648 11.260544,18.392233 0 0 0 -2.73626,-21.00751 11.260544,18.392233 0 0 0 -2.09703,-2.45515 11.260544,18.392233 0 0 1 -0.92346,22.81618 11.260544,18.392233 0 0 1 -0.38551,0.64648 11.260544,18.392233 0 0 0 -2.73575,-21.00751 11.260544,18.392233 0 0 0 -2.09703,-2.45515 11.260544,18.392233 0 0 1 -0.92397,22.81618 11.260544,18.392233 0 0 1 -0.38551,0.64648 11.260544,18.392233 0 0 0 -2.73575,-21.00751 11.260544,18.392233 0 0 0 -2.09703,-2.45515 11.260544,18.392233 0 0 1 -0.92397,22.81618 11.260544,18.392233 0 0 1 -0.39946,0.65423 11.260544,18.392233 0 0 0 -2.7218,-21.01526 11.260544,18.392233 0 0 0 -2.09651,-2.45515 11.260544,18.392233 0 0 1 -0.92398,22.81618 11.260544,18.392233 0 0 1 -0.3855,0.64648 11.260544,18.392233 0 0 0 -2.73627,-21.00751 11.260544,18.392233 0 0 0 -2.09651,-2.45515 11.260544,18.392233 0 0 1 -0.92398,22.81618 11.260544,18.392233 0 0 1 -0.3855,0.64648 11.260544,18.392233 0 0 0 -2.73575,-21.00751 11.260544,18.392233 0 0 0 -2.09703,-2.45515 11.260544,18.392233 0 0 1 -0.92346,22.81618 11.260544,18.392233 0 0 1 -0.38602,0.64648 11.260544,18.392233 0 0 0 -2.73575,-21.00751 11.260544,18.392233 0 0 0 -2.09703,-2.45515 11.260544,18.392233 0 0 1 -0.92346,22.81618 11.260544,18.392233 0 0 1 -0.38551,0.64648 11.260544,18.392233 0 0 0 -2.73626,-21.00751 11.260544,18.392233 0 0 0 -2.09703,-2.45515 11.260544,18.392233 0 0 1 -0.92346,22.81618 11.260544,18.392233 0 0 1 -0.38551,0.64648 11.260544,18.392233 0 0 0 -2.73575,-21.00751 11.260544,18.392233 0 0 0 -2.09703,-2.45515 11.260544,18.392233 0 0 1 -0.92397,22.81618 11.260544,18.392233 0 0 1 -0.39946,0.65423 11.260544,18.392233 0 0 0 -2.7218,-21.01526 11.260544,18.392233 0 0 0 -2.09703,-2.45515 11.260544,18.392233 0 0 1 -0.92397,22.81618 11.260544,18.392233 0 0 1 -0.38499,0.64648 11.260544,18.392233 0 0 0 -2.73627,-21.00751 11.260544,18.392233 0 0 0 -2.09703,-2.45515 11.260544,18.392233 0 0 1 -0.92346,22.81618 11.260544,18.392233 0 0 1 -0.3855,0.64648 11.260544,18.392233 0 0 0 -2.73627,-21.00751 11.260544,18.392233 0 0 0 -2.09651,-2.45515 11.260544,18.392233 0 0 1 -0.92398,22.81618 11.260544,18.392233 0 0 1 -0.3855,0.64648 11.260544,18.392233 0 0 0 -2.73575,-21.00751 11.260544,18.392233 0 0 0 -2.09703,-2.45515 11.260544,18.392233 0 0 1 -0.92398,22.81618 11.260544,18.392233 0 0 1 -0.3855,0.64648 11.260544,18.392233 0 0 0 -2.73575,-21.00751 11.260544,18.392233 0 0 0 -2.09703,-2.45515 z m 202.48738,0.002 a 11.260544,18.392233 0 0 1 1.3358,4.24781 v -2.79621 a 11.260544,18.392233 0 0 0 -1.3358,-1.4516 z" />
    </g>
  </g>
</svg>
