<?xml version="1.0" encoding="UTF-8" standalone="no"?><!--Created with Inkscape (http://www.inkscape.org/)--><svg width="100" height="50" viewBox="0 0 26.458333 13.229167" version="1.1" id="svg314" xmlns="http://www.w3.org/2000/svg" xmlns:svg="http://www.w3.org/2000/svg"><defs id="defs311"/><g id="layer1"><g id="g17685" transform="translate(0,1.038312)"><path id="path659" style="fill:#5d8094;fill-opacity:1;stroke-width:0.0144726;paint-order:markers stroke fill" d="M 0.34054769,7.560454 C 0.14570898,7.5619908 0,7.7582885 0,7.7582885 v 2.18334 h 13.229167 13.229166 v -2.18334 c 0,0 -0.33073,0.4452975 -0.661458,0 -0.33073,-0.4452975 -0.661458,0 -0.661458,0 0,0 -0.33073,0.4452975 -0.661459,0 -0.330728,-0.4452975 -0.661458,0 -0.661458,0 0,0 -0.330731,0.4452975 -0.661458,0 -0.330729,-0.4452975 -0.661459,0 -0.661459,0 0,0 -0.33073,0.4452975 -0.661458,0 -0.330729,-0.4452975 -0.661458,0 -0.661458,0 0,0 -0.330729,0.4452975 -0.661459,0 -0.330727,-0.4452975 -0.661458,0 -0.661458,0 0,0 -0.330731,0.4452975 -0.661458,0 -0.330728,-0.4452975 -0.661459,0 -0.661459,0 0,0 -0.33073,0.4452975 -0.661458,0 -0.330729,-0.4452975 -0.661458,0 -0.661458,0 0,0 -0.33073,0.4452975 -0.661459,0 -0.330727,-0.4452975 -0.661458,0 -0.661458,0 0,0 -0.33073,0.4452975 -0.661458,0 -0.330728,-0.4452975 -0.661459,0 -0.661459,0 0,0 -0.33073,0.4452975 -0.661458,0 C 13.779521,7.6086966 13.66828,7.5596779 13.569714,7.560454 c -0.194837,0.00152 -0.340547,0.1978345 -0.340547,0.1978345 0,0 -0.330731,0.4452975 -0.661459,0 -0.330729,-0.4452975 -0.661458,0 -0.661458,0 0,0 -0.33073,0.4452975 -0.661458,0 -0.330729,-0.4452975 -0.661459,0 -0.661459,0 0,0 -0.33073,0.4452975 -0.6614576,0 -0.330729,-0.4452975 -0.6614587,0 -0.6614587,0 0,0 -0.3307307,0.4452975 -0.6614584,0 -0.3307291,-0.4452975 -0.6614583,0 -0.6614583,0 0,0 -0.3307292,0.4452975 -0.6614583,0 -0.3307277,-0.4452975 -0.6614584,0 -0.6614584,0 0,0 -0.3307306,0.4452975 -0.6614583,0 -0.3307282,-0.4452975 -0.6614583,0 -0.6614583,0 0,0 -0.3307303,0.4452975 -0.6614584,0 -0.3307281,-0.4452975 -0.6614583,0 -0.6614583,0 0,0 -0.3307302,0.4452975 -0.6614583,0 -0.3307282,-0.4452975 -0.6614584,0 -0.6614584,0 0,0 -0.3307301,0.4452975 -0.6614583,0 -0.3307281,-0.4452975 -0.6614583,0 -0.6614583,0 0,0 -0.3307302,0.4452975 -0.6614584,0 C 0.5503543,7.6086966 0.43911316,7.5596779 0.34054769,7.560454 Z"/><path id="path659-5" style="fill:#7999ab;fill-opacity:1;stroke-width:0.0127636;paint-order:markers stroke fill" d="M 0.3405478,8.2863542 C 0.14570909,8.2875389 1.0861412e-7,8.4402255 1.0861412e-7,8.4402255 V 10.138379 H 13.229167 26.458333 V 8.4402255 c 0,0 -0.33073,0.3463425 -0.661458,0 -0.33073,-0.3463425 -0.661458,0 -0.661458,0 0,0 -0.33073,0.3463425 -0.661459,0 -0.330728,-0.3463425 -0.661458,0 -0.661458,0 0,0 -0.330731,0.3463425 -0.661458,0 -0.330729,-0.3463425 -0.661459,0 -0.661459,0 0,0 -0.33073,0.3463425 -0.661458,0 -0.330729,-0.3463425 -0.661458,0 -0.661458,0 0,0 -0.330729,0.3463425 -0.661459,0 -0.330727,-0.3463425 -0.661458,0 -0.661458,0 0,0 -0.330731,0.3463425 -0.661458,0 -0.330728,-0.3463425 -0.661459,0 -0.661459,0 0,0 -0.33073,0.3463425 -0.661458,0 -0.330729,-0.3463425 -0.661458,0 -0.661458,0 0,0 -0.33073,0.3463425 -0.661459,0 -0.330727,-0.3463425 -0.661458,0 -0.661458,0 0,0 -0.33073,0.3463425 -0.661458,0 -0.330728,-0.3463425 -0.661459,0 -0.661459,0 0,0 -0.33073,0.3463425 -0.661458,0 -0.111104,-0.1163493 -0.222345,-0.1544749 -0.320911,-0.1538713 -0.194837,0.00118 -0.340547,0.1538713 -0.340547,0.1538713 0,0 -0.330731,0.3463425 -0.661459,0 -0.330729,-0.3463425 -0.661458,0 -0.661458,0 0,0 -0.33073,0.3463425 -0.661458,0 -0.330729,-0.3463425 -0.661459,0 -0.661459,0 0,0 -0.33073,0.3463425 -0.6614586,0 -0.330728,-0.3463425 -0.6614576,0 -0.6614576,0 0,0 -0.3307307,0.3463425 -0.6614584,0 -0.3307291,-0.3463425 -0.6614583,0 -0.6614583,0 0,0 -0.3307292,0.3463425 -0.6614583,0 -0.3307277,-0.3463425 -0.6614584,0 -0.6614584,0 0,0 -0.3307306,0.3463425 -0.6614583,0 -0.3307282,-0.3463425 -0.6614583,0 -0.6614583,0 0,0 -0.3307303,0.3463425 -0.6614584,0 -0.3307281,-0.3463425 -0.6614583,0 -0.6614583,0 0,0 -0.3307302,0.3463425 -0.6614583,0 -0.3307282,-0.3463425 -0.6614584,0 -0.6614584,0 0,0 -0.3307301,0.3463425 -0.6614583,0 -0.3307281,-0.3463425 -0.6614583,0 -0.6614583,0 0,0 -0.3307302,0.3463425 -0.6614583,0 C 0.5503544,8.3238762 0.43911327,8.2857506 0.3405478,8.2863542 Z"/></g><path id="path17741" style="fill:#f3c878;fill-opacity:1;stroke-width:0.139443;paint-order:markers stroke fill" d="M 25.794291 5.953125 C 20.743185 5.9942193 16.536458 11.244275 16.536458 11.244275 L 9.921875 11.244275 C 9.921875 11.244275 9.9121849 11.243962 3.3072917 7.1101603 C 2.1947076 6.4138279 1.0818693 6.0702662 0 5.9789632 L 0 13.229167 L 26.458333 13.229167 L 26.458333 5.9789632 C 26.235621 5.960169 26.014094 5.9513368 25.794291 5.953125 z "/><path id="path812-6" style="fill:#f7dba7;fill-opacity:1;stroke-width:0.23555;paint-order:markers stroke fill" d="M 12.555306 9.8877686 C 8.708442 9.8958454 4.400392 10.534692 0.089400228 12.412679 L 0 12.412679 L 0 12.451436 L 0 13.229167 L 26.458333 13.229167 L 26.458333 12.533602 L 26.458333 12.412679 L 26.169462 12.412679 C 24.899619 11.896766 19.477298 9.8732353 12.555306 9.8877686 z "/></g></svg>