<?xml version="1.0" encoding="UTF-8" standalone="no"?>
<svg
   version="1.1"
   x="0px"
   y="0px"
   viewBox="0 0 48 48"
   style="enable-background:new 0 0 48 48;"
   xml:space="preserve"
   id="svg1"
   sodipodi:docname="clipboard-to-copy.svg"
   inkscape:version="1.4.2 (ebf0e940, 2025-05-08)"
   xmlns:inkscape="http://www.inkscape.org/namespaces/inkscape"
   xmlns:sodipodi="http://sodipodi.sourceforge.net/DTD/sodipodi-0.dtd"
   xmlns="http://www.w3.org/2000/svg"
   xmlns:svg="http://www.w3.org/2000/svg"><defs
   id="defs1"><inkscape:path-effect
     effect="fillet_chamfer"
     id="path-effect1"
     is_visible="true"
     lpeversion="1"
     nodesatellites_param="F,0,0,1,0,1,0,1 @ F,0,0,1,0,1,0,1 @ F,0,0,1,0,1,0,1 @ F,0,0,1,0,1,0,1 @ F,0,0,1,0,1,0,1 @ F,0,0,1,0,1,0,1 @ F,0,0,1,0,1,0,1"
     radius="1"
     unit="px"
     method="auto"
     mode="F"
     chamfer_steps="1"
     flexible="false"
     use_knot_distance="true"
     apply_no_radius="true"
     apply_with_radius="true"
     only_selected="false"
     hide_knots="false" /></defs><sodipodi:namedview
   id="namedview1"
   pagecolor="#ffffff"
   bordercolor="#000000"
   borderopacity="0.25"
   inkscape:showpageshadow="2"
   inkscape:pageopacity="0.0"
   inkscape:pagecheckerboard="0"
   inkscape:deskcolor="#d1d1d1"
   inkscape:zoom="17.125"
   inkscape:cx="23.386861"
   inkscape:cy="23.737226"
   inkscape:window-width="2368"
   inkscape:window-height="1186"
   inkscape:window-x="0"
   inkscape:window-y="25"
   inkscape:window-maximized="0"
   inkscape:current-layer="svg1" />
<path
   id="polygon1"
   d="m 24.707107,37.292893 7.585786,-7.585786 A 0.41421356,0.41421356 67.5 0 0 32,29 h -3.5 a 1,1 45 0 1 -1,-1 v -8 a 1,1 45 0 0 -1,-1 l -5,0 a 1,1 135 0 0 -1,1 v 8 a 1,1 135 0 1 -1,1 H 16 a 0.41421356,0.41421356 112.5 0 0 -0.292893,0.707107 l 7.585786,7.585786 a 1,1 0 0 0 1.414214,0 z"
   inkscape:path-effect="#path-effect1"
   inkscape:original-d="m 24,38 9,-9 H 27.5 V 19 h -7 V 29 H 15 Z" />
<path
   d="M38,5.5h-9c0-2.8-2.2-5-5-5s-5,2.2-5,5h-9c-2.2,0-4,1.8-4,4v33c0,2.2,1.8,4,4,4h28c2.2,0,4-1.8,4-4v-33  C42,7.3,40.2,5.5,38,5.5z M24,3.5c1.1,0,2,0.9,2,2s-0.9,2-2,2s-2-0.9-2-2S22.9,3.5,24,3.5z M38,42.5H10v-33h5v3c0,0.6,0.4,1,1,1h16  c0.6,0,1-0.4,1-1v-3h5V42.5z"
   id="path1" />
</svg>
