<?xml version="1.0" encoding="UTF-8" standalone="no"?><!--Created with Inkscape (http://www.inkscape.org/)--><svg id="svg11611" version="1.1" viewBox="0 0 122.53188 24.845644" height="24.845644mm" width="122.53188mm" xmlns="http://www.w3.org/2000/svg" xmlns:svg="http://www.w3.org/2000/svg"><defs id="defs11608"/><g id="layer1" transform="translate(-58.678209,-175.09985)"><path id="path435" style="fill:#000000;stroke:none;stroke-width:0.179854" d="m 85.477987,175.09991 c -1.240996,-0.007 -2.493425,0.64038 -3.777031,0.69608 -1.600332,0.0701 -3.101748,-0.45323 -4.6762,-0.52503 -0.785976,-0.036 -2.172249,-0.24141 -2.744019,0.42943 -0.514536,0.60614 -0.476336,2.10983 0.124024,2.64221 1.143676,1.01438 2.880662,0.69446 3.817338,2.14406 1.560222,2.41725 0.707412,7.57717 -0.7059,9.88467 -0.60125,0.98197 -1.288861,2.09746 -2.469617,2.33835 -0.35135,-2.78054 -0.544019,-5.6493 -0.540019,-8.45323 0.0017,-1.10432 0.4913,-2.33819 0.31626,-3.41374 -0.17372,-1.06847 -1.429274,-1.31497 -2.29185,-0.87075 -0.979326,0.50358 -1.340318,1.73204 -1.771468,2.66547 -0.960416,2.08093 -1.551734,4.76286 -3.08715,6.47506 -0.515766,-2.61688 -0.274072,-5.60439 -0.205672,-8.2734 0.02379,-0.92625 0.466936,-2.42605 -0.248564,-3.17965 -0.878936,-0.92622 -2.21114,0.44785 -2.963126,0.92449 -1.702126,1.07371 -6.056319,0.68841 -5.533513,3.69022 0.49746,2.85782 4.664048,-0.85755 5.119068,1.9823 0.507766,3.16722 0.353089,6.67793 0.578259,9.89191 0.08344,1.18882 5.17e-4,3.12004 1.635559,3.21014 1.349456,0.0738 1.751896,-1.07359 2.148706,-2.13114 0.619396,-1.65104 1.444734,-5.08611 3.06648,-5.93504 0.372846,2.00899 0.104531,6.09349 1.816943,7.47655 1.378216,1.1115 3.079897,-0.07 4.124813,-1.03405 2.593678,-2.39566 4.010996,-5.26116 4.952152,-8.60102 0.47668,-1.6924 0.490078,-3.4891 0.218592,-5.21571 -0.10952,-0.69599 -0.890803,-1.57543 -0.668177,-2.27686 0.2295,-0.72302 1.214765,-0.55802 1.785421,-0.63872 1.311856,-0.18702 3.49085,-0.84869 3.52485,-2.47995 0.01742,-0.89751 -0.710733,-1.41865 -1.546159,-1.42265 z m 17.134873,1.14515 c -2.38802,0.0278 -4.659778,0.97889 -6.883303,1.77043 -1.282152,0.45685 -2.664073,0.70165 -3.769279,1.55236 -0.894826,0.68886 -2.102254,2.89001 -0.363802,3.39359 0.891726,0.2572 2.045487,-0.38448 2.874243,-0.68316 0.88506,3.79675 -0.166748,8.90435 -0.607198,12.75323 -0.13004,1.13487 -0.07564,3.70129 1.846399,2.96209 1.334736,-0.51258 1.004749,-3.4207 1.332735,-4.56458 0.64892,-2.26253 3.655245,-2.95506 5.701465,-2.69803 -0.88238,1.55034 -3.421815,1.43906 -4.605407,2.73575 -1.774986,1.94604 0.05856,7.01053 2.986377,6.4332 2.24947,-0.44245 4.31185,-2.67079 5.23379,-4.67258 0.77013,-1.6708 1.04918,-4.00305 3.39928,-3.95635 -0.0144,1.73916 -2.17163,6.48161 0.71933,6.89881 0.81203,0.11688 1.36862,-0.45119 1.66088,-1.14722 0.88255,-2.0971 1.55002,-4.34199 2.42105,-6.47144 0.32769,-0.80038 0.75543,-2.13643 1.85363,-2.03192 0.73938,0.0702 1.69043,0.66149 1.3994,1.49242 -0.75632,2.16544 -4.34572,5.78401 -1.21698,7.7804 1.73413,1.10608 4.89729,-0.0288 6.44146,-1.00717 0.56748,-0.35972 1.70156,-1.84349 2.41846,-1.62936 0.95034,0.28418 0.65377,4.70311 2.96726,2.69234 1.52892,-1.33094 0.91313,-5.82549 0.72916,-7.65638 -0.0878,-0.87588 -0.34091,-2.01633 -1.4087,-2.09703 -1.75324,-0.13489 -3.72466,3.44085 -4.9072,4.53978 -0.31401,0.29136 -2.78247,2.58277 -3.08921,1.62057 -0.22552,-0.70683 1.13651,-1.98206 1.55287,-2.4443 1.1149,-1.23917 2.45591,-2.96981 3.92586,-3.78995 1.0865,-0.60427 2.90509,-0.0323 3.02617,-1.78593 0.26299,-3.82193 -4.71036,-1.75159 -6.08335,-0.52504 -0.45218,0.40289 -0.96685,1.03438 -1.61902,1.08108 -2.01419,0.14569 -2.67915,-3.57931 -4.49585,-3.31505 -1.45482,0.21225 -1.48287,2.17101 -2.57245,2.82567 -0.65538,0.39371 -1.48644,-0.4981 -2.2841,-0.2589 -1.78109,0.53595 -2.93739,2.9603 -4.85603,3.08095 -0.95664,0.0594 -1.8583,-0.98535 -2.87735,-1.08986 0.0363,-1.29853 1.14409,-1.94981 1.91978,-2.87786 1.173,-1.40287 2.68956,-3.64193 2.53576,-5.57537 -0.19709,-2.47835 -2.22956,-3.07013 -4.2757,-3.28765 -0.34611,-0.0369 -0.68929,-0.0515 -1.03043,-0.0475 z m 24.39799,0.87126 c -0.10844,-0.002 -0.22442,0.0109 -0.34675,0.0424 -1.59889,0.41368 -2.70634,2.94986 -3.09593,4.40128 -0.216,0.80395 0.0489,1.91017 1.11776,1.71049 1.46833,-0.27696 3.01109,-3.24666 3.31401,-4.58835 0.17279,-0.76483 -0.23003,-1.55012 -0.98909,-1.5658 z m 3.81734,0.73897 c -0.11435,-0.009 -0.24288,0.005 -0.38654,0.0465 -1.26057,0.36151 -2.75786,2.97108 -2.95796,4.19768 -0.14696,0.90107 0.48054,1.95503 1.51825,1.64744 1.44764,-0.42804 2.44494,-2.61713 2.64377,-3.9858 0.0988,-0.67984 -0.017,-1.84563 -0.81752,-1.90583 z m -26.83609,1.67329 c 0.26802,0.009 0.51357,0.0274 0.72812,0.0527 -0.26205,2.54492 -2.88319,4.85083 -4.6731,6.44611 -0.387916,0.34532 -1.769752,2.11298 -2.336288,1.50327 -0.48563,-0.52338 -0.0076,-2.07363 -0.0036,-2.73368 0.0065,-1.0072 -0.09369,-2.72303 0.492994,-3.57911 0.811356,-1.18162 3.107984,-1.62577 4.929934,-1.68827 0.30346,-0.0104 0.59394,-0.0102 0.86196,-10e-4 z m 33.01711,1.83399 c -0.39935,-0.002 -0.74599,0.0278 -0.9834,0.0961 h -5.2e-4 c -1.34186,0.3849 -0.39729,2.28069 0.23978,2.90835 0.89567,0.87966 2.61339,0.72145 3.70416,0.32039 1.13147,-0.41725 1.66598,-1.84709 0.52245,-2.61327 -0.61307,-0.4113 -2.2844,-0.70559 -3.48247,-0.71159 z m 26.26558,2.06396 c -0.21629,0.005 -0.43122,0.0401 -0.64131,0.11007 -2.52979,0.8435 -4.97896,4.44807 -5.57537,6.83473 -0.32986,1.3201 0.0737,4.13669 -1.79834,4.13669 0,-2.60606 0.67091,-5.03793 0.78859,-7.55406 0.0387,-0.82731 -0.40777,-1.63164 -1.3286,-1.54874 -3.18321,0.28418 -4.01217,4.86174 -6.83421,5.50561 0.51577,-1.62948 0.87486,-3.90272 0.37,-5.57537 -0.35811,-1.18708 -1.50669,-1.76992 -2.50217,-0.84905 -0.97151,0.89746 -0.71858,2.35952 -0.74828,3.54656 -0.0527,2.15643 -0.61715,4.29703 -0.70125,6.47505 -0.0385,0.9964 -0.2358,2.49813 1.06454,2.74454 2.59552,0.48918 4.54761,-3.79698 6.29419,-5.08289 0.62015,2.59883 0.0224,6.32168 3.95686,6.09523 1.02411,-0.0594 1.87967,-1.01057 2.87735,-0.91157 2.29957,0.23024 3.60282,1.20469 5.93555,-0.0615 1.24099,-0.67084 2.26596,-1.5734 3.22099,-2.60397 0.34532,-0.37408 0.86886,-1.37395 1.3994,-1.47846 0.63468,-0.1241 0.46717,0.98551 0.44597,1.29862 -0.10073,1.30035 0.009,4.79841 2.29857,3.56464 0.99654,-0.53778 1.01423,-2.05031 1.29294,-3.02513 0.66188,-2.30755 1.87052,-3.89601 3.03237,-5.93556 1.04135,0.26799 2.03074,0.6928 3.0577,0.96428 1.22659,0.32191 2.45301,-1.02166 1.88825,-2.21588 -1.15101,-2.43883 -6.32162,-5.4656 -7.10395,-1.44591 -0.57194,-0.56831 -0.84205,-1.60376 -1.79886,-1.57406 -1.56835,0.0522 -2.24593,2.12784 -2.99775,3.19257 -1.67082,2.36864 -4.39235,6.42643 -7.43366,7.01456 v -0.17984 c 1.89566,-0.37952 4.83981,-4.61537 5.39554,-6.83472 0.45164,-1.80821 -1.61381,-4.46562 -3.63854,-4.60179 -0.0723,-0.005 -0.14443,-0.006 -0.21652,-0.005 z m -30.0576,1.942 c -0.25891,0.003 -0.52832,0.0683 -0.79168,0.20412 -1.07071,0.55036 -1.24907,1.92431 -1.26607,2.99982 -0.0327,1.95862 -0.19568,3.98415 -0.39068,5.93555 -0.095,0.94963 -0.44814,2.28945 0.58963,2.87218 1.91362,1.07734 4.41541,-1.71034 5.55315,-2.87218 0.33793,-0.34532 1.18006,-1.66377 1.76062,-1.51257 0.48599,0.12767 0.39849,0.96566 0.40049,1.33274 0.009,1.30752 -0.16895,3.93526 1.97042,3.31298 0.9852,-0.28597 1.07406,-1.36528 1.08676,-2.23398 0.0293,-2.40641 0.25729,-4.78972 0.38343,-7.19439 0.047,-0.89204 0.12307,-2.07525 -0.93069,-2.39727 -1.09226,-0.33453 -2.14884,0.59709 -2.8391,1.3255 -1.45302,1.53234 -2.63554,4.04302 -4.52686,5.02864 h -5.1e-4 c -0.34031,-1.76977 0.86065,-3.59161 0.58963,-5.39554 -0.13058,-0.8686 -0.81183,-1.4156 -1.58854,-1.4056 z m 29.51138,1.92288 c 0.0684,0.004 0.13824,0.0215 0.20929,0.0548 0.59522,0.27874 0.34864,1.14708 0.14004,1.58595 -0.55397,1.16007 -1.69411,2.87428 -2.96209,3.23753 -0.15775,-1.44965 0.72524,-2.78602 1.50688,-3.95687 0.19424,-0.2873 0.51689,-0.78107 0.90589,-0.89762 0.0648,-0.0195 0.13164,-0.0281 0.19999,-0.0238 z m -79.221522,5.29425 c -0.06267,5.9e-4 -0.125968,0.006 -0.189653,0.0176 -3.078008,0.54135 -1.348078,5.95865 1.079004,5.42448 2.34661,-0.5193 1.136362,-5.14694 -0.703316,-5.42861 -0.06132,-0.009 -0.123368,-0.014 -0.186035,-0.0134 z m 18.289322,2.60966 c 0.12061,1.6e-4 0.25542,0.0103 0.40618,0.0326 -0.71605,2.08325 -2.02587,0.24771 -0.72606,-0.005 0.0928,-0.0179 0.19927,-0.0276 0.31988,-0.0274 z"/></g></svg>