<?xml version="1.0" encoding="UTF-8" standalone="no"?>
<!-- Created with Inkscape (http://www.inkscape.org/) -->

<svg
   viewBox="0 0 28.346243 22.964888"
   version="1.1"
   id="svg13880"
   inkscape:version="1.2.2 (b0a84865, 2022-12-01)"
   sodipodi:docname="favicon.svg"
   xmlns:inkscape="http://www.inkscape.org/namespaces/inkscape"
   xmlns:sodipodi="http://sodipodi.sourceforge.net/DTD/sodipodi-0.dtd"
   xmlns="http://www.w3.org/2000/svg"
   xmlns:svg="http://www.w3.org/2000/svg">
  <sodipodi:namedview
     id="namedview13882"
     pagecolor="#ffffff"
     bordercolor="#000000"
     borderopacity="0.25"
     inkscape:showpageshadow="2"
     inkscape:pageopacity="0.0"
     inkscape:pagecheckerboard="0"
     inkscape:deskcolor="#d1d1d1"
     inkscape:document-units="mm"
     showgrid="false"
     inkscape:zoom="0.2102413"
     inkscape:cx="-147.44962"
     inkscape:cy="-171.23182"
     inkscape:window-width="1344"
     inkscape:window-height="456"
     inkscape:window-x="0"
     inkscape:window-y="38"
     inkscape:window-maximized="0"
     inkscape:current-layer="layer1" />
  <defs
     id="defs13877" />
  <g
     inkscape:label="Ebene 1"
     inkscape:groupmode="layer"
     id="layer1">
    <path
       d="M 26.7998 -3e-05 C 25.5588 -0.00703 24.3064 0.64035 23.0228 0.69605 C 21.4224 0.76615 19.921 0.24282 18.3466 0.17102 C 17.5606 0.13502 16.1743 -0.07039 15.6026 0.60045 C 15.088 1.20659 15.1262 2.71028 15.7266 3.24266 C 16.8703 4.25704 18.6072 3.93712 19.5439 5.38672 C 21.1041 7.80397 20.2513 12.9639 18.838 15.2714 C 18.2368 16.2534 17.5492 17.3689 16.3684 17.6097 C 16.0171 14.8292 15.8244 11.9604 15.8284 9.15651 C 15.8301 8.05219 16.3197 6.81832 16.1446 5.74277 C 15.9709 4.6743 14.7154 4.4278 13.8528 4.87202 C 12.8735 5.3756 12.5125 6.60406 12.0813 7.53749 C 11.1209 9.61842 10.5296 12.3004 8.99418 14.0126 C 8.47841 11.3957 8.72011 8.40816 8.78851 5.73915 C 8.8123 4.8129 9.25544 3.3131 8.53994 2.5595 C 7.66101 1.63328 6.3288 3.00735 5.57681 3.48399 C 3.87469 4.5577 -0.479504 4.1724 0.043302 7.17421 C 0.540762 10.032 4.70735 6.31666 5.16237 9.15651 C 5.67014 12.3237 5.51546 15.8344 5.74063 19.0484 C 5.82407 20.2372 5.74115 22.1685 7.37619 22.2586 C 8.72564 22.3324 9.12808 21.185 9.52489 20.1274 C 10.1443 18.4764 10.9696 15.0413 12.5914 14.1924 C 12.9642 16.2014 12.6959 20.2859 14.4083 21.6689 C 15.7865 22.7804 17.4882 21.5989 18.5331 20.6349 C 21.1268 18.2392 22.5441 15.3737 23.4853 12.0339 C 23.962 10.3415 23.9754 8.54476 23.7039 6.81815 C 23.5944 6.12216 22.8131 5.24272 23.0357 4.54129 C 23.2652 3.81827 24.2505 3.98327 24.8211 3.90257 C 26.133 3.71555 28.312 3.05388 28.346 1.42262 C 28.3634 0.52511 27.6352 0.00397 26.7998 -3e-05 Z M 24.8289 17.4857 C 24.7662 17.4863 24.7029 17.4917 24.6392 17.5033 C 21.5612 18.0447 23.2911 23.462 25.7182 22.9278 C 28.0648 22.4085 26.8546 17.7809 25.0149 17.4992 C 24.9536 17.4902 24.8915 17.4852 24.8289 17.4858 Z"
       style="fill:#000000;stroke:none;stroke-width:0.179854"
       id="path13875" />
  </g>
</svg>
