<?xml version="1.0" encoding="UTF-8" standalone="no"?>
<!-- Generator: Adobe Illustrator 18.0.0, SVG Export Plug-In . SVG Version: 6.00 Build 0)  -->

<svg
   version="1.1"
   id="Capa_1"
   x="0px"
   y="0px"
   viewBox="0 0 131.88827 402.69638"
   xml:space="preserve"
   sodipodi:docname="paper-clip-part.svg"
   width="131.88828"
   height="402.69638"
   inkscape:version="1.2.2 (b0a84865, 2022-12-01)"
   xmlns:inkscape="http://www.inkscape.org/namespaces/inkscape"
   xmlns:sodipodi="http://sodipodi.sourceforge.net/DTD/sodipodi-0.dtd"
   xmlns="http://www.w3.org/2000/svg"
   xmlns:svg="http://www.w3.org/2000/svg"><defs
   id="defs392" /><sodipodi:namedview
   id="namedview390"
   pagecolor="#ffffff"
   bordercolor="#000000"
   borderopacity="0.25"
   inkscape:showpageshadow="2"
   inkscape:pageopacity="0.0"
   inkscape:pagecheckerboard="0"
   inkscape:deskcolor="#d1d1d1"
   showgrid="false"
   inkscape:zoom="0.71387303"
   inkscape:cx="-11.206475"
   inkscape:cy="186.30764"
   inkscape:window-width="1344"
   inkscape:window-height="456"
   inkscape:window-x="0"
   inkscape:window-y="38"
   inkscape:window-maximized="0"
   inkscape:current-layer="g357" />
<g
   id="g357"
   transform="translate(-95.269364,35.981796)">
	<g
   id="g355"
   transform="rotate(134.60469,166.09223,167.52855)">
		
	</g><path
   id="path353"
   d="m 15.619849,304.77699 c 9.503991,9.505 21.887169,15.03493 34.866156,15.57493 0.698999,0.028 1.396306,0.0434 2.089306,0.0434 12.409987,0 23.842816,-4.63602 32.383808,-13.17601 l 2.642318,-2.64177 -10.534541,-10.68092 -2.714647,2.71585 c -6.014994,6.018 -14.269933,9.10087 -23.244924,8.75187 -9.20899,-0.382 -18.043253,-4.35861 -24.879246,-11.19561 C 12.287093,280.22777 11.186738,258.63798 23.782725,246.044 L 232.18825,37.638831 c 8.521,-8.522992 20.19461,-12.932272 32.8646,-12.399272 12.90599,0.536999 25.27899,6.094842 34.83798,15.654833 9.55999,9.56099 15.12185,21.933975 15.65885,34.839962 0.528,12.670988 -3.87817,24.344126 -12.40116,32.866126 L 146.10416,265.64607 c -2.92799,2.93 -2.92799,7.67824 1e-5,10.60824 2.931,2.928 7.67885,2.92836 10.60684,0.001 L 313.754,119.20869 C 325.27899,107.6837 331.23914,92.025041 330.53615,75.114058 329.84515,58.438074 322.72703,42.5179 310.49904,30.288913 298.27105,18.061925 282.35292,10.945015 265.67693,10.252015 248.77795,9.5490161 233.10298,15.510375 221.57999,27.033363 L 13.175855,235.43716 C 4.1578643,244.45615 -0.50496806,256.69976 0.04403139,269.91275 0.58503085,282.89073 6.115859,295.273 15.619849,304.77699 Z"
   transform="rotate(134.60469,166.09223,167.52855)" />
</g>
<g
   id="g359"
   transform="translate(-95.269364,35.981796)">
</g>
<g
   id="g361"
   transform="translate(-95.269364,35.981796)">
</g>
<g
   id="g363"
   transform="translate(-95.269364,35.981796)">
</g>
<g
   id="g365"
   transform="translate(-95.269364,35.981796)">
</g>
<g
   id="g367"
   transform="translate(-95.269364,35.981796)">
</g>
<g
   id="g369"
   transform="translate(-95.269364,35.981796)">
</g>
<g
   id="g371"
   transform="translate(-95.269364,35.981796)">
</g>
<g
   id="g373"
   transform="translate(-95.269364,35.981796)">
</g>
<g
   id="g375"
   transform="translate(-95.269364,35.981796)">
</g>
<g
   id="g377"
   transform="translate(-95.269364,35.981796)">
</g>
<g
   id="g379"
   transform="translate(-95.269364,35.981796)">
</g>
<g
   id="g381"
   transform="translate(-95.269364,35.981796)">
</g>
<g
   id="g383"
   transform="translate(-95.269364,35.981796)">
</g>
<g
   id="g385"
   transform="translate(-95.269364,35.981796)">
</g>
<g
   id="g387"
   transform="translate(-95.269364,35.981796)">
</g>
</svg>
