<svg width="45mm" height="45mm" version="1.1" viewBox="0 0 45 45" back_color="white" xmlns="http://www.w3.org/2000/svg" style="background-color: white;"><path d="M4,4H5V5H4zM5,4H6V5H5zM6,4H7V5H6zM7,4H8V5H7zM8,4H9V5H8zM9,4H10V5H9zM10,4H11V5H10zM12,4H13V5H12zM13,4H14V5H13zM15,4H16V5H15zM16,4H17V5H16zM18,4H19V5H18zM20,4H21V5H20zM21,4H22V5H21zM22,4H23V5H22zM23,4H24V5H23zM25,4H26V5H25zM27,4H28V5H27zM28,4H29V5H28zM30,4H31V5H30zM34,4H35V5H34zM35,4H36V5H35zM36,4H37V5H36zM37,4H38V5H37zM38,4H39V5H38zM39,4H40V5H39zM40,4H41V5H40zM4,5H5V6H4zM10,5H11V6H10zM12,5H13V6H12zM14,5H15V6H14zM15,5H16V6H15zM18,5H19V6H18zM20,5H21V6H20zM24,5H25V6H24zM25,5H26V6H25zM29,5H30V6H29zM34,5H35V6H34zM40,5H41V6H40zM4,6H5V7H4zM6,6H7V7H6zM7,6H8V7H7zM8,6H9V7H8zM10,6H11V7H10zM12,6H13V7H12zM14,6H15V7H14zM15,6H16V7H15zM17,6H18V7H17zM18,6H19V7H18zM20,6H21V7H20zM22,6H23V7H22zM24,6H25V7H24zM25,6H26V7H25zM26,6H27V7H26zM28,6H29V7H28zM29,6H30V7H29zM30,6H31V7H30zM31,6H32V7H31zM34,6H35V7H34zM36,6H37V7H36zM37,6H38V7H37zM38,6H39V7H38zM40,6H41V7H40zM4,7H5V8H4zM6,7H7V8H6zM7,7H8V8H7zM8,7H9V8H8zM10,7H11V8H10zM14,7H15V8H14zM15,7H16V8H15zM21,7H22V8H21zM22,7H23V8H22zM23,7H24V8H23zM25,7H26V8H25zM26,7H27V8H26zM29,7H30V8H29zM32,7H33V8H32zM34,7H35V8H34zM36,7H37V8H36zM37,7H38V8H37zM38,7H39V8H38zM40,7H41V8H40zM4,8H5V9H4zM6,8H7V9H6zM7,8H8V9H7zM8,8H9V9H8zM10,8H11V9H10zM12,8H13V9H12zM13,8H14V9H13zM14,8H15V9H14zM18,8H19V9H18zM21,8H22V9H21zM22,8H23V9H22zM23,8H24V9H23zM26,8H27V9H26zM29,8H30V9H29zM30,8H31V9H30zM32,8H33V9H32zM34,8H35V9H34zM36,8H37V9H36zM37,8H38V9H37zM38,8H39V9H38zM40,8H41V9H40zM4,9H5V10H4zM10,9H11V10H10zM13,9H14V10H13zM14,9H15V10H14zM19,9H20V10H19zM21,9H22V10H21zM22,9H23V10H22zM25,9H26V10H25zM27,9H28V10H27zM32,9H33V10H32zM34,9H35V10H34zM40,9H41V10H40zM4,10H5V11H4zM5,10H6V11H5zM6,10H7V11H6zM7,10H8V11H7zM8,10H9V11H8zM9,10H10V11H9zM10,10H11V11H10zM12,10H13V11H12zM14,10H15V11H14zM16,10H17V11H16zM18,10H19V11H18zM20,10H21V11H20zM22,10H23V11H22zM24,10H25V11H24zM26,10H27V11H26zM28,10H29V11H28zM30,10H31V11H30zM32,10H33V11H32zM34,10H35V11H34zM35,10H36V11H35zM36,10H37V11H36zM37,10H38V11H37zM38,10H39V11H38zM39,10H40V11H39zM40,10H41V11H40zM15,11H16V12H15zM16,11H17V12H16zM17,11H18V12H17zM18,11H19V12H18zM19,11H20V12H19zM24,11H25V12H24zM25,11H26V12H25zM29,11H30V12H29zM32,11H33V12H32zM4,12H5V13H4zM7,12H8V13H7zM8,12H9V13H8zM9,12H10V13H9zM10,12H11V13H10zM11,12H12V13H11zM12,12H13V13H12zM13,12H14V13H13zM14,12H15V13H14zM19,12H20V13H19zM20,12H21V13H20zM22,12H23V13H22zM23,12H24V13H23zM24,12H25V13H24zM25,12H26V13H25zM27,12H28V13H27zM28,12H29V13H28zM30,12H31V13H30zM33,12H34V13H33zM36,12H37V13H36zM38,12H39V13H38zM39,12H40V13H39zM40,12H41V13H40zM4,13H5V14H4zM8,13H9V14H8zM12,13H13V14H12zM14,13H15V14H14zM18,13H19V14H18zM21,13H22V14H21zM24,13H25V14H24zM25,13H26V14H25zM26,13H27V14H26zM30,13H31V14H30zM31,13H32V14H31zM33,13H34V14H33zM36,13H37V14H36zM38,13H39V14H38zM39,13H40V14H39zM4,14H5V15H4zM6,14H7V15H6zM9,14H10V15H9zM10,14H11V15H10zM11,14H12V15H11zM12,14H13V15H12zM13,14H14V15H13zM15,14H16V15H15zM16,14H17V15H16zM17,14H18V15H17zM18,14H19V15H18zM25,14H26V15H25zM28,14H29V15H28zM30,14H31V15H30zM31,14H32V15H31zM33,14H34V15H33zM35,14H36V15H35zM38,14H39V15H38zM40,14H41V15H40zM4,15H5V16H4zM6,15H7V16H6zM7,15H8V16H7zM8,15H9V16H8zM9,15H10V16H9zM14,15H15V16H14zM16,15H17V16H16zM17,15H18V16H17zM19,15H20V16H19zM21,15H22V16H21zM26,15H27V16H26zM30,15H31V16H30zM31,15H32V16H31zM33,15H34V16H33zM34,15H35V16H34zM38,15H39V16H38zM39,15H40V16H39zM40,15H41V16H40zM4,16H5V17H4zM6,16H7V17H6zM8,16H9V17H8zM10,16H11V17H10zM14,16H15V17H14zM15,16H16V17H15zM20,16H21V17H20zM23,16H24V17H23zM28,16H29V17H28zM32,16H33V17H32zM34,16H35V17H34zM37,16H38V17H37zM40,16H41V17H40zM5,17H6V18H5zM9,17H10V18H9zM12,17H13V18H12zM14,17H15V18H14zM16,17H17V18H16zM17,17H18V18H17zM19,17H20V18H19zM20,17H21V18H20zM21,17H22V18H21zM22,17H23V18H22zM27,17H28V18H27zM28,17H29V18H28zM30,17H31V18H30zM31,17H32V18H31zM32,17H33V18H32zM36,17H37V18H36zM37,17H38V18H37zM39,17H40V18H39zM4,18H5V19H4zM5,18H6V19H5zM6,18H7V19H6zM9,18H10V19H9zM10,18H11V19H10zM12,18H13V19H12zM13,18H14V19H13zM15,18H16V19H15zM16,18H17V19H16zM17,18H18V19H17zM19,18H20V19H19zM21,18H22V19H21zM23,18H24V19H23zM24,18H25V19H24zM25,18H26V19H25zM26,18H27V19H26zM28,18H29V19H28zM30,18H31V19H30zM31,18H32V19H31zM36,18H37V19H36zM37,18H38V19H37zM38,18H39V19H38zM39,18H40V19H39zM40,18H41V19H40zM4,19H5V20H4zM8,19H9V20H8zM9,19H10V20H9zM11,19H12V20H11zM12,19H13V20H12zM13,19H14V20H13zM15,19H16V20H15zM16,19H17V20H16zM19,19H20V20H19zM20,19H21V20H20zM21,19H22V20H21zM22,19H23V20H22zM24,19H25V20H24zM27,19H28V20H27zM28,19H29V20H28zM30,19H31V20H30zM32,19H33V20H32zM34,19H35V20H34zM35,19H36V20H35zM37,19H38V20H37zM38,19H39V20H38zM39,19H40V20H39zM40,19H41V20H40zM4,20H5V21H4zM7,20H8V21H7zM8,20H9V21H8zM9,20H10V21H9zM10,20H11V21H10zM11,20H12V21H11zM12,20H13V21H12zM16,20H17V21H16zM17,20H18V21H17zM19,20H20V21H19zM20,20H21V21H20zM21,20H22V21H21zM24,20H25V21H24zM25,20H26V21H25zM27,20H28V21H27zM29,20H30V21H29zM33,20H34V21H33zM34,20H35V21H34zM35,20H36V21H35zM38,20H39V21H38zM40,20H41V21H40zM5,21H6V22H5zM6,21H7V22H6zM7,21H8V22H7zM9,21H10V22H9zM11,21H12V22H11zM12,21H13V22H12zM14,21H15V22H14zM16,21H17V22H16zM17,21H18V22H17zM18,21H19V22H18zM20,21H21V22H20zM22,21H23V22H22zM24,21H25V22H24zM27,21H28V22H27zM28,21H29V22H28zM31,21H32V22H31zM33,21H34V22H33zM35,21H36V22H35zM37,21H38V22H37zM4,22H5V23H4zM5,22H6V23H5zM6,22H7V23H6zM7,22H8V23H7zM9,22H10V23H9zM10,22H11V23H10zM11,22H12V23H11zM16,22H17V23H16zM17,22H18V23H17zM18,22H19V23H18zM19,22H20V23H19zM21,22H22V23H21zM24,22H25V23H24zM25,22H26V23H25zM26,22H27V23H26zM27,22H28V23H27zM30,22H31V23H30zM31,22H32V23H31zM36,22H37V23H36zM40,22H41V23H40zM4,23H5V24H4zM9,23H10V24H9zM11,23H12V24H11zM13,23H14V24H13zM14,23H15V24H14zM15,23H16V24H15zM17,23H18V24H17zM18,23H19V24H18zM22,23H23V24H22zM26,23H27V24H26zM28,23H29V24H28zM29,23H30V24H29zM30,23H31V24H30zM36,23H37V24H36zM37,23H38V24H37zM40,23H41V24H40zM5,24H6V25H5zM7,24H8V25H7zM10,24H11V25H10zM12,24H13V25H12zM16,24H17V25H16zM18,24H19V25H18zM19,24H20V25H19zM20,24H21V25H20zM21,24H22V25H21zM26,24H27V25H26zM30,24H31V25H30zM32,24H33V25H32zM34,24H35V25H34zM35,24H36V25H35zM36,24H37V25H36zM37,24H38V25H37zM4,25H5V26H4zM8,25H9V26H8zM13,25H14V26H13zM15,25H16V26H15zM17,25H18V26H17zM19,25H20V26H19zM22,25H23V26H22zM23,25H24V26H23zM25,25H26V26H25zM26,25H27V26H26zM27,25H28V26H27zM31,25H32V26H31zM36,25H37V26H36zM38,25H39V26H38zM4,26H5V27H4zM6,26H7V27H6zM7,26H8V27H7zM10,26H11V27H10zM14,26H15V27H14zM15,26H16V27H15zM16,26H17V27H16zM17,26H18V27H17zM18,26H19V27H18zM19,26H20V27H19zM20,26H21V27H20zM21,26H22V27H21zM22,26H23V27H22zM26,26H27V27H26zM27,26H28V27H27zM29,26H30V27H29zM31,26H32V27H31zM32,26H33V27H32zM35,26H36V27H35zM37,26H38V27H37zM40,26H41V27H40zM6,27H7V28H6zM8,27H9V28H8zM11,27H12V28H11zM13,27H14V28H13zM14,27H15V28H14zM16,27H17V28H16zM17,27H18V28H17zM18,27H19V28H18zM19,27H20V28H19zM20,27H21V28H20zM21,27H22V28H21zM23,27H24V28H23zM24,27H25V28H24zM25,27H26V28H25zM26,27H27V28H26zM27,27H28V28H27zM30,27H31V28H30zM31,27H32V28H31zM35,27H36V28H35zM36,27H37V28H36zM37,27H38V28H37zM38,27H39V28H38zM39,27H40V28H39zM40,27H41V28H40zM4,28H5V29H4zM5,28H6V29H5zM6,28H7V29H6zM7,28H8V29H7zM10,28H11V29H10zM11,28H12V29H11zM12,28H13V29H12zM14,28H15V29H14zM15,28H16V29H15zM17,28H18V29H17zM19,28H20V29H19zM20,28H21V29H20zM21,28H22V29H21zM22,28H23V29H22zM25,28H26V29H25zM27,28H28V29H27zM28,28H29V29H28zM30,28H31V29H30zM31,28H32V29H31zM32,28H33V29H32zM34,28H35V29H34zM35,28H36V29H35zM39,28H40V29H39zM40,28H41V29H40zM4,29H5V30H4zM5,29H6V30H5zM8,29H9V30H8zM9,29H10V30H9zM12,29H13V30H12zM13,29H14V30H13zM14,29H15V30H14zM15,29H16V30H15zM18,29H19V30H18zM20,29H21V30H20zM23,29H24V30H23zM24,29H25V30H24zM25,29H26V30H25zM29,29H30V30H29zM31,29H32V30H31zM32,29H33V30H32zM33,29H34V30H33zM36,29H37V30H36zM37,29H38V30H37zM4,30H5V31H4zM5,30H6V31H5zM6,30H7V31H6zM9,30H10V31H9zM10,30H11V31H10zM11,30H12V31H11zM13,30H14V31H13zM14,30H15V31H14zM16,30H17V31H16zM17,30H18V31H17zM20,30H21V31H20zM22,30H23V31H22zM23,30H24V31H23zM24,30H25V31H24zM27,30H28V31H27zM28,30H29V31H28zM31,30H32V31H31zM33,30H34V31H33zM35,30H36V31H35zM36,30H37V31H36zM37,30H38V31H37zM38,30H39V31H38zM39,30H40V31H39zM40,30H41V31H40zM4,31H5V32H4zM7,31H8V32H7zM8,31H9V32H8zM14,31H15V32H14zM15,31H16V32H15zM17,31H18V32H17zM18,31H19V32H18zM19,31H20V32H19zM24,31H25V32H24zM26,31H27V32H26zM27,31H28V32H27zM30,31H31V32H30zM32,31H33V32H32zM33,31H34V32H33zM34,31H35V32H34zM35,31H36V32H35zM37,31H38V32H37zM38,31H39V32H38zM39,31H40V32H39zM4,32H5V33H4zM6,32H7V33H6zM10,32H11V33H10zM13,32H14V33H13zM15,32H16V33H15zM16,32H17V33H16zM20,32H21V33H20zM24,32H25V33H24zM26,32H27V33H26zM28,32H29V33H28zM29,32H30V33H29zM31,32H32V33H31zM32,32H33V33H32zM33,32H34V33H33zM34,32H35V33H34zM35,32H36V33H35zM36,32H37V33H36zM38,32H39V33H38zM12,33H13V34H12zM13,33H14V34H13zM15,33H16V34H15zM16,33H17V34H16zM17,33H18V34H17zM18,33H19V34H18zM19,33H20V34H19zM22,33H23V34H22zM23,33H24V34H23zM26,33H27V34H26zM30,33H31V34H30zM31,33H32V34H31zM32,33H33V34H32zM36,33H37V34H36zM38,33H39V34H38zM4,34H5V35H4zM5,34H6V35H5zM6,34H7V35H6zM7,34H8V35H7zM8,34H9V35H8zM9,34H10V35H9zM10,34H11V35H10zM12,34H13V35H12zM13,34H14V35H13zM15,34H16V35H15zM17,34H18V35H17zM19,34H20V35H19zM20,34H21V35H20zM23,34H24V35H23zM25,34H26V35H25zM26,34H27V35H26zM27,34H28V35H27zM28,34H29V35H28zM30,34H31V35H30zM32,34H33V35H32zM34,34H35V35H34zM36,34H37V35H36zM40,34H41V35H40zM4,35H5V36H4zM10,35H11V36H10zM12,35H13V36H12zM15,35H16V36H15zM17,35H18V36H17zM18,35H19V36H18zM20,35H21V36H20zM21,35H22V36H21zM22,35H23V36H22zM23,35H24V36H23zM26,35H27V36H26zM27,35H28V36H27zM29,35H30V36H29zM30,35H31V36H30zM31,35H32V36H31zM32,35H33V36H32zM36,35H37V36H36zM39,35H40V36H39zM40,35H41V36H40zM4,36H5V37H4zM6,36H7V37H6zM7,36H8V37H7zM8,36H9V37H8zM10,36H11V37H10zM12,36H13V37H12zM13,36H14V37H13zM16,36H17V37H16zM18,36H19V37H18zM19,36H20V37H19zM23,36H24V37H23zM25,36H26V37H25zM26,36H27V37H26zM27,36H28V37H27zM28,36H29V37H28zM31,36H32V37H31zM32,36H33V37H32zM33,36H34V37H33zM34,36H35V37H34zM35,36H36V37H35zM36,36H37V37H36zM40,36H41V37H40zM4,37H5V38H4zM6,37H7V38H6zM7,37H8V38H7zM8,37H9V38H8zM10,37H11V38H10zM12,37H13V38H12zM14,37H15V38H14zM16,37H17V38H16zM20,37H21V38H20zM21,37H22V38H21zM22,37H23V38H22zM28,37H29V38H28zM30,37H31V38H30zM31,37H32V38H31zM32,37H33V38H32zM34,37H35V38H34zM37,37H38V38H37zM38,37H39V38H38zM39,37H40V38H39zM4,38H5V39H4zM6,38H7V39H6zM7,38H8V39H7zM8,38H9V39H8zM10,38H11V39H10zM13,38H14V39H13zM14,38H15V39H14zM17,38H18V39H17zM18,38H19V39H18zM19,38H20V39H19zM20,38H21V39H20zM23,38H24V39H23zM24,38H25V39H24zM25,38H26V39H25zM26,38H27V39H26zM27,38H28V39H27zM32,38H33V39H32zM33,38H34V39H33zM36,38H37V39H36zM39,38H40V39H39zM40,38H41V39H40zM4,39H5V40H4zM10,39H11V40H10zM13,39H14V40H13zM14,39H15V40H14zM16,39H17V40H16zM18,39H19V40H18zM20,39H21V40H20zM21,39H22V40H21zM22,39H23V40H22zM23,39H24V40H23zM24,39H25V40H24zM26,39H27V40H26zM30,39H31V40H30zM33,39H34V40H33zM34,39H35V40H34zM36,39H37V40H36zM37,39H38V40H37zM38,39H39V40H38zM39,39H40V40H39zM40,39H41V40H40zM4,40H5V41H4zM5,40H6V41H5zM6,40H7V41H6zM7,40H8V41H7zM8,40H9V41H8zM9,40H10V41H9zM10,40H11V41H10zM12,40H13V41H12zM13,40H14V41H13zM15,40H16V41H15zM16,40H17V41H16zM18,40H19V41H18zM19,40H20V41H19zM20,40H21V41H20zM24,40H25V41H24zM28,40H29V41H28zM32,40H33V41H32zM33,40H34V41H33zM34,40H35V41H34zM35,40H36V41H35zM37,40H38V41H37zM40,40H41V41H40z" id="qr-path" fill="#000000" fill-opacity="1" fill-rule="nonzero" stroke="none"/></svg>