<svg width="37mm" height="37mm" version="1.1" viewBox="0 0 37 37" back_color="white" xmlns="http://www.w3.org/2000/svg" style="background-color: white;"><path d="M4,4H5V5H4zM5,4H6V5H5zM6,4H7V5H6zM7,4H8V5H7zM8,4H9V5H8zM9,4H10V5H9zM10,4H11V5H10zM18,4H19V5H18zM23,4H24V5H23zM24,4H25V5H24zM26,4H27V5H26zM27,4H28V5H27zM28,4H29V5H28zM29,4H30V5H29zM30,4H31V5H30zM31,4H32V5H31zM32,4H33V5H32zM4,5H5V6H4zM10,5H11V6H10zM14,5H15V6H14zM15,5H16V6H15zM18,5H19V6H18zM19,5H20V6H19zM20,5H21V6H20zM21,5H22V6H21zM22,5H23V6H22zM24,5H25V6H24zM26,5H27V6H26zM32,5H33V6H32zM4,6H5V7H4zM6,6H7V7H6zM7,6H8V7H7zM8,6H9V7H8zM10,6H11V7H10zM12,6H13V7H12zM13,6H14V7H13zM14,6H15V7H14zM15,6H16V7H15zM18,6H19V7H18zM20,6H21V7H20zM22,6H23V7H22zM24,6H25V7H24zM26,6H27V7H26zM28,6H29V7H28zM29,6H30V7H29zM30,6H31V7H30zM32,6H33V7H32zM4,7H5V8H4zM6,7H7V8H6zM7,7H8V8H7zM8,7H9V8H8zM10,7H11V8H10zM12,7H13V8H12zM14,7H15V8H14zM17,7H18V8H17zM21,7H22V8H21zM22,7H23V8H22zM26,7H27V8H26zM28,7H29V8H28zM29,7H30V8H29zM30,7H31V8H30zM32,7H33V8H32zM4,8H5V9H4zM6,8H7V9H6zM7,8H8V9H7zM8,8H9V9H8zM10,8H11V9H10zM12,8H13V9H12zM14,8H15V9H14zM17,8H18V9H17zM21,8H22V9H21zM22,8H23V9H22zM23,8H24V9H23zM24,8H25V9H24zM26,8H27V9H26zM28,8H29V9H28zM29,8H30V9H29zM30,8H31V9H30zM32,8H33V9H32zM4,9H5V10H4zM10,9H11V10H10zM12,9H13V10H12zM13,9H14V10H13zM16,9H17V10H16zM17,9H18V10H17zM18,9H19V10H18zM19,9H20V10H19zM26,9H27V10H26zM32,9H33V10H32zM4,10H5V11H4zM5,10H6V11H5zM6,10H7V11H6zM7,10H8V11H7zM8,10H9V11H8zM9,10H10V11H9zM10,10H11V11H10zM12,10H13V11H12zM14,10H15V11H14zM16,10H17V11H16zM18,10H19V11H18zM20,10H21V11H20zM22,10H23V11H22zM24,10H25V11H24zM26,10H27V11H26zM27,10H28V11H27zM28,10H29V11H28zM29,10H30V11H29zM30,10H31V11H30zM31,10H32V11H31zM32,10H33V11H32zM12,11H13V12H12zM13,11H14V12H13zM14,11H15V12H14zM18,11H19V12H18zM20,11H21V12H20zM23,11H24V12H23zM24,11H25V12H24zM4,12H5V13H4zM6,12H7V13H6zM7,12H8V13H7zM8,12H9V13H8zM9,12H10V13H9zM10,12H11V13H10zM13,12H14V13H13zM17,12H18V13H17zM19,12H20V13H19zM20,12H21V13H20zM21,12H22V13H21zM23,12H24V13H23zM26,12H27V13H26zM27,12H28V13H27zM28,12H29V13H28zM29,12H30V13H29zM30,12H31V13H30zM4,13H5V14H4zM5,13H6V14H5zM6,13H7V14H6zM9,13H10V14H9zM13,13H14V14H13zM14,13H15V14H14zM15,13H16V14H15zM16,13H17V14H16zM18,13H19V14H18zM23,13H24V14H23zM24,13H25V14H24zM26,13H27V14H26zM27,13H28V14H27zM28,13H29V14H28zM32,13H33V14H32zM4,14H5V15H4zM5,14H6V15H5zM9,14H10V15H9zM10,14H11V15H10zM11,14H12V15H11zM12,14H13V15H12zM13,14H14V15H13zM14,14H15V15H14zM16,14H17V15H16zM17,14H18V15H17zM19,14H20V15H19zM21,14H22V15H21zM22,14H23V15H22zM24,14H25V15H24zM27,14H28V15H27zM28,14H29V15H28zM4,15H5V16H4zM9,15H10V16H9zM11,15H12V16H11zM14,15H15V16H14zM15,15H16V16H15zM22,15H23V16H22zM24,15H25V16H24zM26,15H27V16H26zM27,15H28V16H27zM29,15H30V16H29zM31,15H32V16H31zM4,16H5V17H4zM5,16H6V17H5zM6,16H7V17H6zM7,16H8V17H7zM8,16H9V17H8zM9,16H10V17H9zM10,16H11V17H10zM12,16H13V17H12zM14,16H15V17H14zM15,16H16V17H15zM17,16H18V17H17zM18,16H19V17H18zM19,16H20V17H19zM20,16H21V17H20zM21,16H22V17H21zM22,16H23V17H22zM24,16H25V17H24zM29,16H30V17H29zM30,16H31V17H30zM4,17H5V18H4zM8,17H9V18H8zM11,17H12V18H11zM12,17H13V18H12zM13,17H14V18H13zM16,17H17V18H16zM21,17H22V18H21zM23,17H24V18H23zM24,17H25V18H24zM25,17H26V18H25zM26,17H27V18H26zM28,17H29V18H28zM32,17H33V18H32zM5,18H6V19H5zM7,18H8V19H7zM9,18H10V19H9zM10,18H11V19H10zM12,18H13V19H12zM15,18H16V19H15zM18,18H19V19H18zM19,18H20V19H19zM20,18H21V19H20zM22,18H23V19H22zM25,18H26V19H25zM26,18H27V19H26zM27,18H28V19H27zM28,18H29V19H28zM29,18H30V19H29zM30,18H31V19H30zM6,19H7V20H6zM11,19H12V20H11zM12,19H13V20H12zM13,19H14V20H13zM15,19H16V20H15zM20,19H21V20H20zM22,19H23V20H22zM23,19H24V20H23zM27,19H28V20H27zM31,19H32V20H31zM4,20H5V21H4zM5,20H6V21H5zM7,20H8V21H7zM9,20H10V21H9zM10,20H11V21H10zM13,20H14V21H13zM15,20H16V21H15zM16,20H17V21H16zM17,20H18V21H17zM21,20H22V21H21zM24,20H25V21H24zM29,20H30V21H29zM30,20H31V21H30zM4,21H5V22H4zM5,21H6V22H5zM8,21H9V22H8zM11,21H12V22H11zM14,21H15V22H14zM15,21H16V22H15zM17,21H18V22H17zM22,21H23V22H22zM23,21H24V22H23zM24,21H25V22H24zM25,21H26V22H25zM26,21H27V22H26zM28,21H29V22H28zM30,21H31V22H30zM32,21H33V22H32zM4,22H5V23H4zM7,22H8V23H7zM8,22H9V23H8zM9,22H10V23H9zM10,22H11V23H10zM11,22H12V23H11zM15,22H16V23H15zM17,22H18V23H17zM18,22H19V23H18zM19,22H20V23H19zM22,22H23V23H22zM26,22H27V23H26zM30,22H31V23H30zM4,23H5V24H4zM6,23H7V24H6zM8,23H9V24H8zM9,23H10V24H9zM11,23H12V24H11zM12,23H13V24H12zM13,23H14V24H13zM18,23H19V24H18zM19,23H20V24H19zM20,23H21V24H20zM23,23H24V24H23zM25,23H26V24H25zM27,23H28V24H27zM31,23H32V24H31zM4,24H5V25H4zM6,24H7V25H6zM8,24H9V25H8zM10,24H11V25H10zM11,24H12V25H11zM12,24H13V25H12zM15,24H16V25H15zM21,24H22V25H21zM22,24H23V25H22zM24,24H25V25H24zM25,24H26V25H25zM26,24H27V25H26zM27,24H28V25H27zM28,24H29V25H28zM30,24H31V25H30zM31,24H32V25H31zM32,24H33V25H32zM12,25H13V26H12zM13,25H14V26H13zM14,25H15V26H14zM15,25H16V26H15zM17,25H18V26H17zM20,25H21V26H20zM21,25H22V26H21zM22,25H23V26H22zM24,25H25V26H24zM28,25H29V26H28zM29,25H30V26H29zM30,25H31V26H30zM31,25H32V26H31zM32,25H33V26H32zM4,26H5V27H4zM5,26H6V27H5zM6,26H7V27H6zM7,26H8V27H7zM8,26H9V27H8zM9,26H10V27H9zM10,26H11V27H10zM15,26H16V27H15zM16,26H17V27H16zM17,26H18V27H17zM18,26H19V27H18zM19,26H20V27H19zM20,26H21V27H20zM21,26H22V27H21zM23,26H24V27H23zM24,26H25V27H24zM26,26H27V27H26zM28,26H29V27H28zM29,26H30V27H29zM30,26H31V27H30zM4,27H5V28H4zM10,27H11V28H10zM12,27H13V28H12zM13,27H14V28H13zM14,27H15V28H14zM16,27H17V28H16zM17,27H18V28H17zM20,27H21V28H20zM22,27H23V28H22zM23,27H24V28H23zM24,27H25V28H24zM28,27H29V28H28zM4,28H5V29H4zM6,28H7V29H6zM7,28H8V29H7zM8,28H9V29H8zM10,28H11V29H10zM12,28H13V29H12zM15,28H16V29H15zM16,28H17V29H16zM18,28H19V29H18zM21,28H22V29H21zM24,28H25V29H24zM25,28H26V29H25zM26,28H27V29H26zM27,28H28V29H27zM28,28H29V29H28zM30,28H31V29H30zM31,28H32V29H31zM32,28H33V29H32zM4,29H5V30H4zM6,29H7V30H6zM7,29H8V30H7zM8,29H9V30H8zM10,29H11V30H10zM12,29H13V30H12zM13,29H14V30H13zM16,29H17V30H16zM17,29H18V30H17zM22,29H23V30H22zM23,29H24V30H23zM29,29H30V30H29zM30,29H31V30H30zM31,29H32V30H31zM32,29H33V30H32zM4,30H5V31H4zM6,30H7V31H6zM7,30H8V31H7zM8,30H9V31H8zM10,30H11V31H10zM12,30H13V31H12zM13,30H14V31H13zM19,30H20V31H19zM20,30H21V31H20zM25,30H26V31H25zM26,30H27V31H26zM27,30H28V31H27zM28,30H29V31H28zM29,30H30V31H29zM30,30H31V31H30zM31,30H32V31H31zM4,31H5V32H4zM10,31H11V32H10zM15,31H16V32H15zM17,31H18V32H17zM19,31H20V32H19zM20,31H21V32H20zM22,31H23V32H22zM24,31H25V32H24zM26,31H27V32H26zM28,31H29V32H28zM29,31H30V32H29zM31,31H32V32H31zM4,32H5V33H4zM5,32H6V33H5zM6,32H7V33H6zM7,32H8V33H7zM8,32H9V33H8zM9,32H10V33H9zM10,32H11V33H10zM12,32H13V33H12zM13,32H14V33H13zM16,32H17V33H16zM18,32H19V33H18zM19,32H20V33H19zM21,32H22V33H21zM23,32H24V33H23zM29,32H30V33H29zM30,32H31V33H30z" id="qr-path" fill="#000000" fill-opacity="1" fill-rule="nonzero" stroke="none"/></svg>