<?xml version="1.0" encoding="UTF-8" standalone="no"?>
<!-- Created with Inkscape (http://www.inkscape.org/) -->

<svg
   width="28.346243mm"
   height="22.964888mm"
   viewBox="0 0 28.346243 22.964888"
   version="1.1"
   id="svg13880"
   inkscape:version="1.2.1 (9c6d41e, 2022-07-14)"
   sodipodi:docname="favicon.svg"
   xmlns:inkscape="http://www.inkscape.org/namespaces/inkscape"
   xmlns:sodipodi="http://sodipodi.sourceforge.net/DTD/sodipodi-0.dtd"
   xmlns="http://www.w3.org/2000/svg"
   xmlns:svg="http://www.w3.org/2000/svg">
  <sodipodi:namedview
     id="namedview13882"
     pagecolor="#ffffff"
     bordercolor="#000000"
     borderopacity="0.25"
     inkscape:showpageshadow="2"
     inkscape:pageopacity="0.0"
     inkscape:pagecheckerboard="0"
     inkscape:deskcolor="#d1d1d1"
     inkscape:document-units="mm"
     showgrid="false"
     inkscape:zoom="0.2102413"
     inkscape:cx="114.15454"
     inkscape:cy="-171.23182"
     inkscape:window-width="1344"
     inkscape:window-height="456"
     inkscape:window-x="0"
     inkscape:window-y="38"
     inkscape:window-maximized="0"
     inkscape:current-layer="layer1" />
  <defs
     id="defs13877" />
  <g
     inkscape:label="Ebene 1"
     inkscape:groupmode="layer"
     id="layer1"
     transform="translate(21.723969,-193.64891)">
    <path
       d="m 5.075808,193.64897 c -1.240996,-0.007 -2.493425,0.64038 -3.777031,0.69608 -1.600332,0.0701 -3.101748,-0.45323 -4.6762,-0.52503 -0.785976,-0.036 -2.172249,-0.24141 -2.744019,0.42943 -0.514536,0.60614 -0.476336,2.10983 0.124024,2.64221 1.143676,1.01438 2.880662,0.69446 3.817338,2.14406 1.560222,2.41725 0.707412,7.57717 -0.7059,9.88467 -0.60125,0.98197 -1.288861,2.09746 -2.469617,2.33835 -0.35135,-2.78054 -0.544019,-5.6493 -0.540019,-8.45323 0.0017,-1.10432 0.4913,-2.33819 0.31626,-3.41374 -0.17372,-1.06847 -1.429274,-1.31497 -2.29185,-0.87075 -0.979326,0.50358 -1.340318,1.73204 -1.771468,2.66547 -0.960416,2.08093 -1.551734,4.76286 -3.087149,6.47506 -0.515766,-2.61688 -0.274072,-5.60439 -0.205672,-8.2734 0.02379,-0.92625 0.466935,-2.42605 -0.248564,-3.17965 -0.878936,-0.92622 -2.21114,0.44785 -2.963126,0.92449 -1.702126,1.07371 -6.056319,0.68841 -5.533513,3.69022 0.49746,2.85782 4.664048,-0.85755 5.119068,1.9823 0.507766,3.16722 0.353089,6.67793 0.578259,9.89191 0.08344,1.18882 5.17e-4,3.12004 1.635559,3.21014 1.349456,0.0738 1.751895,-1.07359 2.148705,-2.13114 0.619396,-1.65104 1.444734,-5.08611 3.06648,-5.93504 0.372846,2.00899 0.104531,6.09349 1.816943,7.47655 1.378216,1.1115 3.079897,-0.07 4.124813,-1.03405 2.593678,-2.39566 4.010996,-5.26116 4.952152,-8.60102 0.47668,-1.6924 0.490078,-3.4891 0.218592,-5.21571 -0.10952,-0.69599 -0.890803,-1.57543 -0.668177,-2.27686 0.2295,-0.72302 1.214765,-0.55802 1.785421,-0.63872 1.311856,-0.18702 3.49085,-0.84869 3.52485,-2.47995 0.01742,-0.89751 -0.710733,-1.41865 -1.546159,-1.42265 z m -1.970939,17.48575 c -0.06267,5.9e-4 -0.125968,0.006 -0.189653,0.0176 -3.078008,0.54135 -1.348078,5.95865 1.079004,5.42448 2.34661,-0.5193 1.136362,-5.14694 -0.703316,-5.42861 -0.06132,-0.009 -0.123368,-0.014 -0.186035,-0.0134 z"
       style="fill:#000000;stroke:none;stroke-width:0.179854"
       id="path13875" />
  </g>
</svg>
