<?xml version="1.0" encoding="UTF-8" standalone="no"?>
<!-- Created with Inkscape (http://www.inkscape.org/) -->

<svg
   width="211.164mm"
   height="53.169998mm"
   viewBox="0 0 211.164 53.169998"
   version="1.1"
   id="svg15316"
   inkscape:version="1.2.1 (9c6d41e, 2022-07-14)"
   sodipodi:docname="footer2.svg"
   xmlns:inkscape="http://www.inkscape.org/namespaces/inkscape"
   xmlns:sodipodi="http://sodipodi.sourceforge.net/DTD/sodipodi-0.dtd"
   xmlns="http://www.w3.org/2000/svg"
   xmlns:svg="http://www.w3.org/2000/svg">
  <sodipodi:namedview
     id="namedview15318"
     pagecolor="#ffffff"
     bordercolor="#000000"
     borderopacity="0.25"
     inkscape:showpageshadow="2"
     inkscape:pageopacity="0.0"
     inkscape:pagecheckerboard="0"
     inkscape:deskcolor="#d1d1d1"
     inkscape:document-units="mm"
     showgrid="false"
     inkscape:zoom="1.1893044"
     inkscape:cx="538.97052"
     inkscape:cy="169.42677"
     inkscape:window-width="1472"
     inkscape:window-height="879"
     inkscape:window-x="0"
     inkscape:window-y="38"
     inkscape:window-maximized="0"
     inkscape:current-layer="layer1"
     showguides="true">
    <sodipodi:guide
       position="61.401438,-8.7616881e-05"
       orientation="0,-1"
       id="guide3616"
       inkscape:locked="false" />
  </sodipodi:namedview>
  <defs
     id="defs15313" />
  <g
     inkscape:label="Ebene 1"
     inkscape:groupmode="layer"
     id="layer1"
     transform="translate(2.1236575,-107.43642)">
    <path
       id="path462-2-6-8"
       style="fill:#5d8094;fill-opacity:1;stroke:none;stroke-width:0.185946;stroke-opacity:1"
       d="m 0.41816543,128.36486 c -1.18690388,0.0118 -2.01993913,0.44197 -2.52231483,0.80615 v 15.31586 h 98.7978154 13.549394 98.79728 v -11.87628 -2.93987 c 0,0 -2.35182,2.93972 -7.05644,0 -1.5437,-0.96458 -2.83425,-1.29574 -3.87141,-1.30586 -2.12373,-0.0207 -3.18558,1.30586 -3.18558,1.30586 0,0 -2.35237,2.93972 -7.05698,0 -1.54371,-0.96458 -2.83425,-1.29574 -3.87142,-1.30586 -2.12374,-0.0207 -3.18557,1.30586 -3.18557,1.30586 0,0 -2.35237,2.93972 -7.05699,0 -1.54371,-0.96458 -2.83423,-1.29574 -3.87142,-1.30586 -2.12374,-0.0207 -3.18557,1.30586 -3.18557,1.30586 0,0 -2.35236,2.93972 -7.05698,0 -1.5437,-0.96458 -2.83425,-1.29574 -3.87142,-1.30586 -0.0332,-3.3e-4 -0.066,-3.3e-4 -0.0987,0 -2.0579,0.0204 -3.08689,1.30586 -3.08689,1.30586 0,0 -2.35237,2.93972 -7.05699,0 -1.54369,-0.96458 -2.83424,-1.29574 -3.87142,-1.30586 -2.12374,-0.0207 -3.18556,1.30586 -3.18556,1.30586 0,0 -2.35237,2.93972 -7.05699,0 -1.5437,-0.96458 -2.83425,-1.29574 -3.87142,-1.30586 -2.12374,-0.0207 -3.18557,1.30586 -3.18557,1.30586 0,0 -2.35237,2.93972 -7.05698,0 -1.54371,-0.96458 -2.83424,-1.29574 -3.87142,-1.30586 -2.12375,-0.0207 -3.18558,1.30586 -3.18558,1.30586 0,0 -2.35235,2.93972 -7.05698,0 -1.5437,-0.96458 -2.83423,-1.29574 -3.871409,-1.30586 -0.03318,-3.3e-4 -0.06597,-3.3e-4 -0.09865,0 -0.0387,3.8e-4 -0.07399,0.004 -0.111914,0.006 -0.08572,0.003 -0.170493,0.006 -0.252512,0.0134 -0.05694,0.005 -0.111944,0.0113 -0.167054,0.0181 -0.07238,0.009 -0.143454,0.0192 -0.21281,0.031 -0.05163,0.009 -0.10232,0.0181 -0.152167,0.0284 -0.07349,0.0151 -0.144687,0.0316 -0.214464,0.0496 -0.0404,0.0105 -0.08101,0.0207 -0.120195,0.032 -0.08291,0.0239 -0.161952,0.0502 -0.239268,0.0775 -0.02015,0.007 -0.0414,0.0133 -0.06115,0.0207 -0.41743,0.1545 -0.741523,0.34914 -0.990736,0.52969 -0.369167,0.26744 -0.564564,0.49971 -0.564564,0.49971 0,0 -2.352373,2.93972 -7.056989,0 -1.54369,-0.96458 -2.834237,-1.29574 -3.871411,-1.30586 -2.12374,-0.0207 -3.185566,1.30586 -3.185566,1.30586 0,0 -2.352374,2.93972 -7.05699,0 -1.5437,-0.96458 -2.834247,-1.29574 -3.871421,-1.30586 -2.123743,-0.0207 -3.185569,1.30586 -3.185569,1.30586 0,0 -2.352373,2.93972 -7.05698,0 -1.54371,-0.96458 -2.834257,-1.29574 -3.871421,-1.30586 -0.03318,-3.3e-4 -0.06607,-3.3e-4 -0.09865,0 -2.057896,0.0204 -3.086879,1.30586 -3.086879,1.30586 0,0 -2.352383,2.93972 -7.056989,0 -1.5437,-0.96458 -2.834247,-1.29574 -3.871421,-1.30586 -2.123743,-0.0207 -3.185569,1.30586 -3.185569,1.30586 0,0 -2.352364,2.93972 -7.05699,0 -1.54369,-0.96458 -2.834237,-1.29574 -3.871411,-1.30586 -2.123743,-0.0207 -3.185569,1.30586 -3.185569,1.30586 0,0 -2.352373,2.93972 -7.05699,0 -1.5437,-0.96458 -2.834237,-1.29574 -3.87142,-1.30586 -2.123733,-0.0207 -3.18557,1.30586 -3.18557,1.30586 0,0 -2.3523633,2.93972 -7.0569798,0 -1.5437099,-0.96458 -2.834247,-1.29574 -3.87142074,-1.30586 -0.0331843,-3.3e-4 -0.0659676,-3.3e-4 -0.0986506,0 z" />
    <path
       id="path462-2-6"
       style="fill:#7999ab;fill-opacity:1;stroke:none;stroke-width:0.185614;stroke-opacity:1"
       d="m 1.163155,133.28185 c -1.18266579,0.0118 -2.01272506,0.44197 -2.5133143,0.80615 v 15.31586 h 98.4450103 13.501019 98.44447 v -11.87628 -2.93987 c 0,0 -2.34342,2.93972 -7.03124,0 -1.53819,-0.96458 -2.82413,-1.29574 -3.85759,-1.30586 -2.11614,-0.0207 -3.1742,1.30586 -3.1742,1.30586 0,0 -2.34397,2.93972 -7.03178,0 -1.5382,-0.96458 -2.82412,-1.29574 -3.85759,-1.30586 -2.11616,-0.0207 -3.1742,1.30586 -3.1742,1.30586 0,0 -2.34397,2.93972 -7.03179,0 -1.53819,-0.96458 -2.82411,-1.29574 -3.85759,-1.30586 -2.11616,-0.0207 -3.1742,1.30586 -3.1742,1.30586 0,0 -2.34396,2.93972 -7.03178,0 -1.53818,-0.96458 -2.82413,-1.29574 -3.85759,-1.30586 -0.0331,-3.3e-4 -0.0657,-3.3e-4 -0.0983,0 -2.05056,0.0204 -3.07586,1.30586 -3.07586,1.30586 0,0 -2.34398,2.93972 -7.03179,0 -1.53818,-0.96458 -2.82413,-1.29574 -3.8576,-1.30586 -2.11616,-0.0207 -3.17418,1.30586 -3.17418,1.30586 0,0 -2.34398,2.93972 -7.03179,0 -1.53819,-0.96458 -2.82414,-1.29574 -3.8576,-1.30586 -2.11616,-0.0207 -3.17419,1.30586 -3.17419,1.30586 0,0 -2.34397,2.93972 -7.03178,0 -1.5382,-0.96458 -2.82413,-1.29574 -3.8576,-1.30586 -2.11617,-0.0207 -3.1742,1.30586 -3.1742,1.30586 0,0 -2.34395,2.93972 -7.03178,0 -1.53819,-0.96458 -2.82411,-1.29574 -3.857586,-1.30586 -0.0331,-3.3e-4 -0.0657,-3.3e-4 -0.0983,0 -0.0386,3.8e-4 -0.0737,0.004 -0.111518,0.006 -0.08541,0.003 -0.169879,0.006 -0.251608,0.0134 -0.05675,0.005 -0.111542,0.0113 -0.166456,0.0181 -0.07218,0.009 -0.142946,0.0192 -0.212052,0.031 -0.05141,0.009 -0.101958,0.0181 -0.151623,0.0284 -0.07321,0.0151 -0.144172,0.0316 -0.213701,0.0496 -0.04027,0.0105 -0.08076,0.0207 -0.11976,0.032 -0.08258,0.0239 -0.161378,0.0502 -0.238421,0.0775 -0.02008,0.007 -0.04129,0.0133 -0.06098,0.0207 -0.415937,0.1545 -0.738871,0.34914 -0.987197,0.52969 -0.367847,0.26744 -0.562542,0.49971 -0.562542,0.49971 0,0 -2.343979,2.93972 -7.031788,0 -1.538185,-0.96458 -2.824122,-1.29574 -3.857593,-1.30586 -2.116153,-0.0207 -3.174193,1.30586 -3.174193,1.30586 0,0 -2.343973,2.93972 -7.031786,0 -1.538191,-0.96458 -2.824123,-1.29574 -3.857594,-1.30586 -2.116162,-0.0207 -3.174193,1.30586 -3.174193,1.30586 0,0 -2.343972,2.93972 -7.031787,0 -1.538196,-0.96458 -2.824132,-1.29574 -3.857593,-1.30586 -0.03307,-3.3e-4 -0.06578,-3.3e-4 -0.09834,0 -2.050548,0.0204 -3.075856,1.30586 -3.075856,1.30586 0,0 -2.343979,2.93972 -7.031787,0 -1.538189,-0.96458 -2.824127,-1.29574 -3.857595,-1.30586 -2.11616,-0.0207 -3.174191,1.30586 -3.174191,1.30586 0,0 -2.343966,2.93972 -7.031786,0 -1.538185,-0.96458 -2.824123,-1.29574 -3.857594,-1.30586 -2.116157,-0.0207 -3.174194,1.30586 -3.174194,1.30586 0,0 -2.343967,2.93972 -7.031786,0 -1.538189,-0.96458 -2.82412,-1.29574 -3.857594,-1.30586 -2.116155,-0.0207 -3.174192,1.30586 -3.174192,1.30586 0,0 -2.343965,2.93972 -7.0317869,0 -1.5381888,-0.96458 -2.82412,-1.29574 -3.8575941,-1.30586 -0.033062,-3.3e-4 -0.065784,-3.3e-4 -0.098335,0 z"
       inkscape:label="path462-2-6" />
    <path
       id="path462-1"
       style="display:inline;fill:#f3c878;fill-opacity:1;stroke:none;stroke-width:1.17026;stroke-opacity:1"
       d="m 73.450541,124.26485 c -15.429621,0.1078 -23.145357,6.90035 -23.145357,6.90035 0,0 -17.471656,15.3771 -52.4092045,0.21601 V 160.6063 H 209.0402 v -29.4411 c -11.5743,-5.09576 -21.2486,-6.84685 -29.0251,-6.90035 -15.92332,-0.10953 -23.8864,6.90035 -23.8864,6.90035 0,0 -17.63736,15.52999 -52.9115,0 -11.5743,-5.09576 -21.24913,-6.84685 -29.025619,-6.90035 -0.248636,-0.002 -0.496333,-0.002 -0.74104,0 z" />
    <path
       id="path462-1-5"
       style="fill:#f7dba7;fill-opacity:1;stroke:none;stroke-width:1.24152;stroke-opacity:1"
       d="m 55.106441,139.40088 c -3.11049,-0.0414 -6.289311,0.63826 -10.128581,2.16317 -7.678539,3.04984 -19.031396,9.40666 -19.031396,9.40666 0,0 -9.359427,10.73481 -28.0706383,6.9541 v 2.68149 H 209.0402 v -4.30981 c -4.39068,-1.22361 -9.14822,-3.01525 -14.28905,-5.56142 -11.57684,-5.73381 -21.25366,-7.7042 -29.03182,-7.76438 -15.92686,-0.12325 -23.89157,7.76438 -23.89157,7.76438 0,0 -17.64153,17.47445 -52.923382,0 -11.576852,-5.73381 -16.950134,-6.45223 -24.080184,-9.17102 -3.565025,-1.35939 -6.607263,-2.12179 -9.717753,-2.16317 z" />
  </g>
</svg>
